<svg width="1024" height="1024" viewBox="0 0 1024 1024" fill="none" xmlns="http://www.w3.org/2000/svg">
<rect width="1024" height="1024" fill="white"/>
<path d="M768.393 803H552.83V480.811C552.83 448.001 539.19 431.596 511.908 431.596C485.011 431.596 471.562 448.001 471.562 480.811V803H256V484.817C256 410.422 280.784 347.854 330.352 297.112C379.919 245.989 440.63 220.428 512.485 220.428C594.713 220.428 660.612 249.995 710.179 309.13C748.988 355.293 768.393 419.578 768.393 501.986V803Z" fill="#0565B5"/>
<path fill-rule="evenodd" clip-rule="evenodd" d="M552.83 480.35C552.83 449.764 540.977 433.435 517.27 431.361V220C597.273 221.129 661.577 250.685 710.179 308.668C748.988 354.832 768.392 419.117 768.392 501.524V802.539H552.83V480.35Z" fill="#F64277"/>
<ellipse cx="457.565" cy="336.968" rx="66.2794" ry="65.8082" fill="white"/>
<ellipse cx="425.367" cy="331.505" rx="29.4575" ry="29.2481" fill="#183153"/>
<ellipse cx="576.32" cy="336.968" rx="66.2794" ry="65.8082" fill="white"/>
<ellipse cx="543.521" cy="330.102" rx="29.4575" ry="29.2481" fill="#183153"/>
</svg>
