<svg width="144" height="144" viewBox="0 0 144 144" fill="none" xmlns="http://www.w3.org/2000/svg">
<rect width="144" height="144" fill="white"/>
<path d="M104.493 108.326H77.3612V67.8031C77.3612 63.6764 75.6443 61.6131 72.2104 61.6131C68.825 61.6131 67.1322 63.6764 67.1322 67.8031V108.326H40V68.307C40 58.9499 43.1195 51.0804 49.3584 44.6984C55.5974 38.2685 63.2389 35.0535 72.283 35.0535C82.6329 35.0535 90.9273 38.7723 97.1663 46.2099C102.051 52.0161 104.493 60.1016 104.493 70.4663V108.326Z" fill="#0565B5"/>
<path fill-rule="evenodd" clip-rule="evenodd" d="M77.3612 67.7454C77.3612 63.8985 75.8692 61.8447 72.8853 61.5838V34.9999C82.9551 35.142 91.0488 38.8594 97.1662 46.1522C102.051 51.9584 104.493 60.0438 104.493 70.4085V108.269H77.3612V67.7454Z" fill="#F64277"/>
<ellipse cx="65.3704" cy="49.7113" rx="8.34241" ry="8.277" fill="white"/>
<ellipse cx="61.3177" cy="49.0239" rx="3.70774" ry="3.67867" fill="#183153"/>
<ellipse cx="80.3177" cy="49.7111" rx="8.34241" ry="8.277" fill="white"/>
<ellipse cx="76.1894" cy="48.8479" rx="3.70774" ry="3.67867" fill="#183153"/>
</svg>
