<svg width="76" height="79" viewBox="0 0 76 79" fill="none" xmlns="http://www.w3.org/2000/svg">
<rect width="76" height="78.6389" fill="white"/>
<path d="M55.9638 58.7532H41.2546V36.7843C41.2546 34.5471 40.3238 33.4285 38.4622 33.4285C36.6269 33.4285 35.7092 34.5471 35.7092 36.7843V58.7532H21V37.0575C21 31.9848 22.6912 27.7185 26.0735 24.2586C29.4558 20.7727 33.5985 19.0298 38.5015 19.0298C44.1125 19.0298 48.6092 21.0459 51.9915 25.078C54.6397 28.2257 55.9638 32.6091 55.9638 38.2281V58.7532Z" fill="#0565B5"/>
<path fill-rule="evenodd" clip-rule="evenodd" d="M41.2546 36.7523C41.2546 34.6668 40.4458 33.5533 38.8281 33.4119V19C44.2873 19.077 48.6751 21.0923 51.9915 25.046C54.6397 28.1937 55.9638 32.577 55.9638 38.196V58.7211H41.2546V36.7523Z" fill="#F64277"/>
<ellipse cx="34.754" cy="26.975" rx="4.52266" ry="4.48721" fill="white"/>
<ellipse cx="32.5569" cy="26.6032" rx="2.01007" ry="1.99431" fill="#183153"/>
<ellipse cx="42.8574" cy="26.975" rx="4.52266" ry="4.48721" fill="white"/>
<ellipse cx="40.6193" cy="26.5073" rx="2.01007" ry="1.99431" fill="#183153"/>
</svg>
