<svg width="58" height="58" viewBox="0 0 58 58" fill="none" xmlns="http://www.w3.org/2000/svg">
<rect width="58" height="58" fill="white"/>
<path d="M41.4817 42.8334H31.1823V27.4508C31.1823 25.8843 30.5306 25.1011 29.2271 25.1011C27.9419 25.1011 27.2994 25.8843 27.2994 27.4508V42.8334H17V27.6421C17 24.0901 18.1842 21.1029 20.5525 18.6803C22.9208 16.2394 25.8215 15.019 29.2546 15.019C33.1834 15.019 36.332 16.4307 38.7003 19.254C40.5546 21.4581 41.4817 24.5273 41.4817 28.4617V42.8334Z" fill="#0565B5"/>
<path fill-rule="evenodd" clip-rule="evenodd" d="M31.1823 27.4302C31.1823 25.9699 30.6159 25.1902 29.4832 25.0912V15C33.3057 15.0539 36.3781 16.465 38.7003 19.2334C40.5545 21.4374 41.4817 24.5066 41.4817 28.4411V42.8127H31.1823V27.4302Z" fill="#F64277"/>
<ellipse cx="26.6306" cy="20.5843" rx="3.16677" ry="3.14195" fill="white"/>
<ellipse cx="25.0922" cy="20.3229" rx="1.40745" ry="1.39642" fill="#183153"/>
<ellipse cx="32.3045" cy="20.5843" rx="3.16677" ry="3.14195" fill="white"/>
<ellipse cx="30.7375" cy="20.2563" rx="1.40745" ry="1.39642" fill="#183153"/>
</svg>
