<svg width="167" height="167" viewBox="0 0 167 167" fill="none" xmlns="http://www.w3.org/2000/svg">
<rect width="167" height="167" fill="white"/>
<path d="M117 122.313H88.3926V79.5869C88.3926 75.2359 86.5823 73.0603 82.9618 73.0603C79.3922 73.0603 77.6074 75.2359 77.6074 79.5869V122.313H49V80.1182C49 70.2524 52.2891 61.955 58.8673 55.226C65.4454 48.4464 73.5024 45.0566 83.0382 45.0566C93.9509 45.0566 102.696 48.9777 109.274 56.8197C114.425 62.9416 117 71.4666 117 82.3949V122.313Z" fill="#0565B5"/>
<path fill-rule="evenodd" clip-rule="evenodd" d="M88.3926 79.5259C88.3926 75.4699 86.8195 73.3043 83.6733 73.0293V45.0001C94.2906 45.1498 102.824 49.0693 109.274 56.7587C114.425 62.8805 117 71.4056 117 82.3339V122.252H88.3926V79.5259Z" fill="#F64277"/>
<ellipse cx="75.7498" cy="60.5112" rx="8.79599" ry="8.72703" fill="white"/>
<ellipse cx="71.4768" cy="59.7869" rx="3.90933" ry="3.87868" fill="#183153"/>
<ellipse cx="91.5099" cy="60.5112" rx="8.79599" ry="8.72703" fill="white"/>
<ellipse cx="87.1571" cy="59.6008" rx="3.90933" ry="3.87868" fill="#183153"/>
</svg>
