<svg width="40" height="40" viewBox="0 0 40 40" fill="none" xmlns="http://www.w3.org/2000/svg">
<rect width="40" height="40" fill="white"/>
<path d="M28 29.192H21.2688V19.1387C21.2688 18.1149 20.8429 17.603 19.991 17.603C19.1511 17.603 18.7312 18.1149 18.7312 19.1387V29.192H12V19.2637C12 16.9423 12.7739 14.99 14.3217 13.4067C15.8695 11.8115 17.7653 11.0139 20.009 11.0139C22.5767 11.0139 24.6344 11.9365 26.1822 13.7817C27.3941 15.2221 28 17.228 28 19.7994V29.192Z" fill="#0565B5"/>
<path fill-rule="evenodd" clip-rule="evenodd" d="M21.2688 19.1237C21.2688 18.1694 20.8987 17.6598 20.1584 17.5951V11C22.6566 11.0352 24.6645 11.9575 26.1822 13.7667C27.394 15.2072 28 17.2131 28 19.7844V29.177H21.2688V19.1237Z" fill="#F64277"/>
<ellipse cx="18.2941" cy="14.6496" rx="2.06965" ry="2.05342" fill="white"/>
<ellipse cx="17.2886" cy="14.4795" rx="0.919842" ry="0.912631" fill="#183153"/>
<ellipse cx="22.0023" cy="14.6496" rx="2.06965" ry="2.05342" fill="white"/>
<ellipse cx="20.9781" cy="14.4356" rx="0.919842" ry="0.912631" fill="#183153"/>
</svg>
