<svg width="29" height="29" viewBox="0 0 29 29" fill="none" xmlns="http://www.w3.org/2000/svg">
<rect width="29" height="29" fill="white"/>
<path d="M20.3264 20.8783H15.5614V13.7615C15.5614 13.0368 15.2599 12.6744 14.6568 12.6744C14.0623 12.6744 13.765 13.0368 13.765 13.7615V20.8783H9V13.85C9 12.2067 9.54785 10.8247 10.6435 9.70387C11.7392 8.57463 13.0812 8.01001 14.6696 8.01001C16.4872 8.01001 17.9439 8.66311 19.0396 9.96932C19.8975 10.989 20.3264 12.409 20.3264 14.2293V20.8783Z" fill="#0565B5"/>
<path fill-rule="evenodd" clip-rule="evenodd" d="M15.5613 13.7508C15.5613 13.0752 15.2993 12.7145 14.7753 12.6687V7.99996C16.5438 8.02493 17.9652 8.67778 19.0395 9.95853C19.8974 10.9782 20.3263 12.3982 20.3263 14.2185V20.8675H15.5613V13.7508Z" fill="#F64277"/>
<ellipse cx="13.4555" cy="10.5837" rx="1.4651" ry="1.45362" fill="white"/>
<ellipse cx="12.7438" cy="10.4637" rx="0.651157" ry="0.646052" fill="#183153"/>
<ellipse cx="16.0806" cy="10.5837" rx="1.4651" ry="1.45362" fill="white"/>
<ellipse cx="15.3556" cy="10.4324" rx="0.651157" ry="0.646052" fill="#183153"/>
</svg>
