<svg width="100" height="100" viewBox="0 0 100 100" fill="none" xmlns="http://www.w3.org/2000/svg">
<rect width="100" height="100" fill="white"/>
<path d="M70.2046 73.8477H52.8699V47.9576C52.8699 45.321 51.773 44.0028 49.5791 44.0028C47.4162 44.0028 46.3347 45.321 46.3347 47.9576V73.8477H29V48.2795C29 42.3013 30.993 37.2735 34.9791 33.1961C38.9651 29.088 43.8473 27.0339 49.6255 27.0339C56.238 27.0339 61.5373 29.4099 65.5233 34.1618C68.6442 37.8713 70.2046 43.0371 70.2046 49.6591V73.8477Z" fill="#0565B5"/>
<path fill-rule="evenodd" clip-rule="evenodd" d="M52.87 47.9209C52.87 45.4632 51.9167 44.151 50.0103 43.9843V27C56.4439 27.0907 61.6149 29.4658 65.5233 34.1251C68.6442 37.8347 70.2046 43.0004 70.2046 49.6224V73.8111H52.87V47.9209Z" fill="#F64277"/>
<ellipse cx="45.209" cy="36.3987" rx="5.32994" ry="5.28815" fill="white"/>
<ellipse cx="42.6198" cy="35.9597" rx="2.36886" ry="2.35029" fill="#183153"/>
<ellipse cx="54.7589" cy="36.3987" rx="5.32994" ry="5.28815" fill="white"/>
<ellipse cx="52.1213" cy="35.8471" rx="2.36886" ry="2.35029" fill="#183153"/>
</svg>
