<svg width="50" height="50" viewBox="0 0 50 50" fill="none" xmlns="http://www.w3.org/2000/svg">
<rect width="50" height="50" fill="white"/>
<path d="M35.3613 37.286H26.3747V23.8641C26.3747 22.4972 25.806 21.8138 24.6686 21.8138C23.5473 21.8138 22.9866 22.4972 22.9866 23.8641V37.286H14V24.031C14 20.9317 15.0332 18.3252 17.0997 16.2114C19.1661 14.0817 21.6971 13.0168 24.6927 13.0168C28.1207 13.0168 30.868 14.2486 32.9344 16.7121C34.5523 18.6352 35.3613 21.3132 35.3613 24.7462V37.286Z" fill="#0565B5"/>
<path fill-rule="evenodd" clip-rule="evenodd" d="M26.3746 23.8458C26.3746 22.5717 25.8804 21.8914 24.8921 21.805V13C28.2274 13.047 30.9081 14.2783 32.9343 16.6938C34.5523 18.6169 35.3612 21.2949 35.3612 24.7279V37.2678H26.3746V23.8458Z" fill="#F64277"/>
<ellipse cx="22.4031" cy="17.8726" rx="2.76314" ry="2.74148" fill="white"/>
<ellipse cx="21.0607" cy="17.6445" rx="1.22806" ry="1.21844" fill="#183153"/>
<ellipse cx="27.3538" cy="17.8726" rx="2.76314" ry="2.74148" fill="white"/>
<ellipse cx="25.9864" cy="17.5864" rx="1.22806" ry="1.21844" fill="#183153"/>
</svg>
