<svg width="57" height="57" viewBox="0 0 57 57" fill="none" xmlns="http://www.w3.org/2000/svg">
<rect width="57" height="57" fill="white"/>
<path d="M40.0737 41.2328H30.3667V26.7349C30.3667 25.2585 29.7524 24.5203 28.5239 24.5203C27.3127 24.5203 26.7071 25.2585 26.7071 26.7349V41.2328H17V26.9151C17 23.5675 18.1161 20.752 20.3482 18.4687C22.5803 16.1683 25.3142 15.0181 28.5498 15.0181C32.2527 15.0181 35.2202 16.3485 37.4523 19.0095C39.1999 21.0868 40.0737 23.9795 40.0737 27.6877V41.2328Z" fill="#0565B5"/>
<path fill-rule="evenodd" clip-rule="evenodd" d="M30.3667 26.7153C30.3667 25.339 29.8329 24.6042 28.7653 24.5109V15C32.368 15.0508 35.2636 16.3808 37.4523 18.9899C39.1999 21.0672 40.0737 23.9599 40.0737 27.6681V41.2132H30.3667V26.7153Z" fill="#F64277"/>
<ellipse cx="26.0768" cy="20.2633" rx="2.98465" ry="2.96125" fill="white"/>
<ellipse cx="24.6268" cy="20.0168" rx="1.32651" ry="1.31611" fill="#183153"/>
<ellipse cx="31.4243" cy="20.2633" rx="2.98465" ry="2.96125" fill="white"/>
<ellipse cx="29.9474" cy="19.9541" rx="1.32651" ry="1.31611" fill="#183153"/>
</svg>
