<svg width="87" height="87" viewBox="0 0 87 87" fill="none" xmlns="http://www.w3.org/2000/svg">
<rect width="87" height="87" fill="white"/>
<path d="M62.8664 65.0524H46.9361V41.2598C46.9361 38.8368 45.9281 37.6254 43.9119 37.6254C41.9242 37.6254 40.9303 38.8368 40.9303 41.2598V65.0524H25V41.5556C25 36.0617 26.8316 31.4413 30.4947 27.6942C34.1578 23.9189 38.6444 22.0312 43.9545 22.0312C50.0313 22.0312 54.9013 24.2147 58.5644 28.5816C61.4324 31.9906 62.8664 36.7379 62.8664 42.8234V65.0524Z" fill="#0565B5"/>
<path fill-rule="evenodd" clip-rule="evenodd" d="M46.9361 41.226C46.9361 38.9674 46.0601 37.7615 44.3081 37.6083V22C50.2205 22.0834 54.9726 24.266 58.5644 28.5479C61.4324 31.9569 62.8664 36.7042 62.8664 42.7897V65.0187H46.9361V41.226Z" fill="#F64277"/>
<ellipse cx="39.8959" cy="30.6371" rx="4.89813" ry="4.85973" fill="white"/>
<ellipse cx="37.5164" cy="30.2336" rx="2.17695" ry="2.15988" fill="#183153"/>
<ellipse cx="48.672" cy="30.6371" rx="4.89813" ry="4.85973" fill="white"/>
<ellipse cx="46.2481" cy="30.1301" rx="2.17695" ry="2.15988" fill="#183153"/>
</svg>
