<svg width="180" height="187" viewBox="0 0 180 187" fill="none" xmlns="http://www.w3.org/2000/svg">
<rect width="180" height="186.25" fill="white"/>
<path d="M129.771 138.696H96.2113V88.5738C96.2113 83.4696 94.0877 80.9175 89.8405 80.9175C85.653 80.9175 83.5593 83.4696 83.5593 88.5738V138.696H50V89.197C50 77.6235 53.8584 67.8898 61.5753 59.9961C69.2921 52.043 78.7438 48.0664 89.9302 48.0664C102.732 48.0664 112.991 52.6661 120.708 61.8656C126.75 69.0472 129.771 79.0479 129.771 91.8678V138.696Z" fill="#0565B5"/>
<path fill-rule="evenodd" clip-rule="evenodd" d="M96.2113 88.5022C96.2113 83.7441 94.3659 81.2037 90.6751 80.881V48C103.13 48.1757 113.141 52.7737 120.708 61.794C126.75 68.9755 129.771 78.9763 129.771 91.7962V138.625H96.2113V88.5022Z" fill="#F64277"/>
<ellipse cx="81.3801" cy="66.1964" rx="10.3186" ry="10.2377" fill="white"/>
<ellipse cx="76.3675" cy="65.3465" rx="4.58603" ry="4.55007" fill="#183153"/>
<ellipse cx="99.8682" cy="66.1964" rx="10.3186" ry="10.2377" fill="white"/>
<ellipse cx="94.762" cy="65.1282" rx="4.58603" ry="4.55007" fill="#183153"/>
</svg>
