<svg width="152" height="157" viewBox="0 0 152 157" fill="none" xmlns="http://www.w3.org/2000/svg">
<rect width="152" height="157" fill="white"/>
<path d="M112.084 119.957H81.7585V74.664C81.7585 70.0516 79.8395 67.7454 76.0015 67.7454C72.2176 67.7454 70.3256 70.0516 70.3256 74.664V119.957H40V75.2272C40 64.7688 43.4866 55.9731 50.4599 48.84C57.4332 41.6532 65.9741 38.0598 76.0826 38.0598C87.6507 38.0598 96.9214 42.2163 103.895 50.5294C109.354 57.0189 112.084 66.056 112.084 77.6406V119.957Z" fill="#0565B5"/>
<path fill-rule="evenodd" clip-rule="evenodd" d="M81.7585 74.5995C81.7585 70.2999 80.0909 68.0043 76.7558 67.7127V38C88.0109 38.1587 97.0571 42.3137 103.895 50.4648C109.354 56.9544 112.084 65.9915 112.084 77.5761V119.892H81.7585V74.5995Z" fill="#F64277"/>
<ellipse cx="68.3564" cy="54.4426" rx="9.32429" ry="9.25119" fill="white"/>
<ellipse cx="63.8268" cy="53.6746" rx="4.14413" ry="4.11164" fill="#183153"/>
<ellipse cx="85.0631" cy="54.4426" rx="9.32429" ry="9.25119" fill="white"/>
<ellipse cx="80.4488" cy="53.4776" rx="4.14413" ry="4.11164" fill="#183153"/>
</svg>
