<svg width="72" height="72" viewBox="0 0 72 72" fill="none" xmlns="http://www.w3.org/2000/svg">
<rect width="72" height="72" fill="white"/>
<path d="M52.9636 54.4781H39.0959V33.766C39.0959 31.6568 38.2184 30.6022 36.4633 30.6022C34.7329 30.6022 33.8677 31.6568 33.8677 33.766V54.4781H20V34.0235C20 29.241 21.5944 25.2187 24.7833 21.9568C27.9721 18.6703 31.8778 17.0271 36.5004 17.0271C41.7904 17.0271 46.0298 18.9279 49.2186 22.7294C51.7153 25.697 52.9636 29.8296 52.9636 35.1272V54.4781Z" fill="#0565B5"/>
<path fill-rule="evenodd" clip-rule="evenodd" d="M39.0959 33.7367C39.0959 31.7705 38.3333 30.7208 36.8082 30.5874V17C41.9551 17.0726 46.0919 18.9726 49.2186 22.7001C51.7153 25.6677 52.9636 29.8003 52.9636 35.0979V54.4488H39.0959V33.7367Z" fill="#F64277"/>
<ellipse cx="32.9672" cy="24.5188" rx="4.26394" ry="4.23051" fill="white"/>
<ellipse cx="30.8958" cy="24.1676" rx="1.89508" ry="1.88023" fill="#183153"/>
<ellipse cx="40.607" cy="24.5188" rx="4.26394" ry="4.23051" fill="white"/>
<ellipse cx="38.497" cy="24.0775" rx="1.89508" ry="1.88023" fill="#183153"/>
</svg>
