<svg width="40" height="40" viewBox="0 0 40 40" fill="none" xmlns="http://www.w3.org/2000/svg">
<rect width="40" height="40" fill="white"/>
<path d="M26.79 27.6785H20.9886V19.0138C20.9886 18.1314 20.6215 17.6902 19.8872 17.6902C19.1634 17.6902 18.8014 18.1314 18.8014 19.0138V27.6785H13V19.1215C13 17.1208 13.667 15.4381 15.001 14.0735C16.335 12.6987 17.969 12.0112 19.9028 12.0112C22.1158 12.0112 23.8893 12.8064 25.2233 14.3967C26.2678 15.6382 26.79 17.367 26.79 19.5832V27.6785Z" fill="#0565B5"/>
<path fill-rule="evenodd" clip-rule="evenodd" d="M20.9885 19.0015C20.9885 18.179 20.6695 17.7399 20.0316 17.684V11.9998C22.1847 12.0302 23.9152 12.8251 25.2232 14.3844C26.2677 15.6259 26.7899 17.3547 26.7899 19.5709V27.6662H20.9885V19.0015Z" fill="#F64277"/>
<ellipse cx="18.4246" cy="15.1453" rx="1.78378" ry="1.76979" fill="white"/>
<ellipse cx="17.558" cy="14.9985" rx="0.792789" ry="0.786574" fill="#183153"/>
<ellipse cx="21.6207" cy="15.1453" rx="1.78378" ry="1.76979" fill="white"/>
<ellipse cx="20.7379" cy="14.9606" rx="0.792789" ry="0.786574" fill="#183153"/>
</svg>
