<svg width="114" height="114" viewBox="0 0 114 114" fill="none" xmlns="http://www.w3.org/2000/svg">
<rect width="114" height="114" fill="white"/>
<path d="M84.0479 88.5871H60.8894V53.9989C60.8894 50.4766 59.4239 48.7154 56.493 48.7154C53.6033 48.7154 52.1585 50.4766 52.1585 53.9989V88.5871H29V54.4289C29 46.4423 31.6626 39.7253 36.9878 34.278C42.313 28.7898 48.8354 26.0457 56.5549 26.0457C65.389 26.0457 72.4686 29.2198 77.7938 35.5682C81.9632 40.524 84.0479 47.4253 84.0479 56.272V88.5871Z" fill="#0565B5"/>
<path fill-rule="evenodd" clip-rule="evenodd" d="M60.8894 53.9496C60.8894 50.6661 59.6159 48.9131 57.069 48.6904V26C65.664 26.1212 72.5723 29.2942 77.7938 35.5189C81.9632 40.4747 84.0479 47.376 84.0479 56.2227V88.5379H60.8894V53.9496Z" fill="#F64277"/>
<ellipse cx="50.6547" cy="38.5567" rx="7.1206" ry="7.06477" fill="white"/>
<ellipse cx="47.1955" cy="37.9702" rx="3.16471" ry="3.1399" fill="#183153"/>
<ellipse cx="63.4129" cy="38.5567" rx="7.1206" ry="7.06477" fill="white"/>
<ellipse cx="59.8892" cy="37.8196" rx="3.16471" ry="3.1399" fill="#183153"/>
</svg>
