<svg width="80" height="80" viewBox="0 0 80 80" fill="none" xmlns="http://www.w3.org/2000/svg">
<g clip-path="url(#clip0_510_2161)">
<rect width="80" height="80" fill="white"/>
<path d="M59.8432 62.1636H43.502V37.7572C43.502 35.2718 42.4679 34.0291 40.3998 34.0291C38.3607 34.0291 37.3412 35.2718 37.3412 37.7572V62.1636H21V38.0607C21 32.4251 22.8788 27.6855 26.6364 23.8417C30.394 19.969 34.9964 18.0327 40.4435 18.0327C46.677 18.0327 51.6726 20.2725 55.4302 24.7521C58.3722 28.249 59.8432 33.1187 59.8432 39.3612V62.1636Z" fill="#0565B5"/>
<path fill-rule="evenodd" clip-rule="evenodd" d="M43.502 37.722C43.502 35.4051 42.6034 34.1681 40.8062 34.011V18C46.8711 18.0855 51.7458 20.3245 55.4302 24.7168C58.3722 28.2137 59.8432 33.0835 59.8432 39.3259V62.1284H43.502V37.722Z" fill="#F64277"/>
<ellipse cx="36.2801" cy="26.8598" rx="5.02448" ry="4.98509" fill="white"/>
<ellipse cx="33.8392" cy="26.4466" rx="2.2331" ry="2.2156" fill="#183153"/>
<ellipse cx="45.2826" cy="26.8598" rx="5.02448" ry="4.98509" fill="white"/>
<ellipse cx="42.7962" cy="26.3401" rx="2.2331" ry="2.2156" fill="#183153"/>
</g>
<defs>
<clipPath id="clip0_510_2161">
<rect width="80" height="80" fill="white"/>
</clipPath>
</defs>
</svg>
