<svg width="60" height="63" viewBox="0 0 60 63" fill="none" xmlns="http://www.w3.org/2000/svg">
<rect width="60" height="62.0833" fill="white"/>
<path d="M41.7225 43.8333H32.1632V29.556C32.1632 28.1021 31.5583 27.3751 30.3485 27.3751C29.1557 27.3751 28.5593 28.1021 28.5593 29.556V43.8333H19V29.7336C19 26.4368 20.0991 23.6642 22.2972 21.4157C24.4953 19.1503 27.1876 18.0176 30.374 18.0176C34.0205 18.0176 36.9429 19.3278 39.141 21.9483C40.862 23.9939 41.7225 26.8426 41.7225 30.4943V43.8333Z" fill="#0565B5"/>
<path fill-rule="evenodd" clip-rule="evenodd" d="M32.1632 29.537C32.1632 28.1816 31.6375 27.458 30.5862 27.3661V18C34.1341 18.05 36.9856 19.3598 39.141 21.9292C40.862 23.9748 41.7225 26.8235 41.7225 30.4753V43.8142H32.1632V29.537Z" fill="#F64277"/>
<ellipse cx="27.9386" cy="23.183" rx="2.93922" ry="2.91618" fill="white"/>
<ellipse cx="26.5107" cy="22.9404" rx="1.30632" ry="1.29608" fill="#183153"/>
<ellipse cx="33.2048" cy="23.183" rx="2.93922" ry="2.91618" fill="white"/>
<ellipse cx="31.7504" cy="22.8786" rx="1.30632" ry="1.29608" fill="#183153"/>
</svg>
