<svg width="20" height="20" viewBox="0 0 20 20" fill="none" xmlns="http://www.w3.org/2000/svg">
<rect width="20" height="20" fill="white"/>
<path d="M14 14.0964H10.6344V9.06971C10.6344 8.55782 10.4214 8.30188 9.9955 8.30188C9.57555 8.30188 9.36558 8.55782 9.36558 9.06971V14.0964H6V9.13221C6 7.97153 6.38695 6.99536 7.16085 6.20372C7.93476 5.40612 8.88264 5.00732 10.0045 5.00732C11.2883 5.00732 12.3172 5.46862 13.0911 6.39121C13.697 7.11143 14 8.11438 14 9.40006V14.0964Z" fill="#0565B5"/>
<path fill-rule="evenodd" clip-rule="evenodd" d="M10.6343 9.06186C10.6343 8.58471 10.4493 8.32995 10.0792 8.29756V5C11.3283 5.01763 12.3322 5.47875 13.091 6.38336C13.697 7.10358 13.9999 8.10653 13.9999 9.39221V14.0885H10.6343V9.06186Z" fill="#F64277"/>
<ellipse cx="9.14701" cy="6.82505" rx="1.03482" ry="1.02671" fill="white"/>
<ellipse cx="8.6443" cy="6.74098" rx="0.459921" ry="0.456315" fill="#183153"/>
<ellipse cx="11.0012" cy="6.82505" rx="1.03482" ry="1.02671" fill="white"/>
<ellipse cx="10.489" cy="6.71852" rx="0.459921" ry="0.456315" fill="#183153"/>
</svg>
