<svg width="120" height="125" viewBox="0 0 120 125" fill="none" xmlns="http://www.w3.org/2000/svg">
<rect width="120" height="124.167" fill="white"/>
<path d="M89.4456 95.5872H64.437V58.2357C64.437 54.432 62.8544 52.5301 59.6893 52.5301C56.5688 52.5301 55.0086 54.432 55.0086 58.2357V95.5872H30V58.7001C30 50.0754 32.8753 42.8218 38.626 36.9394C44.3766 31.0127 51.42 28.0493 59.7562 28.0493C69.296 28.0493 76.9413 31.4771 82.6919 38.3326C87.1943 43.6843 89.4456 51.1369 89.4456 60.6904V95.5872Z" fill="#0565B5"/>
<path fill-rule="evenodd" clip-rule="evenodd" d="M64.437 58.1825C64.437 54.6367 63.0618 52.7436 60.3113 52.5031V28C69.593 28.1309 77.0532 31.5574 82.6919 38.2794C87.1943 43.6311 89.4455 51.0837 89.4455 60.6372V95.5339H64.437V58.1825Z" fill="#F64277"/>
<ellipse cx="53.3846" cy="41.5598" rx="7.68945" ry="7.62917" fill="white"/>
<ellipse cx="49.6491" cy="40.9264" rx="3.41753" ry="3.39074" fill="#183153"/>
<ellipse cx="67.1621" cy="41.5598" rx="7.68945" ry="7.62917" fill="white"/>
<ellipse cx="63.3569" cy="40.7638" rx="3.41753" ry="3.39074" fill="#183153"/>
</svg>
