<svg width="167" height="167" viewBox="0 0 167 167" fill="none" xmlns="http://www.w3.org/2000/svg">
<rect width="167" height="167" fill="white"/>
<path d="M117 122.313H88.3926V79.5867C88.3926 75.2356 86.5823 73.0601 82.9618 73.0601C79.3922 73.0601 77.6074 75.2356 77.6074 79.5867V122.313H49V80.1179C49 70.2521 52.2891 61.9547 58.8673 55.2258C65.4454 48.4462 73.5024 45.0564 83.0382 45.0564C93.9509 45.0564 102.696 48.9774 109.274 56.8195C114.425 62.9413 117 71.4664 117 82.3946V122.313Z" fill="#0565B5"/>
<path fill-rule="evenodd" clip-rule="evenodd" d="M88.3926 79.5259C88.3926 75.4699 86.8195 73.3043 83.6733 73.0293V45.0001C94.2907 45.1498 102.824 49.0693 109.274 56.7587C114.425 62.8805 117 71.4056 117 82.3339V122.252H88.3926V79.5259Z" fill="#F64277"/>
<ellipse cx="75.7498" cy="60.511" rx="8.79599" ry="8.72703" fill="white"/>
<ellipse cx="71.4768" cy="59.7864" rx="3.90933" ry="3.87868" fill="#183153"/>
<ellipse cx="91.5098" cy="60.511" rx="8.79599" ry="8.72703" fill="white"/>
<ellipse cx="87.1571" cy="59.6006" rx="3.90933" ry="3.87868" fill="#183153"/>
</svg>
