<svg width="824" height="824" viewBox="0 0 824 824" fill="none" xmlns="http://www.w3.org/2000/svg">
<rect width="824" height="824" fill="white"/>
<path d="M619.035 647.742H444.851V387.592C444.851 361.099 433.829 347.853 411.785 347.853C390.05 347.853 379.183 361.099 379.183 387.592V647.742H205V390.826C205 330.756 225.026 280.235 265.079 239.264C305.132 197.985 354.189 177.345 412.25 177.345C478.695 177.345 531.943 201.22 571.996 248.968C603.355 286.242 619.035 338.149 619.035 404.689V647.742Z" fill="#0565B5"/>
<path fill-rule="evenodd" clip-rule="evenodd" d="M444.851 387.219C444.851 362.523 435.273 349.338 416.117 347.663V177C480.763 177.912 532.723 201.777 571.996 248.595C603.355 285.87 619.035 337.777 619.035 404.316V647.37H444.851V387.219Z" fill="#F64277"/>
<ellipse cx="367.873" cy="271.446" rx="53.5566" ry="53.1367" fill="white"/>
<ellipse cx="341.856" cy="267.034" rx="23.8029" ry="23.6163" fill="#183153"/>
<ellipse cx="463.832" cy="271.446" rx="53.5566" ry="53.1367" fill="white"/>
<ellipse cx="437.329" cy="265.901" rx="23.8029" ry="23.6163" fill="#183153"/>
</svg>
