<svg width="20" height="20" viewBox="0 0 20 20" fill="none" xmlns="http://www.w3.org/2000/svg">
<path d="M17.5 17.5L14.1667 14.1667M6.66667 9.16667H11.6667M9.16667 11.6667V6.66667M15.8333 9.16667C15.8333 10.9348 15.131 12.6305 13.8807 13.8807C12.6305 15.131 10.9348 15.8333 9.16667 15.8333C7.39856 15.8333 5.70286 15.131 4.45262 13.8807C3.20238 12.6305 2.5 10.9348 2.5 9.16667C2.5 7.39856 3.20238 5.70286 4.45262 4.45262C5.70286 3.20238 7.39856 2.5 9.16667 2.5C10.9348 2.5 12.6305 3.20238 13.8807 4.45262C15.131 5.70286 15.8333 7.39856 15.8333 9.16667Z" stroke="#183153" stroke-width="1.5" stroke-miterlimit="10" stroke-linecap="round" stroke-linejoin="round"/>
</svg>
