<svg width="20" height="20" viewBox="0 0 20 20" fill="none" xmlns="http://www.w3.org/2000/svg">
<path d="M6.6665 6.66667H13.3332M6.6665 9.16667H13.3332M15.8332 13.3333H13.729C13.6048 13.3334 13.4822 13.3616 13.3703 13.4157C13.2585 13.4698 13.1603 13.5485 13.0832 13.6458L10.6457 16.6875C10.3123 17.1042 9.67734 17.1042 9.344 16.6875L6.9065 13.6458C6.82924 13.5484 6.73094 13.4696 6.61896 13.4155C6.50698 13.3614 6.38421 13.3333 6.25984 13.3333H4.1665C2.7815 13.3333 1.6665 12.2183 1.6665 10.8333V5C1.6665 3.615 2.7815 2.5 4.1665 2.5H15.8332C17.219 2.5 18.3332 3.615 18.3332 5V10.8333C18.3332 12.2183 17.219 13.3333 15.8332 13.3333Z" stroke="#183153" stroke-width="1.5" stroke-miterlimit="10" stroke-linecap="round" stroke-linejoin="round"/>
</svg>
