<?xml version="1.0" encoding="utf-8"?>
<!-- Generator: Adobe Illustrator 28.2.0, SVG Export Plug-In . SVG Version: 6.00 Build 0)  -->
<svg version="1.1" id="レイヤー_1" xmlns="http://www.w3.org/2000/svg" xmlns:xlink="http://www.w3.org/1999/xlink" x="0px"
	 y="0px" viewBox="0 0 33 51" style="enable-background:new 0 0 33 51;" xml:space="preserve">
<style type="text/css">
	.st0{fill:#1CC1BF;fill-opacity:0.3;}
	.st1{fill:#1CC1BF;}
	.st2{fill:#FFFFFF;}
	.st3{fill:#183153;}
</style>
<path class="st0" d="M28.6,25.5c2.7,10.2-1.5,18.2-12.4,21.1c-10.8,2.8-8-11.9-10.7-22.1C2.9,14.3-4.3,4.9,6.5,2.1
	C17.4-0.8,26,15.3,28.6,25.5z"/>
<path class="st1" d="M31.5,26.5c2.7,10.2-1.5,18.2-12.4,21.1c-10.8,2.8-8-11.9-10.7-22.1s-9.8-19.6,1-22.4
	C20.3,0.2,28.9,16.3,31.5,26.5z"/>
<circle class="st2" cx="18" cy="5.6" r="3.8"/>
<circle class="st3" cx="18.1" cy="7.4" r="1.7"/>
<circle class="st2" cx="11.3" cy="5.9" r="3.8"/>
<circle class="st3" cx="11.4" cy="7.4" r="1.7"/>
</svg>
