<svg width="18" height="23" viewBox="0 0 18 23" fill="none" xmlns="http://www.w3.org/2000/svg">
<path d="M0.682373 0.98584H2.31611L2.31611 22.6715L1.84933 22.8358L1.49924 23.0001L1.03246 22.8358L0.682373 22.6715L0.682373 0.98584Z" fill="#FFE37D"/>
<path d="M1.82611 13.8H2.15286L2.15286 22.552L1.82611 22.6715L1.98948 18.2357L1.82611 13.8Z" fill="#EEC975"/>
<path d="M0.682373 2.62854L5.91034 3.1214H11.7918L18 2.62854V13.7999L11.7918 14.4571L5.42021 14.2928L0.682373 13.7999L0.682373 2.62854Z" fill="#FCC800"/>
<path d="M2.55315 10.8897L2.67978 6.92333L2.74309 4.94017L2.80641 3.61415L2.55315 3.61415L1.49941 3.61415L0.682545 3.12129L2.80641 2.95701L3.82819 3.08811L2.55315 10.8897Z" fill="#F7A245"/>
<ellipse cx="1.66297" cy="1.64285" rx="1.63374" ry="1.64285" fill="#FFE37D"/>
<ellipse cx="1.63014" cy="0.492856" rx="0.490122" ry="0.492856" fill="#FBEFBA"/>
<path d="M12.854 11.7952L14.7328 7.06426L15.2229 3.00597L17.8369 2.79285V13.6357L11.792 14.2928L12.854 11.7952Z" fill="#F7A245" fill-opacity="0.8"/>
</svg>
