<svg width="24" height="24" viewBox="0 0 24 24" fill="none" xmlns="http://www.w3.org/2000/svg">
<rect x="8" y="1" width="8" height="4" fill="#F64277" fill-opacity="0.7"/>
<path d="M16 3H18.6C19.2365 3 19.847 3.25286 20.2971 3.70294C20.7471 4.15303 21 4.76348 21 5.4V20.6C21 21.2365 20.7471 21.847 20.2971 22.2971C19.847 22.7471 19.2365 23 18.6 23H5.4C5.08483 23 4.77274 22.9379 4.48156 22.8173C4.19038 22.6967 3.9258 22.5199 3.70294 22.2971C3.25286 21.847 3 21.2365 3 20.6V5.4C3 5.08483 3.06208 4.77274 3.18269 4.48156C3.3033 4.19038 3.48008 3.9258 3.70294 3.70294C4.15303 3.25286 4.76348 3 5.4 3H8M8 14L11 17L16 10M8.8 1H15.2C15.4122 1 15.6157 1.08429 15.7657 1.23431C15.9157 1.38434 16 1.58783 16 1.8V4.2C16 4.41217 15.9157 4.61566 15.7657 4.76569C15.6157 4.91571 15.4122 5 15.2 5H8.8C8.58783 5 8.38434 4.91571 8.23431 4.76569C8.08429 4.61566 8 4.41217 8 4.2V1.8C8 1.58783 8.08429 1.38434 8.23431 1.23431C8.38434 1.08429 8.58783 1 8.8 1Z" stroke="#183153" stroke-width="1.5" stroke-linecap="round" stroke-linejoin="round"/>
</svg>
