<svg width="20" height="20" viewBox="0 0 20 20" fill="none" xmlns="http://www.w3.org/2000/svg">
<path d="M13.3333 2.5H15.5C16.0304 2.5 16.5391 2.71072 16.9142 3.08579C17.2893 3.46086 17.5 3.96957 17.5 4.5V17.1667C17.5 17.6971 17.2893 18.2058 16.9142 18.5809C16.5391 18.956 16.0304 19.1667 15.5 19.1667H4.5C4.23736 19.1667 3.97728 19.1149 3.73463 19.0144C3.49198 18.9139 3.2715 18.7666 3.08579 18.5809C2.71071 18.2058 2.5 17.6971 2.5 17.1667V4.5C2.5 4.23736 2.55173 3.97729 2.65224 3.73464C2.75275 3.49198 2.90007 3.27151 3.08579 3.08579C3.46086 2.71072 3.96957 2.5 4.5 2.5H6.66667M6.66667 11.6667L9.16667 14.1667L13.3333 8.33334M7.33333 0.833336H12.6667C12.8435 0.833336 13.013 0.903574 13.1381 1.0286C13.2631 1.15362 13.3333 1.32319 13.3333 1.5V3.5C13.3333 3.67681 13.2631 3.84638 13.1381 3.97141C13.013 4.09643 12.8435 4.16667 12.6667 4.16667H7.33333C7.15652 4.16667 6.98695 4.09643 6.86193 3.97141C6.7369 3.84638 6.66667 3.67681 6.66667 3.5V1.5C6.66667 1.32319 6.7369 1.15362 6.86193 1.0286C6.98695 0.903574 7.15652 0.833336 7.33333 0.833336Z" stroke="#183153" stroke-width="1.5" stroke-linecap="round" stroke-linejoin="round"/>
</svg>
