<svg width="24" height="24" viewBox="0 0 24 24" fill="none" xmlns="http://www.w3.org/2000/svg">
<rect x="8" y="3" width="8" height="3" fill="#FCC800" fill-opacity="0.7"/>
<path d="M7 14H17M7 11H17M7 17H13M16 3V5.2C16 5.41217 15.9157 5.61566 15.7657 5.76569C15.6157 5.91571 15.4122 6 15.2 6H8.8C8.58783 6 8.38434 5.91571 8.23431 5.76569C8.08429 5.61566 8 5.41217 8 5.2V3M10 3C10 2.46957 10.2107 1.96086 10.5858 1.58579C10.9609 1.21071 11.4696 1 12 1C12.5304 1 13.0391 1.21071 13.4142 1.58579C13.7893 1.96086 14 2.46957 14 3M5.4 3H18.6C19.2365 3 19.847 3.25286 20.2971 3.70294C20.7471 4.15303 21 4.76348 21 5.4V20.6C21 21.2365 20.7471 21.847 20.2971 22.2971C19.847 22.7471 19.2365 23 18.6 23H5.4C5.08483 23 4.77274 22.9379 4.48156 22.8173C4.19038 22.6967 3.9258 22.5199 3.70294 22.2971C3.25286 21.847 3 21.2365 3 20.6V5.4C3 5.08483 3.06208 4.77274 3.18269 4.48156C3.3033 4.19038 3.48008 3.9258 3.70294 3.70294C4.15303 3.25286 4.76348 3 5.4 3Z" stroke="#183153" stroke-width="1.5" stroke-miterlimit="10" stroke-linecap="round" stroke-linejoin="round"/>
</svg>
