<?xml version="1.0" encoding="utf-8"?>
<!-- Generator: Adobe Illustrator 28.2.0, SVG Export Plug-In . SVG Version: 6.00 Build 0)  -->
<svg version="1.1" id="レイヤー_1" xmlns="http://www.w3.org/2000/svg" xmlns:xlink="http://www.w3.org/1999/xlink" x="0px"
	 y="0px" viewBox="0 0 47.3 50.1" style="enable-background:new 0 0 47.3 50.1;" xml:space="preserve">
<style type="text/css">
	.st0{fill:#F0528D;fill-opacity:0.3;}
	.st1{fill:#F0528D;}
	.st2{fill:#FFFFFF;}
	.st3{fill:#183153;}
</style>
<path class="st0" d="M24.7,42.2c-4.9,4.9-13.3,2.7-15.1-4L3.3,14.4c-1.8-6.7,4.3-12.8,11-11L38,9.7c6.7,1.8,8.9,10.2,4,15.1
	L24.7,42.2z"/>
<path class="st1" d="M23.9,45c-4.9,4.9-13.3,2.7-15.1-4L2.5,17.2c-1.8-6.7,4.3-12.8,11-11l23.7,6.4c6.7,1.8,8.9,10.2,4,15.1L23.9,45
	z"/>
<circle class="st2" cx="13.9" cy="10.7" r="3.8"/>
<circle class="st3" cx="14" cy="12.6" r="1.7"/>
<circle class="st2" cx="20.6" cy="10.7" r="3.8"/>
<circle class="st3" cx="20.7" cy="12.6" r="1.7"/>
</svg>
