<svg width="33" height="39" viewBox="0 0 33 39" fill="none" xmlns="http://www.w3.org/2000/svg">
<path d="M31.5191 22.9745C32.3406 30.7216 28.3801 36.1017 20.1196 36.9776C11.8592 37.8535 3.44441 35.5658 2.62295 27.8188C1.80148 20.0717 9.69767 4.26137 17.9581 3.38547C26.2186 2.50956 30.6977 15.2275 31.5191 22.9745Z" fill="#C0E6ED"/>
<path d="M31.2877 20.7933C32.1091 28.5403 28.1487 33.9204 19.8882 34.7963C11.6277 35.6722 3.21297 33.3845 2.3915 25.6375C1.57003 17.8904 9.46622 2.0801 17.7267 1.20419C25.9871 0.328285 30.4662 13.0462 31.2877 20.7933Z" fill="#6EC8DA"/>
<circle cx="15.0718" cy="8.35272" r="2.74314" transform="rotate(5.58034 15.0718 8.35272)" fill="white"/>
<circle cx="13.5846" cy="7.90116" r="1.21917" transform="rotate(5.58034 13.5846 7.90116)" fill="#183153"/>
<circle cx="19.9253" cy="8.82696" r="2.74314" transform="rotate(5.58034 19.9253 8.82696)" fill="white"/>
<circle cx="18.4381" cy="8.37528" r="1.21917" transform="rotate(5.58034 18.4381 8.37528)" fill="#183153"/>
</svg>
