<svg width="191" height="86" viewBox="0 0 191 86" fill="none" xmlns="http://www.w3.org/2000/svg">
<path d="M46.2537 30.8361C45.3663 30.565 44.9626 29.7604 44.4483 29.057C43.338 27.5386 41.9434 26.2316 40.6193 24.9037C38.3834 22.6613 36.4866 20.2723 33.9548 18.3713C30.2541 15.5926 26.0204 11.0774 20.8192 13.6555C18.2258 14.941 17.4228 20.9297 17.7359 23.515C18.3081 28.2388 20.5614 32.785 23.1582 36.6518C23.4715 37.1184 21.2897 34.5506 20.593 34.0117C18.699 32.5467 17.5744 30.4705 15.7451 29.0047C14.407 27.9325 9.19602 25.1657 8.64512 27.9188C8.41418 29.0729 7.88532 30.4478 7.98637 31.6073C8.21065 34.1807 9.51296 36.0537 10.4652 38.3458C10.8135 39.1844 7.88114 37.4434 7.45584 37.2317C5.62119 36.3182 4.44183 34.5035 2.95601 33.1608" stroke="#E45747" stroke-width="4" stroke-linecap="round"/>
<path d="M77.2937 51.6833C75.4817 61.9174 68.4352 67.3526 57.5592 65.427C46.6832 63.5013 55.257 51.4337 57.069 41.1996C58.8809 30.9655 56.3292 19.6418 67.2052 21.5674C78.0811 23.493 79.1056 41.4492 77.2937 51.6833Z" fill="#1CC1BF" fill-opacity="0.3"/>
<path d="M78.9919 52.4658C77.1799 62.6999 70.1334 68.1351 59.2574 66.2095C48.3815 64.2839 56.9553 52.2162 58.7672 41.9821C60.5792 31.748 58.0274 20.4243 68.9034 22.35C79.7794 24.2756 80.8039 42.2317 78.9919 52.4658Z" fill="#1CC1BF"/>
<circle cx="64.8875" cy="31.0413" r="3.69514" fill="white"/>
<circle cx="62.8347" cy="30.6307" r="1.64228" fill="#183153"/>
<circle cx="71.4569" cy="31.0413" r="3.69514" fill="white"/>
<circle cx="69.404" cy="30.6307" r="1.64228" fill="#183153"/>
<path fill-rule="evenodd" clip-rule="evenodd" d="M46.1913 30.5844L45.8839 30.8085L44.1887 32.0499C44.1887 32.0499 43.856 32.2464 44.2537 32.7324C44.246 32.7746 52.0853 45.0582 56.6954 50.7107L60.0535 48.185L60.3578 47.9565L63.6975 45.4444C59.1124 39.8217 48.6045 29.5831 48.5606 29.5794C48.1648 29.0956 47.8812 29.348 47.8812 29.348L46.1913 30.5844Z" fill="#E3E3E3"/>
<path fill-rule="evenodd" clip-rule="evenodd" d="M41.6936 29.0001C41.6383 29.0397 41.6006 29.0932 41.5792 29.1501L44.0348 32.1614L44.3423 31.9359L41.8535 28.8837L41.6936 29.0001ZM44.6519 31.7105L44.96 31.4857L42.4705 28.4343L42.1609 28.6596L44.6519 31.7105ZM45.2675 31.2602L45.5758 31.0341L43.0889 27.9842L42.7793 28.2095L45.2675 31.2602ZM45.8833 30.8085L46.1907 30.5844L43.703 27.5352L43.3956 27.7593L45.8833 30.8085ZM46.4996 30.3583L46.8056 30.134L44.322 27.0858L44.0145 27.3113L46.4996 30.3583ZM47.1125 29.9078L47.4205 29.6844L44.9368 26.6382L44.6294 26.8624L47.1125 29.9078ZM47.7266 29.4601L48.034 29.2359L45.5854 26.2308C45.5192 26.237 45.4579 26.2587 45.4027 26.2983L45.2449 26.4141L47.7266 29.4601Z" fill="#CCCCCC"/>
<path fill-rule="evenodd" clip-rule="evenodd" d="M56.6944 50.7107L57.3168 51.4738C57.73 51.9805 58.4757 52.0819 58.9819 51.6998L64.1501 47.8C64.6526 47.421 64.7264 46.7075 64.315 46.203L63.6964 45.4444L56.6944 50.7107Z" fill="#CDCCCC"/>
<path fill-rule="evenodd" clip-rule="evenodd" d="M46.0607 35.5558C47.5735 37.8811 49.8445 41.3081 52.1149 44.5456L55.5827 42.0614C54.8938 38.6167 52.9583 33.9071 50.9773 31.9409L46.0607 35.5558Z" fill="#E45747"/>
<path fill-rule="evenodd" clip-rule="evenodd" d="M51.6528 34.0628C51.2104 33.5137 50.7896 32.9913 50.4155 32.4163L50.9772 31.9409C52.9582 33.9072 55.8686 36.8396 58.5854 39.723L55.5826 42.0614C54.5454 37.6536 52.9992 35.7342 51.6528 34.0628Z" fill="#E5331E"/>
<rect x="48.8273" y="38.1599" width="5.25607" height="2.50878" rx="1.15" transform="rotate(-37.4796 48.8273 38.1599)" fill="#FBF6F0" stroke="#E3E3E3" stroke-width="0.3"/>
<path d="M128.265 48.5743C129.371 59.0099 124.036 66.2571 112.909 67.437C101.782 68.6169 90.4467 65.5353 89.3401 55.0997C88.2336 44.664 98.8701 23.3668 109.997 22.1869C121.125 21.007 127.158 38.1386 128.265 48.5743Z" fill="#C0E6ED"/>
<path d="M127.953 45.6361C129.06 56.0717 123.725 63.319 112.597 64.4988C101.47 65.6787 90.1351 62.5971 89.0286 52.1615C87.922 41.7259 98.5586 20.4286 109.686 19.2487C120.813 18.0688 126.847 35.2005 127.953 45.6361Z" fill="#6EC8DA"/>
<circle cx="106.109" cy="28.8781" r="3.69514" transform="rotate(5.58034 106.109 28.8781)" fill="white"/>
<circle cx="104.106" cy="28.2699" r="1.64228" transform="rotate(5.58034 104.106 28.2699)" fill="#183153"/>
<circle cx="112.647" cy="29.5169" r="3.69514" transform="rotate(5.58034 112.647 29.5169)" fill="white"/>
<circle cx="110.644" cy="28.9086" r="1.64228" transform="rotate(5.58034 110.644 28.9086)" fill="#183153"/>
<path d="M78.2413 15.6784C77.963 15.3229 75.6832 14.8936 74.8833 10.1767C74.7642 9.47423 74.591 8.89845 74.2628 8.23692C74.2628 8.23692 79.0886 10.1621 80.0863 12.2173C81.0845 14.2729 80.5423 14.3806 79.8476 14.89C79.1531 15.3999 78.2406 15.6776 78.2406 15.6776L78.2413 15.6784Z" fill="white"/>
<path d="M74.8837 10.1772C75.0159 10.9576 75.1889 11.6197 75.3866 12.1846C75.9932 11.7158 76.2476 11.4438 76.787 10.4552C76.7945 10.4415 76.8031 10.428 76.813 10.416C77.1038 10.0583 77.4052 10.2237 77.5855 10.1081C77.6432 10.08 77.7016 10.0526 77.7597 10.0259C76.1136 8.9758 74.2638 8.23778 74.2638 8.23778C74.592 8.89931 74.7652 9.47508 74.8843 10.1775L74.8837 10.1772Z" fill="#F7A245"/>
<path d="M81.2712 19.2556C81.2712 19.2556 98.0063 42.0937 99.436 40.9767C100.913 39.8238 83.3897 17.5752 83.3897 17.5752C83.3897 17.5752 81.9804 18.6935 81.2712 19.2556Z" fill="#FCC800"/>
<path fill-rule="evenodd" clip-rule="evenodd" d="M99.1284 40.9773L82.2115 19.0006L81.4913 19.555C83.3649 22.0995 96.6312 40.0287 99.1284 40.9773Z" fill="#EAB53E"/>
<path d="M83.5159 18.031L81.6941 19.4452C81.4833 19.6089 81.1425 19.5252 80.9369 19.2594L78.0016 16.064C77.796 15.7983 77.7998 15.4471 78.0107 15.2838L80.4069 13.4237C80.6176 13.26 80.9585 13.3437 81.1641 13.6095L83.5246 17.2509C83.7302 17.5167 83.7264 17.8678 83.5155 18.0311L83.5159 18.031Z" fill="#C9CACA"/>
<path fill-rule="evenodd" clip-rule="evenodd" d="M80.1472 13.5065C80.6605 13.1253 81.3858 13.2323 81.7671 13.7457L80.8375 14.436C81.7671 13.7457 81.767 13.7456 81.7671 13.7457L81.7916 13.7788L81.8593 13.8704C81.9175 13.9492 82.0005 14.062 82.1002 14.1982C82.2993 14.4702 82.5662 14.8374 82.8353 15.2156C83.1029 15.5916 83.379 15.9874 83.5938 16.3139C83.7002 16.4756 83.8003 16.6334 83.8788 16.7695C83.9175 16.8366 83.9595 16.9131 83.9962 16.9906C83.9966 16.9915 83.9971 16.9925 83.9976 16.9936C84.0206 17.0421 84.0968 17.2028 84.1265 17.4011C84.2213 18.0335 83.7856 18.623 83.1532 18.7179C82.5925 18.802 82.0655 18.4689 81.8871 17.9515C81.8832 17.9445 81.8785 17.9362 81.8729 17.9265C81.8277 17.8482 81.7562 17.734 81.6594 17.5869C81.4679 17.2958 81.211 16.927 80.9485 16.5581C80.6875 16.1913 80.4271 15.833 80.2316 15.5659C80.134 15.4326 80.0528 15.3223 79.9962 15.2455L79.9306 15.1569L79.9083 15.1268" fill="#E6E6E6"/>
<path fill-rule="evenodd" clip-rule="evenodd" d="M80.3777 14.9244C80.8961 14.55 81.6198 14.6668 81.9942 15.1852C82.3017 15.611 82.6574 16.1109 82.9421 16.5324C83.0834 16.7415 83.2155 16.9435 83.3174 17.1128C83.3676 17.1962 83.4194 17.2864 83.4633 17.3736C83.4641 17.3752 83.4651 17.3771 83.4661 17.3791C83.4921 17.4304 83.5851 17.6142 83.6181 17.8343C83.7127 18.4667 83.2768 19.0561 82.6444 19.1508C82.0838 19.2347 81.5571 18.9017 81.3787 18.3846C81.3685 18.3664 81.3538 18.3408 81.3335 18.3071C81.2624 18.189 81.1564 18.0258 81.0233 17.8287C80.7591 17.4376 80.4202 16.9609 80.1169 16.5409C79.7425 16.0225 79.8593 15.2988 80.3777 14.9244ZM81.3947 18.4143C81.4063 18.4373 81.4025 18.4335 81.392 18.4091C81.3931 18.4111 81.394 18.4129 81.3947 18.4143Z" fill="#E6E6E6"/>
<path d="M154.383 65.9581C149.484 70.8571 141.119 68.6157 139.326 61.9235L133.187 39.0118C131.393 32.3197 137.517 26.1959 144.209 27.9891L167.121 34.1283C173.813 35.9214 176.055 44.2866 171.156 49.1856L154.383 65.9581Z" fill="#F0528D" fill-opacity="0.3"/>
<path d="M153.637 61.41C148.738 66.309 140.373 64.0676 138.58 57.3754L132.441 34.4637C130.648 27.7716 136.772 21.6479 143.464 23.441L166.375 29.5802C173.068 31.3733 175.309 39.7385 170.41 44.6375L153.637 61.41Z" fill="#F0528D"/>
<circle cx="143.614" cy="27.8424" r="3.69514" fill="white"/>
<circle cx="143.712" cy="26.0612" r="1.64228" fill="#183153"/>
<circle cx="150.183" cy="27.8424" r="3.69514" fill="white"/>
<circle cx="150.281" cy="26.0612" r="1.64228" fill="#183153"/>
<path d="M185.943 26.3161C183.425 24.4296 172.158 20.9153 165.864 29.2232C161.183 35.4019 158.784 44.2502 168.555 50.5551C174.04 54.0943 184.358 51.0468 182.938 46.5725C181.518 42.0981 183.41 37.9916 186.673 37.6018C189.936 37.2119 191.863 30.7535 185.943 26.3161ZM180.722 39.7388C180.37 40.6779 178.995 41.0317 177.65 40.5293C176.305 40.0268 175.5 38.8582 175.852 37.919C176.204 36.9799 177.579 36.6261 178.924 37.1285C180.269 37.631 181.074 38.7997 180.722 39.7388Z" fill="#E4B198"/>
<path d="M185.747 25.4306C183.23 23.544 171.963 20.0292 165.669 28.3371C160.987 34.5163 158.588 43.3647 168.36 49.6695C173.845 53.2087 184.162 50.1613 182.743 45.6869C181.323 41.2125 183.214 37.1061 186.477 36.7162C189.741 36.3263 191.668 29.8679 185.747 25.4306ZM180.722 39.7388C180.37 40.6779 178.995 41.0317 177.65 40.5292C176.305 40.0268 175.5 38.8581 175.852 37.919C176.203 36.9799 177.579 36.626 178.924 37.1285C180.269 37.631 181.074 38.7996 180.722 39.7388Z" fill="#FBD4C1"/>
<path d="M178.826 37.1987C180.471 37.7529 180.805 39.5185 180.806 39.5146C181.359 38.0384 180.337 36.9331 178.992 36.4307C177.648 35.9282 176.351 36.5866 175.895 37.8055C175.812 38.0258 176.873 36.5413 178.826 37.1987Z" fill="#E4B69F"/>
<path d="M180.575 25.7313C180.843 24.0782 183.857 24.8287 184.87 27.0696C185.883 29.3104 183.108 29.6223 181.961 28.8372C180.814 28.0521 180.344 27.1568 180.575 25.7313H180.575Z" fill="#ED6D46"/>
<path d="M174.545 25.9067C174.602 24.2332 177.686 24.5977 178.974 26.6933C180.263 28.789 177.549 29.4474 176.312 28.8128C175.074 28.1783 174.495 27.3493 174.544 25.9063L174.545 25.9067Z" fill="#FCC800"/>
<path d="M168.742 27.804C168.56 26.1392 171.665 26.0627 173.238 27.9541C174.812 29.8456 172.22 30.8826 170.905 30.4299C169.59 29.9771 168.898 29.2393 168.742 27.8035L168.742 27.804Z" fill="#02BFB7"/>
<path d="M164.979 32.4972C164.677 30.85 167.767 30.5483 169.474 32.3203C171.182 34.0923 168.671 35.3151 167.327 34.9593C165.983 34.6036 165.24 33.9174 164.979 32.4972H164.979Z" fill="#00A0D9"/>
<path d="M163.049 39.1505C162.361 37.6237 165.289 36.592 167.371 37.9044C169.453 39.2168 167.31 41.004 165.919 40.9796C164.529 40.9552 163.642 40.4669 163.049 39.1505Z" fill="#BD6DA9"/>
<path d="M182.087 27.8757C182.123 27.1032 184.172 27.4902 183.815 28.151C183.457 28.8119 182.049 28.69 182.087 27.8757Z" fill="#F0907F"/>
<path d="M176.403 27.6052C176.439 26.8327 178.488 27.2197 178.13 27.8806C177.773 28.5419 176.364 28.4196 176.403 27.6052Z" fill="#FFFAC2"/>
<path d="M170.838 29.211C170.874 28.4386 172.923 28.8255 172.565 29.4864C172.208 30.1477 170.8 30.0254 170.838 29.211Z" fill="#CFE0B7"/>
<path d="M167.222 33.7556C167.259 32.9831 169.308 33.3701 168.95 34.0309C168.592 34.6923 167.184 34.5699 167.222 33.7556Z" fill="#CFE8F7"/>
<path d="M165.339 39.7944C165.375 39.0219 167.424 39.4089 167.066 40.0697C166.709 40.7311 165.3 40.6087 165.339 39.7944Z" fill="#DEB2CD"/>
</svg>
