<svg width="172" height="232" viewBox="0 0 172 232" fill="none" xmlns="http://www.w3.org/2000/svg">
<path d="M13.307 17.471C12.4544 16.0519 10.6125 15.6101 9.19922 16.4593C7.78598 17.3084 7.31137 19.1422 8.16401 20.5612L19.5125 39.4482C20.3651 40.8673 22.207 41.3091 23.6203 40.4599C25.0335 39.6108 25.5081 37.777 24.6555 36.358L13.307 17.471Z" fill="#FA3F33" stroke="white" stroke-width="2" stroke-linecap="round"/>
<path d="M147.593 36.0717C146.74 37.4907 147.215 39.3244 148.628 40.1736C150.041 41.0227 151.883 40.5809 152.736 39.1619L164.084 20.2748C164.937 18.8558 164.462 17.0221 163.049 16.1729C161.636 15.3237 159.794 15.7656 158.941 17.1846L147.593 36.0717Z" fill="#FA3F33" stroke="white" stroke-width="2" stroke-linecap="round"/>
<g filter="url(#filter0_d_33_3511)">
<path fill-rule="evenodd" clip-rule="evenodd" d="M144.727 77.9838L124.688 58L85.2 97.38L47.3119 59.5955L27.2733 79.5792L65.1615 117.364L27 155.421L47.0386 175.405L85.2 137.348L124.961 177L145 157.016L105.239 117.364L144.727 77.9838Z" fill="#FA3F33"/>
<path d="M124.688 58L126.1 56.5839L124.688 55.1754L123.276 56.5839L124.688 58ZM144.727 77.9838L146.139 79.3999L147.559 77.9838L146.139 76.5676L144.727 77.9838ZM85.2 97.38L83.7878 98.7961L85.2 100.205L86.6123 98.7961L85.2 97.38ZM47.3119 59.5955L48.7241 58.1793L47.3119 56.7709L45.8996 58.1793L47.3119 59.5955ZM27.2733 79.5792L25.861 78.1631L24.441 79.5792L25.861 80.9954L27.2733 79.5792ZM65.1615 117.364L66.5737 118.78L67.9938 117.364L66.5737 115.948L65.1615 117.364ZM27 155.421L25.5877 154.005L24.1677 155.421L25.5877 156.837L27 155.421ZM47.0386 175.405L45.6263 176.821L47.0386 178.229L48.4509 176.821L47.0386 175.405ZM85.2 137.348L86.6123 135.931L85.2 134.523L83.7878 135.931L85.2 137.348ZM124.961 177L123.549 178.416L124.961 179.825L126.374 178.416L124.961 177ZM145 157.016L146.412 158.432L147.832 157.016L146.412 155.6L145 157.016ZM105.239 117.364L103.826 115.948L102.406 117.364L103.826 118.78L105.239 117.364ZM123.276 59.4161L143.314 79.3999L146.139 76.5676L126.1 56.5839L123.276 59.4161ZM86.6123 98.7961L126.1 59.4161L123.276 56.5839L83.7878 95.9638L86.6123 98.7961ZM45.8996 61.0116L83.7878 98.7961L86.6123 95.9638L48.7241 58.1793L45.8996 61.0116ZM28.6856 80.9954L48.7241 61.0116L45.8996 58.1793L25.861 78.1631L28.6856 80.9954ZM66.5737 115.948L28.6856 78.1631L25.861 80.9954L63.7492 118.78L66.5737 115.948ZM28.4123 156.837L66.5737 118.78L63.7492 115.948L25.5877 154.005L28.4123 156.837ZM48.4509 173.988L28.4123 154.005L25.5877 156.837L45.6263 176.821L48.4509 173.988ZM83.7878 135.931L45.6263 173.988L48.4509 176.821L86.6123 138.764L83.7878 135.931ZM126.374 175.584L86.6123 135.931L83.7878 138.764L123.549 178.416L126.374 175.584ZM143.588 155.6L123.549 175.584L126.374 178.416L146.412 158.432L143.588 155.6ZM103.826 118.78L143.588 158.432L146.412 155.6L106.651 115.948L103.826 118.78ZM143.314 76.5676L103.826 115.948L106.651 118.78L146.139 79.3999L143.314 76.5676Z" fill="white"/>
</g>
<mask id="path-5-outside-1_33_3511" maskUnits="userSpaceOnUse" x="32" y="1" width="106" height="43" fill="black">
<rect fill="white" x="32" y="1" width="106" height="43"/>
<path d="M56.592 19.184L58.96 17.2C62.192 19.728 67.152 23.472 69.456 26.064L65.456 29.648C63.664 27.376 59.792 23.984 56.592 21.296V36.976H51.472V22.512C48.752 25.328 45.584 27.792 42.064 29.616C41.328 28.368 39.856 26.416 38.864 25.36C44.464 22.8 49.168 18.16 52.048 13.488H39.984V8.72H68.08V13.488H58.224C57.712 14.384 57.168 15.28 56.592 16.144V19.184ZM89.552 31.408H100.816V35.952H71.28V31.408H74.992V17.552H79.856V31.408H84.592V13.104H72.304V8.56H99.984V13.104H89.552V19.312H98.128V23.856H89.552V31.408ZM122.896 21.872H123.76V19.216H126.032C125.968 18.064 125.584 16.496 125.008 15.504C125.872 15.6 126.544 15.632 126.96 15.632C127.312 15.632 127.568 15.568 127.792 15.28C128.016 14.992 128.176 14.096 128.272 12.048H125.328C124.848 15.28 123.696 17.808 120.496 19.6L123.248 20.144C123.152 20.72 123.024 21.296 122.896 21.872ZM117.808 17.648V25.104C118.544 23.664 119.088 21.872 119.408 20.08C119.088 19.376 118.48 18.384 117.808 17.648ZM112.816 25.296H114.032V23.28H112.816V25.296ZM108.624 23.28V23.408C108.624 24.016 108.624 24.656 108.592 25.296H109.808V23.28H108.624ZM111.216 13.136H109.168C108.88 13.744 108.624 14.352 108.336 14.928H110.576C110.8 14.384 111.024 13.744 111.216 13.136ZM112.816 18.288V20.048H114.032V18.288H112.816ZM108.624 18.288V20.048H109.808V18.288H108.624ZM133.264 28.08V32.048H128.176V36.944H123.76V32.048H118.256V28.08H123.76V25.744H121.616C121.296 26.544 120.912 27.28 120.528 27.888C119.92 27.44 118.704 26.832 117.808 26.416V32.752C117.808 34.448 117.52 35.6 116.464 36.272C115.376 36.912 114.064 37.008 112.24 37.008C112.112 35.92 111.504 34.128 110.96 33.104C112.016 33.168 113.168 33.168 113.552 33.168C113.904 33.168 114.032 33.04 114.032 32.656V28.656H108.368C108.016 31.696 107.312 34.832 105.808 37.104C105.136 36.496 103.472 35.44 102.608 35.056C104.784 31.76 104.944 26.992 104.944 23.376V18.416C104.144 17.712 103.088 16.816 102.384 16.368C104.528 14.064 106.16 10.352 106.992 6.608L111.088 7.504C110.896 8.24 110.704 8.976 110.448 9.68H112.848L113.424 9.52L116.048 11.12C115.632 12.304 115.024 13.648 114.416 14.928H117.808V16.56C119.984 15.472 120.816 13.936 121.168 12.048H118V8.272H132.464C132.464 8.272 132.432 9.2 132.4 9.68C132.272 14.704 132.016 17.008 131.312 17.904C130.736 18.64 130.064 18.928 129.232 19.088C128.848 19.152 128.304 19.184 127.728 19.216H128.176V21.872H132.592V25.744H128.176V28.08H133.264Z"/>
</mask>
<path d="M56.592 19.184L58.96 17.2C62.192 19.728 67.152 23.472 69.456 26.064L65.456 29.648C63.664 27.376 59.792 23.984 56.592 21.296V36.976H51.472V22.512C48.752 25.328 45.584 27.792 42.064 29.616C41.328 28.368 39.856 26.416 38.864 25.36C44.464 22.8 49.168 18.16 52.048 13.488H39.984V8.72H68.08V13.488H58.224C57.712 14.384 57.168 15.28 56.592 16.144V19.184ZM89.552 31.408H100.816V35.952H71.28V31.408H74.992V17.552H79.856V31.408H84.592V13.104H72.304V8.56H99.984V13.104H89.552V19.312H98.128V23.856H89.552V31.408ZM122.896 21.872H123.76V19.216H126.032C125.968 18.064 125.584 16.496 125.008 15.504C125.872 15.6 126.544 15.632 126.96 15.632C127.312 15.632 127.568 15.568 127.792 15.28C128.016 14.992 128.176 14.096 128.272 12.048H125.328C124.848 15.28 123.696 17.808 120.496 19.6L123.248 20.144C123.152 20.72 123.024 21.296 122.896 21.872ZM117.808 17.648V25.104C118.544 23.664 119.088 21.872 119.408 20.08C119.088 19.376 118.48 18.384 117.808 17.648ZM112.816 25.296H114.032V23.28H112.816V25.296ZM108.624 23.28V23.408C108.624 24.016 108.624 24.656 108.592 25.296H109.808V23.28H108.624ZM111.216 13.136H109.168C108.88 13.744 108.624 14.352 108.336 14.928H110.576C110.8 14.384 111.024 13.744 111.216 13.136ZM112.816 18.288V20.048H114.032V18.288H112.816ZM108.624 18.288V20.048H109.808V18.288H108.624ZM133.264 28.08V32.048H128.176V36.944H123.76V32.048H118.256V28.08H123.76V25.744H121.616C121.296 26.544 120.912 27.28 120.528 27.888C119.92 27.44 118.704 26.832 117.808 26.416V32.752C117.808 34.448 117.52 35.6 116.464 36.272C115.376 36.912 114.064 37.008 112.24 37.008C112.112 35.92 111.504 34.128 110.96 33.104C112.016 33.168 113.168 33.168 113.552 33.168C113.904 33.168 114.032 33.04 114.032 32.656V28.656H108.368C108.016 31.696 107.312 34.832 105.808 37.104C105.136 36.496 103.472 35.44 102.608 35.056C104.784 31.76 104.944 26.992 104.944 23.376V18.416C104.144 17.712 103.088 16.816 102.384 16.368C104.528 14.064 106.16 10.352 106.992 6.608L111.088 7.504C110.896 8.24 110.704 8.976 110.448 9.68H112.848L113.424 9.52L116.048 11.12C115.632 12.304 115.024 13.648 114.416 14.928H117.808V16.56C119.984 15.472 120.816 13.936 121.168 12.048H118V8.272H132.464C132.464 8.272 132.432 9.2 132.4 9.68C132.272 14.704 132.016 17.008 131.312 17.904C130.736 18.64 130.064 18.928 129.232 19.088C128.848 19.152 128.304 19.184 127.728 19.216H128.176V21.872H132.592V25.744H128.176V28.08H133.264Z" fill="#FA3F33"/>
<path d="M56.592 19.184H52.592V27.7537L59.1609 22.2501L56.592 19.184ZM58.96 17.2L61.4244 14.0493L58.8735 12.0541L56.3911 14.1339L58.96 17.2ZM69.456 26.064L72.1253 29.0431L75.0926 26.3844L72.4456 23.4065L69.456 26.064ZM65.456 29.648L62.3153 32.1251L64.9531 35.4694L68.1253 32.6271L65.456 29.648ZM56.592 21.296L59.1648 18.2332L52.592 12.7121V21.296H56.592ZM56.592 36.976V40.976H60.592V36.976H56.592ZM51.472 36.976H47.472V40.976H51.472V36.976ZM51.472 22.512H55.472V12.6133L48.595 19.733L51.472 22.512ZM42.064 29.616L38.6185 31.6479L40.5422 34.9097L43.9043 33.1675L42.064 29.616ZM38.864 25.36L37.201 21.7221L32.1343 24.0383L35.9486 28.0987L38.864 25.36ZM52.048 13.488L55.453 15.587L59.2127 9.488H52.048V13.488ZM39.984 13.488H35.984V17.488H39.984V13.488ZM39.984 8.72V4.72H35.984V8.72H39.984ZM68.08 8.72H72.08V4.72H68.08V8.72ZM68.08 13.488V17.488H72.08V13.488H68.08ZM58.224 13.488V9.488H55.9027L54.751 11.5034L58.224 13.488ZM56.592 16.144L53.2638 13.9252L52.592 14.9329V16.144H56.592ZM59.1609 22.2501L61.5289 20.2661L56.3911 14.1339L54.0231 16.1179L59.1609 22.2501ZM56.4956 20.3507C59.9451 23.0488 64.4745 26.4806 66.4664 28.7215L72.4456 23.4065C69.8295 20.4634 64.4389 16.4072 61.4244 14.0493L56.4956 20.3507ZM66.7867 23.0849L62.7867 26.6689L68.1253 32.6271L72.1253 29.0431L66.7867 23.0849ZM68.5967 27.1709C66.5009 24.5137 62.2815 20.8513 59.1648 18.2332L54.0192 24.3588C57.3025 27.1167 60.8271 30.2383 62.3153 32.1251L68.5967 27.1709ZM52.592 21.296V36.976H60.592V21.296H52.592ZM56.592 32.976H51.472V40.976H56.592V32.976ZM55.472 36.976V22.512H47.472V36.976H55.472ZM48.595 19.733C46.1378 22.277 43.3121 24.4641 40.2237 26.0645L43.9043 33.1675C47.8559 31.1199 51.3662 28.379 54.349 25.291L48.595 19.733ZM45.5095 27.5841C44.619 26.0741 42.9675 23.8861 41.7794 22.6213L35.9486 28.0987C36.7445 28.9459 38.037 30.6619 38.6185 31.6479L45.5095 27.5841ZM40.527 28.9979C46.954 26.0599 52.2237 20.8257 55.453 15.587L48.643 11.389C46.1123 15.4943 41.974 19.5401 37.201 21.7221L40.527 28.9979ZM52.048 9.488H39.984V17.488H52.048V9.488ZM43.984 13.488V8.72H35.984V13.488H43.984ZM39.984 12.72H68.08V4.72H39.984V12.72ZM64.08 8.72V13.488H72.08V8.72H64.08ZM68.08 9.488H58.224V17.488H68.08V9.488ZM54.751 11.5034C54.2736 12.339 53.7779 13.1541 53.2638 13.9252L59.9202 18.3628C60.5581 17.4059 61.1504 16.429 61.697 15.4726L54.751 11.5034ZM52.592 16.144V19.184H60.592V16.144H52.592ZM89.552 31.408H85.552V35.408H89.552V31.408ZM100.816 31.408H104.816V27.408H100.816V31.408ZM100.816 35.952V39.952H104.816V35.952H100.816ZM71.28 35.952H67.28V39.952H71.28V35.952ZM71.28 31.408V27.408H67.28V31.408H71.28ZM74.992 31.408V35.408H78.992V31.408H74.992ZM74.992 17.552V13.552H70.992V17.552H74.992ZM79.856 17.552H83.856V13.552H79.856V17.552ZM79.856 31.408H75.856V35.408H79.856V31.408ZM84.592 31.408V35.408H88.592V31.408H84.592ZM84.592 13.104H88.592V9.104H84.592V13.104ZM72.304 13.104H68.304V17.104H72.304V13.104ZM72.304 8.56V4.56H68.304V8.56H72.304ZM99.984 8.56H103.984V4.56H99.984V8.56ZM99.984 13.104V17.104H103.984V13.104H99.984ZM89.552 13.104V9.104H85.552V13.104H89.552ZM89.552 19.312H85.552V23.312H89.552V19.312ZM98.128 19.312H102.128V15.312H98.128V19.312ZM98.128 23.856V27.856H102.128V23.856H98.128ZM89.552 23.856V19.856H85.552V23.856H89.552ZM89.552 35.408H100.816V27.408H89.552V35.408ZM96.816 31.408V35.952H104.816V31.408H96.816ZM100.816 31.952H71.28V39.952H100.816V31.952ZM75.28 35.952V31.408H67.28V35.952H75.28ZM71.28 35.408H74.992V27.408H71.28V35.408ZM78.992 31.408V17.552H70.992V31.408H78.992ZM74.992 21.552H79.856V13.552H74.992V21.552ZM75.856 17.552V31.408H83.856V17.552H75.856ZM79.856 35.408H84.592V27.408H79.856V35.408ZM88.592 31.408V13.104H80.592V31.408H88.592ZM84.592 9.104H72.304V17.104H84.592V9.104ZM76.304 13.104V8.56H68.304V13.104H76.304ZM72.304 12.56H99.984V4.56H72.304V12.56ZM95.984 8.56V13.104H103.984V8.56H95.984ZM99.984 9.104H89.552V17.104H99.984V9.104ZM85.552 13.104V19.312H93.552V13.104H85.552ZM89.552 23.312H98.128V15.312H89.552V23.312ZM94.128 19.312V23.856H102.128V19.312H94.128ZM98.128 19.856H89.552V27.856H98.128V19.856ZM85.552 23.856V31.408H93.552V23.856H85.552ZM122.896 21.872L118.991 21.0043L117.91 25.872H122.896V21.872ZM123.76 21.872V25.872H127.76V21.872H123.76ZM123.76 19.216V15.216H119.76V19.216H123.76ZM126.032 19.216V23.216H130.26L130.026 18.9941L126.032 19.216ZM125.008 15.504L125.45 11.5285L117.566 10.6525L121.549 17.5125L125.008 15.504ZM127.792 15.28L130.949 17.7358L130.949 17.7358L127.792 15.28ZM128.272 12.048L132.268 12.2353L132.464 8.048H128.272V12.048ZM125.328 12.048V8.048H121.878L121.371 11.4604L125.328 12.048ZM120.496 19.6L118.542 16.11L109.064 21.4175L119.72 23.5241L120.496 19.6ZM123.248 20.144L127.194 20.8016L127.832 16.9727L124.024 16.2199L123.248 20.144ZM117.808 17.648L120.762 14.9509L113.808 7.33471V17.648H117.808ZM117.808 25.104H113.808L121.37 26.9244L117.808 25.104ZM119.408 20.08L123.346 20.7832L123.565 19.5579L123.049 18.4248L119.408 20.08ZM112.816 25.296H108.816V29.296H112.816V25.296ZM114.032 25.296V29.296H118.032V25.296H114.032ZM114.032 23.28H118.032V19.28H114.032V23.28ZM112.816 23.28V19.28H108.816V23.28H112.816ZM108.624 23.28V19.28H104.624V23.28H108.624ZM108.592 25.296L104.597 25.0962L104.387 29.296H108.592V25.296ZM109.808 25.296V29.296H113.808V25.296H109.808ZM109.808 23.28H113.808V19.28H109.808V23.28ZM111.216 13.136L115.03 14.3405L116.674 9.136H111.216V13.136ZM109.168 13.136V9.136H106.637L105.553 11.4237L109.168 13.136ZM108.336 14.928L104.758 13.1391L101.864 18.928H108.336V14.928ZM110.576 14.928V18.928H113.255L114.275 16.451L110.576 14.928ZM112.816 18.288V14.288H108.816V18.288H112.816ZM112.816 20.048H108.816V24.048H112.816V20.048ZM114.032 20.048V24.048H118.032V20.048H114.032ZM114.032 18.288H118.032V14.288H114.032V18.288ZM108.624 18.288V14.288H104.624V18.288H108.624ZM108.624 20.048H104.624V24.048H108.624V20.048ZM109.808 20.048V24.048H113.808V20.048H109.808ZM109.808 18.288H113.808V14.288H109.808V18.288ZM133.264 28.08H137.264V24.08H133.264V28.08ZM133.264 32.048V36.048H137.264V32.048H133.264ZM128.176 32.048V28.048H124.176V32.048H128.176ZM128.176 36.944V40.944H132.176V36.944H128.176ZM123.76 36.944H119.76V40.944H123.76V36.944ZM123.76 32.048H127.76V28.048H123.76V32.048ZM118.256 32.048H114.256V36.048H118.256V32.048ZM118.256 28.08V24.08H114.256V28.08H118.256ZM123.76 28.08V32.08H127.76V28.08H123.76ZM123.76 25.744H127.76V21.744H123.76V25.744ZM121.616 25.744V21.744H118.908L117.902 24.2584L121.616 25.744ZM120.528 27.888L118.155 31.1082L121.615 33.6576L123.91 30.024L120.528 27.888ZM117.808 26.416L119.492 22.788L113.808 20.1488V26.416H117.808ZM116.464 36.272L118.492 39.7197L118.552 39.6842L118.612 39.6466L116.464 36.272ZM112.24 37.008L108.267 37.4754L108.683 41.008H112.24V37.008ZM110.96 33.104L111.202 29.1113L104.08 28.6797L107.428 34.9806L110.96 33.104ZM114.032 28.656H118.032V24.656H114.032V28.656ZM108.368 28.656V24.656H104.804L104.395 28.1959L108.368 28.656ZM105.808 37.104L103.124 40.0701L106.575 43.1921L109.143 39.3119L105.808 37.104ZM102.608 35.056L99.2699 32.8522L96.668 36.7933L100.983 38.7112L102.608 35.056ZM104.944 18.416H108.944V16.6077L107.587 15.4131L104.944 18.416ZM102.384 16.368L99.4557 13.6431L96.1812 17.162L100.236 19.7426L102.384 16.368ZM106.992 6.608L107.847 2.7004L103.952 1.84844L103.087 5.74028L106.992 6.608ZM111.088 7.504L114.958 8.51368L116.009 4.48592L111.943 3.5964L111.088 7.504ZM110.448 9.68L106.689 8.31302L104.737 13.68H110.448V9.68ZM112.848 9.68V13.68H113.393L113.919 13.5341L112.848 9.68ZM113.424 9.52L115.506 6.10481L114.025 5.20157L112.353 5.66593L113.424 9.52ZM116.048 11.12L119.822 12.4459L120.895 9.39071L118.13 7.70481L116.048 11.12ZM114.416 14.928L110.803 13.2118L108.088 18.928H114.416V14.928ZM117.808 14.928H121.808V10.928H117.808V14.928ZM117.808 16.56H113.808V23.0321L119.597 20.1377L117.808 16.56ZM121.168 12.048L125.1 12.7811L125.983 8.048H121.168V12.048ZM118 12.048H114V16.048H118V12.048ZM118 8.272V4.272H114V8.272H118ZM132.464 8.272L136.462 8.40985L136.604 4.272H132.464V8.272ZM132.4 9.68L128.409 9.41393L128.403 9.49594L128.401 9.57812L132.4 9.68ZM131.312 17.904L128.167 15.4327L128.162 15.4388L131.312 17.904ZM129.232 19.088L129.89 23.0336L129.939 23.0254L129.987 23.016L129.232 19.088ZM127.728 19.216L127.506 15.2222L127.728 23.216V19.216ZM128.176 19.216H132.176V15.216H128.176V19.216ZM128.176 21.872H124.176V25.872H128.176V21.872ZM132.592 21.872H136.592V17.872H132.592V21.872ZM132.592 25.744V29.744H136.592V25.744H132.592ZM128.176 25.744V21.744H124.176V25.744H128.176ZM128.176 28.08H124.176V32.08H128.176V28.08ZM122.896 25.872H123.76V17.872H122.896V25.872ZM127.76 21.872V19.216H119.76V21.872H127.76ZM123.76 23.216H126.032V15.216H123.76V23.216ZM130.026 18.9941C129.937 17.3884 129.438 15.1667 128.467 13.4955L121.549 17.5125C121.73 17.8253 121.999 18.7396 122.038 19.4379L130.026 18.9941ZM124.566 19.4795C125.546 19.5884 126.368 19.632 126.96 19.632V11.632C126.72 11.632 126.198 11.6116 125.45 11.5285L124.566 19.4795ZM126.96 19.632C127.337 19.632 128.052 19.6061 128.853 19.3002C129.741 18.9606 130.437 18.3944 130.949 17.7358L124.635 12.8242C124.923 12.4536 125.379 12.0634 125.995 11.8278C126.524 11.6259 126.935 11.632 126.96 11.632V19.632ZM130.949 17.7358C131.435 17.111 131.662 16.4732 131.772 16.1144C131.897 15.7083 131.976 15.3006 132.033 14.9368C132.146 14.2097 132.217 13.3069 132.268 12.2353L124.276 11.8607C124.231 12.8371 124.174 13.4062 124.127 13.7112C124.104 13.8634 124.095 13.8617 124.124 13.7686C124.14 13.7173 124.176 13.6064 124.244 13.4595C124.31 13.3168 124.432 13.0852 124.635 12.8242L130.949 17.7358ZM128.272 8.048H125.328V16.048H128.272V8.048ZM121.371 11.4604C121.175 12.7858 120.88 13.6686 120.492 14.3221C120.134 14.9265 119.581 15.5277 118.542 16.11L122.45 23.09C124.611 21.8803 126.234 20.3215 127.372 18.4059C128.48 16.5394 129.001 14.5422 129.285 12.6356L121.371 11.4604ZM119.72 23.5241L122.472 24.0681L124.024 16.2199L121.272 15.6759L119.72 23.5241ZM119.302 19.4864C119.227 19.9389 119.123 20.41 118.991 21.0043L126.801 22.7397C126.925 22.182 127.077 21.5011 127.194 20.8016L119.302 19.4864ZM113.808 17.648V25.104H121.808V17.648H113.808ZM121.37 26.9244C122.331 25.0437 122.976 22.8517 123.346 20.7832L115.47 19.3768C115.2 20.8923 114.757 22.2843 114.246 23.2836L121.37 26.9244ZM123.049 18.4248C122.581 17.3932 121.753 16.0367 120.762 14.9509L114.854 20.3451C115.005 20.5106 115.192 20.7548 115.378 21.0438C115.565 21.3328 115.699 21.5856 115.767 21.7352L123.049 18.4248ZM112.816 29.296H114.032V21.296H112.816V29.296ZM118.032 25.296V23.28H110.032V25.296H118.032ZM114.032 19.28H112.816V27.28H114.032V19.28ZM108.816 23.28V25.296H116.816V23.28H108.816ZM104.624 23.28V23.408H112.624V23.28H104.624ZM104.624 23.408C104.624 24.0313 104.623 24.5722 104.597 25.0962L112.587 25.4958C112.625 24.7398 112.624 24.0007 112.624 23.408H104.624ZM108.592 29.296H109.808V21.296H108.592V29.296ZM113.808 25.296V23.28H105.808V25.296H113.808ZM109.808 19.28H108.624V27.28H109.808V19.28ZM111.216 9.136H109.168V17.136H111.216V9.136ZM105.553 11.4237C105.134 12.308 105.052 12.551 104.758 13.1391L111.914 16.7169C112.196 16.153 112.626 15.18 112.783 14.8483L105.553 11.4237ZM108.336 18.928H110.576V10.928H108.336V18.928ZM114.275 16.451C114.555 15.7713 114.816 15.0184 115.03 14.3405L107.402 11.9315C107.232 12.4696 107.045 12.9967 106.877 13.405L114.275 16.451ZM108.816 18.288V20.048H116.816V18.288H108.816ZM112.816 24.048H114.032V16.048H112.816V24.048ZM118.032 20.048V18.288H110.032V20.048H118.032ZM114.032 14.288H112.816V22.288H114.032V14.288ZM104.624 18.288V20.048H112.624V18.288H104.624ZM108.624 24.048H109.808V16.048H108.624V24.048ZM113.808 20.048V18.288H105.808V20.048H113.808ZM109.808 14.288H108.624V22.288H109.808V14.288ZM129.264 28.08V32.048H137.264V28.08H129.264ZM133.264 28.048H128.176V36.048H133.264V28.048ZM124.176 32.048V36.944H132.176V32.048H124.176ZM128.176 32.944H123.76V40.944H128.176V32.944ZM127.76 36.944V32.048H119.76V36.944H127.76ZM123.76 28.048H118.256V36.048H123.76V28.048ZM122.256 32.048V28.08H114.256V32.048H122.256ZM118.256 32.08H123.76V24.08H118.256V32.08ZM127.76 28.08V25.744H119.76V28.08H127.76ZM123.76 21.744H121.616V29.744H123.76V21.744ZM117.902 24.2584C117.674 24.8291 117.401 25.3476 117.146 25.752L123.91 30.024C124.423 29.2124 124.918 28.2589 125.33 27.2296L117.902 24.2584ZM122.901 24.6678C121.918 23.9439 120.337 23.1801 119.492 22.788L116.124 30.044C116.53 30.2328 116.993 30.4578 117.407 30.6765C117.613 30.7856 117.791 30.8843 117.934 30.9688C118.004 31.0105 118.059 31.0447 118.1 31.0712C118.142 31.0986 118.159 31.1108 118.155 31.1082L122.901 24.6678ZM113.808 26.416V32.752H121.808V26.416H113.808ZM113.808 32.752C113.808 33.0705 113.794 33.2902 113.776 33.4392C113.758 33.5877 113.741 33.6195 113.756 33.5769C113.774 33.5249 113.828 33.3967 113.945 33.2439C114.065 33.0863 114.202 32.9703 114.316 32.8974L118.612 39.6466C121.541 37.7825 121.808 34.6582 121.808 32.752H113.808ZM114.436 32.8243C114.434 32.8254 114.416 32.8363 114.365 32.853C114.309 32.8712 114.206 32.8985 114.034 32.9244C113.654 32.9814 113.121 33.008 112.24 33.008V41.008C113.996 41.008 116.354 40.9776 118.492 39.7197L114.436 32.8243ZM116.213 36.5406C116.016 34.8705 115.223 32.6028 114.492 31.2274L107.428 34.9806C107.785 35.6532 108.208 36.9695 108.267 37.4754L116.213 36.5406ZM110.718 37.0967C111.909 37.1689 113.173 37.168 113.552 37.168V29.168C113.163 29.168 112.123 29.1671 111.202 29.1113L110.718 37.0967ZM113.552 37.168C114.027 37.168 115.579 37.1215 116.824 35.811C118.01 34.5622 118.032 33.0773 118.032 32.656H110.032C110.032 32.6187 109.99 31.3898 111.024 30.301C112.117 29.1505 113.429 29.168 113.552 29.168V37.168ZM118.032 32.656V28.656H110.032V32.656H118.032ZM114.032 24.656H108.368V32.656H114.032V24.656ZM104.395 28.1959C104.06 31.086 103.438 33.4384 102.473 34.8961L109.143 39.3119C111.187 36.2256 111.972 32.306 112.341 29.1161L104.395 28.1959ZM108.492 34.1379C107.901 33.6035 107.089 33.0434 106.432 32.6241C105.761 32.196 104.934 31.7125 104.233 31.4008L100.983 38.7112C101.146 38.7835 101.583 39.02 102.128 39.3679C102.379 39.5279 102.613 39.6861 102.805 39.8252C102.901 39.8942 102.979 39.9529 103.038 39.9996C103.1 40.0486 103.126 40.0717 103.124 40.0701L108.492 34.1379ZM105.946 37.2598C107.479 34.9386 108.19 32.2872 108.547 29.9361C108.906 27.5654 108.944 25.217 108.944 23.376H100.944C100.944 25.151 100.902 26.9946 100.637 28.7359C100.37 30.4968 99.9134 31.8774 99.2699 32.8522L105.946 37.2598ZM108.944 23.376V18.416H100.944V23.376H108.944ZM107.587 15.4131C106.828 14.7457 105.542 13.6363 104.532 12.9934L100.236 19.7426C100.634 19.9957 101.46 20.6783 102.301 21.4189L107.587 15.4131ZM105.312 19.0929C108.113 16.0832 109.976 11.6183 110.897 7.47572L103.087 5.74028C102.344 9.08568 100.943 12.0448 99.4557 13.6431L105.312 19.0929ZM106.137 10.5156L110.233 11.4116L111.943 3.5964L107.847 2.7004L106.137 10.5156ZM107.218 6.49431C107.017 7.26278 106.87 7.81508 106.689 8.31302L114.207 11.047C114.538 10.1369 114.775 9.21722 114.958 8.51368L107.218 6.49431ZM110.448 13.68H112.848V5.68H110.448V13.68ZM113.919 13.5341L114.495 13.3741L112.353 5.66593L111.777 5.82593L113.919 13.5341ZM111.342 12.9352L113.966 14.5352L118.13 7.70481L115.506 6.10481L111.342 12.9352ZM112.274 9.79406C111.933 10.7652 111.403 11.9478 110.803 13.2118L118.029 16.6442C118.645 15.3482 119.331 13.8428 119.822 12.4459L112.274 9.79406ZM114.416 18.928H117.808V10.928H114.416V18.928ZM113.808 14.928V16.56H121.808V14.928H113.808ZM119.597 20.1377C121.201 19.3354 122.503 18.263 123.46 16.8826C124.4 15.5254 124.857 14.088 125.1 12.7811L117.236 11.3149C117.127 11.8959 116.992 12.1706 116.884 12.3254C116.793 12.457 116.591 12.6966 116.019 12.9823L119.597 20.1377ZM121.168 8.048H118V16.048H121.168V8.048ZM122 12.048V8.272H114V12.048H122ZM118 12.272H132.464V4.272H118V12.272ZM132.464 8.272C128.466 8.13415 128.466 8.13412 128.466 8.1341C128.466 8.13409 128.466 8.13407 128.466 8.13406C128.466 8.13405 128.466 8.13405 128.466 8.13406C128.466 8.13408 128.466 8.13417 128.466 8.1343C128.466 8.13457 128.466 8.13506 128.466 8.13577C128.466 8.13717 128.466 8.13944 128.466 8.14251C128.466 8.14867 128.466 8.15807 128.465 8.17039C128.464 8.19503 128.463 8.23127 128.461 8.27645C128.458 8.36703 128.453 8.49245 128.447 8.63176C128.435 8.92402 128.421 9.23023 128.409 9.41393L136.391 9.94607C136.411 9.64976 136.429 9.25198 136.441 8.96024C136.447 8.80755 136.452 8.67097 136.456 8.57254C136.458 8.52322 136.459 8.48322 136.46 8.45524C136.461 8.44124 136.461 8.43024 136.461 8.42256C136.461 8.41873 136.461 8.41572 136.461 8.41359C136.462 8.41252 136.462 8.41167 136.462 8.41105C136.462 8.41073 136.462 8.41048 136.462 8.41028C136.462 8.41018 136.462 8.41009 136.462 8.41002C136.462 8.40998 136.462 8.40994 136.462 8.40992C136.462 8.40988 136.462 8.40985 132.464 8.272ZM128.401 9.57812C128.338 12.0803 128.244 13.7358 128.104 14.8335C128.035 15.3769 127.967 15.6724 127.927 15.8077C127.882 15.9597 127.918 15.7498 128.167 15.4327L134.457 20.3753C135.551 18.9828 135.87 17.176 136.04 15.8465C136.236 14.3122 136.334 12.3037 136.399 9.78188L128.401 9.57812ZM128.162 15.4388C128.174 15.4229 128.211 15.3793 128.275 15.3249C128.341 15.2697 128.412 15.2219 128.481 15.1849C128.615 15.1137 128.662 15.1243 128.477 15.16L129.987 23.016C131.424 22.7398 133.105 22.1028 134.462 20.3692L128.162 15.4388ZM128.574 15.1424C128.575 15.1424 128.567 15.1437 128.55 15.1459C128.533 15.1482 128.51 15.151 128.48 15.1543C128.419 15.1611 128.34 15.1684 128.24 15.1762C128.036 15.1922 127.798 15.2059 127.506 15.2222L127.95 23.2098C128.448 23.1821 129.241 23.1416 129.89 23.0336L128.574 15.1424ZM127.728 23.216H128.176V15.216H127.728V23.216ZM124.176 19.216V21.872H132.176V19.216H124.176ZM128.176 25.872H132.592V17.872H128.176V25.872ZM128.592 21.872V25.744H136.592V21.872H128.592ZM132.592 21.744H128.176V29.744H132.592V21.744ZM124.176 25.744V28.08H132.176V25.744H124.176ZM128.176 32.08H133.264V24.08H128.176V32.08Z" fill="white" mask="url(#path-5-outside-1_33_3511)"/>
<defs>
<filter id="filter0_d_33_3511" x="0.167664" y="55.1754" width="171.665" height="176.649" filterUnits="userSpaceOnUse" color-interpolation-filters="sRGB">
<feFlood flood-opacity="0" result="BackgroundImageFix"/>
<feColorMatrix in="SourceAlpha" type="matrix" values="0 0 0 0 0 0 0 0 0 0 0 0 0 0 0 0 0 0 127 0" result="hardAlpha"/>
<feOffset dy="28"/>
<feGaussianBlur stdDeviation="12"/>
<feComposite in2="hardAlpha" operator="out"/>
<feColorMatrix type="matrix" values="0 0 0 0 0.0941176 0 0 0 0 0.192157 0 0 0 0 0.32549 0 0 0 0.06 0"/>
<feBlend mode="normal" in2="BackgroundImageFix" result="effect1_dropShadow_33_3511"/>
<feBlend mode="normal" in="SourceGraphic" in2="effect1_dropShadow_33_3511" result="shape"/>
</filter>
</defs>
</svg>
