<svg width="46" height="54" viewBox="0 0 46 54" fill="none" xmlns="http://www.w3.org/2000/svg">
<path fill-rule="evenodd" clip-rule="evenodd" d="M1.88848 24.543C2.00474 24.0095 2.10189 23.5638 2.1614 23.2408C2.69424 20.349 3.8312 17.3058 4.68592 15.018C4.97417 14.2465 5.23031 13.5609 5.42037 12.996C5.49613 12.7708 5.57708 12.5244 5.66377 12.2605C6.17804 10.6948 6.89387 8.51552 7.92155 6.52657C7.9709 6.43106 8.01887 6.34086 8.06287 6.2594C8.37327 3.43427 10.5258 1.04476 13.4675 0.559591C17.0095 -0.0245813 20.3544 2.37322 20.9386 5.91522C21.2855 8.01856 20.7771 9.73999 20.3128 10.8354C20.0949 11.3494 19.8625 11.7806 19.7263 12.0292C19.639 12.1884 19.5904 12.2756 19.5574 12.3347C19.5194 12.4028 19.5023 12.4335 19.471 12.4941C18.9578 13.4872 18.609 14.5367 18.0824 16.121C17.9769 16.4384 17.8642 16.7772 17.7417 17.1413C17.2464 18.6136 16.8093 19.7731 16.4296 20.7805C15.7566 22.5657 15.2637 23.8731 14.9462 25.5965C14.8169 26.298 14.5988 27.3137 14.4127 28.18C14.3009 28.7002 14.2007 29.1666 14.1383 29.4788C13.9012 30.6646 13.7712 31.5697 13.7508 32.3137C13.7396 32.7239 13.7647 33.0112 13.7976 33.2065C13.9318 33.1838 14.0802 33.1551 14.2426 33.119C14.8975 32.9736 15.5932 32.7507 16.2194 32.4975C16.8768 32.2317 17.2692 32.0089 17.3792 31.9365C20.3338 29.9933 22.9329 26.7337 25.1104 22.9028C25.1516 22.8303 25.2467 22.6651 25.3776 22.4689C25.4414 22.3733 25.5656 22.1919 25.7387 21.9779L25.7449 21.9704C25.852 21.8378 26.2986 21.2852 27.0255 20.7673C27.3809 20.5141 28.265 19.9296 29.5661 19.6782C31.1286 19.3764 33.2012 19.6051 34.9532 21.0601C36.4239 22.2816 36.9165 23.7629 37.085 24.3997C37.2747 25.117 37.2981 25.7075 37.3011 25.9984C37.3072 26.5925 37.2281 27.0527 37.2017 27.2026C37.1648 27.4116 37.1249 27.5785 37.1006 27.6748C36.9878 28.1225 36.8171 28.5677 36.8003 28.6114L36.7991 28.6148C36.7191 28.829 36.5991 29.1377 36.4846 29.4319C36.4411 29.5439 36.3984 29.6537 36.359 29.7554C36.1949 30.1797 36.0396 30.5877 35.9193 30.9254C35.8622 31.0855 35.8292 31.1855 35.8129 31.2358C35.8097 31.251 35.8065 31.2662 35.8032 31.2813C35.8447 31.2634 35.8866 31.2458 35.9291 31.2285C37.6343 30.5342 39.7771 30.511 41.6993 31.6121C43.2622 32.5074 44.0121 33.7742 44.301 34.3277C44.6343 34.9663 44.802 35.5343 44.8856 35.8575C45.1665 36.9421 45.1808 38.0573 45.186 38.4652L45.1862 38.4763C45.194 39.083 45.1746 39.6905 45.1581 40.1154C45.1338 40.7395 45.1306 40.7441 45.1306 40.7083C45.1283 42.9106 44.5399 44.7789 44.1063 46.0008C43.8542 46.7116 43.6827 47.154 43.5513 47.4931C43.3865 47.9181 43.2847 48.1809 43.1656 48.6068C42.1987 52.064 38.6123 54.0829 35.1551 53.116C33.4585 52.6415 32.1083 51.5362 31.2874 50.1249C31.2151 50.1415 31.1289 50.1631 31.0104 50.1948C29.5484 50.5865 27.8292 50.6297 26.1035 49.9787C24.4222 49.3445 23.2629 48.2512 22.5185 47.2597C21.8506 46.37 21.4063 45.4191 21.1057 44.5443C19.8152 45.0669 18.4232 45.5073 17.061 45.8098C15.6605 46.1208 14.0003 46.3533 12.2971 46.268C10.6684 46.1865 8.35304 45.781 6.29464 44.2016C1.6918 40.6699 0.648469 35.8667 0.755699 31.9573C0.825234 29.4221 1.47675 26.4324 1.88848 24.543ZM24.6297 24.0422C24.6423 24.0052 24.6503 23.9835 24.6513 23.9817C24.6522 23.9798 24.6459 23.9984 24.6297 24.0422ZM12.8944 33.2795C12.8949 33.279 12.9087 33.2799 12.9344 33.2836C12.9067 33.2819 12.8939 33.28 12.8944 33.2795Z" fill="#0565B5"/>
</svg>
