<?xml version="1.0" encoding="utf-8"?>
<!-- Generator: Adobe Illustrator 28.2.0, SVG Export Plug-In . SVG Version: 6.00 Build 0)  -->
<svg version="1.1" id="レイヤー_1" xmlns="http://www.w3.org/2000/svg" xmlns:xlink="http://www.w3.org/1999/xlink" x="0px"
	 y="0px" viewBox="0 0 60 62.9" style="enable-background:new 0 0 60 62.9;" xml:space="preserve">
<style type="text/css">
	.st0{fill:#C0E6ED;}
	.st1{fill:#6EC8DA;}
	.st2{fill:#FFFFFF;}
	.st3{fill:#183153;}
	.st4{fill:#F7A245;}
	.st5{fill:#FCC800;}
	.st6{fill-rule:evenodd;clip-rule:evenodd;fill:#EAB53E;}
	.st7{fill:#C9CACA;}
	.st8{fill-rule:evenodd;clip-rule:evenodd;fill:#E6E6E6;}
</style>
<path class="st0" d="M57.3,41.6c1.1,10.4-4.2,17.7-15.4,18.9c-11.1,1.2-22.5-1.9-23.6-12.3C17.2,37.7,27.9,16.4,39,15.3
	S56.2,31.2,57.3,41.6z"/>
<path class="st1" d="M57,38.7c1.1,10.4-4.2,17.7-15.4,18.9C30.5,58.8,19.1,55.7,18,45.2c-1.1-10.4,9.5-31.7,20.7-32.9
	S55.8,28.3,57,38.7z"/>
<circle class="st2" cx="35.1" cy="22" r="3.7"/>
<circle class="st3" cx="33.1" cy="21.3" r="1.6"/>
<circle class="st2" cx="41.6" cy="22.6" r="3.7"/>
<circle class="st3" cx="39.6" cy="22" r="1.6"/>
<path class="st2" d="M4.2,13.8C4,13.4,1.7,13,0.9,8.3C0.8,7.5,0.6,7,0.3,6.3c0,0,4.8,1.9,5.8,4c1,2.1,0.5,2.2-0.2,2.7
	C5.2,13.5,4.2,13.8,4.2,13.8L4.2,13.8z"/>
<path class="st4" d="M0.9,8.3C1,9,1.2,9.7,1.4,10.3C2,9.8,2.2,9.5,2.8,8.5c0,0,0,0,0,0c0.3-0.4,0.6-0.2,0.8-0.3
	c0.1,0,0.1-0.1,0.2-0.1C2.1,7,0.3,6.3,0.3,6.3C0.6,7,0.8,7.5,0.9,8.3L0.9,8.3z"/>
<path class="st5" d="M7.3,17.3c0,0,16.7,22.8,18.2,21.7c1.5-1.2-16-23.4-16-23.4S8,16.8,7.3,17.3z"/>
<path class="st6" d="M25.1,39.1l-16.9-22l-0.7,0.6C9.4,20.2,22.6,38.1,25.1,39.1z"/>
<path class="st7" d="M9.5,16.1l-1.8,1.4c-0.2,0.2-0.6,0.1-0.8-0.2L4,14.1c-0.2-0.3-0.2-0.6,0-0.8l2.4-1.9c0.2-0.2,0.6-0.1,0.8,0.2
	l2.4,3.6C9.7,15.6,9.7,15.9,9.5,16.1L9.5,16.1z"/>
<path class="st8" d="M6.1,11.6c0.5-0.4,1.2-0.3,1.6,0.2l-0.9,0.7c0.9-0.7,0.9-0.7,0.9-0.7l0,0l0.1,0.1C7.9,12,8,12.1,8.1,12.3
	c0.2,0.3,0.5,0.6,0.7,1c0.3,0.4,0.5,0.8,0.8,1.1c0.1,0.2,0.2,0.3,0.3,0.5c0,0.1,0.1,0.1,0.1,0.2c0,0,0,0,0,0c0,0,0.1,0.2,0.1,0.4
	c0.1,0.6-0.3,1.2-1,1.3c-0.6,0.1-1.1-0.2-1.3-0.8c0,0,0,0,0,0c0-0.1-0.1-0.2-0.2-0.3c-0.2-0.3-0.4-0.7-0.7-1c-0.3-0.4-0.5-0.7-0.7-1
	c-0.1-0.1-0.2-0.2-0.2-0.3l-0.1-0.1l0,0"/>
<path class="st8" d="M6.4,13c0.5-0.4,1.2-0.3,1.6,0.3c0.3,0.4,0.7,0.9,0.9,1.3c0.1,0.2,0.3,0.4,0.4,0.6c0.1,0.1,0.1,0.2,0.1,0.3
	c0,0,0,0,0,0c0,0.1,0.1,0.2,0.2,0.5c0.1,0.6-0.3,1.2-1,1.3c-0.6,0.1-1.1-0.2-1.3-0.8c0,0,0,0,0-0.1c-0.1-0.1-0.2-0.3-0.3-0.5
	c-0.3-0.4-0.6-0.9-0.9-1.3C5.7,14.1,5.9,13.4,6.4,13z M7.4,16.5C7.4,16.5,7.4,16.5,7.4,16.5C7.4,16.5,7.4,16.5,7.4,16.5z"/>
</svg>
