<svg width="347" height="91" viewBox="0 0 347 91" fill="none" xmlns="http://www.w3.org/2000/svg">
<rect width="376" height="16" fill="white"/>
<path d="M376 15H6.65577H0V16.027V78.4703C3.58388 79.7027 9.11329 81.5514 16.0763 83.1946C27.3399 85.8649 48.6383 90.6919 74.6471 85.5568C81.2004 84.2216 87.8562 82.373 94.4096 79.9081C106.083 75.4919 115.298 67.2757 125.333 60.1892C131.272 55.9784 137.519 52.7946 144.584 51.0486C159.227 47.3513 173.767 49.2 188.102 52.5892C214.828 58.9568 240.222 55.8757 264.081 42.2162C271.658 37.9027 279.133 33.4865 286.403 28.7622C298.588 20.8541 311.593 18.8 325.519 22.0865C343.233 26.1946 360.333 25.1676 376 16.2324C313.436 16.2324 251.076 16.2324 188.717 16.2324H376V15Z" fill="white"/>
</svg>
