<?xml version="1.0" encoding="utf-8"?>
<!-- Generator: Adobe Illustrator 28.3.0, SVG Export Plug-In . SVG Version: 6.00 Build 0)  -->
<svg version="1.1" id="レイヤー_1" xmlns="http://www.w3.org/2000/svg" xmlns:xlink="http://www.w3.org/1999/xlink" x="0px"
	 y="0px" viewBox="0 0 166 162" style="enable-background:new 0 0 166 162;" xml:space="preserve">
<style type="text/css">
	.st0{fill:#4DCD9D;stroke:#FFFFFF;stroke-width:3;stroke-linecap:round;}
	.st1{fill:#4DCD9D;}
	.st2{fill:#FFFFFF;filter:url(#Adobe_OpacityMaskFilter);}
	.st3{mask:url(#path-3-outside-1_36_934_00000037650455566396128390000011078316761320374934_);fill:#FFFFFF;}
	.st4{fill-rule:evenodd;clip-rule:evenodd;fill:#4DCD9D;}
	.st5{fill:none;stroke:#FFFFFF;stroke-width:4;}
</style>
<path class="st0" d="M24.3,4.9c-1-1.7-3.1-2.2-4.8-1.2c-1.6,1-2.2,3.1-1.2,4.8l11.3,18.9c1,1.7,3.1,2.2,4.8,1.2s2.2-3.1,1.2-4.8
	L24.3,4.9z"/>
<path class="st0" d="M127.7,23.5c-1,1.7-0.4,3.8,1.2,4.8c1.6,1,3.8,0.5,4.8-1.2l11.3-18.9c1-1.7,0.4-3.8-1.2-4.8
	c-1.6-1-3.8-0.5-4.8,1.2L127.7,23.5z"/>
<path class="st1" d="M50.8,29.5V26h3.8V12.4h3.8V26h5.3V7.6H51.8V4.1h25.9v3.6H67.5v6.8h8.6v3.6h-8.6v8h11.1v3.6H50.8z M88.1,13.4
	c-0.3-0.3-0.7-0.6-1.2-1c-0.5-0.4-0.9-0.7-1.2-0.9c1-1.1,2-2.5,2.7-4.2c0.8-1.7,1.4-3.4,1.8-5.2l3.2,0.7c-0.1,0.4-0.2,0.7-0.3,1.1
	c-0.1,0.4-0.2,0.7-0.3,1.1h2.8l0.4-0.2l2.1,1.3c-0.2,0.6-0.5,1.2-0.8,1.9c-0.3,0.7-0.6,1.3-0.9,1.9h3.4v1.9c1.3-0.6,2.2-1.3,2.7-2.1
	c0.6-0.9,0.9-1.9,1.2-3h-3.4v-3h13.6c0,0.5,0,1.1,0,2c0,0.9-0.1,1.8-0.2,2.7c-0.1,0.9-0.2,1.8-0.3,2.6c-0.1,0.8-0.4,1.3-0.6,1.6
	c-0.3,0.3-0.5,0.6-0.8,0.7c-0.3,0.1-0.6,0.3-1,0.3c-0.3,0-0.6,0.1-1,0.1c-0.4,0-0.8,0-1.2,0h-0.9c0-0.5-0.1-1-0.3-1.5
	c-0.1-0.6-0.3-1-0.5-1.4c0.5,0,0.9,0.1,1.3,0.1c0.4,0,0.7,0,0.9,0c0.2,0,0.4,0,0.5-0.1c0.1,0,0.2-0.1,0.4-0.3
	c0.1-0.2,0.3-0.5,0.3-1.1c0.1-0.6,0.2-1.5,0.2-2.8H107c-0.3,1.6-0.7,3-1.4,4.3c-0.7,1.3-1.8,2.3-3.4,3.2l2.7,0.5
	c0,0.3-0.1,0.7-0.2,1c-0.1,0.3-0.1,0.6-0.3,1h1.5v-2.8h3.5v2.8h4.6v3.1h-4.6v2.8h5.2v3.1h-5.2v5h-3.5v-5h-5.7v-3.1h5.7v-2.8h-2.6
	c-0.2,0.4-0.4,0.9-0.6,1.3c-0.2,0.4-0.4,0.7-0.6,1.1c-0.3-0.2-0.6-0.4-1.1-0.6c-0.5-0.3-0.9-0.5-1.3-0.6v6.4c0,0.7-0.1,1.3-0.3,1.8
	c-0.1,0.5-0.5,0.8-0.9,1.1c-0.5,0.3-1,0.4-1.7,0.5c-0.6,0.1-1.4,0.1-2.4,0.1c0-0.4-0.2-1-0.4-1.6c-0.2-0.6-0.4-1.1-0.6-1.5
	c0.6,0,1.2,0.1,1.7,0.1c0.5,0,0.9,0,1.1,0c0.3,0,0.5-0.2,0.5-0.5v-4.4h-6.1c-0.2,1.5-0.4,2.9-0.8,4.3c-0.4,1.4-0.9,2.6-1.6,3.7
	c-0.1-0.1-0.3-0.3-0.5-0.4c-0.2-0.1-0.4-0.3-0.7-0.5c-0.2-0.1-0.5-0.3-0.7-0.4c-0.2-0.1-0.4-0.2-0.6-0.3c0.5-0.8,0.9-1.6,1.2-2.6
	c0.3-0.9,0.5-1.9,0.6-2.9c0.1-1,0.2-2,0.3-2.9s0.1-1.9,0.1-2.8V13.4z M101.4,14.5c-0.1-0.3-0.4-0.6-0.6-1c-0.3-0.4-0.5-0.7-0.8-1.1
	v7.7c0.5-0.8,0.9-1.7,1.3-2.7c0.4-1.1,0.6-2.1,0.8-3.2c-0.1,0-0.2,0.1-0.3,0.2C101.6,14.4,101.5,14.5,101.4,14.5z M91.8,7.7
	c-0.3,0.8-0.7,1.5-1,2.2h2.6c0.2-0.3,0.3-0.7,0.4-1.1s0.3-0.8,0.4-1.2H91.8z M92.8,20v-2.6H91V18c0,0.3,0,0.7,0,1c0,0.3,0,0.7,0,1
	H92.8z M96.9,20v-2.6h-1.8V20H96.9z M95.2,14.9h1.8v-2.3h-1.8V14.9z M91,12.6v2.3h1.8v-2.3H91z"/>
<defs>
	<filter id="Adobe_OpacityMaskFilter" filterUnits="userSpaceOnUse" x="47.8" y="-0.9" width="69.9" height="34.6">
		<feColorMatrix  type="matrix" values="1 0 0 0 0  0 1 0 0 0  0 0 1 0 0  0 0 0 1 0"/>
	</filter>
</defs>
<mask maskUnits="userSpaceOnUse" x="47.8" y="-0.9" width="69.9" height="34.6" id="path-3-outside-1_36_934_00000037650455566396128390000011078316761320374934_">
	<rect x="47" y="-1" class="st2" width="71" height="35"/>
	<path d="M50.8,29.5V26h3.8V12.4h3.8V26h5.3V7.6H51.8V4.1h25.9v3.6H67.5v6.8h8.6v3.6h-8.6v8h11.1v3.6H50.8z M88.1,13.4
		c-0.3-0.3-0.7-0.6-1.2-1c-0.5-0.4-0.9-0.7-1.2-0.9c1-1.1,2-2.5,2.7-4.2c0.8-1.7,1.4-3.4,1.8-5.2l3.2,0.7c-0.1,0.4-0.2,0.7-0.3,1.1
		c-0.1,0.4-0.2,0.7-0.3,1.1h2.8l0.4-0.2l2.1,1.3c-0.2,0.6-0.5,1.2-0.8,1.9c-0.3,0.7-0.6,1.3-0.9,1.9h3.4v1.9
		c1.3-0.6,2.2-1.3,2.7-2.1c0.6-0.9,0.9-1.9,1.2-3h-3.4v-3h13.6c0,0.5,0,1.1,0,2c0,0.9-0.1,1.8-0.2,2.7c-0.1,0.9-0.2,1.8-0.3,2.6
		c-0.1,0.8-0.4,1.3-0.6,1.6c-0.3,0.3-0.5,0.6-0.8,0.7c-0.3,0.1-0.6,0.3-1,0.3c-0.3,0-0.6,0.1-1,0.1c-0.4,0-0.8,0-1.2,0h-0.9
		c0-0.5-0.1-1-0.3-1.5c-0.1-0.6-0.3-1-0.5-1.4c0.5,0,0.9,0.1,1.3,0.1c0.4,0,0.7,0,0.9,0c0.2,0,0.4,0,0.5-0.1c0.1,0,0.2-0.1,0.4-0.3
		c0.1-0.2,0.3-0.5,0.3-1.1c0.1-0.6,0.2-1.5,0.2-2.8H107c-0.3,1.6-0.7,3-1.4,4.3c-0.7,1.3-1.8,2.3-3.4,3.2l2.7,0.5
		c0,0.3-0.1,0.7-0.2,1c-0.1,0.3-0.1,0.6-0.3,1h1.5v-2.8h3.5v2.8h4.6v3.1h-4.6v2.8h5.2v3.1h-5.2v5h-3.5v-5h-5.7v-3.1h5.7v-2.8h-2.6
		c-0.2,0.4-0.4,0.9-0.6,1.3c-0.2,0.4-0.4,0.7-0.6,1.1c-0.3-0.2-0.6-0.4-1.1-0.6c-0.5-0.3-0.9-0.5-1.3-0.6v6.4c0,0.7-0.1,1.3-0.3,1.8
		c-0.1,0.5-0.5,0.8-0.9,1.1c-0.5,0.3-1,0.4-1.7,0.5c-0.6,0.1-1.4,0.1-2.4,0.1c0-0.4-0.2-1-0.4-1.6c-0.2-0.6-0.4-1.1-0.6-1.5
		c0.6,0,1.2,0.1,1.7,0.1c0.5,0,0.9,0,1.1,0c0.3,0,0.5-0.2,0.5-0.5v-4.4h-6.1c-0.2,1.5-0.4,2.9-0.8,4.3c-0.4,1.4-0.9,2.6-1.6,3.7
		c-0.1-0.1-0.3-0.3-0.5-0.4c-0.2-0.1-0.4-0.3-0.7-0.5c-0.2-0.1-0.5-0.3-0.7-0.4c-0.2-0.1-0.4-0.2-0.6-0.3c0.5-0.8,0.9-1.6,1.2-2.6
		c0.3-0.9,0.5-1.9,0.6-2.9c0.1-1,0.2-2,0.3-2.9s0.1-1.9,0.1-2.8V13.4z M101.4,14.5c-0.1-0.3-0.4-0.6-0.6-1c-0.3-0.4-0.5-0.7-0.8-1.1
		v7.7c0.5-0.8,0.9-1.7,1.3-2.7c0.4-1.1,0.6-2.1,0.8-3.2c-0.1,0-0.2,0.1-0.3,0.2C101.6,14.4,101.5,14.5,101.4,14.5z M91.8,7.7
		c-0.3,0.8-0.7,1.5-1,2.2h2.6c0.2-0.3,0.3-0.7,0.4-1.1s0.3-0.8,0.4-1.2H91.8z M92.8,20v-2.6H91V18c0,0.3,0,0.7,0,1c0,0.3,0,0.7,0,1
		H92.8z M96.9,20v-2.6h-1.8V20H96.9z M95.2,14.9h1.8v-2.3h-1.8V14.9z M91,12.6v2.3h1.8v-2.3H91z"/>
</mask>
<path class="st3" d="M50.8,29.5h-3c0,1.7,1.3,3,3,3V29.5z M50.8,26v-3c-1.7,0-3,1.3-3,3H50.8z M54.5,26v3c1.7,0,3-1.3,3-3H54.5z
	 M54.5,12.4v-3c-1.7,0-3,1.3-3,3H54.5z M58.3,12.4h3c0-1.7-1.3-3-3-3V12.4z M58.3,26h-3c0,1.7,1.3,3,3,3V26z M63.6,26v3
	c1.7,0,3-1.3,3-3H63.6z M63.6,7.6h3c0-1.7-1.3-3-3-3V7.6z M51.8,7.6h-3c0,1.7,1.3,3,3,3V7.6z M51.8,4.1v-3c-1.7,0-3,1.3-3,3H51.8z
	 M77.7,4.1h3c0-1.7-1.3-3-3-3V4.1z M77.7,7.6v3c1.7,0,3-1.3,3-3H77.7z M67.5,7.6v-3c-1.7,0-3,1.3-3,3H67.5z M67.5,14.4h-3
	c0,1.7,1.3,3,3,3V14.4z M76.1,14.4h3c0-1.7-1.3-3-3-3V14.4z M76.1,17.9v3c1.7,0,3-1.3,3-3H76.1z M67.5,17.9v-3c-1.7,0-3,1.3-3,3
	H67.5z M67.5,26h-3c0,1.7,1.3,3,3,3V26z M78.6,26h3c0-1.7-1.3-3-3-3V26z M78.6,29.5v3c1.7,0,3-1.3,3-3H78.6z M53.8,29.5V26h-6v3.6
	H53.8z M50.8,29h3.8v-6h-3.8V29z M57.5,26V12.4h-6V26H57.5z M54.5,15.4h3.8v-6h-3.8V15.4z M55.3,12.4V26h6V12.4H55.3z M58.3,29h5.3
	v-6h-5.3V29z M66.6,26V7.6h-6V26H66.6z M63.6,4.6H51.8v6h11.8V4.6z M54.8,7.6V4.1h-6v3.6H54.8z M51.8,7.1h25.9v-6H51.8V7.1z
	 M74.7,4.1v3.6h6V4.1H74.7z M77.7,4.6H67.5v6h10.2V4.6z M64.5,7.6v6.8h6V7.6H64.5z M67.5,17.4h8.6v-6h-8.6V17.4z M73.1,14.4v3.6h6
	v-3.6H73.1z M76.1,14.9h-8.6v6h8.6V14.9z M64.5,17.9v8h6v-8H64.5z M67.5,29h11.1v-6H67.5V29z M75.6,26v3.6h6V26H75.6z M78.6,26.5
	H50.8v6h27.8V26.5z M88.1,13.4h3c0-0.8-0.3-1.6-1-2.2L88.1,13.4z M86.9,12.4l-2,2.3c0,0,0.1,0.1,0.1,0.1L86.9,12.4z M85.7,11.5
	l-2.2-2c-0.6,0.6-0.9,1.5-0.8,2.4c0.1,0.9,0.6,1.7,1.3,2.1L85.7,11.5z M88.5,7.3L85.7,6c0,0,0,0,0,0L88.5,7.3z M90.3,2.1l0.6-2.9
	c-1.6-0.3-3.2,0.7-3.5,2.2L90.3,2.1z M93.5,2.8l2.9,0.8c0.2-0.8,0.1-1.7-0.3-2.4c-0.4-0.7-1.1-1.2-2-1.4L93.5,2.8z M93.2,3.8L90.3,3
	l0,0L93.2,3.8z M92.8,4.9L90,4.1C89.7,5,89.9,6,90.4,6.7c0.6,0.8,1.5,1.2,2.4,1.2V4.9z M95.6,4.9v3c0.3,0,0.7-0.1,1-0.2L95.6,4.9z
	 M96.1,4.8l1.6-2.5c-0.8-0.5-1.7-0.6-2.6-0.3L96.1,4.8z M98.1,6.1l2.8,1c0.5-1.3,0-2.8-1.2-3.5L98.1,6.1z M97.4,8l-2.7-1.2
	c0,0,0,0,0,0L97.4,8z M96.5,9.9l-2.7-1.4c-0.5,0.9-0.4,2,0.1,2.9c0.5,0.9,1.5,1.4,2.6,1.4V9.9z M99.9,9.9h3c0-1.7-1.3-3-3-3V9.9z
	 M99.9,11.8h-3c0,1,0.5,2,1.4,2.5c0.9,0.6,1.9,0.6,2.9,0.2L99.9,11.8z M102.6,9.6L100.1,8c0,0,0,0,0,0L102.6,9.6z M103.8,6.6
	l2.9,0.6c0.2-0.9-0.1-1.8-0.6-2.5c-0.6-0.7-1.4-1.1-2.3-1.1V6.6z M100.4,6.6h-3c0,1.7,1.3,3,3,3V6.6z M100.4,3.6v-3
	c-1.7,0-3,1.3-3,3H100.4z M113.9,3.6h3c0-1.7-1.3-3-3-3V3.6z M113.9,5.7l-3-0.1l0,0L113.9,5.7z M113.7,8.4l-3-0.3c0,0,0,0,0,0.1
	L113.7,8.4z M113.4,10.9l-2.9-0.6l0,0L113.4,10.9z M112.8,12.6l-2.3-2c0,0,0,0.1-0.1,0.1L112.8,12.6z M110.9,13.6l-0.5-3l0,0
	L110.9,13.6z M110,13.7v3c0.1,0,0.1,0,0.2,0L110,13.7z M107.8,13.7l-3,0.3c0.1,1.6,1.4,2.7,3,2.7V13.7z M107.6,12.2l-2.9,0.7
	c0,0,0,0.1,0,0.1L107.6,12.2z M107,10.8l0.3-3c-1.1-0.1-2.2,0.4-2.8,1.4c-0.6,1-0.6,2.2,0,3.1L107,10.8z M109.7,10.8l0.9,2.8v0
	L109.7,10.8z M110.1,10.5l-2.3-2c-0.1,0.1-0.1,0.2-0.2,0.2L110.1,10.5z M110.4,9.4l-3-0.4c0,0,0,0.1,0,0.1L110.4,9.4z M110.6,6.6
	l3,0.1c0-0.8-0.3-1.6-0.8-2.2c-0.6-0.6-1.4-0.9-2.2-0.9V6.6z M107,6.6v-3c-1.5,0-2.7,1.1-3,2.5L107,6.6z M102.2,14l-1.4-2.6
	c-1.1,0.6-1.7,1.8-1.5,3.1c0.2,1.2,1.1,2.2,2.4,2.5L102.2,14z M105,14.6l3,0.4c0.2-1.6-0.8-3-2.4-3.3L105,14.6z M104.8,15.6l2.9,0.6
	c0,0,0,0,0,0L104.8,15.6z M104.5,16.5l-2.8-0.9c-0.3,0.9-0.2,1.9,0.4,2.7c0.6,0.8,1.5,1.2,2.4,1.2V16.5z M106.1,16.5v3
	c1.7,0,3-1.3,3-3H106.1z M106.1,13.8v-3c-1.7,0-3,1.3-3,3H106.1z M109.5,13.8h3c0-1.7-1.3-3-3-3V13.8z M109.5,16.5h-3
	c0,1.7,1.3,3,3,3V16.5z M114.1,16.5h3c0-1.7-1.3-3-3-3V16.5z M114.1,19.6v3c1.7,0,3-1.3,3-3H114.1z M109.5,19.6v-3c-1.7,0-3,1.3-3,3
	H109.5z M109.5,22.4h-3c0,1.7,1.3,3,3,3V22.4z M114.7,22.4h3c0-1.7-1.3-3-3-3V22.4z M114.7,25.5v3c1.7,0,3-1.3,3-3H114.7z
	 M109.5,25.5v-3c-1.7,0-3,1.3-3,3H109.5z M109.5,30.5v3c1.7,0,3-1.3,3-3H109.5z M106.1,30.5h-3c0,1.7,1.3,3,3,3V30.5z M106.1,25.5h3
	c0-1.7-1.3-3-3-3V25.5z M100.4,25.5h-3c0,1.7,1.3,3,3,3V25.5z M100.4,22.4v-3c-1.7,0-3,1.3-3,3H100.4z M106.1,22.4v3
	c1.7,0,3-1.3,3-3H106.1z M106.1,19.6h3c0-1.7-1.3-3-3-3V19.6z M103.5,19.6v-3c-1.2,0-2.4,0.8-2.8,1.9L103.5,19.6z M102.9,20.9
	l-2.7-1.4c0,0,0,0,0,0.1L102.9,20.9z M102.3,22l-1.8,2.4c0.7,0.5,1.5,0.7,2.3,0.6c0.8-0.1,1.5-0.6,2-1.3L102.3,22z M101.2,21.3
	L99.8,24c0,0,0.1,0,0.1,0L101.2,21.3z M99.9,20.7l1.2-2.7c-0.9-0.4-2-0.3-2.9,0.2c-0.9,0.6-1.4,1.5-1.4,2.5H99.9z M99.7,28.9l-2.8-1
	c0,0,0,0.1,0,0.1L99.7,28.9z M98.7,30l-1.4-2.6l0,0L98.7,30z M97.1,30.5l-0.3-3c0,0-0.1,0-0.1,0L97.1,30.5z M94.7,30.6l-3,0.3
	c0.1,1.5,1.4,2.7,3,2.7V30.6z M94.3,29.1L91.4,30c0,0,0,0.1,0,0.1L94.3,29.1z M93.6,27.6l0.2-3c-1.1-0.1-2.2,0.5-2.8,1.4
	c-0.6,0.9-0.6,2.1-0.1,3.1L93.6,27.6z M96.9,22.7h3c0-1.7-1.3-3-3-3V22.7z M90.9,22.7v-3c-1.5,0-2.8,1.1-3,2.6L90.9,22.7z M90,27
	l-2.9-0.8c0,0,0,0,0,0L90,27z M88.4,30.7l-2.1,2.1c0.6,0.6,1.5,1,2.5,0.9s1.7-0.6,2.2-1.4L88.4,30.7z M87.9,30.3l-1.7,2.5l0,0
	L87.9,30.3z M87.2,29.8l1.8-2.4c-0.1,0-0.1-0.1-0.2-0.1L87.2,29.8z M86.5,29.4L85.1,32l0,0L86.5,29.4z M85.9,29.1l-2.5-1.6
	c-0.5,0.7-0.6,1.6-0.4,2.4c0.2,0.8,0.8,1.5,1.6,1.9L85.9,29.1z M87.1,26.5l2.9,0.9c0,0,0,0,0,0L87.1,26.5z M87.8,23.6l-3-0.5
	c0,0,0,0,0,0.1L87.8,23.6z M101.4,14.5l-2.7,1.3c0.7,1.4,2.3,2,3.8,1.4L101.4,14.5z M100.7,13.5l-2.5,1.7c0,0,0,0.1,0.1,0.1
	L100.7,13.5z M99.9,12.4l2.2-2c-0.8-0.9-2.1-1.2-3.3-0.7c-1.1,0.5-1.9,1.6-1.9,2.8H99.9z M99.9,20.2h-3c0,1.3,0.9,2.5,2.2,2.9
	c1.3,0.4,2.7-0.1,3.4-1.3L99.9,20.2z M101.2,17.4l2.8,1c0,0,0,0,0,0L101.2,17.4z M102,14.2l3,0.5c0.2-1.1-0.2-2.2-1.1-2.8
	s-2-0.9-3-0.5L102,14.2z M101.7,14.4l1.1,2.8c0.1-0.1,0.3-0.1,0.4-0.2L101.7,14.4z M91.8,7.7v-3c-1.2,0-2.3,0.7-2.8,1.8L91.8,7.7z
	 M90.8,9.9l-2.7-1.3c-0.5,0.9-0.4,2,0.1,2.9c0.5,0.9,1.5,1.4,2.6,1.4V9.9z M93.4,9.9v3c1.1,0,2.2-0.6,2.7-1.7L93.4,9.9z M93.9,8.8
	L91,7.9v0L93.9,8.8z M94.3,7.7l2.8,1.1c0.4-0.9,0.2-2-0.3-2.8c-0.6-0.8-1.5-1.3-2.5-1.3V7.7z M92.8,20v3c1.7,0,3-1.3,3-3H92.8z
	 M92.8,17.4h3c0-1.7-1.3-3-3-3V17.4z M91,17.4v-3c-1.7,0-3,1.3-3,3H91z M91,20l-3-0.2c0,0.8,0.2,1.6,0.8,2.2
	c0.6,0.6,1.4,0.9,2.2,0.9V20z M96.9,20v3c1.7,0,3-1.3,3-3H96.9z M96.9,17.4h3c0-1.7-1.3-3-3-3V17.4z M95.2,17.4v-3c-1.7,0-3,1.3-3,3
	H95.2z M95.2,20h-3c0,1.7,1.3,3,3,3V20z M95.2,14.9h-3c0,1.7,1.3,3,3,3V14.9z M96.9,14.9v3c1.7,0,3-1.3,3-3H96.9z M96.9,12.6h3
	c0-1.7-1.3-3-3-3V12.6z M95.2,12.6v-3c-1.7,0-3,1.3-3,3H95.2z M91,12.6v-3c-1.7,0-3,1.3-3,3H91z M91,14.9h-3c0,1.7,1.3,3,3,3V14.9z
	 M92.8,14.9v3c1.7,0,3-1.3,3-3H92.8z M92.8,12.6h3c0-1.7-1.3-3-3-3V12.6z M90.2,11.2c-0.4-0.4-0.9-0.8-1.4-1.2l-3.7,4.7
	c0.4,0.4,0.8,0.6,1,0.9L90.2,11.2z M88.9,10.1c-0.5-0.4-1-0.8-1.5-1.2l-3.3,5c0.2,0.1,0.5,0.3,0.9,0.7L88.9,10.1z M87.9,13.5
	c1.3-1.4,2.4-3.1,3.2-5L85.7,6c-0.7,1.4-1.4,2.6-2.2,3.4L87.9,13.5z M91.2,8.6c0.9-1.9,1.6-3.8,2-5.8l-5.8-1.4C87,3,86.4,4.5,85.7,6
	L91.2,8.6z M89.7,5l3.2,0.7l1.2-5.9l-3.2-0.7L89.7,5z M90.6,1.9c-0.1,0.4-0.2,0.7-0.3,1.1L96,4.7c0.1-0.4,0.2-0.7,0.3-1.1L90.6,1.9z
	 M90.3,3c-0.1,0.4-0.2,0.7-0.3,1.1l5.8,1.7C95.8,5.4,95.9,5,96,4.7L90.3,3z M92.8,7.9h2.8v-6h-2.8V7.9z M96.6,7.8l0.4-0.2l-2-5.7
	l-0.4,0.2L96.6,7.8z M94.5,7.3l2.1,1.3l3.2-5.1l-2.1-1.3L94.5,7.3z M95.3,5.1c-0.2,0.5-0.4,1.1-0.7,1.7l5.5,2.4
	c0.3-0.7,0.6-1.4,0.8-2.1L95.3,5.1z M94.6,6.8c-0.2,0.6-0.5,1.2-0.8,1.7l5.3,2.8c0.4-0.7,0.7-1.4,1-2.1L94.6,6.8z M96.5,12.9h3.4v-6
	h-3.4V12.9z M96.9,9.9v1.9h6V9.9H96.9z M101.1,14.5c1.6-0.7,3.1-1.8,4-3.3L100.1,8c-0.1,0.2-0.5,0.6-1.4,1L101.1,14.5z M105.2,11.2
	c0.8-1.2,1.3-2.6,1.6-4.1l-5.9-1.1c-0.2,0.8-0.4,1.4-0.7,2L105.2,11.2z M103.8,3.6h-3.4v6h3.4V3.6z M103.4,6.6v-3h-6v3H103.4z
	 M100.4,6.6h13.6v-6h-13.6V6.6z M110.9,3.6c0,0.4,0,1.1,0,1.9l6,0.1c0-0.9,0-1.6,0-2.1H110.9z M110.9,5.6c0,0.8-0.1,1.6-0.1,2.5
	l6,0.5c0.1-1,0.1-2,0.2-2.9L110.9,5.6z M110.7,8.2c-0.1,0.8-0.2,1.6-0.3,2.2l5.9,1.1c0.2-0.9,0.3-1.9,0.4-2.9L110.7,8.2z
	 M110.5,10.4c0,0.1-0.1,0.3-0.1,0.3c0,0.1,0,0.1-0.1,0.2c0,0,0,0,0,0c0,0,0.1-0.1,0.2-0.2l4.6,3.9c0.8-0.9,1.1-2.2,1.3-3L110.5,10.4
	z M110.5,10.7c0,0.1,0,0,0.2-0.1l2.7,5.4c0.8-0.4,1.4-0.9,1.8-1.5L110.5,10.7z M110.6,10.6c0,0,0,0-0.2,0l1,5.9
	c0.6-0.1,1.3-0.3,1.9-0.6L110.6,10.6z M110.5,10.6c-0.1,0-0.3,0-0.6,0.1l0.3,6c0.4,0,0.9-0.1,1.3-0.1L110.5,10.6z M110,10.7
	C110,10.7,110,10.7,110,10.7C110,10.7,110,10.7,110,10.7C110,10.7,110,10.7,110,10.7C110,10.7,110,10.7,110,10.7
	C110,10.7,110,10.7,110,10.7C110,10.7,110,10.7,110,10.7C110,10.7,110,10.7,110,10.7C110,10.7,110,10.7,110,10.7
	C110,10.7,110,10.7,110,10.7C110,10.7,110,10.7,110,10.7C110,10.7,110,10.7,110,10.7C110,10.7,110,10.7,110,10.7
	C110,10.7,110,10.7,110,10.7C110,10.7,110,10.7,110,10.7C110,10.7,110,10.7,110,10.7C110,10.7,110,10.7,110,10.7
	C110,10.7,109.9,10.7,110,10.7C109.9,10.7,109.9,10.7,110,10.7C109.9,10.7,109.9,10.7,110,10.7C109.9,10.7,109.9,10.7,110,10.7
	C109.9,10.7,109.9,10.7,110,10.7C109.9,10.7,109.9,10.7,110,10.7C109.9,10.7,109.9,10.7,110,10.7C109.9,10.7,109.9,10.7,110,10.7
	C109.9,10.7,109.9,10.7,110,10.7C109.9,10.7,109.9,10.7,110,10.7C109.9,10.7,109.9,10.7,110,10.7C109.9,10.7,109.9,10.7,110,10.7
	C109.9,10.7,109.9,10.7,110,10.7C109.9,10.7,109.9,10.7,110,10.7C109.9,10.7,109.9,10.7,110,10.7C109.9,10.7,109.9,10.7,110,10.7
	C109.9,10.7,109.9,10.7,110,10.7C109.9,10.7,109.9,10.7,110,10.7C109.9,10.7,109.9,10.7,110,10.7C109.9,10.7,109.9,10.7,110,10.7
	C109.9,10.7,109.9,10.7,110,10.7C109.9,10.7,109.9,10.7,110,10.7C109.9,10.7,109.9,10.7,110,10.7C109.9,10.7,109.9,10.7,110,10.7
	C109.9,10.7,109.9,10.7,110,10.7C109.9,10.7,109.9,10.7,110,10.7C109.9,10.7,109.9,10.7,110,10.7C109.9,10.7,109.9,10.7,110,10.7
	c-0.1,0-0.1,0-0.1,0s0,0,0,0c0,0,0,0,0,0c0,0,0,0,0,0s0,0,0,0s0,0,0,0c0,0,0,0,0,0c0,0,0,0,0,0s0,0,0,0c0,0,0,0,0,0c0,0,0,0,0,0
	s0,0,0,0s0,0,0,0c0,0,0,0,0,0c0,0,0,0,0,0c0,0,0,0,0,0c0,0,0,0,0,0c0,0,0,0,0,0s0,0,0,0s0,0,0,0c0,0,0,0,0,0c0,0,0,0,0,0s0,0,0,0
	c0,0,0,0,0,0c0,0,0,0,0,0s0,0,0,0c0,0,0,0,0,0c0,0,0,0,0,0s0,0,0,0s0,0,0,0c0,0,0,0,0,0s0,0,0,0s0,0,0,0c0,0,0,0,0,0c0,0,0,0,0,0
	s0,0,0,0c0,0,0,0,0,0c0,0,0,0,0,0s0,0,0,0c0,0,0,0,0,0c0,0,0,0,0,0s0,0,0,0s0,0,0,0c0,0,0,0,0,0s0,0,0,0c0,0,0,0,0,0c0,0,0,0,0,0
	s0,0,0,0s0,0,0,0c0,0,0,0,0,0s0,0,0,0c0,0,0,0,0,0c0,0,0,0,0,0c0,0,0,0,0,0s0,0,0,0c0,0,0,0,0,0c0,0,0,0,0,0c0,0,0,0,0,0
	c0,0,0,0,0,0c0,0,0,0,0,0s0,0,0,0c0,0,0,0,0,0c0,0,0,0,0,0c0,0,0,0,0,0s0,0,0,0c0,0,0,0,0,0s0,0,0,0s0,0,0,0c0,0,0,0,0,0
	c0,0,0,0,0,0s0,0,0,0c0,0,0,0,0,0s0,0,0,0s0,0,0,0c0,0,0,0,0,0c0,0,0,0,0,0s0,0,0,0c0,0,0,0,0,0s0,0,0,0c0,0,0,0,0,0c0,0,0,0,0,0
	c0,0,0,0,0,0c0,0,0,0,0,0c0,0,0,0,0,0s0,0,0,0c0,0,0,0,0,0c0,0,0,0,0,0c0,0,0,0,0,0c0,0,0,0,0,0s0,0,0,0s0,0,0,0c0,0,0,0,0,0
	s0,0,0,0c0,0,0,0,0,0c0,0,0,0,0,0s0,0,0,0s0,0,0,0c0,0,0,0,0,0s0,0,0,0c0,0,0,0,0,0c0,0,0,0,0,0s0,0,0,0c0,0,0,0,0,0c0,0,0,0,0,0
	s0,0,0,0c0,0,0,0,0,0s0,0,0,0s0,0,0,0c0,0,0,0,0,0s0,0,0,0s0,0,0,0c0,0,0,0,0,0s0,0,0,0s0,0,0,0c0,0,0,0,0,0s0,0,0,0c0,0,0,0,0,0
	s0,0,0,0s0,0,0,0c0,0,0,0,0,0s0,0,0,0s0,0,0,0c0,0,0,0,0,0s0,0,0,0c0,0,0,0,0,0s0,0,0,0s0,0,0,0c0,0,0,0,0,0c0,0,0,0,0,0s0,0,0,0
	c0,0,0,0,0,0s0,0,0,0c0,0,0,0,0,0s0,0,0,0c0,0,0,0,0,0c0,0,0,0,0,0s0,0,0,0s0,0,0,0c0,0,0,0,0,0s0,0,0,0c0,0,0,0,0,0s0,0,0,0
	s0,0,0,0c0,0,0,0,0,0s0,0,0,0c0,0,0,0,0,0s0,0,0,0s0,0,0,0c0,0,0,0,0,0s0,0,0,0s0,0,0,0c0,0,0,0,0,0s0,0,0,0c0,0,0,0,0,0s0,0,0,0
	s0,0,0,0c0,0,0,0,0,0c0,0,0,0,0,0c0,0,0,0,0,0s0,0,0,0s0,0,0,0c0,0,0,0,0,0s0,0,0,0c0,0,0,0,0,0s0,0,0,0s0,0,0,0c0,0,0,0,0,0
	s0,0,0,0c0,0,0,0,0,0s0,0,0,0s0,0,0,0c0,0,0,0,0,0s0,0,0,0c0,0,0,0,0,0c0,0,0,0,0,0c0,0,0,0,0,0s0,0,0,0s0,0,0,0c0,0,0,0,0,0
	s0,0,0,0c0,0,0,0,0,0s0,0,0,0s0,0,0,0c0,0,0,0,0,0s0,0,0,0c0,0,0,0,0,0c0,0,0,0,0,0s0,0,0,0s0,0,0,0s0,0,0,0c0,0,0,0,0,0s0,0,0,0
	c0,0,0,0,0,0s0,0,0,0s0,0,0,0c0,0,0,0,0,0s0,0,0,0c0,0,0,0,0,0s0,0,0,0c0,0,0,0,0,0s0,0,0,0s0,0,0,0c0,0,0,0,0,0c0,0,0,0,0,0
	c0,0,0,0,0,0s0,0,0,0c0,0,0,0,0,0s0,0,0,0s0,0,0,0c0,0,0,0,0,0s0,0,0,0c0,0,0,0,0,0s0,0,0,0c0,0,0,0,0,0s0,0,0,0c0,0,0,0,0,0
	s0,0,0,0s0,0,0,0c0,0,0,0,0,0s0,0,0,0c0,0,0,0,0,0s0,0,0,0c0,0,0,0,0,0s0,0,0,0s0,0,0,0s0,0,0,0c0,0,0,0,0,0c0,0,0,0,0,0s0,0,0,0
	c0,0,0,0,0,0s0,0,0,0c0,0,0,0,0,0s0,0,0,0c0,0,0,0,0,0s0,0,0,0s0,0,0,0s0,0,0,0c0,0,0,0,0,0c0,0,0,0,0,0s0,0,0,0c0,0,0,0,0,0
	s0,0,0,0c0,0,0,0,0,0c0,0,0,0,0,0c0,0,0,0,0,0s0,0,0,0s0,0,0,0s0,0,0,0s0,0,0,0s0,0,0,0s0,0,0,0c0,0,0,0,0,0s0,0,0,0c0,0,0,0,0,0
	c0,0,0,0,0,0c0,0,0,0,0,0s0,0,0,0c0,0,0,0,0,0s0,0,0,0c0,0,0,0,0,0c0,0,0,0,0,0s0,0,0,0s0,0,0,0s0,0,0,0s0,0,0,0s0,0,0,0s0,0,0,0
	s0,0,0,0c0,0,0,0,0,0s0,0,0,0c0,0,0,0,0,0c0,0,0,0,0,0c0,0,0,0,0,0s0,0,0,0c0,0,0,0,0,0s0,0,0,0c0,0,0,0,0,0s0,0,0,0c0,0,0,0,0,0
	s0,0,0,0c0,0,0,0,0,0s0,0,0,0c0,0,0,0,0,0s0,0,0,0c0,0,0,0,0,0s0,0,0,0c0,0,0,0,0,0s0,0,0,0c0,0,0,0,0,0s0,0,0,0c0,0,0,0,0,0
	s0,0,0,0c0,0,0,0,0,0c0,0,0,0,0,0c0,0,0,0,0,0s0,0,0,0c0,0,0,0,0,0s0,0,0,0c0,0,0,0,0,0c0,0,0,0,0,0c0,0,0,0,0,0s0,0,0,0
	c0,0,0,0,0,0s0,0,0,0c0,0,0,0,0,0s0,0,0,0c0,0,0,0,0,0s0,0,0,0c0,0,0,0,0,0s0,0,0,0c0,0,0,0,0,0s0,0,0,0c0,0,0,0,0,0s0,0,0,0
	c0,0,0,0,0,0s0,0,0,0c0,0,0,0,0,0s0,0,0,0c0,0,0,0,0,0s0,0,0,0c0,0,0,0,0,0c0,0,0,0,0,0c0,0,0,0,0,0s0,0,0,0c0,0,0,0,0,0s0,0,0,0
	c0,0,0,0,0,0s0,0,0,0s0,0,0,0s0,0,0,0s0,0,0,0s0,0,0,0c0,0,0,0,0,0s0,0,0,0s0,0,0,0c0,0,0,0,0,0s0,0,0,0c0,0,0,0,0,0s0,0,0,0
	c0,0,0,0,0,0s0,0,0,0c0,0,0,0,0,0s0,0,0,0c0,0,0,0,0,0s0,0,0,0s0,0,0,0s0,0,0,0s0,0,0,0s0,0,0,0s0,0,0,0c0,0,0,0,0,0s0,0,0,0
	c0,0,0,0,0,0s0,0,0,0c0,0,0,0,0,0s0,0,0,0c0,0,0,0,0,0s0,0,0,0s0,0,0,0s0,0,0,0s0,0,0,0s0,0,0,0s0,0,0,0c0,0,0,0,0,0s0,0,0,0
	c0,0,0,0,0,0s0,0,0,0c0,0,0,0,0,0s0,0,0,0s0,0,0,0c0,0,0,0,0,0s0,0,0,0c0,0,0,0,0,0s0,0,0,0c0,0,0,0,0,0s0,0,0,0c0,0,0,0,0,0
	s0,0,0,0s0,0,0,0s0,0,0,0s0,0,0,0c0,0,0,0,0,0s0,0,0,0c0,0,0,0,0,0s0,0,0,0s0,0,0,0s0,0,0,0s0,0,0,0s0,0,0,0s0,0,0,0c0,0,0,0,0,0
	s0,0,0,0c0,0,0,0,0,0s0,0,0,0s0,0,0,0s0,0,0,0s0,0,0,0c0,0,0,0,0,0s0,0,0,0c0,0,0,0,0,0s0,0,0,0s0,0,0,0s0,0,0,0c0,0,0,0,0,0
	c0,0,0,0,0,0s0,0,0,0s0,0,0,0s0,0,0,0c0,0,0,0,0,0c0,0,0,0,0,0s0,0,0,0c0,0,0,0,0,0s0,0,0,0s0,0,0,0c0,0,0,0,0,0s0,0,0,0
	c0,0,0,0,0,0s0,0,0,0s0,0,0,0c0,0,0,0,0,0s0,0,0,0c0,0,0,0,0,0s0,0,0,0c0,0,0,0,0,0c0,0,0,0,0,0s0,0,0,0c0,0,0,0,0,0s0,0,0,0
	c0,0,0,0,0,0s0,0,0,0s0,0,0,0c0,0,0,0,0,0s0,0,0,0c0,0,0,0,0,0s0,0,0,0c0,0,0,0,0,0c0,0,0,0,0,0s0,0,0,0c0,0,0,0,0,0s0,0,0,0
	c0,0,0,0,0,0c0,0,0,0,0,0s0,0,0,0c0,0,0,0,0,0s0,0,0,0s0,0,0,0c0,0,0,0,0,0s0,0,0,0s0,0,0,0s0,0,0,0s0,0,0,0c0,0,0,0,0,0s0,0,0,0
	s0,0,0,0s0,0,0,0s0,0,0,0c0,0,0,0,0,0s0,0,0,0s0,0,0,0c0,0,0,0,0,0s0,0,0,0s0,0,0,0c0,0,0,0,0,0s0,0,0,0c0,0,0,0,0,0s0,0,0,0
	s0,0,0,0c0,0,0,0,0,0v6c0,0,0,0,0,0c0,0,0,0,0,0s0,0,0,0s0,0,0,0c0,0,0,0,0,0s0,0,0,0c0,0,0,0,0,0s0,0,0,0s0,0,0,0c0,0,0,0,0,0
	s0,0,0,0s0,0,0,0c0,0,0,0,0,0s0,0,0,0s0,0,0,0s0,0,0,0s0,0,0,0c0,0,0,0,0,0s0,0,0,0s0,0,0,0s0,0,0,0s0,0,0,0c0,0,0,0,0,0s0,0,0,0
	s0,0,0,0c0,0,0,0,0,0s0,0,0,0c0,0,0,0,0,0c0,0,0,0,0,0s0,0,0,0c0,0,0,0,0,0s0,0,0,0c0,0,0,0,0,0c0,0,0,0,0,0s0,0,0,0c0,0,0,0,0,0
	s0,0,0,0c0,0,0,0,0,0s0,0,0,0s0,0,0,0c0,0,0,0,0,0s0,0,0,0c0,0,0,0,0,0s0,0,0,0c0,0,0,0,0,0c0,0,0,0,0,0s0,0,0,0c0,0,0,0,0,0
	s0,0,0,0c0,0,0,0,0,0s0,0,0,0s0,0,0,0c0,0,0,0,0,0s0,0,0,0c0,0,0,0,0,0s0,0,0,0s0,0,0,0c0,0,0,0,0,0s0,0,0,0c0,0,0,0,0,0
	c0,0,0,0,0,0s0,0,0,0s0,0,0,0s0,0,0,0c0,0,0,0,0,0c0,0,0,0,0,0s0,0,0,0s0,0,0,0s0,0,0,0c0,0,0,0,0,0s0,0,0,0c0,0,0,0,0,0s0,0,0,0
	s0,0,0,0s0,0,0,0s0,0,0,0c0,0,0,0,0,0s0,0,0,0c0,0,0,0,0,0s0,0,0,0s0,0,0,0s0,0,0,0s0,0,0,0s0,0,0,0s0,0,0,0c0,0,0,0,0,0s0,0,0,0
	c0,0,0,0,0,0s0,0,0,0s0,0,0,0s0,0,0,0s0,0,0,0c0,0,0,0,0,0s0,0,0,0c0,0,0,0,0,0s0,0,0,0c0,0,0,0,0,0s0,0,0,0c0,0,0,0,0,0s0,0,0,0
	s0,0,0,0c0,0,0,0,0,0s0,0,0,0c0,0,0,0,0,0s0,0,0,0c0,0,0,0,0,0s0,0,0,0s0,0,0,0s0,0,0,0s0,0,0,0s0,0,0,0s0,0,0,0c0,0,0,0,0,0
	s0,0,0,0c0,0,0,0,0,0s0,0,0,0c0,0,0,0,0,0s0,0,0,0c0,0,0,0,0,0s0,0,0,0s0,0,0,0s0,0,0,0s0,0,0,0s0,0,0,0s0,0,0,0c0,0,0,0,0,0
	s0,0,0,0c0,0,0,0,0,0s0,0,0,0c0,0,0,0,0,0s0,0,0,0c0,0,0,0,0,0s0,0,0,0c0,0,0,0,0,0s0,0,0,0s0,0,0,0c0,0,0,0,0,0s0,0,0,0s0,0,0,0
	s0,0,0,0s0,0,0,0s0,0,0,0c0,0,0,0,0,0s0,0,0,0c0,0,0,0,0,0s0,0,0,0c0,0,0,0,0,0c0,0,0,0,0,0c0,0,0,0,0,0s0,0,0,0c0,0,0,0,0,0
	s0,0,0,0c0,0,0,0,0,0s0,0,0,0c0,0,0,0,0,0s0,0,0,0c0,0,0,0,0,0s0,0,0,0c0,0,0,0,0,0s0,0,0,0c0,0,0,0,0,0s0,0,0,0c0,0,0,0,0,0
	s0,0,0,0c0,0,0,0,0,0s0,0,0,0c0,0,0,0,0,0s0,0,0,0c0,0,0,0,0,0c0,0,0,0,0,0c0,0,0,0,0,0s0,0,0,0c0,0,0,0,0,0s0,0,0,0c0,0,0,0,0,0
	c0,0,0,0,0,0c0,0,0,0,0,0s0,0,0,0c0,0,0,0,0,0s0,0,0,0c0,0,0,0,0,0s0,0,0,0c0,0,0,0,0,0s0,0,0,0c0,0,0,0,0,0s0,0,0,0c0,0,0,0,0,0
	s0,0,0,0c0,0,0,0,0,0s0,0,0,0c0,0,0,0,0,0s0,0,0,0c0,0,0,0,0,0s0,0,0,0c0,0,0,0,0,0s0,0,0,0c0,0,0,0,0,0c0,0,0,0,0,0c0,0,0,0,0,0
	s0,0,0,0c0,0,0,0,0,0s0,0,0,0s0,0,0,0s0,0,0,0s0,0,0,0s0,0,0,0s0,0,0,0s0,0,0,0c0,0,0,0,0,0c0,0,0,0,0,0s0,0,0,0c0,0,0,0,0,0
	s0,0,0,0c0,0,0,0,0,0c0,0,0,0,0,0c0,0,0,0,0,0s0,0,0,0c0,0,0,0,0,0s0,0,0,0s0,0,0,0s0,0,0,0s0,0,0,0s0,0,0,0s0,0,0,0c0,0,0,0,0,0
	c0,0,0,0,0,0c0,0,0,0,0,0s0,0,0,0c0,0,0,0,0,0s0,0,0,0c0,0,0,0,0,0c0,0,0,0,0,0s0,0,0,0s0,0,0,0s0,0,0,0c0,0,0,0,0,0s0,0,0,0
	c0,0,0,0,0,0s0,0,0,0c0,0,0,0,0,0s0,0,0,0c0,0,0,0,0,0c0,0,0,0,0,0s0,0,0,0s0,0,0,0s0,0,0,0c0,0,0,0,0,0s0,0,0,0c0,0,0,0,0,0
	s0,0,0,0c0,0,0,0,0,0s0,0,0,0s0,0,0,0c0,0,0,0,0,0s0,0,0,0c0,0,0,0,0,0s0,0,0,0c0,0,0,0,0,0s0,0,0,0c0,0,0,0,0,0s0,0,0,0s0,0,0,0
	c0,0,0,0,0,0s0,0,0,0c0,0,0,0,0,0c0,0,0,0,0,0c0,0,0,0,0,0s0,0,0,0s0,0,0,0c0,0,0,0,0,0s0,0,0,0c0,0,0,0,0,0s0,0,0,0c0,0,0,0,0,0
	s0,0,0,0s0,0,0,0c0,0,0,0,0,0s0,0,0,0c0,0,0,0,0,0s0,0,0,0s0,0,0,0s0,0,0,0c0,0,0,0,0,0c0,0,0,0,0,0s0,0,0,0c0,0,0,0,0,0s0,0,0,0
	s0,0,0,0c0,0,0,0,0,0s0,0,0,0c0,0,0,0,0,0s0,0,0,0s0,0,0,0c0,0,0,0,0,0c0,0,0,0,0,0c0,0,0,0,0,0s0,0,0,0c0,0,0,0,0,0s0,0,0,0
	s0,0,0,0c0,0,0,0,0,0s0,0,0,0c0,0,0,0,0,0s0,0,0,0s0,0,0,0c0,0,0,0,0,0s0,0,0,0c0,0,0,0,0,0s0,0,0,0s0,0,0,0c0,0,0,0,0,0
	c0,0,0,0,0,0c0,0,0,0,0,0s0,0,0,0s0,0,0,0c0,0,0,0,0,0s0,0,0,0c0,0,0,0,0,0s0,0,0,0s0,0,0,0c0,0,0,0,0,0s0,0,0,0s0,0,0,0
	c0,0,0,0,0,0s0,0,0,0c0,0,0,0,0,0s0,0,0,0s0,0,0,0c0,0,0,0,0,0s0,0,0,0c0,0,0,0,0,0s0,0,0,0s0,0,0,0c0,0,0,0,0,0c0,0,0,0,0,0
	s0,0,0,0c0,0,0,0,0,0s0,0,0,0c0,0,0,0,0,0s0,0,0,0c0,0,0,0,0,0c0,0,0,0,0,0s0,0,0,0s0,0,0,0c0,0,0,0,0,0s0,0,0,0c0,0,0,0,0,0
	s0,0,0,0s0,0,0,0c0,0,0,0,0,0s0,0,0,0s0,0,0,0c0,0,0,0,0,0s0,0,0,0c0,0,0,0,0,0s0,0,0,0s0,0,0,0c0,0,0,0,0,0s0,0,0,0s0,0,0,0
	c0,0,0,0,0,0s0,0,0,0s0,0,0,0c0,0,0,0,0,0s0,0,0,0c0,0,0,0,0,0c0,0,0,0,0,0s0,0,0,0c0,0,0,0,0,0c0,0,0,0,0,0s0,0,0,0c0,0,0,0,0,0
	s0,0,0,0s0,0,0,0c0,0,0,0,0,0c0,0,0,0,0,0s0,0,0,0c0,0,0,0,0,0s0,0,0,0s0,0,0,0c0,0,0,0,0,0c0,0,0,0,0,0c0,0,0,0,0,0c0,0,0,0,0,0
	s0,0,0,0c0,0,0,0,0,0c0,0,0,0,0,0c0,0,0,0,0,0c0,0,0,0,0,0c0,0,0,0,0,0s0,0,0,0c0,0,0,0,0,0s0,0,0,0c0,0,0,0,0,0c0,0,0,0,0,0
	s0,0,0,0s0,0,0,0c0,0,0,0,0,0s0,0,0,0c0,0,0,0,0,0c0,0,0,0,0,0s0,0,0,0s0,0,0,0c0,0,0,0,0,0s0,0,0,0c0,0,0,0,0,0c0,0,0,0,0,0
	c0,0,0,0,0,0s0,0,0,0c0,0,0,0,0,0c0,0,0,0,0,0c0,0,0,0,0,0c0,0,0,0,0,0c0,0,0,0,0,0s0,0,0,0c0,0,0,0,0,0c0,0,0,0,0,0c0,0,0,0,0,0
	s0,0,0,0c0,0,0,0,0,0s0,0,0,0s0,0,0,0c0,0,0,0,0,0c0,0,0,0,0,0s0,0,0,0c0,0,0,0,0,0s0,0,0,0s0,0,0,0c0,0,0,0,0,0c0,0,0,0,0,0
	s0,0,0,0c0,0,0,0,0,0c0,0,0,0,0,0s0,0,0,0c0,0,0,0,0,0c0,0,0,0,0,0s0,0,0,0s0,0,0,0c0,0,0,0,0,0s0,0,0,0s0,0,0,0c0,0,0,0,0,0
	c0,0,0,0,0,0s0,0,0,0c0,0,0,0,0,0c0,0,0,0,0,0s0,0,0,0c0,0,0,0,0,0c0,0,0,0,0,0s0,0,0,0s0,0,0,0c0,0,0,0,0,0c0,0,0,0,0,0
	c0,0,0,0,0,0c0,0,0,0,0,0c0,0,0,0,0,0s0,0,0,0s0,0,0,0c0,0,0,0,0,0c0,0,0,0,0,0s0,0,0,0c0,0,0,0,0,0c0,0,0,0,0,0s0,0,0,0s0,0,0,0
	c0,0,0,0,0,0c0,0,0,0,0,0s0,0,0,0c0,0,0,0,0,0c0,0,0,0,0,0s0,0,0,0c0,0,0,0,0,0c0,0,0,0,0,0c0,0,0,0,0,0s0,0,0,0s0,0,0,0
	c0,0,0,0,0,0c0,0,0,0,0,0s0,0,0,0c0,0,0,0,0,0c0,0,0,0,0,0s0,0,0,0s0,0,0,0c0,0,0,0,0,0c0,0,0,0,0,0s0,0,0,0s0,0,0,0c0,0,0,0,0,0
	s0,0,0,0s0,0,0,0c0,0,0,0,0,0c0,0,0,0,0,0s0,0,0,0s0,0,0,0c0,0,0,0,0,0c0,0,0,0,0,0c0,0,0,0,0,0s0,0,0,0c0,0,0,0,0,0c0,0,0,0,0,0
	s0,0,0,0s0,0,0,0c0,0,0,0,0,0c0,0,0,0,0,0s0,0,0,0s0,0,0,0c0,0,0,0,0,0c0,0,0,0,0,0c0,0,0,0,0,0s0,0,0,0c0,0,0,0,0,0c0,0,0,0,0,0
	V10.7z M108.7,10.7h-0.9v6h0.9V10.7z M110.8,13.4c-0.1-0.7-0.2-1.4-0.4-2.1l-5.8,1.6c0.1,0.4,0.2,0.7,0.2,1L110.8,13.4z M110.5,11.5
	c-0.2-0.8-0.5-1.6-0.9-2.3l-5.1,3.1c0,0,0.1,0.2,0.2,0.5L110.5,11.5z M106.8,13.7c0.5,0,1,0.1,1.4,0.1l0.3-6c-0.3,0-0.8,0-1.2-0.1
	L106.8,13.7z M108.2,13.8c0.4,0,0.8,0,1.1,0v-6c-0.1,0-0.4,0-0.7,0L108.2,13.8z M109.2,13.9c0.4,0,0.9,0,1.4-0.2L108.8,8
	c0.1,0,0.3-0.1,0.3-0.1c0.1,0,0.1,0,0.1,0V13.9z M110.6,13.7c0.9-0.3,1.5-0.9,1.8-1.4l-4.9-3.5c0.1-0.2,0.5-0.6,1.1-0.8L110.6,13.7z
	 M112.3,12.5c0.5-0.6,0.7-1.2,0.8-1.6c0.1-0.4,0.2-0.8,0.2-1.2l-6-0.7c0,0.2,0,0.3,0,0.2c0,0,0-0.1,0.1-0.2c0-0.1,0.2-0.3,0.4-0.5
	L112.3,12.5z M113.3,9.8c0.1-0.7,0.2-1.8,0.3-3.1l-6-0.3c-0.1,1.3-0.1,2.1-0.2,2.5L113.3,9.8z M110.6,3.6H107v6h3.6V3.6z M104.1,6.1
	c-0.2,1.3-0.6,2.4-1.1,3.3l5.3,2.9c0.9-1.6,1.4-3.3,1.7-5.2L104.1,6.1z M103,9.4c-0.3,0.6-1,1.3-2.2,2l2.9,5.3
	c2-1.1,3.6-2.5,4.6-4.4L103,9.4z M101.7,17l2.7,0.5l1.2-5.9l-2.7-0.5L101.7,17z M102,14.2c0,0.3-0.1,0.5-0.1,0.8l5.9,1.1
	c0.1-0.4,0.1-0.8,0.2-1.1L102,14.2z M101.9,15c0,0.2-0.1,0.4-0.2,0.6l5.7,1.9c0.1-0.4,0.3-0.9,0.4-1.3L101.9,15z M104.5,19.5h1.5v-6
	h-1.5V19.5z M109.1,16.5v-2.8h-6v2.8H109.1z M106.1,16.8h3.5v-6h-3.5V16.8z M106.5,13.8v2.8h6v-2.8H106.5z M109.5,19.5h4.6v-6h-4.6
	V19.5z M111.1,16.5v3.1h6v-3.1H111.1z M114.1,16.6h-4.6v6h4.6V16.6z M106.5,19.6v2.8h6v-2.8H106.5z M109.5,25.4h5.2v-6h-5.2V25.4z
	 M111.7,22.4v3.1h6v-3.1H111.7z M114.7,22.5h-5.2v6h5.2V22.5z M106.5,25.5v5h6v-5H106.5z M109.5,27.5h-3.5v6h3.5V27.5z M109.1,30.5
	v-5h-6v5H109.1z M106.1,22.5h-5.7v6h5.7V22.5z M103.4,25.5v-3.1h-6v3.1H103.4z M100.4,25.4h5.7v-6h-5.7V25.4z M109.1,22.4v-2.8h-6
	v2.8H109.1z M106.1,16.6h-2.6v6h2.6V16.6z M100.7,18.5c-0.1,0.3-0.3,0.7-0.4,1l5.3,2.8c0.3-0.5,0.5-1.1,0.7-1.6L100.7,18.5z
	 M100.2,19.6c-0.1,0.3-0.3,0.5-0.4,0.7l4.9,3.4c0.3-0.5,0.6-0.9,0.9-1.4L100.2,19.6z M104.1,19.6c-0.5-0.3-1-0.7-1.5-0.9L99.8,24
	c0.4,0.2,0.6,0.3,0.6,0.4L104.1,19.6z M102.6,18.7c-0.5-0.3-1-0.5-1.5-0.7l-2.4,5.5c0.3,0.1,0.6,0.3,1.1,0.5L102.6,18.7z M96.9,20.7
	v6.4h6v-6.4H96.9z M96.9,27.1c0,0.5-0.1,0.7-0.1,0.8l5.6,2.1c0.3-0.9,0.4-1.9,0.4-2.8H96.9z M96.8,28c0-0.1,0.1-0.3,0.2-0.4
	c0.1-0.1,0.2-0.2,0.3-0.2l2.9,5.3c1.1-0.6,1.9-1.5,2.3-2.8L96.8,28z M97.3,27.4c-0.1,0-0.2,0.1-0.5,0.1l0.6,6c1-0.1,1.9-0.3,2.8-0.8
	L97.3,27.4z M96.7,27.5c-0.5,0.1-1.1,0.1-2,0.1v6c1,0,2,0,2.8-0.2L96.7,27.5z M97.6,30.3c-0.1-0.8-0.3-1.5-0.5-2.3l-5.7,2
	c0.2,0.5,0.2,0.7,0.2,0.8L97.6,30.3z M97.1,28.1c-0.2-0.7-0.5-1.4-0.9-2.1l-5.2,3c0.1,0.2,0.2,0.5,0.4,0.9L97.1,28.1z M93.4,30.5
	c0.7,0,1.3,0.1,1.9,0.1v-6c-0.4,0-0.9,0-1.5-0.1L93.4,30.5z M95.3,30.6C95.3,30.6,95.3,30.6,95.3,30.6
	C95.3,30.6,95.3,30.6,95.3,30.6C95.3,30.6,95.3,30.6,95.3,30.6C95.3,30.6,95.3,30.6,95.3,30.6C95.3,30.6,95.3,30.6,95.3,30.6
	C95.3,30.6,95.3,30.6,95.3,30.6C95.4,30.6,95.4,30.6,95.3,30.6C95.4,30.6,95.4,30.6,95.3,30.6C95.4,30.6,95.4,30.6,95.3,30.6
	C95.4,30.6,95.4,30.6,95.3,30.6C95.4,30.6,95.4,30.6,95.3,30.6C95.4,30.6,95.4,30.6,95.3,30.6C95.4,30.6,95.4,30.6,95.3,30.6
	C95.4,30.6,95.4,30.6,95.3,30.6C95.4,30.6,95.4,30.6,95.3,30.6C95.4,30.6,95.4,30.6,95.3,30.6C95.4,30.6,95.4,30.6,95.3,30.6
	C95.4,30.6,95.4,30.6,95.3,30.6C95.4,30.6,95.4,30.6,95.3,30.6C95.4,30.6,95.4,30.6,95.3,30.6C95.4,30.6,95.4,30.6,95.3,30.6
	C95.4,30.6,95.4,30.6,95.3,30.6C95.4,30.6,95.4,30.6,95.3,30.6C95.4,30.6,95.4,30.6,95.3,30.6C95.4,30.6,95.4,30.6,95.3,30.6
	C95.4,30.6,95.4,30.6,95.3,30.6C95.4,30.6,95.4,30.6,95.3,30.6C95.4,30.6,95.4,30.6,95.3,30.6C95.4,30.6,95.4,30.6,95.3,30.6
	C95.4,30.6,95.4,30.6,95.3,30.6C95.4,30.6,95.4,30.6,95.3,30.6C95.4,30.6,95.4,30.6,95.3,30.6c0.1,0,0.1,0,0.1,0s0,0,0,0s0,0,0,0
	s0,0,0,0s0,0,0,0c0,0,0,0,0,0s0,0,0,0s0,0,0,0s0,0,0,0c0,0,0,0,0,0s0,0,0,0c0,0,0,0,0,0s0,0,0,0c0,0,0,0,0,0c0,0,0,0,0,0
	c0,0,0,0,0,0s0,0,0,0c0,0,0,0,0,0c0,0,0,0,0,0s0,0,0,0s0,0,0,0c0,0,0,0,0,0c0,0,0,0,0,0c0,0,0,0,0,0c0,0,0,0,0,0c0,0,0,0,0,0
	c0,0,0,0,0,0c0,0,0,0,0,0c0,0,0,0,0,0c0,0,0,0,0,0c0,0,0,0,0,0c0,0,0,0,0,0s0,0,0,0c0,0,0,0,0,0c0,0,0,0,0,0c0,0,0,0,0,0
	c0,0,0,0,0,0c0,0,0,0,0,0c0,0,0,0,0,0c0,0,0,0,0,0c0,0,0,0,0,0c0,0,0,0,0,0c0,0,0,0,0,0c0,0,0,0,0,0c0,0,0,0,0,0c0,0,0,0,0,0
	c0,0,0,0,0,0c0,0,0,0,0,0c0,0,0,0,0,0c0,0,0,0,0,0c0,0,0,0,0,0c0,0,0,0,0,0c0,0,0,0,0,0c0,0,0,0,0,0c0,0,0,0,0,0c0,0,0,0,0,0
	c0,0,0,0,0,0c0,0,0,0,0,0c0,0,0,0,0,0s0,0,0,0c0,0,0,0,0,0c0,0,0,0,0,0s0,0,0,0c0,0,0,0,0,0s0,0,0,0c0,0,0,0,0,0s0,0,0,0s0,0,0,0
	s0,0,0,0s0,0,0,0s0,0,0,0c0,0,0,0,0,0s0,0,0,0s0,0,0,0c0,0,0,0,0,0s0,0,0,0s0,0,0,0s0,0,0,0s0,0,0,0s0,0,0,0s0,0,0,0s0,0,0,0
	s0,0,0,0c0,0,0,0,0,0s0,0,0,0s0,0,0,0c0,0,0,0,0,0s0,0,0,0s0,0,0,0s0,0,0,0s0,0,0,0s0,0,0,0c0,0,0,0,0,0s0,0,0,0c0,0,0,0,0,0
	c0,0,0,0,0,0s0,0,0,0s0,0,0,0c0,0,0,0,0,0c0,0,0,0,0,0c0,0,0,0,0,0c0,0,0,0,0,0c0,0,0,0,0,0c0,0,0,0,0,0c0,0,0,0,0,0c0,0,0,0,0,0
	c0,0,0,0,0,0c0,0,0,0,0,0c0,0,0,0,0,0s0,0,0,0c0,0,0,0,0,0c0,0,0,0,0,0s0,0,0,0c0,0,0,0,0,0c0,0,0,0,0,0c0,0,0,0,0,0c0,0,0,0,0,0
	c0,0,0,0,0,0s0,0,0,0c0,0,0,0,0,0c0,0,0,0,0,0c0,0,0,0,0,0c0,0,0,0,0,0c0,0,0,0,0,0c0,0,0,0,0,0c0,0,0,0,0,0s0,0,0,0c0,0,0,0,0,0
	s0,0,0,0s0,0,0,0s0,0,0,0s0,0,0,0c0,0,0,0,0,0c0,0,0,0,0,0c0,0,0,0,0,0s0,0,0,0c0,0,0,0,0,0c0,0,0,0,0,0s0,0,0,0c0,0,0,0,0,0
	s0,0,0,0s0,0,0,0c0,0,0,0,0,0c0,0,0,0,0,0s0,0,0,0s0,0,0,0s0,0,0,0c0,0,0,0,0,0s0,0,0,0c0,0,0,0,0,0c0,0,0,0,0,0s0,0,0,0
	c0,0,0,0,0,0s0,0,0,0c0,0,0,0,0,0s0,0,0,0s0,0,0,0s0,0,0,0s0,0,0,0s0,0,0,0s0,0,0,0c0,0,0,0,0,0c0,0,0,0,0,0c0,0,0,0,0,0s0,0,0,0
	c0,0,0,0,0,0s0,0,0,0c0,0,0,0,0,0s0,0,0,0s0,0,0,0c0,0,0,0,0,0s0,0,0,0s0,0,0,0c0,0,0,0,0,0c0,0,0,0,0,0s0,0,0,0s0,0,0,0
	c0,0,0,0,0,0s0,0,0,0c0,0,0,0,0,0c0,0,0,0,0,0c0,0,0,0,0,0s0,0,0,0c0,0,0,0,0,0c0,0,0,0,0,0c0,0,0,0,0,0c0,0,0,0,0,0s0,0,0,0
	c0,0,0,0,0,0c0,0,0,0,0,0c0,0,0,0,0,0c0,0,0,0,0,0c0,0,0,0,0,0c0,0,0,0,0,0c0,0,0,0,0,0c0,0,0,0,0,0c0,0,0,0,0,0c0,0,0,0,0,0
	c0,0,0,0,0,0c0,0,0,0,0,0c0,0,0,0,0,0s0,0,0,0s0,0,0,0c0,0,0,0,0,0c0,0,0,0,0,0c0,0,0,0,0,0c0,0,0,0,0,0s0,0,0,0c0,0,0,0,0,0
	c0,0,0,0,0,0c0,0,0,0,0,0c0,0,0,0,0,0c0,0,0,0,0,0s0,0,0,0c0,0,0,0,0,0c0,0,0,0,0,0s0,0,0,0s0,0,0,0c0,0,0,0,0,0s0,0,0,0s0,0,0,0
	c0,0,0,0,0,0c0,0,0,0,0,0s0,0,0,0c0,0,0,0,0,0c0,0,0,0,0,0s0,0,0,0s0,0,0,0c0,0,0,0,0,0c0,0,0,0,0,0s0,0,0,0s0,0,0,0c0,0,0,0,0,0
	c0,0,0,0,0,0c0,0,0,0,0,0s0,0,0,0c0,0,0,0,0,0c0,0,0,0,0,0s0,0,0,0s0,0,0,0s0,0,0,0c0,0,0,0,0,0c0,0,0,0,0,0s0,0,0,0s0,0,0,0
	c0,0,0,0,0,0c0,0,0,0,0,0c0,0,0,0,0,0s0,0,0,0s0,0,0,0c0,0,0,0,0,0c0,0,0,0,0,0c0,0,0,0,0,0c0,0,0,0,0,0s0,0,0,0s0,0,0,0s0,0,0,0
	s0,0,0,0c0,0,0,0,0,0c0,0,0,0,0,0c0,0,0,0,0,0c0,0,0,0,0,0c0,0,0,0,0,0s0,0,0,0c0,0,0,0,0,0c0,0,0,0,0,0c0,0,0,0,0,0c0,0,0,0,0,0
	c0,0,0,0,0,0c0,0,0,0,0,0c0,0,0,0,0,0c0,0,0,0,0,0c0,0,0,0,0,0c0,0,0,0,0,0c0,0,0,0,0,0s0,0,0,0c0,0,0,0,0,0c0,0,0,0,0,0
	c0,0,0,0,0,0c0,0,0,0,0,0c0,0,0,0,0,0c0,0,0,0,0,0c0,0,0,0,0,0c0,0,0,0,0,0c0,0,0,0,0,0c0,0,0,0,0,0c0,0,0,0,0,0c0,0,0,0,0,0
	c0,0,0,0,0,0c0,0,0,0,0,0c0,0,0,0,0,0c0,0,0,0,0,0c0,0,0,0,0,0c0,0,0,0,0,0c0,0,0,0,0,0c0,0,0,0,0,0c0,0,0,0,0,0c0,0,0,0,0,0
	c0,0,0,0,0,0c0,0,0,0,0,0c0,0,0,0,0,0c0,0,0,0,0,0c0,0,0,0,0,0c0,0,0,0,0,0s0,0,0,0s0,0,0,0s0,0,0,0s0,0,0,0c0,0,0,0,0,0
	c0,0,0,0,0,0c0,0,0,0,0,0c0,0,0,0,0,0c0,0,0,0,0,0c0,0,0,0,0,0c0,0,0,0,0,0c0,0,0,0,0,0c0,0,0,0,0,0s0,0,0,0s0,0,0,0c0,0,0,0,0,0
	c0,0,0,0,0,0c0,0,0,0,0,0c0,0,0,0,0,0c0,0,0,0,0,0c0,0,0,0,0,0s0,0,0,0c0,0,0,0,0,0c0,0,0,0,0,0c0,0,0,0,0,0c0,0,0,0,0,0
	c0,0,0,0,0,0s0,0,0,0s0,0,0,0c0,0,0,0,0,0c0,0,0,0,0,0c0,0,0,0,0,0c0,0,0,0,0,0c0,0,0,0,0,0c0,0,0,0,0,0c0,0,0,0,0,0c0,0,0,0,0,0
	c0,0,0,0,0,0c0,0,0,0,0,0c0,0,0,0,0,0c0,0,0,0,0,0c0,0,0,0,0,0c0,0,0,0,0,0c0,0,0,0,0,0c0,0,0,0,0,0c0,0,0,0,0,0c0,0,0,0,0,0
	c0,0,0,0,0,0c0,0,0,0,0,0c0,0,0,0,0,0c0,0,0,0,0,0c0,0,0,0,0,0c0,0,0,0,0,0c0,0,0,0,0,0c0,0,0,0,0,0c0,0,0,0,0,0c0,0,0,0,0,0
	c0,0,0,0,0,0c0,0,0,0,0,0c0,0,0,0,0,0c0,0,0,0,0,0c0,0,0,0,0,0c0,0,0,0,0,0c0,0,0,0,0,0c0,0,0,0,0,0c0,0,0,0,0,0c0,0,0,0,0,0
	c0,0,0,0,0,0c0,0,0,0,0,0c0,0,0,0,0,0c0,0,0,0,0,0c0,0,0,0,0,0c0,0,0,0,0,0c0,0,0,0,0,0c0,0,0,0,0,0c0,0,0,0,0,0c0,0,0,0,0,0
	c0,0,0,0,0,0c0,0,0,0,0,0c0,0,0,0,0,0c0,0,0,0,0,0c0,0,0,0,0,0c0,0,0,0,0,0s0,0,0,0c0,0,0,0,0,0c0,0,0,0,0,0c0,0,0,0,0,0
	c0,0,0,0,0,0c0,0,0,0,0,0c0,0,0,0,0,0s0,0,0,0c0,0,0,0,0,0c0,0,0,0,0,0c0,0,0,0,0,0c0,0,0,0,0,0c0,0,0,0,0,0c0,0,0,0,0,0
	c0,0,0,0,0,0c0,0,0,0,0,0s0,0,0,0c0,0,0,0,0,0c0,0,0,0,0,0c0,0,0,0,0,0c0,0,0,0,0,0c0,0,0,0,0,0c0,0,0,0,0,0c0,0,0,0,0,0
	c0,0,0,0,0,0c0,0,0,0,0,0c0,0,0,0,0,0c0,0,0,0,0,0c0,0,0,0,0,0c0,0,0,0,0,0c0,0,0,0,0,0c0,0,0,0,0,0c0,0,0,0,0,0c0,0,0,0,0,0
	c0,0,0,0,0,0c0,0,0,0,0,0c0,0,0,0,0,0c0,0,0,0,0,0c0,0,0,0,0,0c0,0,0,0,0,0c0,0,0,0,0,0c0,0,0,0,0,0c0,0,0,0,0,0c0,0,0,0,0,0
	c0,0,0,0,0,0c0,0,0,0,0,0c0,0,0,0,0,0c0,0,0,0,0,0c0,0,0,0,0,0c0,0,0,0,0,0c0,0,0,0,0,0c0,0,0,0,0,0c0,0,0,0,0,0c0,0,0,0,0,0
	c0,0,0,0,0,0c0,0,0,0,0,0c0,0,0,0,0,0c0,0,0,0,0,0c0,0,0,0,0,0c0,0,0,0,0,0c0,0,0,0,0,0c0,0,0,0,0,0c0,0,0,0,0,0c0,0,0,0,0,0
	c0,0,0,0,0,0c0,0,0,0,0,0c0,0,0,0,0,0c0,0,0,0,0,0c0,0,0,0,0,0c0,0,0,0,0,0c0,0,0,0,0,0c0,0,0,0,0,0s0,0,0,0c0,0,0,0,0,0
	c0,0,0,0,0,0c0,0,0,0,0,0c0,0,0,0,0,0c0,0,0,0,0,0c0,0,0,0,0,0s0,0,0,0c0,0,0,0,0,0c0,0,0,0,0,0c0,0,0,0,0,0c0,0,0,0,0,0
	c0,0,0,0,0,0c0,0,0,0,0,0c0,0,0,0,0,0s0,0,0,0c0,0,0,0,0,0c0,0,0,0,0,0c0,0,0,0,0,0c0,0,0,0,0,0c0,0,0,0,0,0v-6c0,0,0,0,0,0
	c0,0,0,0,0,0c0,0,0,0,0,0c0,0,0,0,0,0c0,0,0,0,0,0c0,0,0,0,0,0s0,0,0,0c0,0,0,0,0,0c0,0,0,0,0,0c0,0,0,0,0,0c0,0,0,0,0,0
	c0,0,0,0,0,0c0,0,0,0,0,0c0,0,0,0,0,0s0,0,0,0c0,0,0,0,0,0c0,0,0,0,0,0c0,0,0,0,0,0c0,0,0,0,0,0c0,0,0,0,0,0c0,0,0,0,0,0s0,0,0,0
	c0,0,0,0,0,0c0,0,0,0,0,0c0,0,0,0,0,0c0,0,0,0,0,0c0,0,0,0,0,0c0,0,0,0,0,0c0,0,0,0,0,0c0,0,0,0,0,0c0,0,0,0,0,0c0,0,0,0,0,0
	c0,0,0,0,0,0c0,0,0,0,0,0c0,0,0,0,0,0c0,0,0,0,0,0c0,0,0,0,0,0c0,0,0,0,0,0c0,0,0,0,0,0c0,0,0,0,0,0c0,0,0,0,0,0c0,0,0,0,0,0
	c0,0,0,0,0,0c0,0,0,0,0,0c0,0,0,0,0,0c0,0,0,0,0,0c0,0,0,0,0,0c0,0,0,0,0,0c0,0,0,0,0,0c0,0,0,0,0,0c0,0,0,0,0,0c0,0,0,0,0,0
	c0,0,0,0,0,0c0,0,0,0,0,0c0,0,0,0,0,0c0,0,0,0,0,0c0,0,0,0,0,0c0,0,0,0,0,0c0,0,0,0,0,0c0,0,0,0,0,0c0,0,0,0,0,0c0,0,0,0,0,0
	c0,0,0,0,0,0c0,0,0,0,0,0c0,0,0,0,0,0c0,0,0,0,0,0c0,0,0,0,0,0c0,0,0,0,0,0c0,0,0,0,0,0c0,0,0,0,0,0c0,0,0,0,0,0c0,0,0,0,0,0
	c0,0,0,0,0,0c0,0,0,0,0,0c0,0,0,0,0,0c0,0,0,0,0,0c0,0,0,0,0,0s0,0,0,0c0,0,0,0,0,0c0,0,0,0,0,0c0,0,0,0,0,0c0,0,0,0,0,0
	c0,0,0,0,0,0c0,0,0,0,0,0c0,0,0,0,0,0c0,0,0,0,0,0s0,0,0,0c0,0,0,0,0,0c0,0,0,0,0,0c0,0,0,0,0,0c0,0,0,0,0,0c0,0,0,0,0,0
	c0,0,0,0,0,0s0,0,0,0c0,0,0,0,0,0c0,0,0,0,0,0c0,0,0,0,0,0c0,0,0,0,0,0c0,0,0,0,0,0c0,0,0,0,0,0c0,0,0,0,0,0c0,0,0,0,0,0
	c0,0,0,0,0,0c0,0,0,0,0,0c0,0,0,0,0,0c0,0,0,0,0,0c0,0,0,0,0,0c0,0,0,0,0,0c0,0,0,0,0,0c0,0,0,0,0,0c0,0,0,0,0,0c0,0,0,0,0,0
	c0,0,0,0,0,0c0,0,0,0,0,0c0,0,0,0,0,0c0,0,0,0,0,0c0,0,0,0,0,0c0,0,0,0,0,0c0,0,0,0,0,0c0,0,0,0,0,0c0,0,0,0,0,0c0,0,0,0,0,0
	c0,0,0,0,0,0c0,0,0,0,0,0c0,0,0,0,0,0c0,0,0,0,0,0c0,0,0,0,0,0c0,0,0,0,0,0c0,0,0,0,0,0c0,0,0,0,0,0c0,0,0,0,0,0c0,0,0,0,0,0
	c0,0,0,0,0,0c0,0,0,0,0,0c0,0,0,0,0,0c0,0,0,0,0,0c0,0,0,0,0,0c0,0,0,0,0,0c0,0,0,0,0,0c0,0,0,0,0,0c0,0,0,0,0,0c0,0,0,0,0,0
	c0,0,0,0,0,0c0,0,0,0,0,0c0,0,0,0,0,0c0,0,0,0,0,0c0,0,0,0,0,0c0,0,0,0,0,0s0,0,0,0s0,0,0,0c0,0,0,0,0,0c0,0,0,0,0,0c0,0,0,0,0,0
	c0,0,0,0,0,0c0,0,0,0,0,0s0,0,0,0c0,0,0,0,0,0c0,0,0,0,0,0c0,0,0,0,0,0c0,0,0,0,0,0c0,0,0,0,0,0c0,0,0,0,0,0s0,0,0,0s0,0,0,0
	c0,0,0,0,0,0c0,0,0,0,0,0c0,0,0,0,0,0c0,0,0,0,0,0c0,0,0,0,0,0c0,0,0,0,0,0c0,0,0,0,0,0c0,0,0,0,0,0c0,0,0,0,0,0s0,0,0,0s0,0,0,0
	s0,0,0,0s0,0,0,0c0,0,0,0,0,0c0,0,0,0,0,0c0,0,0,0,0,0c0,0,0,0,0,0c0,0,0,0,0,0c0,0,0,0,0,0c0,0,0,0,0,0c0,0,0,0,0,0c0,0,0,0,0,0
	c0,0,0,0,0,0c0,0,0,0,0,0c0,0,0,0,0,0c0,0,0,0,0,0c0,0,0,0,0,0c0,0,0,0,0,0c0,0,0,0,0,0c0,0,0,0,0,0c0,0,0,0,0,0c0,0,0,0,0,0
	c0,0,0,0,0,0c0,0,0,0,0,0c0,0,0,0,0,0c0,0,0,0,0,0c0,0,0,0,0,0c0,0,0,0,0,0c0,0,0,0,0,0c0,0,0,0,0,0c0,0,0,0,0,0s0,0,0,0
	c0,0,0,0,0,0c0,0,0,0,0,0c0,0,0,0,0,0c0,0,0,0,0,0c0,0,0,0,0,0c0,0,0,0,0,0c0,0,0,0,0,0c0,0,0,0,0,0c0,0,0,0,0,0c0,0,0,0,0,0
	c0,0,0,0,0,0s0,0,0,0c0,0,0,0,0,0c0,0,0,0,0,0c0,0,0,0,0,0c0,0,0,0,0,0c0,0,0,0,0,0s0,0,0,0s0,0,0,0s0,0,0,0s0,0,0,0c0,0,0,0,0,0
	c0,0,0,0,0,0c0,0,0,0,0,0c0,0,0,0,0,0s0,0,0,0s0,0,0,0c0,0,0,0,0,0c0,0,0,0,0,0c0,0,0,0,0,0s0,0,0,0s0,0,0,0c0,0,0,0,0,0
	c0,0,0,0,0,0s0,0,0,0s0,0,0,0s0,0,0,0c0,0,0,0,0,0c0,0,0,0,0,0s0,0,0,0c0,0,0,0,0,0c0,0,0,0,0,0c0,0,0,0,0,0s0,0,0,0s0,0,0,0
	c0,0,0,0,0,0c0,0,0,0,0,0s0,0,0,0s0,0,0,0c0,0,0,0,0,0c0,0,0,0,0,0s0,0,0,0c0,0,0,0,0,0c0,0,0,0,0,0s0,0,0,0s0,0,0,0c0,0,0,0,0,0
	s0,0,0,0s0,0,0,0c0,0,0,0,0,0c0,0,0,0,0,0s0,0,0,0c0,0,0,0,0,0c0,0,0,0,0,0c0,0,0,0,0,0c0,0,0,0,0,0c0,0,0,0,0,0s0,0,0,0
	c0,0,0,0,0,0c0,0,0,0,0,0c0,0,0,0,0,0c0,0,0,0,0,0s0,0,0,0s0,0,0,0c0,0,0,0,0,0c0,0,0,0,0,0c0,0,0,0,0,0c0,0,0,0,0,0c0,0,0,0,0,0
	c0,0,0,0,0,0c0,0,0,0,0,0c0,0,0,0,0,0c0,0,0,0,0,0c0,0,0,0,0,0c0,0,0,0,0,0c0,0,0,0,0,0c0,0,0,0,0,0s0,0,0,0c0,0,0,0,0,0
	c0,0,0,0,0,0c0,0,0,0,0,0c0,0,0,0,0,0s0,0,0,0c0,0,0,0,0,0c0,0,0,0,0,0c0,0,0,0,0,0s0,0,0,0c0,0,0,0,0,0s0,0,0,0s0,0,0,0
	c0,0,0,0,0,0c0,0,0,0,0,0s0,0,0,0s0,0,0,0c0,0,0,0,0,0s0,0,0,0s0,0,0,0c0,0,0,0,0,0s0,0,0,0c0,0,0,0,0,0s0,0,0,0c0,0,0,0,0,0
	c0,0,0,0,0,0c0,0,0,0,0,0s0,0,0,0s0,0,0,0s0,0,0,0s0,0,0,0s0,0,0,0s0,0,0,0c0,0,0,0,0,0s0,0,0,0c0,0,0,0,0,0s0,0,0,0c0,0,0,0,0,0
	c0,0,0,0,0,0s0,0,0,0c0,0,0,0,0,0s0,0,0,0s0,0,0,0s0,0,0,0c0,0,0,0,0,0c0,0,0,0,0,0s0,0,0,0s0,0,0,0c0,0,0,0,0,0s0,0,0,0
	c0,0,0,0,0,0c0,0,0,0,0,0s0,0,0,0c0,0,0,0,0,0c0,0,0,0,0,0c0,0,0,0,0,0s0,0,0,0s0,0,0,0s0,0,0,0s0,0,0,0c0,0,0,0,0,0s0,0,0,0
	c0,0,0,0,0,0c0,0,0,0,0,0c0,0,0,0,0,0c0,0,0,0,0,0c0,0,0,0,0,0c0,0,0,0,0,0c0,0,0,0,0,0s0,0,0,0c0,0,0,0,0,0c0,0,0,0,0,0
	c0,0,0,0,0,0c0,0,0,0,0,0c0,0,0,0,0,0s0,0,0,0c0,0,0,0,0,0c0,0,0,0,0,0s0,0,0,0c0,0,0,0,0,0c0,0,0,0,0,0c0,0,0,0,0,0c0,0,0,0,0,0
	c0,0,0,0,0,0c0,0,0,0,0,0c0,0,0,0,0,0c0,0,0,0,0,0c0,0,0,0,0,0c0,0,0,0,0,0c0,0,0,0,0,0s0,0,0,0s0,0,0,0c0,0,0,0,0,0c0,0,0,0,0,0
	s0,0,0,0c0,0,0,0,0,0s0,0,0,0s0,0,0,0s0,0,0,0s0,0,0,0s0,0,0,0c0,0,0,0,0,0s0,0,0,0s0,0,0,0c0,0,0,0,0,0s0,0,0,0s0,0,0,0s0,0,0,0
	s0,0,0,0s0,0,0,0s0,0,0,0s0,0,0,0s0,0,0,0c0,0,0,0,0,0s0,0,0,0s0,0,0,0c0,0,0,0,0,0s0,0,0,0s0,0,0,0s0,0,0,0s0,0,0,0s0,0,0,0
	c0,0,0,0,0,0s0,0,0,0c0,0,0,0,0,0s0,0,0,0c0,0,0,0,0,0c0,0,0,0,0,0s0,0,0,0c0,0,0,0,0,0c0,0,0,0,0,0c0,0,0,0,0,0c0,0,0,0,0,0
	c0,0,0,0,0,0c0,0,0,0,0,0c0,0,0,0,0,0c0,0,0,0,0,0c0,0,0,0,0,0c0,0,0,0,0,0c0,0,0,0,0,0c0,0,0,0,0,0c0,0,0,0,0,0c0,0,0,0,0,0
	c0,0,0,0,0,0c0,0,0,0,0,0c0,0,0,0,0,0c0,0,0,0,0,0c0,0,0,0,0,0c0,0,0,0,0,0c0,0,0,0,0,0c0,0,0,0,0,0c0,0,0,0,0,0c0,0,0,0,0,0
	c0,0,0,0,0,0c0,0,0,0,0,0s0,0,0,0c0,0,0,0,0,0c0,0,0,0,0,0c0,0,0,0,0,0c0,0,0,0,0,0c0,0,0,0,0,0c0,0,0,0,0,0c0,0,0,0,0,0
	c0,0,0,0,0,0c0,0,0,0,0,0c0,0,0,0,0,0c0,0,0,0,0,0s0,0,0,0s0,0,0,0c0,0,0,0,0,0c0,0,0,0,0,0s0,0,0,0c0,0,0,0,0,0c0,0,0,0,0,0
	c0,0,0,0,0,0s0,0,0,0c0,0,0,0,0,0s0,0,0,0c0,0,0,0,0,0s0,0,0,0s0,0,0,0s0,0,0,0c0,0,0,0,0,0s0,0,0,0s0,0,0,0s0,0,0,0s0,0,0,0
	s0,0,0,0s0,0,0,0c0,0,0,0,0,0s0,0,0,0s0,0,0,0c0,0,0,0,0,0c0,0,0,0,0,0s0,0,0,0s0,0,0,0c0,0,0,0,0,0s0,0,0,0c0,0,0,0,0,0s0,0,0,0
	s0,0,0,0c0,0,0,0,0,0c0,0,0,0,0,0s0,0,0,0c0,0,0,0,0,0c0,0,0,0,0,0s0,0,0,0s0,0,0,0c0,0,0,0,0,0c0,0,0,0,0,0c0,0,0,0,0,0
	c0,0,0,0,0,0c0,0,0,0,0,0c0,0,0,0,0,0c0,0,0,0,0,0c0,0,0,0,0,0c0,0,0,0,0,0c0,0,0,0,0,0c0,0,0,0,0,0V30.6z M96.4,30.6
	c0.7,0,1.7-0.2,2.6-1.1c0.8-0.9,0.9-1.9,0.9-2.5h-6c0-0.2,0.1-1,0.7-1.6c0.7-0.7,1.5-0.8,1.8-0.8V30.6z M99.9,27.1v-4.4h-6v4.4H99.9
	z M96.9,19.7h-6.1v6h6.1V19.7z M87.9,22.3c-0.2,1.3-0.4,2.6-0.7,3.8l5.8,1.6c0.4-1.6,0.7-3.1,0.9-4.7L87.9,22.3z M87.1,26.2
	c-0.3,1.1-0.7,2.1-1.2,2.9l5.1,3.2c0.9-1.4,1.5-2.9,2-4.6L87.1,26.2z M90.5,28.6c-0.3-0.3-0.6-0.5-0.9-0.8l-3.4,4.9
	c0.1,0,0.1,0.1,0.1,0.1c0,0,0,0,0,0L90.5,28.6z M89.6,27.8c-0.2-0.1-0.4-0.3-0.6-0.4l-3.5,4.9c0.2,0.2,0.5,0.4,0.7,0.5L89.6,27.8z
	 M88.8,27.3c-0.3-0.2-0.6-0.4-0.9-0.5L85.1,32c0.2,0.1,0.3,0.2,0.5,0.3L88.8,27.3z M88,26.8c-0.3-0.1-0.5-0.3-0.7-0.4l-2.7,5.4
	c0.1,0.1,0.3,0.2,0.5,0.3L88,26.8z M88.4,30.7c0.7-1,1.2-2.1,1.6-3.3l-5.7-1.9c-0.2,0.7-0.5,1.3-0.9,1.9L88.4,30.7z M90,27.4
	c0.4-1.1,0.6-2.2,0.8-3.4l-5.9-0.8c-0.1,0.8-0.3,1.6-0.5,2.4L90,27.4z M90.7,24.1c0.2-1.1,0.3-2.2,0.3-3.3l-6-0.3
	c0,0.9-0.1,1.7-0.3,2.6L90.7,24.1z M91.1,20.8c0-1,0.1-2,0.1-2.9h-6c0,0.8,0,1.7-0.1,2.6L91.1,20.8z M91.1,18v-4.5h-6V18H91.1z
	 M104.1,13.2c-0.2-0.5-0.6-1-0.9-1.4l-4.9,3.5c0.2,0.3,0.3,0.5,0.4,0.6L104.1,13.2z M103.2,11.8c-0.3-0.5-0.7-1-1.1-1.4l-4.4,4.1
	c0.2,0.2,0.4,0.4,0.5,0.7L103.2,11.8z M96.9,12.4v7.7h6v-7.7H96.9z M102.4,21.8c0.6-1,1.2-2.1,1.6-3.4l-5.7-2
	c-0.3,0.9-0.6,1.6-1,2.1L102.4,21.8z M104,18.4c0.4-1.2,0.7-2.4,0.9-3.7l-5.9-1c-0.2,0.9-0.4,1.9-0.7,2.8L104,18.4z M100.9,11.4
	c-0.3,0.1-0.5,0.2-0.7,0.4l3.1,5.1c0,0-0.1,0-0.1,0.1L100.9,11.4z M100.6,11.6L100.6,11.6L100.6,11.6l-0.1,0l0,0
	c-0.1,0-0.1,0-0.2,0.1l2.2,5.6c0.1,0,0,0,0.2-0.1c0,0,0.1,0,0.1,0s0.1,0,0.1,0L100.6,11.6z M89,6.5c-0.3,0.7-0.6,1.4-0.9,2.1
	l5.4,2.7c0.4-0.8,0.8-1.6,1.1-2.4L89,6.5z M90.8,12.9h2.6v-6h-2.6V12.9z M96.1,11.3c0.2-0.5,0.4-1,0.6-1.5L91,7.9
	c-0.1,0.3-0.2,0.5-0.3,0.7L96.1,11.3z M96.7,9.8c0.1-0.3,0.2-0.7,0.4-1l-5.6-2.2C91.3,7,91.2,7.5,91,7.9L96.7,9.8z M94.3,4.7h-2.5v6
	h2.5V4.7z M95.8,20v-2.6h-6V20H95.8z M92.8,14.4H91v6h1.8V14.4z M88,17.4V18h6v-0.5H88z M88,18C88,18,88,18,88,18C88,18,88,18,88,18
	C88,18,88,18,88,18C88,18,88,18,88,18C88,18,88,18,88,18C88,18,88,18,88,18C88,18,88,18,88,18C88,18,88,18,88,18C88,18,88,18,88,18
	C88,18,88,18,88,18C88,18,88,18,88,18C88,18,88,18,88,18C88,18,88,18,88,18C88,18,88,18,88,18C88,18,88,18,88,18C88,18,88,18,88,18
	C88,18,88,18,88,18C88,18,88,18,88,18C88,18,88,18,88,18C88,18,88,18,88,18C88,18,88,18,88,18C88,18,88,18,88,18C88,18,88,18,88,18
	C88,18,88,18,88,18C88,18,88,18,88,18C88,18,88,18,88,18C88,18,88,18,88,18C88,18,88,18,88,18C88,18,88,18,88,18C88,18,88,18,88,18
	C88,18,88,18,88,18C88,18,88,18,88,18C88,18,88,18,88,18C88,18,88,18,88,18C88,18,88,18,88,18C88,18,88,18,88,18C88,18,88,18,88,18
	C88,18,88,18,88,18C88,18,88,18,88,18C88,18,88,18,88,18C88,18,88,18,88,18C88,18,88,18,88,18C88,18,88,18,88,18C88,18,88,18,88,18
	C88,18,88,18,88,18C88,18,88,18,88,18C88,18,88,18,88,18C88,18,88,18,88,18C88,18,88,18,88,18c0,0.1,0,0.1,0,0.1s0,0,0,0s0,0,0,0
	s0,0,0,0s0,0,0,0s0,0,0,0s0,0,0,0s0,0,0,0s0,0,0,0s0,0,0,0s0,0,0,0s0,0,0,0s0,0,0,0s0,0,0,0s0,0,0,0s0,0,0,0s0,0,0,0s0,0,0,0
	s0,0,0,0s0,0,0,0s0,0,0,0s0,0,0,0s0,0,0,0s0,0,0,0s0,0,0,0s0,0,0,0s0,0,0,0s0,0,0,0s0,0,0,0s0,0,0,0s0,0,0,0s0,0,0,0s0,0,0,0
	s0,0,0,0s0,0,0,0s0,0,0,0s0,0,0,0s0,0,0,0s0,0,0,0s0,0,0,0s0,0,0,0s0,0,0,0s0,0,0,0s0,0,0,0s0,0,0,0s0,0,0,0s0,0,0,0s0,0,0,0
	s0,0,0,0s0,0,0,0s0,0,0,0s0,0,0,0s0,0,0,0s0,0,0,0s0,0,0,0s0,0,0,0s0,0,0,0s0,0,0,0s0,0,0,0s0,0,0,0s0,0,0,0s0,0,0,0s0,0,0,0
	s0,0,0,0s0,0,0,0s0,0,0,0s0,0,0,0s0,0,0,0s0,0,0,0s0,0,0,0s0,0,0,0s0,0,0,0s0,0,0,0s0,0,0,0s0,0,0,0s0,0,0,0s0,0,0,0s0,0,0,0
	s0,0,0,0s0,0,0,0s0,0,0,0s0,0,0,0s0,0,0,0s0,0,0,0s0,0,0,0s0,0,0,0s0,0,0,0s0,0,0,0s0,0,0,0s0,0,0,0s0,0,0,0s0,0,0,0s0,0,0,0
	s0,0,0,0s0,0,0,0s0,0,0,0s0,0,0,0s0,0,0,0s0,0,0,0s0,0,0,0s0,0,0,0s0,0,0,0s0,0,0,0s0,0,0,0s0,0,0,0s0,0,0,0s0,0,0,0s0,0,0,0
	s0,0,0,0s0,0,0,0s0,0,0,0s0,0,0,0s0,0,0,0s0,0,0,0s0,0,0,0s0,0,0,0s0,0,0,0s0,0,0,0s0,0,0,0s0,0,0,0s0,0,0,0s0,0,0,0s0,0,0,0
	s0,0,0,0s0,0,0,0s0,0,0,0s0,0,0,0s0,0,0,0s0,0,0,0s0,0,0,0s0,0,0,0s0,0,0,0s0,0,0,0s0,0,0,0s0,0,0,0s0,0,0,0s0,0,0,0s0,0,0,0
	s0,0,0,0s0,0,0,0s0,0,0,0s0,0,0,0s0,0,0,0s0,0,0,0s0,0,0,0s0,0,0,0s0,0,0,0s0,0,0,0s0,0,0,0s0,0,0,0s0,0,0,0s0,0,0,0s0,0,0,0
	s0,0,0,0s0,0,0,0s0,0,0,0s0,0,0,0s0,0,0,0s0,0,0,0s0,0,0,0s0,0,0,0s0,0,0,0s0,0,0,0s0,0,0,0s0,0,0,0s0,0,0,0s0,0,0,0s0,0,0,0
	s0,0,0,0s0,0,0,0s0,0,0,0s0,0,0,0s0,0,0,0s0,0,0,0s0,0,0,0s0,0,0,0s0,0,0,0s0,0,0,0s0,0,0,0s0,0,0,0s0,0,0,0s0,0,0,0s0,0,0,0
	s0,0,0,0s0,0,0,0s0,0,0,0s0,0,0,0s0,0,0,0s0,0,0,0s0,0,0,0s0,0,0,0s0,0,0,0s0,0,0,0s0,0,0,0s0,0,0,0s0,0,0,0s0,0,0,0s0,0,0,0
	s0,0,0,0s0,0,0,0s0,0,0,0s0,0,0,0s0,0,0,0s0,0,0,0s0,0,0,0s0,0,0,0s0,0,0,0s0,0,0,0s0,0,0,0s0,0,0,0s0,0,0,0s0,0,0,0s0,0,0,0
	s0,0,0,0s0,0,0,0s0,0,0,0s0,0,0,0s0,0,0,0s0,0,0,0s0,0,0,0s0,0,0,0s0,0,0,0s0,0,0,0s0,0,0,0s0,0,0,0s0,0,0,0s0,0,0,0s0,0,0,0
	s0,0,0,0s0,0,0,0s0,0,0,0s0,0,0,0s0,0,0,0s0,0,0,0s0,0,0,0s0,0,0,0s0,0,0,0s0,0,0,0s0,0,0,0s0,0,0,0s0,0,0,0s0,0,0,0s0,0,0,0
	s0,0,0,0s0,0,0,0s0,0,0,0s0,0,0,0s0,0,0,0s0,0,0,0s0,0,0,0s0,0,0,0s0,0,0,0s0,0,0,0s0,0,0,0s0,0,0,0s0,0,0,0s0,0,0,0s0,0,0,0
	s0,0,0,0s0,0,0,0s0,0,0,0s0,0,0,0s0,0,0,0s0,0,0,0s0,0,0,0s0,0,0,0s0,0,0,0s0,0,0,0s0,0,0,0s0,0,0,0s0,0,0,0s0,0,0,0s0,0,0,0
	s0,0,0,0s0,0,0,0s0,0,0,0s0,0,0,0s0,0,0,0s0,0,0,0s0,0,0,0s0,0,0,0s0,0,0,0s0,0,0,0s0,0,0,0s0,0,0,0s0,0,0,0s0,0,0,0s0,0,0,0
	s0,0,0,0s0,0,0,0s0,0,0,0s0,0,0,0s0,0,0,0s0,0,0,0s0,0,0,0s0,0,0,0s0,0,0,0s0,0,0,0s0,0,0,0s0,0,0,0s0,0,0,0s0,0,0,0s0,0,0,0
	s0,0,0,0s0,0,0,0s0,0,0,0s0,0,0,0s0,0,0,0s0,0,0,0s0,0,0,0s0,0,0,0s0,0,0,0s0,0,0,0s0,0,0,0s0,0,0,0s0,0,0,0s0,0,0,0s0,0,0,0
	s0,0,0,0s0,0,0,0s0,0,0,0s0,0,0,0s0,0,0,0s0,0,0,0s0,0,0,0s0,0,0,0s0,0,0,0s0,0,0,0s0,0,0,0s0,0,0,0s0,0,0,0s0,0,0,0s0,0,0,0
	s0,0,0,0s0,0,0,0s0,0,0,0s0,0,0,0s0,0,0,0s0,0,0,0s0,0,0,0s0,0,0,0s0,0,0,0s0,0,0,0s0,0,0,0s0,0,0,0s0,0,0,0s0,0,0,0s0,0,0,0
	s0,0,0,0s0,0,0,0s0,0,0,0s0,0,0,0s0,0,0,0s0,0,0,0s0,0,0,0s0,0,0,0s0,0,0,0s0,0,0,0s0,0,0,0s0,0,0,0s0,0,0,0s0,0,0,0s0,0,0,0
	s0,0,0,0s0,0,0,0s0,0,0,0s0,0,0,0s0,0,0,0s0,0,0,0s0,0,0,0s0,0,0,0s0,0,0,0s0,0,0,0s0,0,0,0s0,0,0,0s0,0,0,0s0,0,0,0s0,0,0,0
	s0,0,0,0s0,0,0,0s0,0,0,0s0,0,0,0s0,0,0,0s0,0,0,0s0,0,0,0s0,0,0,0s0,0,0,0s0,0,0,0s0,0,0,0s0,0,0,0s0,0,0,0s0,0,0,0s0,0,0,0
	s0,0,0,0s0,0,0,0s0,0,0,0s0,0,0,0s0,0,0,0s0,0,0,0s0,0,0,0s0,0,0,0s0,0,0,0s0,0,0,0s0,0,0,0s0,0,0,0s0,0,0,0s0,0,0,0s0,0,0,0
	s0,0,0,0s0,0,0,0s0,0,0,0s0,0,0,0s0,0,0,0s0,0,0,0s0,0,0,0s0,0,0,0s0,0,0,0s0,0,0,0s0,0,0,0s0,0,0,0s0,0,0,0s0,0,0,0s0,0,0,0
	s0,0,0,0s0,0,0,0s0,0,0,0s0,0,0,0s0,0,0,0s0,0,0,0s0,0,0,0s0,0,0,0s0,0,0,0s0,0,0,0s0,0,0,0s0,0,0,0s0,0,0,0s0,0,0,0s0,0,0,0
	s0,0,0,0s0,0,0,0s0,0,0,0s0,0,0,0s0,0,0,0s0,0,0,0s0,0,0,0s0,0,0,0s0,0,0,0s0,0,0,0s0,0,0,0s0,0,0,0s0,0,0,0s0,0,0,0s0,0,0,0
	s0,0,0,0s0,0,0,0s0,0,0,0s0,0,0,0s0,0,0,0s0,0,0,0s0,0,0,0s0,0,0,0s0,0,0,0s0,0,0,0h6c0,0,0,0,0,0s0,0,0,0s0,0,0,0s0,0,0,0s0,0,0,0
	s0,0,0,0s0,0,0,0s0,0,0,0s0,0,0,0s0,0,0,0s0,0,0,0s0,0,0,0s0,0,0,0s0,0,0,0s0,0,0,0s0,0,0,0s0,0,0,0s0,0,0,0s0,0,0,0s0,0,0,0
	s0,0,0,0s0,0,0,0s0,0,0,0s0,0,0,0s0,0,0,0s0,0,0,0s0,0,0,0s0,0,0,0s0,0,0,0s0,0,0,0s0,0,0,0s0,0,0,0s0,0,0,0s0,0,0,0s0,0,0,0
	s0,0,0,0s0,0,0,0s0,0,0,0s0,0,0,0s0,0,0,0s0,0,0,0s0,0,0,0s0,0,0,0s0,0,0,0s0,0,0,0s0,0,0,0s0,0,0,0s0,0,0,0s0,0,0,0s0,0,0,0
	s0,0,0,0s0,0,0,0s0,0,0,0s0,0,0,0s0,0,0,0s0,0,0,0s0,0,0,0s0,0,0,0s0,0,0,0s0,0,0,0s0,0,0,0s0,0,0,0s0,0,0,0s0,0,0,0s0,0,0,0
	s0,0,0,0s0,0,0,0s0,0,0,0s0,0,0,0s0,0,0,0s0,0,0,0s0,0,0,0s0,0,0,0s0,0,0,0s0,0,0,0s0,0,0,0s0,0,0,0s0,0,0,0s0,0,0,0s0,0,0,0
	s0,0,0,0s0,0,0,0s0,0,0,0s0,0,0,0s0,0,0,0s0,0,0,0s0,0,0,0s0,0,0,0s0,0,0,0s0,0,0,0s0,0,0,0s0,0,0,0s0,0,0,0s0,0,0,0s0,0,0,0
	s0,0,0,0s0,0,0,0s0,0,0,0s0,0,0,0s0,0,0,0s0,0,0,0s0,0,0,0s0,0,0,0s0,0,0,0s0,0,0,0s0,0,0,0s0,0,0,0s0,0,0,0s0,0,0,0s0,0,0,0
	s0,0,0,0s0,0,0,0s0,0,0,0s0,0,0,0s0,0,0,0s0,0,0,0s0,0,0,0s0,0,0,0s0,0,0,0s0,0,0,0s0,0,0,0s0,0,0,0s0,0,0,0s0,0,0,0s0,0,0,0
	s0,0,0,0s0,0,0,0s0,0,0,0s0,0,0,0s0,0,0,0s0,0,0,0s0,0,0,0s0,0,0,0s0,0,0,0s0,0,0,0s0,0,0,0s0,0,0,0s0,0,0,0s0,0,0,0s0,0,0,0
	s0,0,0,0s0,0,0,0s0,0,0,0s0,0,0,0s0,0,0,0s0,0,0,0s0,0,0,0s0,0,0,0s0,0,0,0s0,0,0,0s0,0,0,0s0,0,0,0s0,0,0,0s0,0,0,0s0,0,0,0
	s0,0,0,0s0,0,0,0s0,0,0,0s0,0,0,0s0,0,0,0s0,0,0,0s0,0,0,0s0,0,0,0s0,0,0,0s0,0,0,0s0,0,0,0s0,0,0,0s0,0,0,0s0,0,0,0s0,0,0,0
	s0,0,0,0s0,0,0,0s0,0,0,0s0,0,0,0s0,0,0,0s0,0,0,0s0,0,0,0s0,0,0,0s0,0,0,0s0,0,0,0s0,0,0,0s0,0,0,0s0,0,0,0s0,0,0,0s0,0,0,0
	s0,0,0,0s0,0,0,0s0,0,0,0s0,0,0,0s0,0,0,0s0,0,0,0s0,0,0,0s0,0,0,0s0,0,0,0s0,0,0,0s0,0,0,0s0,0,0,0s0,0,0,0s0,0,0,0s0,0,0,0
	s0,0,0,0s0,0,0,0s0,0,0,0s0,0,0,0s0,0,0,0s0,0,0,0s0,0,0,0s0,0,0,0s0,0,0,0s0,0,0,0s0,0,0,0s0,0,0,0s0,0,0,0s0,0,0,0s0,0,0,0
	s0,0,0,0s0,0,0,0s0,0,0,0s0,0,0,0s0,0,0,0s0,0,0,0s0,0,0,0s0,0,0,0s0,0,0,0s0,0,0,0s0,0,0,0s0,0,0,0s0,0,0,0s0,0,0,0s0,0,0,0
	s0,0,0,0s0,0,0,0s0,0,0,0s0,0,0,0s0,0,0,0s0,0,0,0s0,0,0,0s0,0,0,0s0,0,0,0s0,0,0,0s0,0,0,0s0,0,0,0s0,0,0,0s0,0,0,0s0,0,0,0
	s0,0,0,0s0,0,0,0s0,0,0,0s0,0,0,0s0,0,0,0s0,0,0,0s0,0,0,0s0,0,0,0s0,0,0,0s0,0,0,0s0,0,0,0s0,0,0,0s0,0,0,0s0,0,0,0s0,0,0,0
	s0,0,0,0s0,0,0,0s0,0,0,0s0,0,0,0s0,0,0,0s0,0,0,0s0,0,0,0s0,0,0,0s0,0,0,0s0,0,0,0s0,0,0,0s0,0,0,0s0,0,0,0s0,0,0,0s0,0,0,0
	s0,0,0,0s0,0,0,0s0,0,0,0s0,0,0,0s0,0,0,0s0,0,0,0s0,0,0,0s0,0,0,0s0,0,0,0s0,0,0,0s0,0,0,0s0,0,0,0s0,0,0,0s0,0,0,0s0,0,0,0
	s0,0,0,0s0,0,0,0s0,0,0,0s0,0,0,0s0,0,0,0s0,0,0,0s0,0,0,0s0,0,0,0s0,0,0,0s0,0,0,0s0,0,0,0s0,0,0,0s0,0,0,0s0,0,0,0s0,0,0,0
	s0,0,0,0s0,0,0,0s0,0,0,0s0,0,0,0s0,0,0,0s0,0,0,0s0,0,0,0s0,0,0,0s0,0,0,0s0,0,0,0s0,0,0,0s0,0,0,0s0,0,0,0s0,0,0,0s0,0,0,0
	s0,0,0,0s0,0,0,0s0,0,0,0s0,0,0,0s0,0,0,0s0,0,0,0s0,0,0,0s0,0,0,0s0,0,0,0s0,0,0,0s0,0,0,0s0,0,0,0s0,0,0,0s0,0,0,0s0,0,0,0
	s0,0,0,0s0,0,0,0s0,0,0,0s0,0,0,0s0,0,0,0s0,0,0,0s0,0,0,0s0,0,0,0s0,0,0,0s0,0,0,0s0,0,0,0s0,0,0,0s0,0,0,0s0,0,0,0s0,0,0,0
	s0,0,0,0s0,0,0,0s0,0,0,0s0,0,0,0s0,0,0,0s0,0,0,0s0,0,0,0s0,0,0,0s0,0,0,0s0,0,0,0s0,0,0,0s0,0,0,0s0,0,0,0s0,0,0,0s0,0,0,0
	s0,0,0,0s0,0,0,0s0,0,0,0s0,0,0,0s0,0,0,0s0,0,0,0s0,0,0,0s0,0,0,0s0,0,0,0s0,0,0,0s0,0,0,0s0,0,0,0s0,0,0,0s0,0,0,0s0,0,0,0
	s0,0,0,0s0,0,0,0s0,0,0,0s0,0,0,0s0,0,0,0s0,0,0,0s0,0,0,0s0,0,0,0s0,0,0,0s0,0,0,0s0,0,0,0s0,0,0,0s0,0,0,0s0,0,0,0s0,0,0,0
	s0,0,0,0s0,0,0,0s0,0,0,0s0,0,0,0s0,0,0,0s0,0,0,0s0,0,0,0s0,0,0,0s0,0,0,0s0,0,0,0s0,0,0,0s0,0,0,0s0,0,0,0s0,0,0,0s0,0,0,0
	s0,0,0,0s0,0,0,0s0,0,0,0s0,0,0,0s0,0,0,0s0,0,0,0s0,0,0,0s0,0,0,0s0,0,0,0s0,0,0,0s0,0,0,0s0,0,0,0s0,0,0,0s0,0,0,0s0,0,0,0
	s0,0,0,0s0,0,0,0s0,0,0,0s0,0,0,0s0,0,0,0s0,0,0,0s0,0,0,0s0,0,0,0s0,0,0,0s0,0,0,0s0,0,0,0s0,0,0,0s0,0,0,0s0,0,0,0s0,0,0,0
	s0,0,0,0s0,0,0,0s0,0,0,0s0,0,0,0s0,0,0,0s0,0,0,0s0,0,0,0s0,0,0,0s0,0,0,0s0,0,0,0s0,0,0,0s0,0,0,0s0,0,0,0s0,0,0,0s0,0,0,0
	s0,0,0,0s0,0,0,0s0,0,0,0s0,0,0,0s0,0,0,0s0,0,0,0s0,0,0,0s0,0,0,0s0,0,0,0s0,0,0,0s0,0,0,0s0,0,0,0s0,0,0,0s0,0,0,0s0,0,0,0
	s0,0,0,0s0,0,0,0s0,0,0,0s0,0,0,0s0,0,0,0s0,0,0,0s0,0,0,0s0,0,0,0s0,0,0,0s0,0,0,0s0,0,0,0s0,0,0,0s0,0,0,0s0,0,0,0s0,0,0,0
	s0,0,0,0s0,0,0,0s0,0,0,0s0,0,0,0s0,0,0,0s0,0,0,0s0,0,0,0s0,0,0,0s0,0,0,0s0,0,0,0s0,0,0,0s0,0,0,0s0,0,0,0s0,0,0,0s0,0,0,0
	s0,0,0,0s0,0,0,0s0,0,0,0s0,0,0,0s0,0,0,0s0,0,0,0s0,0,0,0s0,0,0,0s0,0,0,0s0,0,0,0s0,0,0,0s0,0,0,0H88z M88,19c0,0.3,0,0.5,0,0.8
	l6,0.4c0-0.4,0-0.8,0-1.2H88z M91,23h1.8v-6H91V23z M99.9,20v-2.6h-6V20H99.9z M96.9,14.4h-1.8v6h1.8V14.4z M92.2,17.4V20h6v-2.6
	H92.2z M95.2,23h1.8v-6h-1.8V23z M95.2,17.9h1.8v-6h-1.8V17.9z M99.9,14.9v-2.3h-6v2.3H99.9z M96.9,9.6h-1.8v6h1.8V9.6z M92.2,12.6
	v2.3h6v-2.3H92.2z M88,12.6v2.3h6v-2.3H88z M91,17.9h1.8v-6H91V17.9z M95.8,14.9v-2.3h-6v2.3H95.8z M92.8,9.6H91v6h1.8V9.6z"/>
<g>
	<path class="st4" d="M142,103c0,32.6-26.4,59-59,59c-32.6,0-59-26.4-59-59c0-32.6,26.4-59,59-59C115.6,44,142,70.4,142,103z
		 M109,103c0,15.3-12.1,27-26,27c-13.9,0-26-11.7-26-27c0-15.3,12.1-27,26-27C96.9,76,109,87.7,109,103z"/>
	<circle class="st5" cx="83" cy="103" r="57"/>
	<circle class="st5" cx="83" cy="103" r="28"/>
</g>
</svg>
