<?xml version="1.0" encoding="utf-8"?>
<!-- Generator: Adobe Illustrator 28.2.0, SVG Export Plug-In . SVG Version: 6.00 Build 0)  -->
<svg version="1.1" id="レイヤー_1" xmlns="http://www.w3.org/2000/svg" xmlns:xlink="http://www.w3.org/1999/xlink" x="0px"
	 y="0px" viewBox="0 0 60.9 50.3" style="enable-background:new 0 0 60.9 50.3;" xml:space="preserve">
<style type="text/css">
	.st0{fill:#F0528D;fill-opacity:0.3;}
	.st1{fill:#F0528D;}
	.st2{fill:#FFFFFF;}
	.st3{fill:#183153;}
	.st4{fill:#E4B198;}
	.st5{fill:#FBD4C1;}
	.st6{fill:#E4B69F;}
	.st7{fill:#ED6D46;}
	.st8{fill:#FCC800;}
	.st9{fill:#02BFB7;}
	.st10{fill:#00A0D9;}
	.st11{fill:#BD6DA9;}
	.st12{fill:#F0907F;}
	.st13{fill:#FFFAC2;}
	.st14{fill:#CFE0B7;}
	.st15{fill:#CFE8F7;}
	.st16{fill:#DEB2CD;}
</style>
<path class="st0" d="M24.1,45.8c-4.9,4.9-13.3,2.7-15.1-4L2.9,18.8c-1.8-6.7,4.3-12.8,11-11L36.8,14c6.7,1.8,8.9,10.2,4,15.1
	L24.1,45.8z"/>
<path class="st1" d="M23.3,41.2c-4.9,4.9-13.3,2.7-15.1-4L2.1,14.3c-1.8-6.7,4.3-12.8,11-11L36,9.4c6.7,1.8,8.9,10.2,4,15.1
	L23.3,41.2z"/>
<circle class="st2" cx="13.3" cy="7.7" r="3.7"/>
<circle class="st3" cx="13.4" cy="5.9" r="1.6"/>
<circle class="st2" cx="19.9" cy="7.7" r="3.7"/>
<circle class="st3" cx="20" cy="5.9" r="1.6"/>
<path class="st4" d="M55.6,6.1c-2.5-1.9-13.8-5.4-20.1,2.9c-4.7,6.2-7.1,15,2.7,21.3c5.5,3.5,15.8,0.5,14.4-4
	c-1.4-4.5,0.5-8.6,3.7-9C59.6,17,61.5,10.6,55.6,6.1z M50.4,19.6c-0.4,0.9-1.7,1.3-3.1,0.8c-1.3-0.5-2.2-1.7-1.8-2.6
	c0.4-0.9,1.7-1.3,3.1-0.8C49.9,17.5,50.7,18.6,50.4,19.6z"/>
<path class="st5" d="M55.4,5.3c-2.5-1.9-13.8-5.4-20.1,2.9c-4.7,6.2-7.1,15,2.7,21.3c5.5,3.5,15.8,0.5,14.4-4s0.5-8.6,3.7-9
	S61.3,9.7,55.4,5.3z M50.4,19.6c-0.4,0.9-1.7,1.3-3.1,0.8c-1.3-0.5-2.2-1.7-1.8-2.6c0.4-0.9,1.7-1.3,3.1-0.8
	C49.9,17.5,50.7,18.6,50.4,19.6z"/>
<path class="st6" d="M48.5,17c1.6,0.6,2,2.3,2,2.3c0.6-1.5-0.5-2.6-1.8-3.1c-1.3-0.5-2.6,0.2-3.1,1.4C45.5,17.9,46.5,16.4,48.5,17z"
	/>
<path class="st7" d="M50.2,5.6c0.3-1.7,3.3-0.9,4.3,1.3c1,2.2-1.8,2.6-2.9,1.8C50.5,7.9,50,7,50.2,5.6L50.2,5.6z"/>
<path class="st8" d="M44.2,5.7c0.1-1.7,3.1-1.3,4.4,0.8c1.3,2.1-1.4,2.8-2.7,2.1C44.7,8,44.2,7.2,44.2,5.7L44.2,5.7z"/>
<path class="st9" d="M38.4,7.6c-0.2-1.7,2.9-1.7,4.5,0.2c1.6,1.9-1,2.9-2.3,2.5C39.3,9.8,38.6,9.1,38.4,7.6L38.4,7.6z"/>
<path class="st10" d="M34.7,12.3c-0.3-1.6,2.8-1.9,4.5-0.2c1.7,1.8-0.8,3-2.1,2.6C35.7,14.4,34.9,13.7,34.7,12.3L34.7,12.3z"/>
<path class="st11" d="M32.7,19C32,17.5,35,16.4,37,17.7c2.1,1.3-0.1,3.1-1.5,3.1C34.2,20.8,33.3,20.3,32.7,19z"/>
<path class="st12" d="M51.8,7.7c0-0.8,2.1-0.4,1.7,0.3C53.1,8.6,51.7,8.5,51.8,7.7z"/>
<path class="st13" d="M46.1,7.4c0-0.8,2.1-0.4,1.7,0.3C47.4,8.4,46,8.2,46.1,7.4z"/>
<path class="st14" d="M40.5,9c0-0.8,2.1-0.4,1.7,0.3C41.9,10,40.5,9.9,40.5,9z"/>
<path class="st15" d="M36.9,13.6c0-0.8,2.1-0.4,1.7,0.3C38.3,14.5,36.9,14.4,36.9,13.6z"/>
<path class="st16" d="M35,19.6c0-0.8,2.1-0.4,1.7,0.3C36.4,20.6,35,20.4,35,19.6z"/>
</svg>
