<svg width="375" height="123" viewBox="0 0 375 123" fill="none" xmlns="http://www.w3.org/2000/svg">
<g clip-path="url(#clip0_715_1134)">
<path d="M406.34 24H0V41.4066H406.34V24Z" fill="white"/>
<path d="M406.34 40.3187H7.19284H0V41.436V109.369C3.87307 110.71 9.84866 112.721 17.3735 114.508C29.546 117.414 52.563 122.665 80.6705 117.078C87.7526 115.626 94.9455 113.615 102.028 110.933C114.643 106.129 124.602 97.1901 135.446 89.4806C141.865 84.8996 148.616 81.4359 156.251 79.5364C172.075 75.5141 187.789 77.5253 203.28 81.2125C232.163 88.1399 259.606 84.7879 285.39 69.9276C293.579 65.2349 301.657 60.4304 309.513 55.2908C322.682 46.6875 336.736 44.4528 351.786 48.0282C370.929 52.4975 389.409 51.3802 406.34 41.6595C338.728 41.6595 271.336 41.6595 203.945 41.6595H406.34V40.3187Z" fill="white"/>
</g>
<rect width="375" height="26" fill="white"/>
<defs>
<clipPath id="clip0_715_1134">
<rect width="375" height="99" fill="white" transform="translate(0 24)"/>
</clipPath>
</defs>
</svg>
