<svg width="120" height="63" viewBox="0 0 120 63" fill="none" xmlns="http://www.w3.org/2000/svg">
<rect width="120" height="47" rx="3" fill="white"/>
<path d="M56.3565 58.4335L51.92 38.1279L71.7234 44.4385L56.3565 58.4335Z" fill="white"/>
<rect x="34" y="25" width="40" height="8" fill="#FFE37D"/>
<path d="M46.726 17.178V27.258C46.726 27.706 46.67 28.0513 46.558 28.294C46.4553 28.5367 46.264 28.7233 45.984 28.854C45.7133 28.9847 45.3587 29.0687 44.92 29.106C44.4907 29.1433 43.968 29.162 43.352 29.162C43.3427 29.05 43.3193 28.9193 43.282 28.77C43.2447 28.63 43.2027 28.4853 43.156 28.336C43.1093 28.1867 43.0533 28.042 42.988 27.902C42.932 27.762 42.876 27.6407 42.82 27.538C43.016 27.5473 43.212 27.5567 43.408 27.566C43.6133 27.566 43.8093 27.566 43.996 27.566C44.1733 27.566 44.3273 27.566 44.458 27.566C44.598 27.5567 44.7007 27.552 44.766 27.552C44.8967 27.552 44.9853 27.5333 45.032 27.496C45.088 27.4493 45.116 27.3653 45.116 27.244V22.162H41.49V17.178H46.726ZM35.442 17.178H40.566V22.148H37.024V29.162H35.442V17.178ZM38.41 28.028V23.072H43.59V27.272H39.894V28.028H38.41ZM39.894 24.388V25.97H42.106V24.388H39.894ZM43.002 20.958H45.116V20.188H43.002V20.958ZM37.024 20.944H39.068V20.188H37.024V20.944ZM43.002 18.382V19.11H45.116V18.382H43.002ZM37.024 19.11H39.068V18.396H37.024V19.11ZM51.7948 18.466C51.7761 18.5873 51.7574 18.7227 51.7388 18.872C51.7201 19.0213 51.7014 19.1707 51.6828 19.32C51.6734 19.46 51.6641 19.6 51.6548 19.74C51.6454 19.8707 51.6408 19.9827 51.6408 20.076C51.6314 20.5053 51.6314 20.9627 51.6408 21.448C51.6501 21.9333 51.6781 22.414 51.7248 22.89C51.7714 23.366 51.8321 23.8047 51.9068 24.206C51.9814 24.598 52.0748 24.934 52.1868 25.214C52.2988 25.494 52.4341 25.7133 52.5928 25.872C52.7514 26.0213 52.9334 26.096 53.1388 26.096C53.2974 26.096 53.4468 26.012 53.5868 25.844C53.7268 25.6667 53.8574 25.4473 53.9788 25.186C54.1001 24.9247 54.2074 24.6447 54.3008 24.346C54.3941 24.0473 54.4734 23.7673 54.5388 23.506L55.8828 25.116C55.6588 25.6853 55.4394 26.1707 55.2248 26.572C55.0101 26.964 54.7908 27.286 54.5668 27.538C54.3428 27.7807 54.1094 27.9533 53.8668 28.056C53.6241 28.168 53.3674 28.224 53.0968 28.224C52.5554 28.224 52.0981 28.07 51.7248 27.762C51.3608 27.454 51.0574 27.0573 50.8148 26.572C50.5721 26.0773 50.3854 25.522 50.2548 24.906C50.1334 24.2807 50.0401 23.6553 49.9748 23.03C49.9188 22.4047 49.8861 21.8073 49.8768 21.238C49.8674 20.6687 49.8628 20.1833 49.8628 19.782C49.8628 19.5953 49.8581 19.376 49.8488 19.124C49.8394 18.872 49.8114 18.6433 49.7648 18.438L51.7948 18.466ZM58.4308 18.746C58.7481 19.1287 59.0421 19.6047 59.3128 20.174C59.5928 20.734 59.8401 21.3267 60.0548 21.952C60.2694 22.5773 60.4468 23.2027 60.5868 23.828C60.7268 24.4533 60.8154 25.018 60.8528 25.522L59.0888 26.194C59.0421 25.662 58.9581 25.0833 58.8368 24.458C58.7248 23.8233 58.5708 23.1933 58.3748 22.568C58.1881 21.9427 57.9594 21.3453 57.6888 20.776C57.4181 20.2067 57.1008 19.7213 56.7368 19.32L58.4308 18.746ZM62.8377 18.816C63.099 18.8067 63.3464 18.7973 63.5797 18.788C63.813 18.7787 63.995 18.7647 64.1257 18.746C64.4057 18.718 64.7464 18.69 65.1477 18.662C65.549 18.6247 65.997 18.5827 66.4917 18.536C66.9864 18.4893 67.5184 18.4427 68.0877 18.396C68.657 18.3493 69.245 18.298 69.8517 18.242C70.533 18.186 71.2097 18.1393 71.8817 18.102C72.5537 18.0647 73.123 18.0367 73.5897 18.018L73.6037 19.726C73.4264 19.726 73.2257 19.7307 73.0017 19.74C72.787 19.74 72.563 19.7447 72.3297 19.754C72.0964 19.7633 71.8677 19.782 71.6437 19.81C71.429 19.8287 71.233 19.8613 71.0557 19.908C70.6544 20.0107 70.281 20.188 69.9357 20.44C69.5997 20.692 69.3057 20.9907 69.0537 21.336C68.8017 21.672 68.6057 22.036 68.4657 22.428C68.3257 22.82 68.2557 23.212 68.2557 23.604C68.2557 24.1453 68.3724 24.6073 68.6057 24.99C68.8484 25.3727 69.1657 25.6853 69.5577 25.928C69.9497 26.1613 70.4024 26.3387 70.9157 26.46C71.4384 26.5813 71.9797 26.656 72.5397 26.684L71.9237 28.518C71.2237 28.4713 70.547 28.3407 69.8937 28.126C69.2497 27.9207 68.6757 27.6313 68.1717 27.258C67.677 26.8753 67.2757 26.4133 66.9677 25.872C66.669 25.3213 66.5197 24.6867 66.5197 23.968C66.5197 23.492 66.5804 23.044 66.7017 22.624C66.823 22.204 66.977 21.8213 67.1637 21.476C67.3504 21.1213 67.5557 20.8133 67.7797 20.552C68.013 20.2813 68.2417 20.062 68.4657 19.894C68.1857 19.922 67.8124 19.964 67.3457 20.02C66.8884 20.0667 66.3984 20.1227 65.8757 20.188C65.3624 20.244 64.849 20.314 64.3357 20.398C63.8224 20.4727 63.3744 20.552 62.9917 20.636L62.8377 18.816ZM81.6545 24.192V23.324H82.4105C82.5878 23.2213 82.7651 23.1093 82.9425 22.988C83.1198 22.8573 83.2878 22.7267 83.4465 22.596H78.9105V21.21H84.9165L85.2665 21.14L86.2605 21.91C86.2045 21.966 86.1671 22.008 86.1485 22.036C85.7751 22.428 85.3505 22.8107 84.8745 23.184C84.3985 23.5573 83.9038 23.8933 83.3905 24.192H88.4165V25.676H83.2645V27.454C83.2645 27.874 83.2085 28.196 83.0965 28.42C82.9845 28.644 82.7651 28.812 82.4385 28.924C82.1211 29.036 81.7525 29.106 81.3325 29.134C80.9125 29.162 80.4178 29.176 79.8485 29.176C79.7925 28.952 79.6991 28.6907 79.5685 28.392C79.4378 28.0933 79.3118 27.8367 79.1905 27.622C79.4611 27.6407 79.7365 27.6547 80.0165 27.664C80.2965 27.664 80.5438 27.664 80.7585 27.664C80.8891 27.664 81.0011 27.664 81.0945 27.664C81.1878 27.6547 81.2578 27.65 81.3045 27.65C81.4445 27.65 81.5378 27.636 81.5845 27.608C81.6311 27.5707 81.6545 27.5053 81.6545 27.412V25.676H76.5165V24.192H81.6545ZM76.6845 22.036V18.774H78.5045C78.3831 18.5593 78.2385 18.3307 78.0705 18.088C77.9025 17.836 77.7391 17.6073 77.5805 17.402L78.9385 16.8C79.1718 17.0613 79.4051 17.3553 79.6385 17.682C79.8718 17.9993 80.0445 18.2887 80.1565 18.55L79.6665 18.774H81.7665C81.6731 18.5127 81.5471 18.2327 81.3885 17.934C81.2391 17.6353 81.0851 17.36 80.9265 17.108L82.3265 16.59C82.5411 16.8887 82.7465 17.22 82.9425 17.584C83.1478 17.9387 83.2925 18.2513 83.3765 18.522L82.7325 18.774H84.7485C84.9725 18.4567 85.1871 18.1207 85.3925 17.766C85.6071 17.402 85.7798 17.0613 85.9105 16.744L87.6325 17.262C87.4458 17.5327 87.2591 17.794 87.0725 18.046C86.8858 18.298 86.6991 18.5407 86.5125 18.774H88.2905V22.036H86.7225V20.188H78.1825V22.036H76.6845ZM100.149 18.9C100.233 19.0213 100.322 19.1613 100.415 19.32C100.518 19.4787 100.616 19.642 100.709 19.81C100.812 19.978 100.905 20.146 100.989 20.314C101.073 20.4727 101.148 20.6127 101.213 20.734L100.149 21.196C100.009 20.9253 99.8412 20.6127 99.6452 20.258C99.4586 19.9033 99.2719 19.5953 99.0852 19.334L100.149 18.9ZM101.731 18.298C101.815 18.4193 101.909 18.5593 102.011 18.718C102.114 18.8767 102.217 19.04 102.319 19.208C102.422 19.376 102.515 19.5393 102.599 19.698C102.693 19.8567 102.767 19.9967 102.823 20.118L101.745 20.566C101.615 20.286 101.451 19.9733 101.255 19.628C101.059 19.2827 100.868 18.9793 100.681 18.718L101.731 18.298ZM95.7812 20.594C95.9399 20.4913 96.0939 20.384 96.2432 20.272C96.3926 20.1507 96.5139 20.0527 96.6072 19.978C96.3179 19.7913 95.9306 19.5767 95.4452 19.334C94.9599 19.0913 94.4652 18.8813 93.9612 18.704L94.9552 17.472C95.2259 17.5653 95.5152 17.6773 95.8232 17.808C96.1312 17.9293 96.4346 18.06 96.7332 18.2C97.0319 18.3307 97.3212 18.4707 97.6012 18.62C97.8906 18.76 98.1472 18.9 98.3712 19.04L98.7632 20.09C98.6699 20.1647 98.5439 20.2673 98.3852 20.398C98.2266 20.5193 98.0539 20.6547 97.8672 20.804C97.6899 20.944 97.5079 21.084 97.3212 21.224C97.1439 21.364 96.9899 21.4807 96.8592 21.574L95.7812 20.594ZM93.5272 26.698C93.8912 26.81 94.2412 26.894 94.5772 26.95C94.9226 26.9967 95.2586 27.02 95.5852 27.02C95.9119 27.02 96.1826 26.9547 96.3972 26.824C96.6119 26.6933 96.7192 26.4693 96.7192 26.152C96.7192 25.844 96.6212 25.5173 96.4252 25.172C96.2386 24.8267 96.0052 24.486 95.7252 24.15C95.4452 23.814 95.1466 23.506 94.8292 23.226C94.5119 22.9367 94.2272 22.7033 93.9752 22.526L95.2912 21.434C95.4779 21.63 95.6599 21.812 95.8372 21.98C96.0146 22.148 96.1872 22.3207 96.3552 22.498C97.0646 23.2167 97.6059 23.884 97.9792 24.5C98.3619 25.1067 98.5532 25.718 98.5532 26.334C98.5532 26.782 98.4786 27.1553 98.3292 27.454C98.1892 27.7527 97.9979 27.986 97.7552 28.154C97.5126 28.3313 97.2326 28.4573 96.9152 28.532C96.5979 28.6067 96.2666 28.644 95.9212 28.644C95.5572 28.644 95.1886 28.6253 94.8152 28.588C94.4512 28.56 94.1106 28.518 93.7932 28.462L93.5272 26.698ZM100.863 27.72C100.779 27.384 100.663 27.0247 100.513 26.642C100.373 26.25 100.21 25.858 100.023 25.466C99.8459 25.074 99.6499 24.696 99.4352 24.332C99.2206 23.9587 99.0012 23.632 98.7772 23.352L100.219 22.596C100.425 22.848 100.639 23.156 100.863 23.52C101.087 23.8747 101.302 24.2527 101.507 24.654C101.713 25.046 101.899 25.438 102.067 25.83C102.235 26.2127 102.371 26.558 102.473 26.866L100.863 27.72ZM94.3392 25.214C93.9659 25.606 93.4852 26.0493 92.8972 26.544C92.3186 27.0387 91.6746 27.5053 90.9652 27.944L89.9572 26.502C90.2372 26.3527 90.5359 26.1753 90.8532 25.97C91.1706 25.7553 91.4786 25.536 91.7772 25.312C92.0759 25.0787 92.3606 24.8407 92.6312 24.598C92.9019 24.3553 93.1352 24.122 93.3312 23.898L94.3392 25.214Z" fill="#183153"/>
<path d="M17.1896 29V27.334H19.4156V20.782H17.5396V19.508C18.0622 19.4053 18.5102 19.2887 18.8836 19.158C19.2662 19.018 19.6209 18.8453 19.9476 18.64H21.4736V27.334H23.4196V29H17.1896ZM27.1137 29.196C26.7497 29.196 26.4464 29.07 26.2037 28.818C25.961 28.5567 25.8397 28.2347 25.8397 27.852C25.8397 27.4693 25.961 27.152 26.2037 26.9C26.4464 26.6387 26.7497 26.508 27.1137 26.508C27.487 26.508 27.795 26.6387 28.0377 26.9C28.2804 27.152 28.4017 27.4693 28.4017 27.852C28.4017 28.2347 28.2804 28.5567 28.0377 28.818C27.795 29.07 27.487 29.196 27.1137 29.196Z" fill="#183153"/>
</svg>
