<svg width="41" height="30" viewBox="0 0 41 30" fill="none" xmlns="http://www.w3.org/2000/svg">
<path d="M30.3575 22.32C30.5135 22.632 30.6575 22.98 30.7895 23.364C30.9335 23.748 31.0535 24.114 31.1495 24.462C31.3775 23.886 31.5575 23.31 31.6895 22.734C31.8215 22.146 31.9235 21.57 31.9955 21.006C32.0675 20.43 32.1155 19.878 32.1395 19.35C32.1635 18.822 32.1755 18.324 32.1755 17.856V15.3H30.7355V13.428H36.4595L36.7655 13.338L38.1335 13.5C38.0375 14.148 37.9295 14.832 37.8095 15.552C37.6895 16.26 37.5575 16.974 37.4135 17.694H38.8355L39.1775 17.622L40.4015 18.09C40.1375 19.506 39.7775 20.784 39.3215 21.924C38.8775 23.064 38.3375 24.084 37.7015 24.984C38.1215 25.392 38.5775 25.752 39.0695 26.064C39.5735 26.376 40.1315 26.64 40.7435 26.856C40.5395 27.036 40.3115 27.288 40.0595 27.612C39.8195 27.948 39.6335 28.248 39.5015 28.512C38.9015 28.248 38.3495 27.942 37.8455 27.594C37.3535 27.258 36.8975 26.88 36.4775 26.46C35.6975 27.276 34.8275 27.942 33.8675 28.458C33.7955 28.35 33.6995 28.224 33.5795 28.08C33.4715 27.936 33.3515 27.792 33.2195 27.648C33.0995 27.504 32.9735 27.366 32.8415 27.234C32.7095 27.114 32.5895 27.018 32.4815 26.946C33.5255 26.43 34.4495 25.764 35.2535 24.948C34.9415 24.468 34.6535 23.958 34.3895 23.418C34.1375 22.878 33.9095 22.314 33.7055 21.726C33.6215 22.314 33.5075 22.908 33.3635 23.508C33.2315 24.096 33.0515 24.678 32.8235 25.254C32.5955 25.818 32.3255 26.37 32.0135 26.91C31.7015 27.45 31.3295 27.954 30.8975 28.422C30.7295 28.254 30.4955 28.062 30.1955 27.846C29.9075 27.63 29.6435 27.462 29.4035 27.342C29.6795 27.054 29.9195 26.754 30.1235 26.442C30.3395 26.118 30.5375 25.788 30.7175 25.452L29.8535 25.758C29.7695 25.35 29.6375 24.87 29.4575 24.318C29.2895 23.766 29.1095 23.256 28.9175 22.788L30.3575 22.32ZM24.3815 19.98L25.6415 19.926C25.7735 19.758 25.8995 19.584 26.0195 19.404C26.1515 19.224 26.2895 19.032 26.4335 18.828C26.1815 18.456 25.8635 18.06 25.4795 17.64C25.1075 17.22 24.7475 16.836 24.3995 16.488L25.3715 15.084C25.4315 15.144 25.4975 15.204 25.5695 15.264C25.6415 15.324 25.7075 15.384 25.7675 15.444C26.0075 14.964 26.2415 14.46 26.4695 13.932C26.6975 13.392 26.8835 12.894 27.0275 12.438L28.7915 13.104C28.4795 13.692 28.1555 14.298 27.8195 14.922C27.4955 15.534 27.1775 16.08 26.8655 16.56C26.9735 16.68 27.0755 16.8 27.1715 16.92C27.2675 17.028 27.3635 17.136 27.4595 17.244C27.7475 16.752 28.0235 16.272 28.2875 15.804C28.5515 15.324 28.7855 14.874 28.9895 14.454L30.6635 15.228C30.1835 15.984 29.6615 16.77 29.0975 17.586C28.5335 18.402 27.9815 19.158 27.4415 19.854L29.2955 19.764C29.2115 19.56 29.1155 19.356 29.0075 19.152C28.9115 18.948 28.8155 18.75 28.7195 18.558L30.0515 17.982C30.2195 18.27 30.3875 18.576 30.5555 18.9C30.7235 19.224 30.8735 19.548 31.0055 19.872C31.1375 20.196 31.2515 20.508 31.3475 20.808C31.4555 21.108 31.5335 21.384 31.5815 21.636L30.1235 22.284C30.0635 21.996 29.9915 21.696 29.9075 21.384L28.8095 21.474V28.512H27.0455V21.6C26.5895 21.624 26.1515 21.648 25.7315 21.672C25.3115 21.696 24.9155 21.72 24.5435 21.744L24.3815 19.98ZM33.9395 15.3V15.966C34.1555 17.442 34.4555 18.81 34.8395 20.07C35.2355 21.33 35.7695 22.458 36.4415 23.454C36.8135 22.902 37.1435 22.296 37.4315 21.636C37.7195 20.976 37.9655 20.268 38.1695 19.512H37.0355L36.9095 20.178L35.0735 19.98C35.2415 19.26 35.4035 18.48 35.5595 17.64C35.7155 16.8 35.8535 16.02 35.9735 15.3H33.9395ZM24.2015 26.478C24.4535 25.974 24.6515 25.368 24.7955 24.66C24.9395 23.94 25.0475 23.22 25.1195 22.5L26.8115 22.788C26.7155 23.604 26.5775 24.408 26.3975 25.2C26.2295 25.992 26.0195 26.664 25.7675 27.216C25.5875 27.108 25.3355 26.982 25.0115 26.838C24.6995 26.682 24.4295 26.562 24.2015 26.478Z" fill="black"/>
<path fill-rule="evenodd" clip-rule="evenodd" d="M15.4262 29.0443L14.9505 0.205719L0.806885 3.95812L2.49481 11.2373L7.74375 10.0402L8.13358 29.0443H15.4262ZM14.4096 28.0443L14.4095 28.0443L13.9717 1.49999H13.9718L14.4096 28.0443ZM12.9929 2.79427L13.3929 27.0443L13.3929 27.0443L12.9929 2.79427L12.9929 2.79427Z" fill="#6EC8DA"/>
<path fill-rule="evenodd" clip-rule="evenodd" d="M15.1742 14L15.42 28.9183H8.13552L7.87 15.9594L8.86362 15.6928L9.11412 27.9183L9.11419 27.9184L8.86369 15.6928L13.185 14.5336L13.389 26.9184L13.3891 26.9184L13.185 14.5336L15.1742 14Z" fill="#F64277"/>
<path fill-rule="evenodd" clip-rule="evenodd" d="M8.2882 6.16339C7.91077 6.86085 7.14878 7.33759 6.27023 7.33759C5.01642 7.33759 4 6.36659 4 5.1688C4 3.971 5.01642 3 6.27023 3C7.14878 3 7.91077 3.47675 8.2882 4.17421C8.66563 3.47675 9.42761 3.00001 10.3062 3.00001C11.56 3.00001 12.5764 3.97101 12.5764 5.1688C12.5764 6.3666 11.56 7.3376 10.3062 7.3376C9.42761 7.3376 8.66562 6.86085 8.2882 6.16339Z" fill="white"/>
<ellipse cx="5.00899" cy="4.92773" rx="1.00899" ry="0.963909" fill="#183153"/>
<ellipse cx="9.04488" cy="4.92773" rx="1.00899" ry="0.963909" fill="#183153"/>
</svg>
