<svg width="72" height="72" viewBox="0 0 72 72" fill="none" xmlns="http://www.w3.org/2000/svg">
<rect width="72" height="72" fill="white"/>
<path d="M52.9636 54.4783H39.0959V33.7662C39.0959 31.657 38.2184 30.6024 36.4633 30.6024C34.7329 30.6024 33.8677 31.657 33.8677 33.7662V54.4783H20V34.0238C20 29.2412 21.5944 25.219 24.7833 21.957C27.9721 18.6706 31.8778 17.0273 36.5004 17.0273C41.7904 17.0273 46.0298 18.9281 49.2186 22.7296C51.7153 25.6972 52.9636 29.8298 52.9636 35.1274V54.4783Z" fill="#0565B5"/>
<path fill-rule="evenodd" clip-rule="evenodd" d="M39.0959 33.7366C39.0959 31.7703 38.3334 30.7206 36.8082 30.5873V16.9998C41.9551 17.0724 46.0919 18.9724 49.2186 22.6999C51.7153 25.6675 52.9636 29.8002 52.9636 35.0977V54.4486H39.0959V33.7366Z" fill="#F64277"/>
<ellipse cx="32.9672" cy="24.5186" rx="4.26394" ry="4.23051" fill="white"/>
<ellipse cx="30.8958" cy="24.1673" rx="1.89508" ry="1.88023" fill="#183153"/>
<ellipse cx="40.607" cy="24.5186" rx="4.26394" ry="4.23051" fill="white"/>
<ellipse cx="38.497" cy="24.077" rx="1.89508" ry="1.88023" fill="#183153"/>
</svg>
