<svg width="36" height="36" viewBox="0 0 36 36" fill="none" xmlns="http://www.w3.org/2000/svg">
<rect width="36" height="36" fill="white"/>
<path d="M25.773 26.7967H19.558V17.5144C19.558 16.5691 19.1648 16.0965 18.3782 16.0965C17.6027 16.0965 17.215 16.5691 17.215 17.5144V26.7967H11V17.6298C11 15.4865 11.7146 13.6839 13.1437 12.222C14.5728 10.7491 16.3232 10.0127 18.3948 10.0127C20.7656 10.0127 22.6655 10.8645 24.0946 12.5682C25.2136 13.8982 25.773 15.7503 25.773 18.1244V26.7967Z" fill="#0565B5"/>
<path fill-rule="evenodd" clip-rule="evenodd" d="M19.5579 17.5007C19.5579 16.6196 19.2162 16.1492 18.5328 16.0894V10C20.8393 10.0326 22.6932 10.8841 24.0945 12.5546C25.2134 13.8845 25.7728 15.7366 25.7728 18.1108V26.7831H19.5579V17.5007Z" fill="#F64277"/>
<ellipse cx="16.8113" cy="13.3696" rx="1.91093" ry="1.89595" fill="white"/>
<ellipse cx="15.8829" cy="13.2128" rx="0.849302" ry="0.842644" fill="#183153"/>
<ellipse cx="20.2352" cy="13.3696" rx="1.91093" ry="1.89595" fill="white"/>
<ellipse cx="19.2894" cy="13.1722" rx="0.849302" ry="0.842644" fill="#183153"/>
</svg>
