<svg width="48" height="48" viewBox="0 0 48 48" fill="none" xmlns="http://www.w3.org/2000/svg">
<rect width="48" height="48" fill="white"/>
<path d="M34.3705 35.1597H25.8007V22.3602C25.8007 21.0568 25.2584 20.4051 24.1738 20.4051C23.1045 20.4051 22.5698 21.0568 22.5698 22.3602V35.1597H14V22.5194C14 19.5639 14.9853 17.0783 16.9559 15.0625C18.9265 13.0316 21.3401 12.0161 24.1967 12.0161C27.4658 12.0161 30.0856 13.1907 32.0562 15.5399C33.5991 17.3738 34.3705 19.9277 34.3705 23.2014V35.1597Z" fill="#0565B5"/>
<path fill-rule="evenodd" clip-rule="evenodd" d="M25.8007 22.3428C25.8007 21.1277 25.3294 20.479 24.3869 20.3966V12C27.5675 12.0448 30.124 13.219 32.0562 15.5225C33.5991 17.3564 34.3705 19.9102 34.3705 23.184V35.1422H25.8007V22.3428Z" fill="#F64277"/>
<ellipse cx="22.0133" cy="16.6461" rx="2.63499" ry="2.61433" fill="white"/>
<ellipse cx="20.7334" cy="16.4285" rx="1.17111" ry="1.16192" fill="#183153"/>
<ellipse cx="26.7346" cy="16.6461" rx="2.63499" ry="2.61433" fill="white"/>
<ellipse cx="25.4306" cy="16.3729" rx="1.17111" ry="1.16192" fill="#183153"/>
</svg>
