<svg width="144" height="144" viewBox="0 0 144 144" fill="none" xmlns="http://www.w3.org/2000/svg">
<rect width="144" height="144" fill="white"/>
<path d="M104.493 108.327H77.3612V67.8034C77.3612 63.6767 75.6443 61.6133 72.2104 61.6133C68.825 61.6133 67.1322 63.6767 67.1322 67.8034V108.327H40V68.3072C40 58.9502 43.1195 51.0807 49.3584 44.6987C55.5974 38.2687 63.2389 35.0537 72.283 35.0537C82.6329 35.0537 90.9273 38.7725 97.1663 46.2102C102.051 52.0164 104.493 60.1018 104.493 70.4665V108.327Z" fill="#0565B5"/>
<path fill-rule="evenodd" clip-rule="evenodd" d="M77.3611 67.7454C77.3611 63.8986 75.8692 61.8447 72.8853 61.5838V35C82.9551 35.142 91.0487 38.8594 97.1662 46.1522C102.051 51.9584 104.493 60.0439 104.493 70.4086V108.269H77.3611V67.7454Z" fill="#F64277"/>
<ellipse cx="65.3704" cy="49.7116" rx="8.34241" ry="8.277" fill="white"/>
<ellipse cx="61.3177" cy="49.0239" rx="3.70774" ry="3.67867" fill="#183153"/>
<ellipse cx="80.3177" cy="49.7116" rx="8.34241" ry="8.277" fill="white"/>
<ellipse cx="76.1894" cy="48.8481" rx="3.70774" ry="3.67867" fill="#183153"/>
</svg>
