<svg width="96" height="96" viewBox="0 0 96 96" fill="none" xmlns="http://www.w3.org/2000/svg">
<rect width="96" height="96" fill="white"/>
<path d="M66.9637 69.1634H50.9925V45.3097C50.9925 42.8805 49.9818 41.6659 47.9605 41.6659C45.9677 41.6659 44.9712 42.8805 44.9712 45.3097V69.1634H29V45.6062C29 40.0983 30.8363 35.4659 34.5088 31.7092C38.1813 27.9242 42.6795 26.0317 48.0032 26.0317C54.0956 26.0317 58.9781 28.2208 62.6506 32.5989C65.526 36.0167 66.9637 40.7762 66.9637 46.8773V69.1634Z" fill="#0565B5"/>
<path fill-rule="evenodd" clip-rule="evenodd" d="M50.9924 45.2754C50.9924 43.011 50.1142 41.802 48.3577 41.6484V26C54.2853 26.0836 59.0496 28.2718 62.6506 32.5647C65.526 35.9825 66.9636 40.7419 66.9636 46.8431V69.1292H50.9924V45.2754Z" fill="#F64277"/>
<ellipse cx="43.9341" cy="34.6593" rx="4.91071" ry="4.87221" fill="white"/>
<ellipse cx="41.5484" cy="34.2553" rx="2.18254" ry="2.16543" fill="#183153"/>
<ellipse cx="52.7328" cy="34.6593" rx="4.91071" ry="4.87221" fill="white"/>
<ellipse cx="50.3027" cy="34.1518" rx="2.18254" ry="2.16543" fill="#183153"/>
</svg>
