<svg width="192" height="192" viewBox="0 0 192 192" fill="none" xmlns="http://www.w3.org/2000/svg">
<rect width="192" height="192" fill="white"/>
<path d="M138.168 143.696H102.759V90.8104C102.759 85.4247 100.518 82.7319 96.0368 82.7319C91.6185 82.7319 89.4094 85.4247 89.4094 90.8104V143.696H54V91.4679C54 79.2563 58.0711 68.9861 66.2134 60.6571C74.3557 52.2656 84.3284 48.0698 96.1315 48.0698C109.639 48.0698 120.464 52.9231 128.606 62.6298C134.981 70.2072 138.168 80.7593 138.168 94.286V143.696Z" fill="#0565B5"/>
<path fill-rule="evenodd" clip-rule="evenodd" d="M102.759 90.735C102.759 85.7146 100.812 83.0342 96.9175 82.6937V48C110.059 48.1853 120.622 53.0368 128.606 62.5544C134.981 70.1319 138.168 80.6839 138.168 94.2106V143.621H102.759V90.735Z" fill="#F64277"/>
<ellipse cx="87.1101" cy="67.1995" rx="10.8874" ry="10.8021" fill="white"/>
<ellipse cx="81.8211" cy="66.3029" rx="4.83885" ry="4.80091" fill="#183153"/>
<ellipse cx="106.617" cy="67.1995" rx="10.8874" ry="10.8021" fill="white"/>
<ellipse cx="101.23" cy="66.0729" rx="4.83885" ry="4.80091" fill="#183153"/>
</svg>
