<svg width="98" height="23" viewBox="0 0 98 23" fill="none" xmlns="http://www.w3.org/2000/svg">
<path d="M98 22.3734H91.9646V13.3527C91.9646 12.4341 91.5827 11.9747 90.8188 11.9747C90.0657 11.9747 89.6892 12.4341 89.6892 13.3527V22.3734H83.6538V13.4648C83.6538 11.3819 84.3477 9.63009 85.7355 8.20941C87.1233 6.77806 88.8232 6.06238 90.835 6.06238C93.1372 6.06238 94.9823 6.89022 96.3701 8.54589C97.4567 9.83838 98 11.6383 98 13.9455V22.3734Z" fill="#0565B5"/>
<path fill-rule="evenodd" clip-rule="evenodd" d="M91.9646 13.3396C91.9646 12.6872 91.7719 12.2664 91.3866 12.0774V6.06567C93.4338 6.18917 95.0949 7.01155 96.3701 8.53282C97.4567 9.82531 98 11.6252 98 13.9325V22.3604H91.9646V13.3396Z" fill="#F64277"/>
<path d="M79.6342 15.3555H70.4843C70.3445 14.8962 70.2745 14.4743 70.2745 14.0898C70.2745 13.5557 70.3713 13.0323 70.565 12.5195H73.6311C73.4159 11.3339 72.7435 10.741 71.6139 10.741C70.8609 10.741 70.2476 11.0615 69.7743 11.7024C69.3009 12.3326 69.0642 13.1444 69.0642 14.1378C69.0642 15.174 69.2901 16.0125 69.742 16.6534C70.2046 17.2943 70.8071 17.6147 71.5494 17.6147C72.1518 17.6147 72.7328 17.3157 73.2922 16.7175L76.7295 20.8193C75.1265 22.069 73.346 22.6939 71.388 22.6939C68.9997 22.6939 66.9933 21.8981 65.3688 20.3066C63.7443 18.715 62.932 16.7442 62.932 14.3942C62.932 12.0549 63.7496 10.0788 65.3849 8.46581C67.0309 6.85286 69.0481 6.04639 71.4364 6.04639C73.771 6.04639 75.729 6.83684 77.3104 8.41774C78.9027 9.98796 79.6988 11.9267 79.6988 14.234C79.6988 14.469 79.6773 14.8428 79.6342 15.3555Z" fill="#6EC8DA"/>
<path fill-rule="evenodd" clip-rule="evenodd" d="M70.6676 10.9424L68.858 6.40052C69.6631 6.16443 70.5225 6.04639 71.4363 6.04639C73.7708 6.04639 75.7288 6.83684 77.3103 8.41774C78.9025 9.98796 79.6986 11.9267 79.6986 14.234C79.6986 14.469 79.6771 14.8428 79.6341 15.3555H70.4842C70.3443 14.8962 70.2744 14.4743 70.2744 14.0898C70.2744 13.5557 70.3712 13.0323 70.5649 12.5195H73.631C73.4158 11.3339 72.7434 10.741 71.6138 10.741C71.2691 10.741 70.9537 10.8082 70.6676 10.9424Z" fill="#00A0D9"/>
<path fill-rule="evenodd" clip-rule="evenodd" d="M48.8494 13.5877V0.497192H42.814V13.812C42.814 16.2581 43.4595 18.2503 44.7505 19.7885C45.4928 20.6751 46.4341 21.3801 47.5745 21.9035C48.7256 22.4269 49.9037 22.6886 51.1086 22.6886C53.5077 22.6886 55.5302 21.8874 57.1763 20.2852C58.8223 18.6829 59.6453 16.7121 59.6453 14.3728C59.6453 12.0869 58.833 10.1321 57.2085 8.50852C55.5948 6.88489 53.6529 6.07308 51.3829 6.07308C51.0716 6.07308 50.6356 6.09629 50.0748 6.14272V12.5793C50.5217 12.3222 50.9255 12.1937 51.2861 12.1937C51.9101 12.1937 52.4372 12.418 52.8676 12.8667C53.2979 13.3046 53.5131 13.8494 53.5131 14.501C53.5131 15.1312 53.2818 15.6706 52.8192 16.1193C52.3673 16.5572 51.8133 16.7762 51.157 16.7762C49.6186 16.7762 48.8494 15.7134 48.8494 13.5877Z" fill="#02BFB7"/>
<path fill-rule="evenodd" clip-rule="evenodd" d="M49.8746 6.15325V12.6998C50.4057 12.3575 50.8794 12.1863 51.2955 12.1863C51.9195 12.1863 52.4467 12.4106 52.877 12.8593C53.3073 13.2972 53.5225 13.842 53.5225 14.4936C53.5225 15.1238 53.2912 15.6632 52.8286 16.1119C52.3767 16.5498 51.8227 16.7688 51.1664 16.7688C50.6487 16.7688 50.2181 16.6484 49.8746 16.4077V22.5868C50.2859 22.6497 50.7003 22.6812 51.118 22.6812C53.5171 22.6812 55.5397 21.88 57.1857 20.2778C58.8317 18.6755 59.6547 16.7047 59.6547 14.3654C59.6547 12.0795 58.8425 10.1247 57.218 8.50112C55.6042 6.87749 53.6624 6.06567 51.3924 6.06567C51.0433 6.06567 50.5373 6.09486 49.8746 6.15325Z" fill="#FCC800"/>
<path fill-rule="evenodd" clip-rule="evenodd" d="M31.2968 6.07314C31.1486 6.06596 30.9989 6.06238 30.8478 6.06238C28.4165 6.06238 26.3724 6.86351 24.7156 8.46578C23.0589 10.0574 22.2305 12.0228 22.2305 14.3621C22.2305 16.6587 23.0589 18.6241 24.7156 20.2585C26.3724 21.8821 28.3681 22.6939 30.7026 22.6939C30.9032 22.6939 31.1013 22.6879 31.2968 22.6759V16.704C31.104 16.7557 30.9006 16.7815 30.6865 16.7815C30.0517 16.7815 29.5031 16.5465 29.0405 16.0765C28.5886 15.6065 28.3627 15.0404 28.3627 14.3781C28.3627 13.7052 28.5886 13.1391 29.0405 12.6797C29.4923 12.2097 30.041 11.9747 30.6865 11.9747C30.9008 11.9747 31.1042 11.9998 31.2968 12.0499V6.07314Z" fill="#0565B5"/>
<path fill-rule="evenodd" clip-rule="evenodd" d="M32.3325 16.0691C32.0305 16.3832 31.6853 16.5924 31.2968 16.6965V22.6685C33.3766 22.5409 35.1689 21.7351 36.6735 20.251C38.3302 18.6274 39.1586 16.6619 39.1586 14.3547C39.1586 12.0794 38.341 10.13 36.7058 8.50639C35.1889 6.98032 33.3859 6.16675 31.2968 6.06567V12.0425C31.6937 12.1458 32.0444 12.3558 32.3487 12.6723C32.8005 13.1316 33.0264 13.6977 33.0264 14.3707C33.0264 15.0329 32.7951 15.5991 32.3325 16.0691Z" fill="#1EB3EA"/>
<path d="M19.4207 6.23863V12.6477C19.0011 12.4127 18.6192 12.2952 18.2749 12.2952C17.1776 12.2952 16.6289 13.1284 16.6289 14.7947V22.3734H10.5935V13.6411C10.5935 11.3338 11.2282 9.49657 12.4977 8.1293C13.7672 6.75135 15.4616 6.06238 17.581 6.06238C18.0544 6.06238 18.6676 6.12113 19.4207 6.23863Z" fill="#FCC800"/>
<path d="M16.6248 16.4072V22.3735H10.6158V16.4072H16.6248Z" fill="#02BFB7"/>
<path d="M10.6158 13.9213V16.4072H16.5752L10.6158 13.9213Z" fill="#02BFB7"/>
<ellipse cx="2.90438" cy="2.48594" rx="2.50374" ry="2.48594" fill="#FCC800"/>
<path d="M6.03539 6.3988V22.3734H0V6.3988H6.03539Z" fill="#6EC8DA"/>
<path d="M6.04174 16.4072V22.4381H0.00634766V16.4072H6.04174Z" fill="#F64277"/>
<path d="M6.0371 13.6726V16.4071H0L6.0371 13.6726Z" fill="#F64277"/>
<ellipse cx="89.7371" cy="9.30028" rx="1.85571" ry="1.84252" fill="white"/>
<ellipse cx="88.7061" cy="9.09563" rx="0.824762" ry="0.818898" fill="#183153"/>
<ellipse cx="93.0361" cy="9.30028" rx="1.85571" ry="1.84252" fill="white"/>
<ellipse cx="92.0052" cy="9.09563" rx="0.824762" ry="0.818898" fill="#183153"/>
</svg>
