<svg width="368" height="92" viewBox="0 0 368 92" fill="none" xmlns="http://www.w3.org/2000/svg">
<path d="M194.266 50.5743C195.372 61.0099 190.037 68.2571 178.91 69.437C167.783 70.6169 156.448 67.5353 155.341 57.0996C154.235 46.664 164.871 25.3668 175.998 24.1869C187.126 23.007 193.159 40.1386 194.266 50.5743Z" fill="#C0E6ED"/>
<path d="M193.954 47.6361C195.061 58.0718 189.726 65.319 178.598 66.4989C167.471 67.6788 156.136 64.5972 155.03 54.1615C153.923 43.7259 164.56 22.4286 175.687 21.2488C186.814 20.0689 192.847 37.2005 193.954 47.6361Z" fill="#6EC8DA"/>
<circle cx="172.11" cy="30.8781" r="3.69514" transform="rotate(5.58034 172.11 30.8781)" fill="white"/>
<circle cx="170.107" cy="30.2699" r="1.64228" transform="rotate(5.58034 170.107 30.2699)" fill="#183153"/>
<circle cx="178.648" cy="31.5169" r="3.69514" transform="rotate(5.58034 178.648 31.5169)" fill="white"/>
<circle cx="176.645" cy="30.9086" r="1.64228" transform="rotate(5.58034 176.645 30.9086)" fill="#183153"/>
<path d="M141.241 22.6784C140.963 22.3229 138.683 21.8937 137.883 17.1767C137.764 16.4743 137.591 15.8985 137.263 15.237C137.263 15.237 142.089 17.1622 143.086 19.2174C144.085 21.2729 143.542 21.3807 142.848 21.8901C142.153 22.4 141.241 22.6776 141.241 22.6776L141.241 22.6784Z" fill="white"/>
<path d="M137.884 17.1772C138.016 17.9576 138.189 18.6198 138.387 19.1846C138.993 18.7158 139.248 18.4439 139.787 17.4553C139.795 17.4415 139.803 17.428 139.813 17.4161C140.104 17.0583 140.405 17.2238 140.586 17.1082C140.643 17.08 140.702 17.0527 140.76 17.0259C139.114 15.9758 137.264 15.2378 137.264 15.2378C137.592 15.8994 137.765 16.4751 137.884 17.1776L137.884 17.1772Z" fill="#F7A245"/>
<path d="M144.271 26.2557C144.271 26.2557 161.006 49.0938 162.436 47.9768C163.913 46.8239 146.39 24.5753 146.39 24.5753C146.39 24.5753 144.98 25.6936 144.271 26.2557Z" fill="#FCC800"/>
<path fill-rule="evenodd" clip-rule="evenodd" d="M162.128 47.9774L145.211 26.0007L144.491 26.5551C146.365 29.0995 159.631 47.0287 162.128 47.9774Z" fill="#EAB53E"/>
<path d="M146.516 25.0311L144.694 26.4452C144.483 26.609 144.142 26.5253 143.937 26.2595L141.002 23.0641C140.796 22.7984 140.8 22.4472 141.011 22.2839L143.407 20.4238C143.618 20.2601 143.959 20.3438 144.164 20.6095L146.525 24.251C146.73 24.5168 146.726 24.8679 146.515 25.0312L146.516 25.0311Z" fill="#C9CACA"/>
<path fill-rule="evenodd" clip-rule="evenodd" d="M143.147 20.5066C143.661 20.1253 144.386 20.2323 144.767 20.7457L143.838 21.4361C144.767 20.7457 144.767 20.7456 144.767 20.7457L144.792 20.7788L144.859 20.8704C144.918 20.9493 145.001 21.062 145.1 21.1982C145.299 21.4702 145.566 21.8374 145.835 22.2156C146.103 22.5916 146.379 22.9874 146.594 23.3139C146.7 23.4756 146.8 23.6334 146.879 23.7695C146.918 23.8367 146.959 23.9131 146.996 23.9906C146.997 23.9915 146.997 23.9925 146.998 23.9936C147.021 24.0421 147.097 24.2028 147.127 24.4011C147.221 25.0335 146.786 25.6231 146.153 25.7179C145.592 25.802 145.065 25.4689 144.887 24.9516C144.883 24.9445 144.878 24.9362 144.873 24.9265C144.828 24.8482 144.756 24.734 144.659 24.5869C144.468 24.2959 144.211 23.9271 143.948 23.5581C143.687 23.1913 143.427 22.8331 143.232 22.5659C143.134 22.4326 143.053 22.3223 142.996 22.2455L142.931 22.1569L142.908 22.1268" fill="#E6E6E6"/>
<path fill-rule="evenodd" clip-rule="evenodd" d="M143.378 21.9244C143.896 21.55 144.62 21.6668 144.994 22.1852C145.302 22.611 145.657 23.1109 145.942 23.5323C146.083 23.7415 146.215 23.9435 146.317 24.1128C146.368 24.1962 146.419 24.2863 146.463 24.3735C146.464 24.3752 146.465 24.377 146.466 24.3791C146.492 24.4304 146.585 24.6141 146.618 24.8343C146.713 25.4667 146.277 26.0561 145.644 26.1508C145.084 26.2347 144.557 25.9017 144.379 25.3846C144.369 25.3664 144.354 25.3408 144.333 25.3071C144.262 25.189 144.156 25.0258 144.023 24.8286C143.759 24.4376 143.42 23.9609 143.117 23.5409C142.743 23.0225 142.859 22.2988 143.378 21.9244ZM144.395 25.4143C144.406 25.4373 144.402 25.4334 144.392 25.4091C144.393 25.4111 144.394 25.4129 144.395 25.4143Z" fill="#E6E6E6"/>
<path d="M230.168 63.269C225.269 68.1679 216.904 65.9265 215.111 59.2344L208.972 36.3227C207.179 29.6305 213.302 23.5068 219.994 25.2999L242.906 31.4391C249.598 33.2323 251.84 41.5974 246.941 46.4964L230.168 63.269Z" fill="#F0528D" fill-opacity="0.3"/>
<path d="M229.423 58.7208C224.524 63.6197 216.158 61.3783 214.365 54.6862L208.226 31.7744C206.433 25.0823 212.557 18.9586 219.249 20.7517L242.161 26.8909C248.853 28.6841 251.094 37.0492 246.195 41.9482L229.423 58.7208Z" fill="#F0528D"/>
<circle cx="219.399" cy="25.1531" r="3.69514" fill="white"/>
<circle cx="219.497" cy="23.372" r="1.64228" fill="#183153"/>
<circle cx="225.969" cy="25.1531" r="3.69514" fill="white"/>
<circle cx="226.066" cy="23.372" r="1.64228" fill="#183153"/>
<path d="M261.728 23.627C259.21 21.7405 247.943 18.2262 241.649 26.5341C236.968 32.7127 234.569 41.5611 244.34 47.866C249.825 51.4051 260.143 48.3577 258.723 43.8833C257.303 39.4089 259.195 35.3025 262.458 34.9126C265.721 34.5227 267.649 28.0644 261.728 23.627ZM256.507 37.0497C256.155 37.9888 254.78 38.3426 253.435 37.8402C252.09 37.3377 251.285 36.169 251.637 35.2299C251.989 34.2908 253.364 33.9369 254.709 34.4394C256.054 34.9419 256.859 36.1105 256.507 37.0497Z" fill="#E4B198"/>
<path d="M261.532 22.7414C259.015 20.8549 247.748 17.3401 241.454 25.648C236.772 31.8271 234.373 40.6755 244.145 46.9804C249.63 50.5195 259.948 47.4721 258.528 42.9977C257.108 38.5233 258.999 34.4169 262.263 34.027C265.526 33.6371 267.453 27.1787 261.532 22.7414ZM256.507 37.0496C256.155 37.9887 254.78 38.3425 253.435 37.8401C252.09 37.3376 251.285 36.1689 251.637 35.2298C251.989 34.2907 253.364 33.9369 254.709 34.4393C256.054 34.9418 256.859 36.1104 256.507 37.0496Z" fill="#FBD4C1"/>
<path d="M254.611 34.5096C256.256 35.0637 256.59 36.8294 256.591 36.8255C257.144 35.3493 256.122 34.244 254.778 33.7415C253.433 33.2391 252.137 33.8975 251.68 35.1164C251.597 35.3367 252.658 33.8522 254.611 34.5096Z" fill="#E4B69F"/>
<path d="M256.36 23.0421C256.628 21.389 259.642 22.1395 260.655 24.3804C261.668 26.6212 258.893 26.9331 257.746 26.148C256.599 25.3629 256.129 24.4676 256.36 23.0421H256.36Z" fill="#ED6D46"/>
<path d="M250.33 23.2175C250.387 21.544 253.471 21.9085 254.759 24.0041C256.048 26.0997 253.334 26.7581 252.097 26.1236C250.86 25.4891 250.28 24.6601 250.33 23.217L250.33 23.2175Z" fill="#FCC800"/>
<path d="M244.527 25.1149C244.345 23.4501 247.45 23.3736 249.023 25.265C250.597 27.1564 248.005 28.1935 246.69 27.7407C245.375 27.288 244.683 26.5501 244.527 25.1144L244.527 25.1149Z" fill="#02BFB7"/>
<path d="M240.764 29.8081C240.462 28.1608 243.552 27.8592 245.259 29.6312C246.967 31.4032 244.457 32.626 243.112 32.2702C241.768 31.9144 241.025 31.2282 240.764 29.8081H240.764Z" fill="#00A0D9"/>
<path d="M238.834 36.4613C238.146 34.9344 241.074 33.9027 243.156 35.2152C245.238 36.5276 243.095 38.3147 241.704 38.2903C240.314 38.266 239.427 37.7776 238.834 36.4613Z" fill="#BD6DA9"/>
<path d="M257.872 25.1864C257.908 24.414 259.957 24.8009 259.6 25.4618C259.242 26.1226 257.834 26.0008 257.872 25.1864Z" fill="#F0907F"/>
<path d="M252.188 24.916C252.224 24.1436 254.273 24.5305 253.915 25.1914C253.558 25.8527 252.149 25.7304 252.188 24.916Z" fill="#FFFAC2"/>
<path d="M246.623 26.5219C246.659 25.7494 248.708 26.1364 248.351 26.7972C247.993 27.4586 246.585 27.3362 246.623 26.5219Z" fill="#CFE0B7"/>
<path d="M243.008 31.0664C243.044 30.294 245.093 30.6809 244.735 31.3418C244.378 32.0031 242.969 31.8808 243.008 31.0664Z" fill="#CFE8F7"/>
<path d="M241.124 37.1051C241.16 36.3327 243.209 36.7196 242.851 37.3805C242.494 38.0418 241.085 37.9195 241.124 37.1051Z" fill="#DEB2CD"/>
<path d="M120.294 63.6833C118.482 73.9174 111.435 79.3526 100.559 77.427C89.6832 75.5014 98.257 63.4338 100.069 53.1997C101.881 42.9656 99.3292 31.6419 110.205 33.5675C121.081 35.4931 122.106 53.4492 120.294 63.6833Z" fill="#1CC1BF" fill-opacity="0.3"/>
<path d="M121.992 64.4658C120.18 74.6999 113.134 80.1351 102.258 78.2095C91.3819 76.2839 99.9557 64.2162 101.768 53.9821C103.58 43.748 101.028 32.4243 111.904 34.35C122.78 36.2756 123.804 54.2317 121.992 64.4658Z" fill="#1CC1BF"/>
<circle cx="107.888" cy="43.0413" r="3.69514" fill="white"/>
<circle cx="105.835" cy="42.6307" r="1.64228" fill="#183153"/>
<circle cx="114.457" cy="43.0413" r="3.69514" fill="white"/>
<circle cx="112.404" cy="42.6307" r="1.64228" fill="#183153"/>
<path fill-rule="evenodd" clip-rule="evenodd" d="M89.1913 42.5844L88.8839 42.8086L87.1887 44.05C87.1887 44.05 86.856 44.2464 87.2537 44.7324C87.246 44.7747 95.0853 57.0582 99.6954 62.7108L103.054 60.1851L103.358 59.9565L106.697 57.4445C102.112 51.8217 91.6045 41.5832 91.5606 41.5794C91.1648 41.0956 90.8812 41.3481 90.8812 41.3481L89.1913 42.5844Z" fill="#E3E3E3"/>
<path fill-rule="evenodd" clip-rule="evenodd" d="M84.6936 41.0001C84.6383 41.0397 84.6006 41.0932 84.5792 41.1501L87.0348 44.1614L87.3423 43.9359L84.8535 40.8837L84.6936 41.0001ZM87.6519 43.7105L87.96 43.4857L85.4705 40.4343L85.1609 40.6596L87.6519 43.7105ZM88.2675 43.2602L88.5758 43.0341L86.0889 39.9842L85.7793 40.2095L88.2675 43.2602ZM88.8833 42.8085L89.1907 42.5844L86.703 39.5352L86.3956 39.7593L88.8833 42.8085ZM89.4996 42.3583L89.8056 42.134L87.322 39.0858L87.0145 39.3113L89.4996 42.3583ZM90.1125 41.9078L90.4205 41.6844L87.9368 38.6382L87.6294 38.8624L90.1125 41.9078ZM90.7266 41.4601L91.034 41.2359L88.5854 38.2308C88.5192 38.237 88.4579 38.2587 88.4027 38.2983L88.2449 38.4141L90.7266 41.4601Z" fill="#CCCCCC"/>
<path fill-rule="evenodd" clip-rule="evenodd" d="M99.6944 62.7107L100.317 63.4737C100.73 63.9805 101.476 64.0819 101.982 63.6997L107.15 59.8C107.653 59.4209 107.726 58.7074 107.315 58.203L106.696 57.4444L99.6944 62.7107Z" fill="#CDCCCC"/>
<path fill-rule="evenodd" clip-rule="evenodd" d="M89.0607 47.5558C90.5735 49.8811 92.8445 53.3081 95.1149 56.5456L98.5827 54.0614C97.8938 50.6167 95.9583 45.9071 93.9773 43.9409L89.0607 47.5558Z" fill="#E45747"/>
<path fill-rule="evenodd" clip-rule="evenodd" d="M94.6528 46.0628C94.2104 45.5137 93.7896 44.9913 93.4155 44.4163L93.9772 43.9409C95.9582 45.9072 98.8686 48.8396 101.585 51.723L98.5826 54.0614C97.5454 49.6536 95.9992 47.7342 94.6528 46.0628Z" fill="#E5331E"/>
<rect x="91.8273" y="50.1599" width="5.25607" height="2.50878" rx="1.15" transform="rotate(-37.4796 91.8273 50.1599)" fill="#FBF6F0" stroke="#E3E3E3" stroke-width="0.3"/>
<path d="M89.2537 42.8362C88.3663 42.5651 87.9626 41.7605 87.4483 41.057C86.338 39.5386 84.9434 38.2316 83.6193 36.9037C81.3834 34.6614 79.4866 32.2723 76.9548 30.3713C73.2541 27.5927 69.0204 23.0774 63.8192 25.6555C61.2258 26.9411 60.4228 32.9297 60.7359 35.515C61.3081 40.2388 63.5614 44.785 66.1582 48.6518C66.4715 49.1185 64.2897 46.5506 63.593 46.0117C61.699 44.5467 60.5744 42.4705 58.7451 41.0047C57.407 39.9325 52.196 37.1657 51.6451 39.9188C51.4142 41.0729 50.8853 42.4478 50.9864 43.6073C51.2106 46.1808 52.513 48.0537 53.4652 50.3459C53.8135 51.1844 50.8811 49.4435 50.4558 49.2317C48.6212 48.3182 47.4418 46.5035 45.956 45.1608" stroke="#E45747" stroke-width="4" stroke-linecap="round"/>
<path d="M0 91.9H360.7H367.2V90.9V30.1C363.7 28.9 358.3 27.1 351.5 25.5C340.5 22.9 319.7 18.2 294.3 23.2C287.9 24.5 281.4 26.3 275 28.7C263.6 33 254.6 41 244.8 47.9C239 52 232.9 55.1 226 56.8C211.7 60.4 197.5 58.6 183.5 55.3C157.4 49.1 132.6 52.1 109.3 65.4C101.9 69.6 94.6 73.9 87.5 78.5C75.6 86.2 62.9 88.2 49.3 85C32 81 15.3 82 0 90.7C61.1 90.7 122 90.7 182.9 90.7H0V91.9Z" fill="white"/>
</svg>
