<svg width="27" height="25" viewBox="0 0 27 25" fill="none" xmlns="http://www.w3.org/2000/svg">
<g clip-path="url(#clip0_311_2232)">
<path fill-rule="evenodd" clip-rule="evenodd" d="M4.3579 11.2349C4.35813 11.0301 4.42747 10.8316 4.5543 10.6727C6.43693 8.29312 9.40396 7.25586 11.779 6.61793C13.6378 6.11787 16.0886 5.58209 18.5828 5.87356C21.2062 6.17859 23.4816 7.40587 24.8255 9.24108C26.4227 11.4235 26.5363 14.4667 25.0921 16.4776C23.7944 18.2821 21.4895 19.2279 18.2426 19.2851C17.7516 19.2958 17.3448 18.8993 17.3343 18.3993C17.3286 18.2793 17.3472 18.1594 17.3889 18.047C17.4306 17.9346 17.4946 17.8322 17.5768 17.746C17.659 17.6599 17.7577 17.5918 17.8668 17.5462C17.976 17.5005 18.0931 17.4782 18.2111 17.4806C20.0369 17.4485 22.4603 17.0648 23.6443 15.4182C24.6284 14.0516 24.5211 11.855 23.3883 10.3126C22.3383 8.87818 20.5124 7.91236 18.3787 7.66519C16.1846 7.40802 13.9457 7.90164 12.2412 8.35955C10.132 8.92676 7.51081 9.82972 5.95364 11.7978C5.80505 11.9853 5.58982 12.1055 5.35471 12.1322C5.11961 12.159 4.88364 12.0901 4.69809 11.9407C4.59255 11.8571 4.50711 11.75 4.44829 11.6277C4.38946 11.5054 4.35809 11.3711 4.3579 11.2349Z" fill="#DAE0E6"/>
<path fill-rule="evenodd" clip-rule="evenodd" d="M8.29565 8.60815L8.29565 11.1549C8.29565 11.9222 7.99636 12.6581 7.46361 13.2007C6.93086 13.7432 6.2083 14.0481 5.45488 14.0481L2.84066 14.0481C2.08724 14.0481 1.36468 13.7432 0.831931 13.2007C0.299182 12.6581 -0.000113501 11.9222 -0.000113468 11.1549L-0.000113356 8.60815C-0.000113323 7.84083 0.299182 7.10494 0.831931 6.56236C1.36468 6.01978 2.08724 5.71497 2.84066 5.71497L5.45628 5.71497C6.20946 5.71534 6.93166 6.02033 7.46411 6.56287C7.99655 7.1054 8.29565 7.84108 8.29565 8.60815Z" fill="#F5F1EF"/>
</g>
<defs>
<clipPath id="clip0_311_2232">
<rect width="25" height="27" fill="white" transform="translate(27) rotate(90)"/>
</clipPath>
</defs>
</svg>
