<svg width="69" height="96" viewBox="0 0 69 96" fill="none" xmlns="http://www.w3.org/2000/svg">
<path fill-rule="evenodd" clip-rule="evenodd" d="M62.3271 35.3216C61.7724 34.2579 61.274 33.3022 60.8873 32.4994C58.7536 28.0701 55.7425 23.8986 53.1378 20.2901C52.1465 18.9166 51.214 17.6247 50.4111 16.4313C50.1325 16.017 49.843 15.5808 49.5425 15.1279C47.8328 12.5511 45.764 9.43321 43.272 6.73121C43.0678 6.50982 42.8717 6.30657 42.7075 6.13805C42.6213 6.04965 42.5559 5.98289 42.497 5.92278C42.422 5.84617 42.3575 5.78036 42.2742 5.6943C42.2004 5.61807 42.1391 5.55378 42.0881 5.49937C41.3512 2.37592 38.3972 0.204439 35.1167 0.532198C31.5446 0.889093 28.9382 4.07414 29.2951 7.64621C29.5504 10.2014 30.6874 12.0713 31.6628 13.3054C32.2809 14.0874 33.4569 15.2817 33.6793 15.5075C33.701 15.5296 33.7136 15.5424 33.7157 15.5447C35.4459 17.4206 36.8606 19.5441 38.5872 22.1354C38.9199 22.6348 39.2642 23.1515 39.6245 23.6872C40.9599 25.6724 42.1973 27.3813 43.3436 28.9644C45.6331 32.1263 47.559 34.786 49.1754 38.1413C49.9452 39.7395 50.692 41.169 51.3905 42.506C52.8491 45.2979 54.0969 47.6864 54.904 50.365C55.8844 53.6183 55.7119 55.9 54.0196 58.1545C53.9275 58.2116 53.67 58.3556 53.1445 58.5229C52.1913 58.8262 50.8448 59.0462 49.2036 59.1164C45.8349 59.2604 42.4564 58.7333 40.8946 58.2223C33.3879 55.7661 26.3545 50.4944 20.2583 44.3928C20.188 44.3225 20.0437 44.1799 19.8587 44.0196C19.7685 43.9414 19.5981 43.7973 19.3729 43.6357L19.3655 43.6303C19.2253 43.5296 18.6508 43.1165 17.8173 42.8093C17.41 42.6593 16.4159 42.3319 15.1104 42.4235C13.551 42.533 11.6089 43.2682 10.2801 45.122C9.1574 46.6884 9.06033 48.2608 9.06249 48.9327C9.06491 49.6847 9.19857 50.2688 9.27284 50.5541C9.42452 51.1368 9.62509 51.5668 9.69175 51.7079C9.78448 51.9043 9.86952 52.0593 9.92085 52.1502C10.1601 52.574 10.4767 53.0108 10.5755 53.1471C10.5823 53.1564 10.588 53.1643 10.5927 53.1707C10.8178 53.4827 11.1449 53.9233 11.4845 54.3807C11.624 54.5686 11.7656 54.7593 11.903 54.945C12.4104 55.6307 12.927 56.3362 13.3542 56.9476C13.6749 57.4065 13.845 57.6718 13.9143 57.7799C13.9553 57.8439 13.961 57.8528 13.9417 57.8141C15.3238 60.5807 17.1426 62.8493 18.5111 64.5562L18.5628 64.6208C20.0667 66.4967 21.0568 67.7481 21.7683 69.113C21.909 69.3829 22.2702 70.2239 22.6434 71.4473C22.8799 72.2229 23.081 73.0217 23.2231 73.7731C23.1323 73.7769 23.0421 73.7804 22.9515 73.7833C22.433 73.8003 22.0463 73.796 21.7467 73.7744C21.4599 73.7537 21.3429 73.7229 21.3419 73.7228C21.3418 73.7227 21.3421 73.7228 21.3426 73.723C19.852 73.2898 18.5163 72.5591 16.9236 71.4498C16.1974 70.944 15.4879 70.4108 14.6589 69.7878C14.5446 69.7019 14.428 69.6143 14.3088 69.5248C13.3654 68.8167 12.2875 68.0149 11.1129 67.2311C10.6294 66.9085 9.56559 66.2697 8.06924 66.0842C6.24173 65.8576 4.15613 66.3782 2.56081 67.943C1.25192 69.2268 0.833182 70.6767 0.684714 71.3347C0.515998 72.0825 0.497054 72.7271 0.500403 73.1178C0.512019 74.4727 0.865241 75.9025 1.05656 76.6458C1.30054 77.5937 1.59608 78.5619 1.82461 79.2897C1.90951 79.5601 1.99208 79.819 2.05952 80.0305C2.08295 80.1039 2.10455 80.1717 2.12379 80.2322C2.19976 80.4711 2.22398 80.5517 2.22442 80.5516C2.22454 80.5515 2.22287 80.5454 2.21998 80.5348C3.04383 83.5582 4.58281 85.9975 5.85134 87.8179C6.43876 88.6609 6.91848 89.314 7.33712 89.8839C7.98845 90.7707 8.49192 91.4561 9.02305 92.3421C10.8688 95.4211 14.8611 96.4208 17.9401 94.575C20.6714 92.9376 21.7665 89.6111 20.6905 86.7315C21.7105 86.8127 22.6382 86.8005 23.3765 86.7764C24.3315 86.7451 24.91 86.707 25.3829 86.6759C25.8936 86.6422 26.2813 86.6167 26.8873 86.6167C28.705 86.6167 30.6223 86.1434 32.3205 84.9398C33.9853 83.7599 34.9798 82.2047 35.5531 80.7963C36.606 78.2093 36.5251 75.436 36.3221 73.5365C36.2043 72.4333 36.0057 71.3051 35.756 70.204C36.1193 70.3329 36.4846 70.4575 36.8518 70.5777C40.1487 71.6565 45.1218 72.3028 49.7589 72.1045C52.1205 72.0035 54.6904 71.6734 57.0874 70.9105C59.4087 70.1717 62.1912 68.8274 64.1844 66.2625C69.3692 59.5904 69.1233 52.495 67.3512 46.6142C66.1676 42.6863 63.9932 38.5166 62.3271 35.3216ZM21.027 45.4116C21.0267 45.4113 21.0307 45.4173 21.0399 45.4305C21.0319 45.4185 21.0274 45.412 21.027 45.4116Z" fill="#E45747"/>
</svg>
