<?xml version="1.0" encoding="utf-8"?>
<!-- Generator: Adobe Illustrator 28.2.0, SVG Export Plug-In . SVG Version: 6.00 Build 0)  -->
<svg version="1.1" id="レイヤー_1" xmlns="http://www.w3.org/2000/svg" xmlns:xlink="http://www.w3.org/1999/xlink" x="0px"
	 y="0px" viewBox="0 0 44 45" style="enable-background:new 0 0 44 45;" xml:space="preserve">
<style type="text/css">
	.st0{fill:#F0528D;fill-opacity:0.3;}
	.st1{fill:#F0528D;}
	.st2{fill:#FFFFFF;}
	.st3{fill:#183153;}
</style>
<path class="st0" d="M23.6,41.9c-4.9,4.9-13.3,2.7-15.1-4L2.1,14.1c-1.8-6.7,4.3-12.8,11-11l23.7,6.4c6.7,1.8,8.9,10.2,4,15.1
	L23.6,41.9z"/>
<path class="st1" d="M22.8,39.7c-4.9,4.9-13.3,2.7-15.1-4L1.4,11.9c-1.8-6.7,4.3-12.8,11-11l23.7,6.4c6.7,1.8,8.9,10.2,4,15.1
	L22.8,39.7z"/>
<circle class="st2" cx="12.8" cy="5.4" r="3.8"/>
<circle class="st3" cx="12.9" cy="3.6" r="1.7"/>
<circle class="st2" cx="19.5" cy="5.4" r="3.8"/>
<circle class="st3" cx="19.6" cy="3.6" r="1.7"/>
</svg>
