<svg width="137" height="256" viewBox="0 0 137 256" fill="none" xmlns="http://www.w3.org/2000/svg">
<path d="M155.035 118.382C155.035 134.556 145.68 144.796 128.435 144.796C111.19 144.796 94.3184 138.231 94.3184 122.057C94.3184 105.884 114.081 74.9721 131.326 74.9721C148.572 74.9721 155.035 102.209 155.035 118.382Z" fill="#C0E6ED"/>
<path d="M155.035 113.828C155.035 130.002 145.68 140.242 128.435 140.242C111.19 140.242 94.3184 133.677 94.3184 117.504C94.3184 101.33 114.081 70.4184 131.326 70.4184C148.572 70.4184 155.035 97.6549 155.035 113.828Z" fill="#6EC8DA"/>
<circle cx="117.048" cy="90.9617" r="5.69492" fill="white"/>
<circle cx="113.885" cy="90.329" r="2.53107" fill="#183153"/>
<circle cx="127.172" cy="90.9617" r="5.69492" fill="white"/>
<circle cx="124.009" cy="90.329" r="2.53107" fill="#183153"/>
<path d="M139.936 152.862C142.564 168.663 135.12 180.182 118.328 182.975C101.536 185.768 107.79 163.827 105.162 148.026C102.534 132.225 93.0058 117.084 109.798 114.291C126.59 111.499 137.308 137.061 139.936 152.862Z" fill="#1CC1BF" fill-opacity="0.3"/>
<path d="M142.807 153.126C145.435 168.927 137.991 180.446 121.198 183.239C104.406 186.032 110.661 164.091 108.033 148.29C105.405 132.489 95.8764 117.348 112.668 114.555C129.46 111.763 140.179 137.325 142.807 153.126Z" fill="#1CC1BF"/>
<circle cx="114.941" cy="140.143" r="5.69492" fill="white"/>
<circle cx="111.777" cy="139.511" r="2.53107" fill="#183153"/>
<circle cx="125.065" cy="140.143" r="5.69492" fill="white"/>
<circle cx="121.901" cy="139.511" r="2.53107" fill="#183153"/>
<path d="M110.909 232.071C106.01 236.97 97.6451 234.729 95.852 228.036L82.0233 176.427C80.2302 169.735 86.3539 163.611 93.046 165.405L144.655 179.233C151.347 181.026 153.589 189.391 148.69 194.29L110.909 232.071Z" fill="#F0528D" fill-opacity="0.3"/>
<path d="M115.105 232.335C110.206 237.234 101.841 234.992 100.048 228.3L86.2191 176.691C84.426 169.999 90.5497 163.875 97.2418 165.668L148.851 179.497C155.543 181.29 157.785 189.655 152.886 194.554L115.105 232.335Z" fill="#F0528D"/>
<circle cx="98.3438" cy="177.202" r="5.69492" fill="white"/>
<circle cx="95.9271" cy="177.024" r="2.53107" fill="#183153"/>
<circle cx="108.468" cy="177.202" r="5.69492" fill="white"/>
<circle cx="106.052" cy="177.024" r="2.53107" fill="#183153"/>
<path d="M60.0343 0.689923C68.1503 0.577271 76.0807 0.577271 84.27 0.577271C88.9647 1.06824 93.4644 0.897048 97.8786 1.57148C109.581 3.35939 119.179 8.13644 125.21 17.7359C126.539 19.8499 126.586 22.3494 126.945 24.9091C127.07 27.75 127.07 30.427 127.07 33.3378C126.83 38.4355 124.423 42.4276 121.13 46.1398C119.468 48.0141 118.074 50.1002 117.087 52.3668C115.43 56.1698 115.919 59.7068 118.701 62.9581C119.095 63.4191 119.517 63.8614 119.888 64.3383C120.399 64.9949 120.61 65.7021 120.126 66.4348C119.664 67.1329 118.898 67.0821 118.159 66.9507C116.626 66.6784 115.03 66.7178 113.535 66.3016C101.795 63.0345 89.9512 63.4627 78.0549 65.4189C71.1646 66.552 64.1896 66.8127 57.2118 67.0744C48.0239 67.419 38.8397 67.4885 29.6765 66.7116C21.6037 66.0271 15.0678 62.4259 9.4047 57.4404C3.97157 52.6573 0.123031 47.1167 0.123471 39.744C-3.29302e-08 36.5604 0 33.5504 0 30.3062C0.777252 26.7075 0.676226 23.1895 2.78223 20.0717C6.98414 13.8509 13.0965 9.76727 20.3898 7.12057C30.5659 3.42771 41.1411 1.27217 52.1642 1.04052C54.7227 0.986753 57.285 0.836099 60.0343 0.689923Z" fill="#FBF6F0"/>
</svg>
