<?xml version="1.0" encoding="utf-8"?>
<!-- Generator: Adobe Illustrator 28.2.0, SVG Export Plug-In . SVG Version: 6.00 Build 0)  -->
<svg version="1.1" id="レイヤー_1" xmlns="http://www.w3.org/2000/svg" xmlns:xlink="http://www.w3.org/1999/xlink" x="0px"
	 y="0px" viewBox="0 0 51.8 55.2" style="enable-background:new 0 0 51.8 55.2;" xml:space="preserve">
<style type="text/css">
	.st0{fill:#1CC1BF;fill-opacity:0.3;}
	.st1{fill:#1CC1BF;}
	.st2{fill:#FFFFFF;}
	.st3{fill:#183153;}
	.st4{fill:#E5331E;}
	.st5{fill-rule:evenodd;clip-rule:evenodd;fill:#E3E3E3;}
	.st6{fill-rule:evenodd;clip-rule:evenodd;fill:#CCCCCC;}
	.st7{fill-rule:evenodd;clip-rule:evenodd;fill:#CDCCCC;}
	.st8{fill-rule:evenodd;clip-rule:evenodd;fill:#E45747;}
	.st9{fill-rule:evenodd;clip-rule:evenodd;fill:#E5331E;}
	.st10{fill:#FBF6F0;stroke:#E3E3E3;stroke-width:0.3;}
	.st11{fill:#E45747;}
	.st12{fill:#F7CDC9;}
</style>
<path class="st0" d="M45.5,37.1c-1.8,10.2-8.9,15.7-19.7,13.7s-2.3-14-0.5-24.2C27.1,16.4,24.5,5,35.4,7
	C46.3,8.9,47.3,26.8,45.5,37.1z"/>
<path class="st1" d="M47.2,37.9c-1.8,10.2-8.9,15.7-19.7,13.7c-10.9-1.9-2.3-14-0.5-24.2c1.8-10.2-0.7-21.6,10.1-19.6
	C48,9.7,49,27.6,47.2,37.9z"/>
<circle class="st2" cx="33.1" cy="16.4" r="3.7"/>
<circle class="st3" cx="31" cy="16" r="1.6"/>
<circle class="st2" cx="39.7" cy="16.4" r="3.7"/>
<circle class="st3" cx="37.6" cy="16" r="1.6"/>
<path class="st4" d="M10.8,11.3c-1.7-2.6-6.5,1.6-7.8-3.9C2.8,1.6,6,2.7,9.1,3.7C11.2,4.7,12,8.3,10.8,11.3z"/>
<path class="st5" d="M14.4,16l-0.3,0.2l-1.7,1.2c0,0-0.3,0.2,0.1,0.7c0,0,7.8,12.3,12.4,18l3.4-2.5l0.3-0.2l3.3-2.5
	C27.3,25.2,16.8,15,16.8,15c-0.4-0.5-0.7-0.2-0.7-0.2L14.4,16z"/>
<path class="st6" d="M9.9,14.4c-0.1,0-0.1,0.1-0.1,0.2l2.5,3l0.3-0.2l-2.5-3.1L9.9,14.4z M12.8,17.1l0.3-0.2l-2.5-3.1L10.4,14
	L12.8,17.1z M13.5,16.6l0.3-0.2l-2.5-3L11,13.6L13.5,16.6z M14.1,16.2l0.3-0.2l-2.5-3l-0.3,0.2L14.1,16.2z M14.7,15.7l0.3-0.2
	l-2.5-3l-0.3,0.2L14.7,15.7z M15.3,15.3l0.3-0.2l-2.5-3l-0.3,0.2L15.3,15.3z M15.9,14.8l0.3-0.2l-2.4-3c-0.1,0-0.1,0-0.2,0.1
	l-0.2,0.1L15.9,14.8z"/>
<path class="st7" d="M24.9,36.1l0.6,0.8c0.4,0.5,1.2,0.6,1.7,0.2l5.2-3.9c0.5-0.4,0.6-1.1,0.2-1.6l-0.6-0.8L24.9,36.1z"/>
<path class="st8" d="M14.3,20.9c1.5,2.3,3.8,5.8,6.1,9l3.5-2.5c-0.7-3.4-2.6-8.2-4.6-10.1L14.3,20.9z"/>
<path class="st9" d="M19.8,19.4c-0.4-0.5-0.9-1.1-1.2-1.6l0.6-0.5c2,2,4.9,4.9,7.6,7.8l-3,2.3C22.7,23,21.2,21.1,19.8,19.4z"/>
<path class="st10" d="M17.9,22.8l2.3-1.8c0.5-0.4,1.2-0.3,1.6,0.2l0.1,0.2c0.4,0.5,0.3,1.2-0.2,1.6l-2.3,1.8
	c-0.5,0.4-1.2,0.3-1.6-0.2l-0.1-0.2C17.3,24,17.4,23.2,17.9,22.8z"/>
<path class="st11" d="M10.8,12.1c-1.7-2.6-6.5,1.6-7.8-3.9C2.8,2.3,6,3.4,9.1,4.4C11.2,5.4,12,9,10.8,12.1z"/>
<path class="st12" d="M4.8,4.3C5.4,4.6,4.4,6,4,5.5C3.7,5,4.2,4,4.8,4.3z"/>
</svg>
