<?xml version="1.0" encoding="utf-8"?>
<!-- Generator: Adobe Illustrator 28.3.0, SVG Export Plug-In . SVG Version: 6.00 Build 0)  -->
<svg version="1.1" id="レイヤー_1" xmlns="http://www.w3.org/2000/svg" xmlns:xlink="http://www.w3.org/1999/xlink" x="0px"
	 y="0px" viewBox="0 0 172 168.8" style="enable-background:new 0 0 172 168.8;" xml:space="preserve">
<style type="text/css">
	.st0{fill:#FA3F33;stroke:#FFFFFF;stroke-width:3;stroke-linecap:round;}
	.st1{fill-rule:evenodd;clip-rule:evenodd;fill:#FA3F33;}
	.st2{fill:#FFFFFF;}
	.st3{fill:#FA3F33;}
</style>
<path class="st0" d="M13.7,6.2C12.7,4.6,10.6,4,8.9,5C7.3,6,6.7,8.2,7.7,9.8L19,28.7c1,1.7,3.1,2.2,4.8,1.2s2.2-3.1,1.2-4.8
	L13.7,6.2z"/>
<path class="st0" d="M147.2,24.8c-1,1.7-0.4,3.8,1.2,4.8c1.6,1,3.8,0.5,4.8-1.2l11.3-18.9c1-1.7,0.4-3.8-1.2-4.8
	c-1.6-1-3.8-0.5-4.8,1.2L147.2,24.8z"/>
<g>
	<path class="st1" d="M144.7,67l-20-20L85.2,86.4L47.3,48.6l-20,20l37.9,37.8l-38.2,38l20,20l38.2-38.1L125,166l20-20l-39.8-39.7
		L144.7,67z"/>
	<path class="st2" d="M124.7,47l1.4-1.4l-1.4-1.4l-1.4,1.4L124.7,47z M144.7,67l1.4,1.4l1.4-1.4l-1.4-1.4L144.7,67z M85.2,86.4
		l-1.4,1.4l1.4,1.4l1.4-1.4L85.2,86.4z M47.3,48.6l1.4-1.4l-1.4-1.4l-1.4,1.4L47.3,48.6z M27.3,68.6l-1.4-1.4l-1.4,1.4l1.4,1.4
		L27.3,68.6z M65.2,106.4l1.4,1.4l1.4-1.4l-1.4-1.4L65.2,106.4z M27,144.4l-1.4-1.4l-1.4,1.4l1.4,1.4L27,144.4z M47,164.4l-1.4,1.4
		l1.4,1.4l1.4-1.4L47,164.4z M85.2,126.3l1.4-1.4l-1.4-1.4l-1.4,1.4L85.2,126.3z M125,166l-1.4,1.4l1.4,1.4l1.4-1.4L125,166z
		 M145,146l1.4,1.4l1.4-1.4l-1.4-1.4L145,146z M105.2,106.4l-1.4-1.4l-1.4,1.4l1.4,1.4L105.2,106.4z M123.3,48.4l20,20l2.8-2.8
		l-20-20L123.3,48.4z M86.6,87.8l39.5-39.4l-2.8-2.8L83.8,85L86.6,87.8z M45.9,50l37.9,37.8l2.8-2.8L48.7,47.2L45.9,50z M28.7,70
		l20-20l-2.8-2.8l-20,20L28.7,70z M66.6,104.9L28.7,67.2L25.9,70l37.9,37.8L66.6,104.9z M28.4,145.8l38.2-38.1l-2.8-2.8L25.6,143
		L28.4,145.8z M48.5,163l-20-20l-2.8,2.8l20,20L48.5,163z M83.8,124.9L45.6,163l2.8,2.8l38.2-38.1L83.8,124.9z M126.4,164.6
		l-39.8-39.7l-2.8,2.8l39.8,39.7L126.4,164.6z M143.6,144.6l-20,20l2.8,2.8l20-20L143.6,144.6z M103.8,107.8l39.8,39.7l2.8-2.8
		L106.6,105L103.8,107.8z M143.3,65.6L103.8,105l2.8,2.8l39.5-39.4L143.3,65.6z"/>
</g>
<g>
	<g>
		<path class="st3" d="M57.2,30.9c-0.6,0-1-0.4-1-1V19.2c-0.8,0.7-1.5,1.4-2.3,2c-1.5,1.2-3,2.2-4.7,3.1c-0.1,0.1-0.3,0.1-0.5,0.1
			c-0.3,0-0.7-0.2-0.9-0.5c-0.2-0.4-0.6-0.9-1-1.4c-0.4-0.5-0.8-1-1.1-1.3c-0.2-0.2-0.3-0.6-0.3-0.9c0.1-0.3,0.3-0.6,0.6-0.7
			c1.2-0.6,2.3-1.2,3.4-2c1.1-0.8,2.1-1.6,3.1-2.5c0.9-0.9,1.8-1.8,2.6-2.8c0.4-0.5,0.7-0.9,1.1-1.4h-8.8c-0.6,0-1-0.4-1-1V6.7
			c0-0.6,0.4-1,1-1h23.2c0.6,0,1,0.4,1,1V10c0,0.6-0.4,1-1,1h-7.7c-0.2,0.3-0.3,0.5-0.5,0.8c-0.2,0.3-0.4,0.6-0.6,1v0.3l0.3-0.3
			c0.2-0.2,0.4-0.2,0.6-0.2c0.2,0,0.4,0.1,0.6,0.2c0.7,0.5,1.5,1.1,2.3,1.7c0.8,0.6,1.7,1.3,2.5,1.9c0.8,0.6,1.6,1.3,2.3,1.9
			c0.7,0.6,1.4,1.2,1.9,1.8c0.2,0.2,0.3,0.5,0.3,0.7c0,0.3-0.1,0.5-0.3,0.7L69.6,24c-0.2,0.2-0.4,0.3-0.7,0.3c0,0-0.1,0-0.1,0
			c-0.3,0-0.5-0.2-0.7-0.4c-0.4-0.5-0.9-1-1.5-1.6c-0.6-0.6-1.3-1.2-2-1.9c-0.7-0.6-1.5-1.3-2.3-1.9c-0.2-0.2-0.4-0.3-0.6-0.5v11.8
			c0,0.6-0.4,1-1,1H57.2z"/>
		<path class="st2" d="M70.6,6.7V10h-8.3c-0.2,0.4-0.5,0.8-0.8,1.2c-0.3,0.4-0.5,0.8-0.8,1.2v2.8l2-1.7c0.7,0.5,1.5,1.1,2.3,1.7
			c0.8,0.6,1.7,1.3,2.5,1.9s1.6,1.3,2.3,1.9c0.7,0.6,1.3,1.2,1.8,1.7l-2.7,2.4c-0.4-0.5-0.9-1.1-1.6-1.7s-1.3-1.2-2.1-1.9
			c-0.7-0.6-1.5-1.3-2.3-1.9c-0.8-0.6-1.5-1.2-2.3-1.8v13.9h-3.5v-13c-1.2,1.3-2.6,2.5-4,3.6c-1.4,1.1-2.9,2.1-4.5,3
			c-0.3-0.4-0.6-0.9-1-1.5c-0.4-0.6-0.8-1-1.2-1.4c1.2-0.6,2.4-1.3,3.5-2c1.1-0.8,2.2-1.6,3.2-2.5s1.9-1.9,2.7-2.9
			c0.8-1,1.5-2,2.2-3.1H47.4V6.7H70.6 M70.6,4.7H47.4c-1.1,0-2,0.9-2,2V10c0,1.1,0.9,2,2,2h6.8c-0.7,0.9-1.5,1.7-2.3,2.5
			c-0.9,0.8-1.9,1.6-2.9,2.4c-1,0.7-2.1,1.4-3.2,1.9c-0.6,0.3-1,0.8-1.1,1.5c-0.1,0.6,0.1,1.3,0.6,1.8c0.3,0.3,0.6,0.7,1,1.2
			c0.4,0.5,0.7,1,0.9,1.3c0.4,0.6,1,1,1.7,1c0.3,0,0.6-0.1,0.9-0.2c1.7-0.9,3.4-2,4.9-3.2c0.2-0.2,0.5-0.4,0.7-0.6v8.4
			c0,1.1,0.9,2,2,2h3.5c1.1,0,2-0.9,2-2v-9.7c0.4,0.4,0.8,0.7,1.2,1.1c0.7,0.6,1.4,1.2,2,1.8c0.6,0.5,1,1,1.4,1.5
			c0.3,0.4,0.9,0.7,1.4,0.7c0.1,0,0.1,0,0.2,0c0.5,0,1-0.2,1.3-0.5l2.7-2.4c0.4-0.4,0.6-0.9,0.7-1.4c0-0.5-0.2-1.1-0.5-1.4
			c-0.5-0.6-1.2-1.2-2-1.9c-0.7-0.6-1.5-1.3-2.4-2c-0.8-0.6-1.7-1.3-2.5-1.9c-0.8-0.6-1.6-1.2-2.3-1.7h6.7c1.1,0,2-0.9,2-2V6.7
			C72.6,5.6,71.7,4.7,70.6,4.7L70.6,4.7z"/>
	</g>
	<g>
		<path class="st3" d="M73.6,30c-0.6,0-1-0.4-1-1v-3.1c0-0.6,0.4-1,1-1h2.3V13.9c0-0.6,0.4-1,1-1h3.3c0.6,0,1,0.4,1,1v10.9h2.6v-14
			h-9.3c-0.6,0-1-0.4-1-1V6.7c0-0.6,0.4-1,1-1h22.7c0.6,0,1,0.4,1,1v3.1c0,0.6-0.4,1-1,1h-8v3.9h6.6c0.6,0,1,0.4,1,1v3.1
			c0,0.6-0.4,1-1,1h-6.6v5h8.7c0.6,0,1,0.4,1,1V29c0,0.6-0.4,1-1,1H73.6z"/>
		<path class="st2" d="M97.2,6.7v3.1h-9v5.9h7.6v3.1h-7.6v7h9.7V29H73.6v-3.1h3.3V13.9h3.3v11.9h4.6v-16H74.5V6.7H97.2 M97.2,4.7
			H74.5c-1.1,0-2,0.9-2,2v3.1c0,1.1,0.9,2,2,2h8.3v12h-0.6v-9.9c0-1.1-0.9-2-2-2h-3.3c-1.1,0-2,0.9-2,2v9.9h-1.3c-1.1,0-2,0.9-2,2
			V29c0,1.1,0.9,2,2,2h24.3c1.1,0,2-0.9,2-2v-3.1c0-1.1-0.9-2-2-2h-7.7v-3h5.6c1.1,0,2-0.9,2-2v-3.1c0-1.1-0.9-2-2-2h-5.6v-1.9h7
			c1.1,0,2-0.9,2-2V6.7C99.2,5.6,98.3,4.7,97.2,4.7L97.2,4.7z"/>
	</g>
	<g>
		<path class="st3" d="M102.1,31c-0.3,0-0.5-0.1-0.7-0.3c-0.1-0.1-0.2-0.2-0.3-0.3l-0.6-0.4c-0.2-0.1-0.4-0.2-0.5-0.3
			c-0.2-0.1-0.4-0.2-0.5-0.3c-0.3-0.1-0.4-0.4-0.5-0.6c-0.1-0.3,0-0.6,0.1-0.8c0.4-0.6,0.7-1.3,1-2c0.2-0.8,0.4-1.5,0.5-2.3
			c0.1-0.8,0.2-1.7,0.2-2.5c0-0.8,0.1-1.6,0.1-2.4v-3.5c-0.2-0.2-0.4-0.4-0.7-0.6c-0.4-0.3-0.7-0.6-1-0.7c-0.2-0.2-0.4-0.4-0.4-0.7
			c0-0.3,0.1-0.6,0.3-0.8c0.8-0.9,1.6-2.1,2.2-3.4c0.6-1.4,1.2-2.9,1.5-4.4c0.1-0.5,0.5-0.8,1-0.8c0.1,0,0.1,0,0.2,0l2.8,0.6
			c0.3,0.1,0.5,0.2,0.7,0.5c0.1,0.2,0.2,0.5,0.1,0.8l-0.2,0.6h0.9l0.2-0.1c0.1,0,0.2-0.1,0.3-0.1c0.2,0,0.4,0.1,0.5,0.2l1.8,1.1
			c0.2,0.1,0.3,0.3,0.4,0.5V6.3c0-0.6,0.4-1,1-1h11.9c0.6,0,1,0.4,1,1c0,0.4,0,1,0,1.8c0,0.8-0.1,1.6-0.1,2.4
			c-0.1,0.8-0.2,1.6-0.3,2.4c-0.2,0.9-0.4,1.5-0.8,1.9c-0.3,0.4-0.7,0.7-1,0.9c-0.3,0.2-0.7,0.3-1.2,0.4c-0.1,0-0.3,0-0.4,0.1v0.5h3
			c0.6,0,1,0.4,1,1v2.7c0,0.6-0.4,1-1,1h-3v0.4h3.5c0.6,0,1,0.4,1,1v2.7c0,0.6-0.4,1-1,1h-3.5v3.4c0,0.6-0.4,1-1,1h-3
			c-0.6,0-1-0.4-1-1v-3.4h-3.4v0.4c0,0.8-0.1,1.4-0.3,1.9c-0.2,0.6-0.7,1.2-1.3,1.5c-0.5,0.3-1.1,0.5-1.8,0.5
			c-0.6,0.1-1.3,0.1-2.2,0.1c-0.5,0-0.9-0.4-1-0.9c0-0.3-0.1-0.7-0.3-1.1c-0.2-0.5-0.3-0.8-0.5-1.1c-0.2-0.3-0.2-0.7,0-1
			c0.2-0.3,0.5-0.5,0.8-0.5c0,0,0,0,0.1,0c0.5,0,1,0.1,1.4,0.1h0.4V24h-3.4c-0.2,1-0.4,2-0.6,3c-0.3,1.3-0.9,2.5-1.5,3.6
			c-0.2,0.3-0.4,0.4-0.7,0.5C102.2,31,102.1,31,102.1,31z M116.5,21.7v-0.4h-0.6c-0.1,0.1-0.1,0.3-0.2,0.4H116.5z M117.7,13.6
			c-0.1,0.2-0.3,0.4-0.5,0.6c0.1,0,0.2,0,0.2,0h0.4c0-0.1,0-0.1,0-0.2C117.8,13.9,117.8,13.7,117.7,13.6z M118.7,11.6
			c0.3,0,0.6,0,0.8,0.1c0.3,0,0.5,0,0.7,0c0-0.1,0-0.2,0.1-0.4c0-0.3,0.1-0.7,0.1-1.3h-1.2C119.1,10.5,118.9,11,118.7,11.6z
			 M112.1,10.8c0.5,0,0.9,0.4,1,0.8c0.2-0.2,0.4-0.4,0.6-0.6c0.2-0.3,0.4-0.7,0.5-1.1h-1.7c-0.6,0-1-0.4-1-1V8.8
			c-0.2,0.5-0.4,1.1-0.7,1.7c0,0.1-0.1,0.2-0.1,0.3H112.1z"/>
		<path class="st2" d="M103.7,5l2.8,0.6c-0.1,0.3-0.2,0.6-0.3,1c-0.1,0.3-0.2,0.6-0.3,1h2.4l0.4-0.1l1.8,1.1
			c-0.2,0.5-0.4,1.1-0.7,1.7c-0.3,0.6-0.5,1.1-0.8,1.7h3v1.6c1.1-0.5,1.9-1.1,2.4-1.9c0.5-0.8,0.8-1.6,1-2.6h-3V6.3h11.9
			c0,0.4,0,1,0,1.8c0,0.8-0.1,1.6-0.1,2.4s-0.2,1.6-0.3,2.3c-0.1,0.7-0.3,1.2-0.5,1.4c-0.2,0.3-0.5,0.5-0.7,0.6
			c-0.3,0.1-0.6,0.2-0.9,0.3c-0.2,0-0.5,0.1-0.8,0.1c-0.3,0-0.7,0-1.1,0h-0.8c0-0.4-0.1-0.9-0.2-1.4c-0.1-0.5-0.3-0.9-0.5-1.2
			c0.4,0,0.8,0.1,1.1,0.1c0.3,0,0.6,0,0.8,0c0.2,0,0.3,0,0.4-0.1c0.1,0,0.2-0.1,0.3-0.3c0.1-0.1,0.2-0.5,0.3-1s0.1-1.3,0.2-2.4h-3.1
			c-0.2,1.4-0.6,2.6-1.2,3.7c-0.6,1.1-1.6,2-3,2.8l2.4,0.5c0,0.3-0.1,0.6-0.1,0.9c-0.1,0.3-0.1,0.6-0.2,0.9h1.3v-2.4h3v2.4h4v2.7h-4
			v2.4h4.5v2.7h-4.5v4.4h-3v-4.4h-5v-2.7h5v-2.4h-2.2c-0.1,0.4-0.3,0.8-0.5,1.1c-0.2,0.3-0.4,0.7-0.6,1c-0.2-0.2-0.5-0.4-1-0.6
			c-0.4-0.2-0.8-0.4-1.1-0.5v5.6c0,0.6-0.1,1.2-0.2,1.6c-0.1,0.4-0.4,0.7-0.8,1c-0.4,0.2-0.9,0.4-1.5,0.4c-0.6,0.1-1.3,0.1-2.1,0.1
			c0-0.4-0.1-0.8-0.3-1.4c-0.2-0.5-0.4-1-0.6-1.3c0.5,0,1,0.1,1.5,0.1c0.5,0,0.8,0,0.9,0c0.3,0,0.4-0.2,0.4-0.5V23h-5.3
			c-0.2,1.3-0.4,2.5-0.7,3.7c-0.3,1.2-0.8,2.3-1.4,3.3c-0.1-0.1-0.3-0.2-0.4-0.4c-0.2-0.1-0.4-0.3-0.6-0.4c-0.2-0.1-0.4-0.3-0.6-0.4
			c-0.2-0.1-0.4-0.2-0.5-0.3c0.4-0.7,0.8-1.4,1.1-2.3c0.3-0.8,0.5-1.6,0.6-2.5c0.1-0.9,0.2-1.7,0.2-2.6c0-0.9,0.1-1.7,0.1-2.4v-3.9
			c-0.3-0.3-0.6-0.6-1.1-0.9c-0.4-0.3-0.8-0.6-1-0.8c0.9-1,1.7-2.2,2.4-3.7C102.8,8.1,103.3,6.5,103.7,5 M107.2,9.9H105
			c-0.3,0.7-0.6,1.3-0.9,1.9h2.3c0.1-0.3,0.3-0.6,0.4-0.9C106.9,10.5,107.1,10.2,107.2,9.9 M112.1,20.8c0.4-0.7,0.8-1.5,1.1-2.4
			c0.3-0.9,0.6-1.9,0.7-2.8c-0.1,0-0.2,0.1-0.3,0.1c-0.1,0-0.2,0.1-0.3,0.1c-0.1-0.3-0.3-0.6-0.5-0.9c-0.2-0.3-0.5-0.6-0.7-0.9V20.8
			 M108,16.2h1.5v-2H108V16.2 M104.4,16.2h1.5v-2h-1.5V16.2 M108,20.6h1.5v-2.2H108V20.6 M104.3,20.6h1.6v-2.2h-1.5v0.4
			c0,0.3,0,0.6,0,0.9C104.4,20,104.4,20.3,104.3,20.6 M124.4,6.3L124.4,6.3 M103.7,3c-0.9,0-1.7,0.6-1.9,1.5
			c-0.3,1.4-0.8,2.9-1.4,4.2c-0.6,1.3-1.3,2.3-2.1,3.2c-0.4,0.4-0.6,1-0.5,1.6c0.1,0.6,0.4,1.1,0.9,1.4c0.2,0.1,0.5,0.4,0.9,0.7
			c0.1,0.1,0.2,0.2,0.3,0.3v3c0,0.7,0,1.5-0.1,2.3c0,0.8-0.1,1.6-0.2,2.4c-0.1,0.7-0.3,1.5-0.5,2.2c-0.2,0.6-0.5,1.2-0.8,1.8
			c-0.3,0.5-0.4,1.1-0.3,1.6c0.2,0.5,0.5,1,1,1.3c0.1,0.1,0.3,0.1,0.5,0.2c0.1,0.1,0.3,0.2,0.4,0.3c0.2,0.1,0.4,0.3,0.6,0.4
			c0.1,0.1,0.2,0.1,0.2,0.1c0.4,0.4,0.9,0.6,1.4,0.6c0.1,0,0.1,0,0.2,0c0.6-0.1,1.1-0.4,1.5-0.9c0.5-0.8,0.9-1.7,1.3-2.6
			c0.1,0.2,0.2,0.4,0.3,0.7c0.2,0.5,0.2,0.8,0.2,0.9c0.1,1,1,1.8,2,1.8c0.9,0,1.7,0,2.3-0.1c0.8-0.1,1.5-0.3,2.2-0.7
			c0.9-0.5,1.5-1.2,1.8-2.1c0.2-0.5,0.3-1,0.3-1.6h1.4v2.4c0,1.1,0.9,2,2,2h3c1.1,0,2-0.9,2-2v-2.4h2.5c1.1,0,2-0.9,2-2v-2.7
			c0-0.6-0.3-1.2-0.7-1.5c0.1-0.3,0.2-0.6,0.2-0.9v-2.7c0-1-0.8-1.9-1.8-2c0.1-0.1,0.1-0.1,0.2-0.2c0.5-0.5,0.8-1.3,1-2.3
			c0.1-0.8,0.3-1.6,0.3-2.5c0.1-0.8,0.1-1.7,0.1-2.5c0-0.7,0-1.3,0-1.7c0,0,0-0.1,0-0.1c0-1.1-0.9-2-2-2h0h-11.9c-1,0-1.8,0.8-2,1.7
			l-0.7-0.4c-0.3-0.2-0.7-0.3-1.1-0.3c-0.1,0-0.2,0-0.3,0c0-0.3-0.1-0.6-0.3-0.8c-0.3-0.5-0.8-0.8-1.3-0.9L104.1,3
			C104,3,103.8,3,103.7,3L103.7,3z M105.9,25h1.6v0.3c-0.2,0-0.5,0-0.7,0c0,0-0.1,0-0.1,0c-0.3,0-0.5,0.1-0.8,0.2
			C105.9,25.3,105.9,25.1,105.9,25L105.9,25z"/>
	</g>
</g>
</svg>
