<svg width="71" height="51" viewBox="0 0 71 51" fill="none" xmlns="http://www.w3.org/2000/svg">
<path d="M40 33.5986C40 44.2538 33.8375 51 22.4762 51C11.1149 51 0 46.675 0 36.0198C0 25.3647 13.0197 5 24.381 5C35.7422 5 40 22.9435 40 33.5986Z" fill="#C0E6ED"/>
<path d="M40 30.5986C40 41.2538 33.8375 48 22.4762 48C11.1149 48 0 43.675 0 33.0198C0 22.3647 13.0197 2 24.381 2C35.7422 2 40 19.9435 40 30.5986Z" fill="#6EC8DA"/>
<circle cx="19.6703" cy="12.0122" r="3.75183" fill="white"/>
<circle cx="17.586" cy="11.5953" r="1.66748" fill="#183153"/>
<circle cx="26.3403" cy="12.0122" r="3.75183" fill="white"/>
<circle cx="24.2559" cy="11.5953" r="1.66748" fill="#183153"/>
<path d="M44.5601 2.12665L46.9601 2.80383L38.0213 34.4832L37.2679 34.5297L36.6859 34.6246L36.0679 34.1912L35.6214 33.806L44.5601 2.12665Z" fill="#FFE37D"/>
<path d="M40.9581 21.3203L41.4381 21.4557L37.8306 34.241L37.3014 34.28L39.3697 27.8678L40.9581 21.3203Z" fill="#EEC975"/>
<path d="M43.8829 4.52655L51.3596 7.4135L59.9995 9.85134L69.3225 11.7046L64.7176 28.0243L55.3269 26.411L46.0348 23.53L39.2781 20.8462L43.8829 4.52655Z" fill="#FCC800"/>
<path d="M43.2256 17.3703L45.0465 11.6286L45.957 8.75773L46.5966 6.84686L46.2246 6.74189L44.6766 6.30512L43.6798 5.24655L46.8675 5.88688L48.3144 6.50193L43.2256 17.3703Z" fill="#F7A245"/>
<circle cx="45.7292" cy="3.4929" r="2.49366" transform="rotate(15.7571 45.7292 3.4929)" fill="#FFE37D"/>
<circle cx="46.1553" cy="1.79942" r="0.748099" transform="rotate(15.7571 46.1553 1.79942)" fill="#FBEFBA"/>
<path d="M57.9842 22.9626L62.6942 16.8301L65.087 11.1048L69.0148 11.8769L64.5454 27.7166L55.3947 26.171L57.9842 22.9626Z" fill="#F7A245" fill-opacity="0.8"/>
</svg>
