<?xml version="1.0" encoding="utf-8"?>
<!-- Generator: Adobe Illustrator 28.2.0, SVG Export Plug-In . SVG Version: 6.00 Build 0)  -->
<svg version="1.1" id="Layer_1" xmlns="http://www.w3.org/2000/svg" xmlns:xlink="http://www.w3.org/1999/xlink" x="0px" y="0px"
	 viewBox="0 0 367.2 74" style="enable-background:new 0 0 367.2 74;" xml:space="preserve">
<style type="text/css">
	.st0{fill:#FFFFFF;}
</style>
<path class="st0" d="M367.2,0H6.5H0v1v60.8c3.5,1.2,8.9,3,15.7,4.6c11,2.6,31.8,7.3,57.2,2.3c6.4-1.3,12.9-3.1,19.3-5.5
	c11.4-4.3,20.4-12.3,30.2-19.2c5.8-4.1,11.9-7.2,18.8-8.9c14.3-3.6,28.5-1.8,42.5,1.5c26.1,6.2,50.9,3.2,74.2-10.1
	c7.4-4.2,14.7-8.5,21.8-13.1c11.9-7.7,24.6-9.7,38.2-6.5c17.3,4,34,3,49.3-5.7c-61.1,0-122,0-182.9,0h182.9V0z"/>
</svg>
