<svg width="25" height="25" viewBox="0 0 25 25" fill="none" xmlns="http://www.w3.org/2000/svg">
<path fill-rule="evenodd" clip-rule="evenodd" d="M4.62553 12.857C4.62553 12.857 4.00809 12.2565 3.86711 11.7153C3.72639 11.1741 3.31978 9.60622 3.44355 8.92945C3.56719 8.25281 3.58733 7.42402 3.86877 6.92084C4.15035 6.41754 4.54398 5.88268 5.1988 5.28602C5.85363 4.68935 7.36671 3.87465 7.74153 3.74445C8.11635 3.61426 9.51448 3.29208 9.9102 3.1077C10.3059 2.92332 10.3864 2.77945 11.105 2.79432C11.8235 2.80933 12.3998 2.70715 12.8997 3.06211C13.3995 3.41734 13.7533 3.34172 14.3693 3.97866L4.62553 12.857Z" fill="#EBEBEB"/>
<path fill-rule="evenodd" clip-rule="evenodd" d="M4.62183 12.8601L14.3338 4.0107C14.417 3.93485 14.5459 3.94084 14.622 4.02436L24.5235 14.8911C24.5996 14.9747 24.5937 15.1035 24.5104 15.1793L14.7985 24.0287C14.7152 24.1045 14.5864 24.0985 14.5103 24.015L4.60871 13.1482C4.53261 13.0647 4.53859 12.9359 4.62183 12.8601Z" fill="#0D99FF"/>
<path d="M11.4034 6.68094L7.55225 10.1901L17.7289 21.3587L21.5801 17.8496L11.4034 6.68094Z" fill="#F6F6F6"/>
</svg>
