<svg width="196" height="46" viewBox="0 0 196 46" fill="none" xmlns="http://www.w3.org/2000/svg">
<path d="M195.707 44.68H183.654V26.6655C183.654 24.8309 182.892 23.9137 181.366 23.9137C179.862 23.9137 179.11 24.8309 179.11 26.6655V44.68H167.058V26.8894C167.058 22.7298 168.443 19.2314 171.215 16.3943C173.986 13.5358 177.381 12.1066 181.398 12.1066C185.996 12.1066 189.681 13.7598 192.452 17.0662C194.622 19.6474 195.707 23.2417 195.707 27.8494V44.68Z" fill="#0565B5"/>
<path fill-rule="evenodd" clip-rule="evenodd" d="M183.654 26.6391C183.654 25.3361 183.27 24.4959 182.5 24.1183V12.113C186.588 12.3596 189.906 14.0019 192.452 17.0399C194.622 19.621 195.707 23.2154 195.707 27.823V44.6537H183.654V26.6391Z" fill="#F64277"/>
<path d="M159.03 30.6651H140.758C140.479 29.7479 140.339 28.9053 140.339 28.1373C140.339 27.0708 140.532 26.0255 140.919 25.0016H147.042C146.612 22.6338 145.27 21.4499 143.014 21.4499C141.51 21.4499 140.285 22.0898 139.34 23.3697C138.395 24.6283 137.922 26.2495 137.922 28.2333C137.922 30.3025 138.373 31.977 139.275 33.2569C140.199 34.5368 141.402 35.1768 142.885 35.1768C144.088 35.1768 145.248 34.5795 146.365 33.3849L153.229 41.5762C150.028 44.072 146.473 45.3199 142.562 45.3199C137.793 45.3199 133.786 43.7307 130.542 40.5523C127.298 37.3739 125.676 33.4382 125.676 28.7453C125.676 24.0737 127.309 20.1273 130.574 16.9062C133.861 13.6852 137.89 12.0746 142.659 12.0746C147.321 12.0746 151.231 13.6532 154.39 16.8102C157.569 19.946 159.159 23.8177 159.159 28.4253C159.159 28.8946 159.116 29.6412 159.03 30.6651Z" fill="#6EC8DA"/>
<path fill-rule="evenodd" clip-rule="evenodd" d="M141.124 21.8521L137.51 12.7819C139.118 12.3104 140.834 12.0746 142.659 12.0746C147.321 12.0746 151.231 13.6532 154.39 16.8102C157.569 19.946 159.159 23.8177 159.159 28.4253C159.159 28.8946 159.116 29.6412 159.03 30.6651H140.758C140.478 29.7479 140.339 28.9053 140.339 28.1373C140.339 27.0708 140.532 26.0255 140.919 25.0016H147.042C146.612 22.6338 145.269 21.4499 143.014 21.4499C142.325 21.4499 141.695 21.584 141.124 21.8521Z" fill="#00A0D9"/>
<path fill-rule="evenodd" clip-rule="evenodd" d="M97.5527 27.1347V0.992859H85.5V27.5827C85.5 32.4676 86.7891 36.446 89.3672 39.5177C90.8496 41.2883 92.7295 42.6962 95.0068 43.7414C97.3057 44.7867 99.6582 45.3093 102.064 45.3093C106.855 45.3093 110.895 43.7094 114.182 40.5097C117.469 37.3099 119.112 33.3742 119.112 28.7026C119.112 24.1377 117.49 20.234 114.246 16.9916C111.023 13.7492 107.146 12.128 102.612 12.128C101.991 12.128 101.12 12.1743 100 12.267V25.1209C100.892 24.6076 101.699 24.351 102.419 24.351C103.665 24.351 104.718 24.7989 105.577 25.6949C106.437 26.5695 106.866 27.6574 106.866 28.9586C106.866 30.2172 106.404 31.2944 105.48 32.1903C104.578 33.0649 103.472 33.5022 102.161 33.5022C99.0889 33.5022 97.5527 31.3797 97.5527 27.1347Z" fill="#02BFB7"/>
<path fill-rule="evenodd" clip-rule="evenodd" d="M99.6001 12.288V25.3616C100.661 24.6779 101.607 24.3361 102.438 24.3361C103.684 24.3361 104.736 24.7841 105.596 25.68C106.455 26.5546 106.885 27.6425 106.885 28.9438C106.885 30.2023 106.423 31.2796 105.499 32.1755C104.597 33.0501 103.49 33.4874 102.18 33.4874C101.146 33.4874 100.286 33.247 99.6001 32.7663V45.106C100.421 45.2316 101.249 45.2944 102.083 45.2944C106.874 45.2944 110.913 43.6946 114.2 40.4948C117.487 37.2951 119.131 33.3594 119.131 28.6878C119.131 24.1228 117.509 20.2191 114.265 16.9767C111.042 13.7343 107.164 12.1131 102.631 12.1131C101.934 12.1131 100.924 12.1714 99.6001 12.288Z" fill="#FCC800"/>
<path fill-rule="evenodd" clip-rule="evenodd" d="M62.5 12.1281C62.204 12.1138 61.9052 12.1066 61.6035 12.1066C56.748 12.1066 52.666 13.7065 49.3574 16.9062C46.0488 20.0847 44.3945 24.0097 44.3945 28.6813C44.3945 33.2676 46.0488 37.1926 49.3574 40.4563C52.666 43.6987 56.6514 45.3199 61.3135 45.3199C61.7141 45.3199 62.1096 45.308 62.5 45.284V33.358C62.115 33.4613 61.7088 33.5129 61.2812 33.5129C60.0137 33.5129 58.918 33.0436 57.9941 32.105C57.0918 31.1664 56.6406 30.0358 56.6406 28.7133C56.6406 27.3694 57.0918 26.2388 57.9941 25.3216C58.8965 24.383 59.9922 23.9137 61.2812 23.9137C61.7093 23.9137 62.1155 23.9637 62.5 24.0638V12.1281Z" fill="#0565B5"/>
<path fill-rule="evenodd" clip-rule="evenodd" d="M64.5684 32.09C63.9653 32.7173 63.2758 33.135 62.5 33.343V45.269C66.6535 45.0143 70.2326 43.4051 73.2373 40.4413C76.5459 37.1989 78.2002 33.2739 78.2002 28.6662C78.2002 24.1226 76.5674 20.2296 73.3018 16.9872C70.2725 13.9396 66.6719 12.3149 62.5 12.1131V24.0488C63.2927 24.2552 63.9929 24.6745 64.6006 25.3065C65.5029 26.2238 65.9541 27.3544 65.9541 28.6982C65.9541 30.0208 65.4922 31.1514 64.5684 32.09Z" fill="#1EB3EA"/>
<path d="M38.7832 12.4586V25.2576C37.9453 24.7883 37.1826 24.5536 36.4951 24.5536C34.3037 24.5536 33.208 26.2175 33.208 29.5452V44.68H21.1553V27.2414C21.1553 22.6338 22.4229 18.9647 24.958 16.2343C27.4932 13.4825 30.877 12.1066 35.1094 12.1066C36.0547 12.1066 37.2793 12.224 38.7832 12.4586Z" fill="#FCC800"/>
<path d="M33.1997 32.7653V44.68H21.1997V32.7653H33.1997Z" fill="#02BFB7"/>
<path d="M21.1997 27.8009V32.7653H33.1005L21.1997 27.8009Z" fill="#02BFB7"/>
<ellipse cx="5.7998" cy="4.96445" rx="5" ry="4.96445" fill="#FCC800"/>
<path d="M12.0527 12.7786V44.68H0V12.7786H12.0527Z" fill="#6EC8DA"/>
<path d="M12.0654 32.7653V44.8091H0.0126953V32.7653H12.0654Z" fill="#F64277"/>
<path d="M12.0562 27.3044V32.7653H0L12.0562 27.3044Z" fill="#F64277"/>
<ellipse cx="179.206" cy="18.5728" rx="3.70588" ry="3.67953" fill="white"/>
<ellipse cx="177.147" cy="18.164" rx="1.64706" ry="1.63535" fill="#183153"/>
<ellipse cx="185.794" cy="18.5728" rx="3.70588" ry="3.67953" fill="white"/>
<ellipse cx="183.735" cy="18.164" rx="1.64706" ry="1.63535" fill="#183153"/>
</svg>
