<?xml version="1.0" encoding="utf-8"?>
<!-- Generator: Adobe Illustrator 28.2.0, SVG Export Plug-In . SVG Version: 6.00 Build 0)  -->
<svg version="1.1" id="レイヤー_1" xmlns="http://www.w3.org/2000/svg" xmlns:xlink="http://www.w3.org/1999/xlink" x="0px"
	 y="0px" viewBox="0 0 44 48" style="enable-background:new 0 0 44 48;" xml:space="preserve">
<style type="text/css">
	.st0{fill:#1CC1BF;fill-opacity:0.3;}
	.st1{fill:#1CC1BF;}
	.st2{fill:#FFFFFF;}
	.st3{fill:#183153;}
</style>
<path class="st0" d="M34.6,25c2.7,10.2-1.5,18.2-12.4,21.1c-10.8,2.8-8.1-11.9-10.7-22.1c-2.7-10.2-9.8-19.6,1-22.4
	C23.4-1.3,31.9,14.8,34.6,25z"/>
<path class="st1" d="M36.5,25c2.7,10.2-1.5,18.2-12.4,21.1c-10.8,2.8-8.1-11.9-10.7-22.1c-2.7-10.2-9.8-19.6,1-22.4
	C25.3-1.3,33.8,14.8,36.5,25z"/>
<circle class="st2" cx="31.9" cy="34.1" r="3.8"/>
<circle class="st3" cx="34" cy="34.4" r="1.7"/>
<circle class="st2" cx="25.3" cy="34.4" r="3.8"/>
<circle class="st3" cx="27.4" cy="34.7" r="1.7"/>
</svg>
