<?xml version="1.0" encoding="utf-8"?>
<!-- Generator: Adobe Illustrator 28.2.0, SVG Export Plug-In . SVG Version: 6.00 Build 0)  -->
<svg version="1.1" id="レイヤー_1" xmlns="http://www.w3.org/2000/svg" xmlns:xlink="http://www.w3.org/1999/xlink" x="0px"
	 y="0px" viewBox="0 0 71 53" style="enable-background:new 0 0 71 53;" xml:space="preserve">
<style type="text/css">
	.st0{fill:#C0E6ED;}
	.st1{fill:#6EC8DA;}
	.st2{fill:#FFFFFF;}
	.st3{fill:#183153;}
	.st4{fill:#FFE37D;}
	.st5{fill:#EEC975;}
	.st6{fill:#FCC800;}
	.st7{fill:#F7A245;}
	.st8{fill:#FBEFBA;}
	.st9{fill:#F7A245;fill-opacity:0.8;}
</style>
<path class="st0" d="M41.4,34.4c0,10.7-6.2,17.4-17.5,17.4s-22.5-4.3-22.5-15c0-10.7,13-31,24.4-31C37.1,5.8,41.4,23.7,41.4,34.4z"
	/>
<path class="st1" d="M41.4,31.4c0,10.7-6.2,17.4-17.5,17.4s-22.5-4.3-22.5-15c0-10.7,13-31,24.4-31C37.1,2.8,41.4,20.7,41.4,31.4z"
	/>
<circle class="st2" cx="21.1" cy="12.8" r="3.8"/>
<circle class="st3" cx="19" cy="12.4" r="1.7"/>
<circle class="st2" cx="27.7" cy="12.8" r="3.8"/>
<circle class="st3" cx="25.6" cy="12.4" r="1.7"/>
<path class="st4" d="M46,2.9l2.4,0.7l-8.9,31.7l-0.8,0l-0.6,0.1l-0.6-0.4L37,34.6L46,2.9z"/>
<path class="st5" d="M42.3,22.1l0.5,0.1L39.2,35l-0.5,0l2.1-6.4L42.3,22.1z"/>
<path class="st6" d="M45.3,5.3l7.5,2.9l8.6,2.4l9.3,1.9l-4.6,16.3l-9.4-1.6l-9.3-2.9l-6.8-2.7L45.3,5.3z"/>
<path class="st7" d="M44.6,18.1l1.8-5.7l0.9-2.9L48,7.6l-0.4-0.1l-1.5-0.4l-1-1.1l3.2,0.6l1.4,0.6L44.6,18.1z"/>
<circle class="st4" cx="47.1" cy="4.2" r="2.5"/>
<circle class="st8" cx="47.5" cy="2.6" r="0.7"/>
<path class="st9" d="M59.4,23.7l4.7-6.1l2.4-5.7l3.9,0.8l-4.5,15.8l-9.2-1.5L59.4,23.7z"/>
</svg>
