<svg width="42" height="31" viewBox="0 0 42 31" fill="none" xmlns="http://www.w3.org/2000/svg">
<path d="M31.3575 24.32C31.5135 24.632 31.6575 24.98 31.7895 25.364C31.9335 25.748 32.0535 26.114 32.1495 26.462C32.3775 25.886 32.5575 25.31 32.6895 24.734C32.8215 24.146 32.9235 23.57 32.9955 23.006C33.0675 22.43 33.1155 21.878 33.1395 21.35C33.1635 20.822 33.1755 20.324 33.1755 19.856V17.3H31.7355V15.428H37.4595L37.7655 15.338L39.1335 15.5C39.0375 16.148 38.9295 16.832 38.8095 17.552C38.6895 18.26 38.5575 18.974 38.4135 19.694H39.8355L40.1775 19.622L41.4015 20.09C41.1375 21.506 40.7775 22.784 40.3215 23.924C39.8775 25.064 39.3375 26.084 38.7015 26.984C39.1215 27.392 39.5775 27.752 40.0695 28.064C40.5735 28.376 41.1315 28.64 41.7435 28.856C41.5395 29.036 41.3115 29.288 41.0595 29.612C40.8195 29.948 40.6335 30.248 40.5015 30.512C39.9015 30.248 39.3495 29.942 38.8455 29.594C38.3535 29.258 37.8975 28.88 37.4775 28.46C36.6975 29.276 35.8275 29.942 34.8675 30.458C34.7955 30.35 34.6995 30.224 34.5795 30.08C34.4715 29.936 34.3515 29.792 34.2195 29.648C34.0995 29.504 33.9735 29.366 33.8415 29.234C33.7095 29.114 33.5895 29.018 33.4815 28.946C34.5255 28.43 35.4495 27.764 36.2535 26.948C35.9415 26.468 35.6535 25.958 35.3895 25.418C35.1375 24.878 34.9095 24.314 34.7055 23.726C34.6215 24.314 34.5075 24.908 34.3635 25.508C34.2315 26.096 34.0515 26.678 33.8235 27.254C33.5955 27.818 33.3255 28.37 33.0135 28.91C32.7015 29.45 32.3295 29.954 31.8975 30.422C31.7295 30.254 31.4955 30.062 31.1955 29.846C30.9075 29.63 30.6435 29.462 30.4035 29.342C30.6795 29.054 30.9195 28.754 31.1235 28.442C31.3395 28.118 31.5375 27.788 31.7175 27.452L30.8535 27.758C30.7695 27.35 30.6375 26.87 30.4575 26.318C30.2895 25.766 30.1095 25.256 29.9175 24.788L31.3575 24.32ZM25.3815 21.98L26.6415 21.926C26.7735 21.758 26.8995 21.584 27.0195 21.404C27.1515 21.224 27.2895 21.032 27.4335 20.828C27.1815 20.456 26.8635 20.06 26.4795 19.64C26.1075 19.22 25.7475 18.836 25.3995 18.488L26.3715 17.084C26.4315 17.144 26.4975 17.204 26.5695 17.264C26.6415 17.324 26.7075 17.384 26.7675 17.444C27.0075 16.964 27.2415 16.46 27.4695 15.932C27.6975 15.392 27.8835 14.894 28.0275 14.438L29.7915 15.104C29.4795 15.692 29.1555 16.298 28.8195 16.922C28.4955 17.534 28.1775 18.08 27.8655 18.56C27.9735 18.68 28.0755 18.8 28.1715 18.92C28.2675 19.028 28.3635 19.136 28.4595 19.244C28.7475 18.752 29.0235 18.272 29.2875 17.804C29.5515 17.324 29.7855 16.874 29.9895 16.454L31.6635 17.228C31.1835 17.984 30.6615 18.77 30.0975 19.586C29.5335 20.402 28.9815 21.158 28.4415 21.854L30.2955 21.764C30.2115 21.56 30.1155 21.356 30.0075 21.152C29.9115 20.948 29.8155 20.75 29.7195 20.558L31.0515 19.982C31.2195 20.27 31.3875 20.576 31.5555 20.9C31.7235 21.224 31.8735 21.548 32.0055 21.872C32.1375 22.196 32.2515 22.508 32.3475 22.808C32.4555 23.108 32.5335 23.384 32.5815 23.636L31.1235 24.284C31.0635 23.996 30.9915 23.696 30.9075 23.384L29.8095 23.474V30.512H28.0455V23.6C27.5895 23.624 27.1515 23.648 26.7315 23.672C26.3115 23.696 25.9155 23.72 25.5435 23.744L25.3815 21.98ZM34.9395 17.3V17.966C35.1555 19.442 35.4555 20.81 35.8395 22.07C36.2355 23.33 36.7695 24.458 37.4415 25.454C37.8135 24.902 38.1435 24.296 38.4315 23.636C38.7195 22.976 38.9655 22.268 39.1695 21.512H38.0355L37.9095 22.178L36.0735 21.98C36.2415 21.26 36.4035 20.48 36.5595 19.64C36.7155 18.8 36.8535 18.02 36.9735 17.3H34.9395ZM25.2015 28.478C25.4535 27.974 25.6515 27.368 25.7955 26.66C25.9395 25.94 26.0475 25.22 26.1195 24.5L27.8115 24.788C27.7155 25.604 27.5775 26.408 27.3975 27.2C27.2295 27.992 27.0195 28.664 26.7675 29.216C26.5875 29.108 26.3355 28.982 26.0115 28.838C25.6995 28.682 25.4295 28.562 25.2015 28.478Z" fill="black"/>
<path fill-rule="evenodd" clip-rule="evenodd" d="M4.45765 29.8066L4.46305 29.8092C6.12795 30.6177 8.115 31 10.3893 31C11.7826 31 13.1091 30.812 14.3641 30.4301L14.376 30.4263C15.6537 30.0184 16.7815 29.4399 17.7452 28.6805L17.7481 28.6782C18.7419 27.8886 19.5331 26.9251 20.1146 25.7937C20.7124 24.6306 21 23.3266 21 21.9046C21 20.8933 20.8354 19.9428 20.4935 19.0645C20.1847 18.2087 19.7466 17.4422 19.1771 16.7732C18.6135 16.1111 17.9513 15.5638 17.1952 15.133C17.0119 15.0224 16.8247 14.9179 16.6336 14.8196C17.4498 14.2997 18.1414 13.6717 18.6956 12.9287L18.7018 12.9201C19.6265 11.6509 20.0725 10.1452 20.0725 8.4511C20.0725 7.12249 19.8288 5.90625 19.3157 4.82483C18.8347 3.75927 18.139 2.86026 17.2359 2.13811C16.3626 1.42005 15.3242 0.889016 14.1395 0.531491C12.9524 0.173218 11.6502 0 10.2409 0C8.49125 0 6.87441 0.338691 5.40564 1.03202C3.98088 1.67969 2.64364 2.56595 1.39378 3.68307L0.712369 4.29211L4.69447 9.17326L5.411 8.50789C6.1788 7.7949 6.9292 7.25279 7.6605 6.86797L7.66969 6.863C8.37283 6.48275 9.13962 6.27793 9.98313 6.25334C11.0154 6.27882 11.6548 6.55179 12.0472 6.93652L12.0537 6.94294L12.0604 6.94923C12.4687 7.33424 12.7266 7.91383 12.7266 8.83007C12.7266 9.3421 12.6375 9.79213 12.4711 10.192C12.3263 10.5167 12.0746 10.8322 11.6681 11.1288C11.2724 11.4175 10.6991 11.6806 9.90791 11.8892C9.16164 12.0675 8.19045 12.165 6.97601 12.165H6.0485V18.077H6.97601C8.42552 18.077 9.58177 18.1763 10.4626 18.3609L10.4671 18.3618C11.3838 18.5491 12.0286 18.8159 12.4566 19.12L12.4754 19.1334L12.4947 19.1457C12.9557 19.44 13.2164 19.7642 13.3522 20.1032C13.5234 20.5308 13.617 21.0257 13.617 21.6015C13.617 22.614 13.2861 23.2906 12.6811 23.7681C12.0483 24.2617 11.1423 24.5575 9.86985 24.5575C8.77447 24.5575 7.80151 24.3128 6.93225 23.8363C5.99296 23.3215 5.14771 22.6911 4.39395 21.9445L3.63407 21.1919L0 26.1952L0.487425 26.7696C1.54394 28.0149 2.87364 29.0245 4.45765 29.8066ZM14.5445 14.8178L14.5628 14.8106C14.5567 14.813 14.5506 14.8154 14.5445 14.8178L14.5445 14.8178ZM14.5824 14.8029L14.603 14.7947C14.9434 14.6592 15.2652 14.5109 15.5687 14.3498C16.563 13.8219 17.3593 13.1568 17.9578 12.3545C18.2051 12.015 18.4138 11.6545 18.5839 11.273C18.4138 11.6545 18.2051 12.015 17.9578 12.3545C17.173 13.4066 16.0479 14.2227 14.5824 14.8029ZM2.00457 4.39606C2.00456 4.39607 2.00455 4.39608 2.00455 4.39609L4.78708 7.80685C5.0224 7.58833 5.25772 7.38346 5.49303 7.19224C6.07393 6.7202 6.65482 6.33135 7.23572 6.02567C8.07666 5.5709 8.99181 5.33089 9.98115 5.30562C11.1684 5.33089 12.0711 5.6467 12.6895 6.25305C13.3326 6.85941 13.6541 7.71842 13.6541 8.83007C13.6541 8.83006 13.6541 8.83004 13.6541 8.83003C13.6541 7.71837 13.3326 6.85937 12.6895 6.25301C12.0712 5.64665 11.1684 5.33084 9.98116 5.30558C8.99181 5.33084 8.07667 5.57086 7.23572 6.02563C6.41951 6.45513 5.6033 7.04885 4.78709 7.8068L2.00457 4.39606ZM6.97601 13.1125V17.1296C8.46003 17.1296 9.68435 17.2306 10.649 17.4328C11.6383 17.6349 12.4174 17.9381 12.9863 18.3423C13.5799 18.7213 13.988 19.1887 14.2106 19.7445C14.3103 19.9935 14.3877 20.2551 14.4427 20.5294C14.3877 20.2551 14.3103 19.9934 14.2106 19.7445C13.988 19.1886 13.5799 18.7212 12.9863 18.3423C12.4174 17.938 11.6383 17.6348 10.649 17.4327C9.68435 17.2306 8.46004 17.1295 6.97602 17.1295L6.97601 13.1125ZM14.5432 21.4743C14.5441 21.5164 14.5445 21.5588 14.5445 21.6015C14.5445 21.6014 14.5445 21.6014 14.5445 21.6014C14.5445 21.5588 14.5441 21.5164 14.5432 21.4743ZM1.18834 26.1491L1.18834 26.1491C2.15295 27.286 3.37727 28.2208 4.86129 28.9535C6.37004 29.6862 8.2127 30.0525 10.3893 30.0525C11.7001 30.0525 12.9368 29.8757 14.0993 29.522C15.2865 29.143 16.313 28.6124 17.1787 27.9303C18.0691 27.2229 18.774 26.3638 19.2934 25.3533C19.2934 25.3533 19.2934 25.3533 19.2934 25.3533C18.774 26.3639 18.0691 27.2229 17.1786 27.9303C16.313 28.6125 15.2865 29.143 14.0993 29.522C12.9368 29.8757 11.7001 30.0526 10.3893 30.0526C8.2127 30.0526 6.37004 29.6862 4.86128 28.9535C3.37727 28.2209 2.15295 27.2861 1.18834 26.1491Z" fill="#0565B5"/>
<path fill-rule="evenodd" clip-rule="evenodd" d="M10.7351 4.432C10.3632 5.16682 9.61243 5.66909 8.74677 5.66909C7.51134 5.66909 6.50983 4.64607 6.50983 3.38411C6.50983 2.12214 7.51134 1.09912 8.74677 1.09912C9.61243 1.09912 10.3632 1.6014 10.7351 2.33621C11.107 1.6014 11.8578 1.09912 12.7235 1.09912C13.9589 1.09912 14.9604 2.12214 14.9604 3.38411C14.9604 4.64607 13.9589 5.66909 12.7235 5.66909C11.8578 5.66909 11.107 5.16682 10.7351 4.432Z" fill="white"/>
<ellipse cx="7.50402" cy="3.13017" rx="0.994197" ry="1.01555" fill="#183153"/>
<ellipse cx="11.4808" cy="3.13017" rx="0.994197" ry="1.01555" fill="#183153"/>
<path fill-rule="evenodd" clip-rule="evenodd" d="M6.0485 15.3105V18.077H6.97601C8.42552 18.077 9.58177 18.1763 10.4626 18.3609L10.4671 18.3618C11.3838 18.5491 12.0286 18.8159 12.4566 19.12L12.4754 19.1334L12.4947 19.1457C12.9557 19.44 13.2164 19.7642 13.3522 20.1032C13.5234 20.5308 13.617 21.0257 13.617 21.6015C13.617 22.614 13.2861 23.2906 12.6811 23.7681C12.0483 24.2617 11.1423 24.5575 9.86985 24.5575C8.77447 24.5575 7.80151 24.3128 6.93225 23.8363C5.99296 23.3215 5.14771 22.6911 4.39395 21.9445L3.63407 21.1918L0 26.1951L0.487425 26.7696C1.54394 28.0149 2.87364 29.0245 4.45765 29.8066L4.46305 29.8092C6.12795 30.6177 8.115 31 10.3893 31C11.7826 31 13.1091 30.812 14.3641 30.4301L14.376 30.4263C15.6537 30.0184 16.7815 29.4399 17.7452 28.6805L17.7481 28.6782C18.7419 27.8886 19.5331 26.9251 20.1146 25.7937C20.7124 24.6306 21 23.3266 21 21.9046C21 20.8933 20.8354 19.9428 20.4935 19.0645C20.1847 18.2087 19.7466 17.4422 19.1771 16.7732C18.6882 16.1989 18.1252 15.711 17.4911 15.3105H6.97602V17.1295C8.46004 17.1295 9.68435 17.2306 10.649 17.4327C11.6383 17.6348 12.4174 17.938 12.9863 18.3422C13.5799 18.7212 13.988 19.1886 14.2106 19.7444C14.2745 19.904 14.3292 20.0687 14.3748 20.2386C14.3292 20.0687 14.2745 19.904 14.2106 19.7445C13.988 19.1887 13.5799 18.7213 12.9863 18.3423C12.4174 17.9381 11.6383 17.6349 10.649 17.4328C9.68435 17.2306 8.46003 17.1296 6.97601 17.1296V15.3105H6.0485ZM1.18834 26.1491L1.18834 26.1491C2.15295 27.2861 3.37727 28.2209 4.86128 28.9535C6.37004 29.6862 8.2127 30.0526 10.3893 30.0526C11.7001 30.0526 12.9368 29.8757 14.0993 29.522C15.2865 29.143 16.313 28.6125 17.1786 27.9303C18.0691 27.2229 18.774 26.3639 19.2934 25.3533L19.2934 25.3532C18.774 26.3638 18.0691 27.2229 17.1787 27.9303C16.313 28.6124 15.2865 29.143 14.0993 29.522C12.9368 29.8757 11.7001 30.0525 10.3893 30.0525C8.2127 30.0525 6.37004 29.6862 4.86129 28.9535C3.37727 28.2208 2.15295 27.286 1.18834 26.1491ZM14.5445 21.6015C14.5445 21.5588 14.5441 21.5164 14.5432 21.4743C14.5441 21.5164 14.5445 21.5588 14.5445 21.6014L14.5445 21.6015Z" fill="#1EB3EA"/>
</svg>
