<svg width="245" height="91" viewBox="0 0 245 91" fill="none" xmlns="http://www.w3.org/2000/svg">
<path d="M179.058 24.2666C178.164 23.1735 177.16 22.0606 176.047 20.9278C174.934 19.7949 173.871 18.8111 172.857 17.9764L175.183 15.9194C175.699 16.3368 176.236 16.8138 176.792 17.3504C177.369 17.8671 177.935 18.4037 178.492 18.9602C179.048 19.5167 179.585 20.0831 180.102 20.6595C180.618 21.2159 181.085 21.7327 181.503 22.2096L179.058 24.2666Z" fill="black"/>
<path d="M149.106 1.07333C149.504 1.11308 149.891 1.14289 150.269 1.16277C150.666 1.18264 151.093 1.19258 151.551 1.19258C151.849 1.19258 152.375 1.18264 153.131 1.16277C153.886 1.12302 154.701 1.08327 155.575 1.04352C156.469 0.983898 157.324 0.934212 158.139 0.894464C158.974 0.834841 159.6 0.785155 160.017 0.745407C160.772 0.685784 161.339 0.576475 161.716 0.41748L163.505 2.50428C163.266 2.6434 162.958 2.84214 162.581 3.10051C162.223 3.339 161.925 3.55762 161.686 3.75636C161.17 4.17372 160.574 4.66064 159.898 5.21712C159.242 5.75372 158.566 6.32014 157.871 6.91637C157.175 7.49272 156.489 8.05914 155.814 8.61562C155.138 9.15223 154.532 9.62921 153.995 10.0466C155.009 9.9472 156.062 9.84783 157.155 9.74845C158.268 9.64908 159.371 9.56959 160.464 9.50996C161.577 9.43047 162.66 9.37084 163.714 9.33109C164.787 9.29135 165.791 9.27147 166.725 9.27147L166.754 11.9247C165.622 11.8651 164.509 11.8353 163.416 11.8353C162.66 11.8353 161.955 11.8551 161.299 11.8949C160.643 11.9147 160.067 11.9545 159.57 12.0141C158.914 12.1135 158.268 12.3122 157.632 12.6103C157.016 12.9085 156.469 13.2861 155.992 13.7432C155.516 14.1804 155.128 14.6773 154.83 15.2338C154.552 15.7902 154.412 16.3865 154.412 17.0224C154.412 17.9367 154.651 18.6521 155.128 19.1689C155.605 19.6856 156.201 20.0831 156.917 20.3613C157.632 20.6197 158.397 20.7886 159.212 20.8681C160.047 20.9277 160.802 20.9575 161.478 20.9575C161.816 20.9575 162.124 20.9575 162.402 20.9575C162.68 20.9377 162.939 20.9178 163.177 20.8979L162.611 23.8194C162.392 23.8393 162.163 23.8493 161.925 23.8493C161.706 23.8493 161.488 23.8493 161.269 23.8493C158.149 23.8493 155.754 23.3126 154.085 22.2394C152.435 21.1662 151.61 19.5763 151.61 17.4696C151.61 16.933 151.69 16.4262 151.849 15.9492C152.028 15.4524 152.246 14.9853 152.505 14.5481C152.763 14.1109 153.051 13.7233 153.369 13.3854C153.707 13.0476 154.035 12.7594 154.353 12.5209C152.922 12.6402 151.372 12.8091 149.702 13.0277C148.053 13.2265 146.443 13.4649 144.873 13.7432L144.634 11.0303C145.39 10.931 146.204 10.8316 147.079 10.7322C147.973 10.613 148.788 10.5136 149.523 10.4341C150.239 9.95713 151.004 9.40065 151.819 8.76468C152.654 8.10883 153.468 7.44304 154.263 6.76731C155.078 6.09159 155.833 5.45561 156.529 4.85938C157.225 4.24328 157.801 3.74642 158.258 3.36881C157.94 3.38869 157.463 3.4185 156.827 3.45824C156.211 3.47812 155.555 3.50793 154.86 3.54768C154.184 3.58743 153.538 3.62718 152.922 3.66693C152.326 3.70667 151.879 3.73648 151.58 3.75636C151.203 3.79611 150.805 3.83586 150.388 3.8756C149.971 3.91535 149.583 3.9551 149.225 3.99485L149.106 1.07333Z" fill="black"/>
<path d="M118.587 2.26556C119.621 2.3848 120.773 2.47424 122.045 2.53386C123.337 2.59348 124.699 2.62329 126.13 2.62329C127.501 2.62329 128.882 2.58354 130.273 2.50405C131.684 2.42455 132.927 2.32518 134 2.20593V5.18707C133.523 5.22682 132.966 5.26657 132.33 5.30632C131.694 5.34607 131.029 5.38582 130.333 5.42557C129.637 5.44544 128.932 5.46531 128.216 5.48519C127.501 5.50506 126.815 5.515 126.159 5.515C124.709 5.515 123.367 5.49513 122.135 5.45538C120.903 5.39575 119.72 5.31626 118.587 5.21689V2.26556ZM120.257 13.892C120.098 14.4485 119.969 14.9752 119.869 15.472C119.79 15.9689 119.75 16.4757 119.75 16.9924C119.75 17.9861 120.247 18.791 121.241 19.4071C122.254 20.0232 123.844 20.3313 126.01 20.3313C127.958 20.3313 129.786 20.2418 131.496 20.063C133.225 19.8642 134.656 19.5959 135.789 19.2581L135.818 22.3584C134.705 22.6367 133.314 22.8652 131.645 23.0441C129.975 23.2429 128.127 23.3422 126.1 23.3422C123.079 23.3422 120.774 22.8553 119.184 21.8815C117.594 20.9076 116.799 19.4966 116.799 17.6482C116.799 16.8731 116.858 16.1577 116.978 15.5018C117.097 14.8261 117.226 14.21 117.365 13.6535L120.257 13.892Z" fill="black"/>
<path d="M102.289 13.0872C102.289 11.9941 101.891 11.0898 101.096 10.3744C100.301 9.6589 99.1984 9.30116 97.7873 9.30116C97.052 9.30116 96.2471 9.37072 95.3726 9.50984C94.4982 9.62909 93.6137 9.79802 92.7194 10.0166C91.8251 10.2353 90.9506 10.4837 90.096 10.7619C89.2414 11.0402 88.4564 11.3283 87.7409 11.6265L86.8466 8.37701C87.2838 8.33726 87.7508 8.27764 88.2477 8.19814C88.7445 8.11864 89.2116 8.03914 89.6488 7.95965C90.1656 7.8404 90.7419 7.70128 91.3779 7.54229C92.0139 7.38329 92.6995 7.24417 93.4349 7.12493C94.1702 6.98581 94.9354 6.86656 95.7304 6.76719C96.5253 6.66782 97.3302 6.61813 98.1451 6.61813C99.1984 6.61813 100.162 6.76719 101.037 7.0653C101.931 7.34354 102.696 7.77084 103.332 8.3472C103.988 8.90368 104.495 9.58934 104.853 10.4042C105.21 11.1992 105.389 12.1233 105.389 13.1766C105.389 14.6871 105.061 16.0485 104.405 17.2608C103.75 18.4731 102.835 19.5364 101.663 20.4506C100.51 21.345 99.1388 22.0803 97.5489 22.6567C95.9589 23.2529 94.2199 23.6901 92.3319 23.9684L90.6922 21.1959C92.4213 20.9773 93.9914 20.6593 95.4024 20.2419C96.8334 19.8047 98.0556 19.2582 99.0692 18.6023C100.103 17.9266 100.898 17.1416 101.454 16.2472C102.011 15.333 102.289 14.2797 102.289 13.0872ZM90.7817 0C91.5766 0.178869 92.5306 0.3478 93.6436 0.506795C94.7565 0.645914 95.8894 0.775097 97.0421 0.894343C98.2146 1.01359 99.3375 1.11296 100.411 1.19246C101.484 1.25208 102.378 1.28189 103.094 1.28189L102.647 4.05435C101.852 3.99473 100.908 3.92517 99.8145 3.84567C98.7413 3.7463 97.6383 3.63699 96.5055 3.51775C95.3726 3.3985 94.2696 3.26932 93.1964 3.1302C92.1232 2.99108 91.1792 2.85196 90.3643 2.71284L90.7817 0Z" fill="black"/>
<path d="M65.5695 18.3637C65.5695 18.1848 65.5695 17.9761 65.5695 17.7376C65.5695 17.4991 65.5595 17.2408 65.5397 16.9625C64.7049 16.7837 63.8503 16.6942 62.9759 16.6942C61.6642 16.6942 60.6506 16.9029 59.9351 17.3203C59.2196 17.7177 58.8619 18.2643 58.8619 18.9599C58.8619 19.7151 59.2097 20.2716 59.9053 20.6293C60.6009 20.9871 61.5449 21.1659 62.7374 21.1659C63.7311 21.1659 64.4466 20.9374 64.8838 20.4803C65.3409 20.0232 65.5695 19.3176 65.5695 18.3637ZM75.3774 22.3882C74.4831 21.5137 73.4596 20.679 72.3068 19.884C71.1541 19.0692 69.8921 18.3736 68.5208 17.7972C68.5407 18.0954 68.5506 18.3736 68.5506 18.632C68.5506 18.8903 68.5506 19.1189 68.5506 19.3176C68.5506 19.9138 68.4512 20.4902 68.2525 21.0467C68.0736 21.5833 67.7656 22.0702 67.3283 22.5074C66.911 22.9248 66.3446 23.2527 65.6291 23.4912C64.9335 23.7496 64.059 23.8788 63.0057 23.8788C62.0318 23.8788 61.1176 23.7893 60.263 23.6105C59.4084 23.4515 58.6632 23.1832 58.0272 22.8056C57.3912 22.4279 56.8943 21.941 56.5366 21.3448C56.1789 20.7287 56 19.9834 56 19.1089C56 18.4332 56.1491 17.7972 56.4472 17.201C56.7453 16.6048 57.1925 16.0881 57.7887 15.6508C58.4048 15.1937 59.1699 14.836 60.0842 14.5776C60.9984 14.3192 62.0815 14.1901 63.3336 14.1901C63.6913 14.1901 64.0391 14.2 64.377 14.2199C64.7347 14.2397 65.0825 14.2696 65.4204 14.3093C65.3409 12.4212 65.2813 10.5531 65.2415 8.70476C65.2018 6.83658 65.1819 4.95846 65.1819 3.0704C65.1819 2.47417 65.162 1.89782 65.1223 1.34134C65.0825 0.784859 65.0229 0.357562 64.9434 0.0594482L68.3419 0.0594482C68.2823 0.39731 68.2326 0.864356 68.1929 1.46058C68.1531 2.05681 68.1134 2.59342 68.0736 3.0704C68.0537 3.42814 68.0438 3.81569 68.0438 4.23305C68.0637 4.6504 68.0736 5.08764 68.0736 5.54475C68.65 5.54475 69.276 5.53481 69.9517 5.51494C70.6473 5.47519 71.3529 5.44538 72.0684 5.4255C72.8037 5.38575 73.5192 5.33607 74.2148 5.27644C74.9302 5.21682 75.596 5.1572 76.2121 5.09758L76.3314 7.7806C75.7153 7.84023 75.0396 7.88991 74.3042 7.92966C73.5887 7.96941 72.8633 8.00916 72.128 8.04891C71.3926 8.08866 70.6772 8.11847 69.9816 8.13834C69.286 8.15822 68.65 8.17809 68.0736 8.19796C68.0736 9.09231 68.1034 10.1456 68.1631 11.358C68.2426 12.5504 68.3121 13.7329 68.3717 14.9055C70.2002 15.4223 71.8497 16.1278 73.3204 17.0221C74.811 17.8966 76.0631 18.791 77.0767 19.7052L75.3774 22.3882Z" fill="black"/>
<path d="M239.768 78.0959C240.404 78.0959 240.99 78.2152 241.527 78.4537C242.064 78.6922 242.531 79.0201 242.928 79.4375C243.345 79.8349 243.663 80.302 243.882 80.8386C244.121 81.3752 244.24 81.9516 244.24 82.5677C244.24 83.1838 244.121 83.7601 243.882 84.2967C243.663 84.8333 243.345 85.3004 242.928 85.6979C242.531 86.1152 242.064 86.4332 241.527 86.6518C240.99 86.8903 240.404 87.0096 239.768 87.0096C239.152 87.0096 238.576 86.8903 238.039 86.6518C237.502 86.4332 237.035 86.1152 236.638 85.6979C236.24 85.3004 235.922 84.8333 235.684 84.2967C235.445 83.7601 235.326 83.1838 235.326 82.5677C235.326 81.9516 235.445 81.3752 235.684 80.8386C235.922 80.302 236.24 79.8349 236.638 79.4375C237.035 79.0201 237.502 78.6922 238.039 78.4537C238.576 78.2152 239.152 78.0959 239.768 78.0959ZM239.768 85.3103C240.523 85.3103 241.169 85.042 241.706 84.5054C242.242 83.9688 242.511 83.3229 242.511 82.5677C242.511 81.8124 242.242 81.1665 241.706 80.6299C241.169 80.0933 240.523 79.825 239.768 79.825C239.013 79.825 238.367 80.0933 237.83 80.6299C237.314 81.1665 237.055 81.8124 237.055 82.5677C237.055 83.3229 237.314 83.9688 237.83 84.5054C238.367 85.042 239.013 85.3103 239.768 85.3103Z" fill="black"/>
<path d="M206 76.9333C206.397 76.6352 206.755 76.3272 207.073 76.0092C207.411 75.6713 207.779 75.3037 208.176 74.9062C208.534 74.5484 208.931 74.1013 209.369 73.5647C209.826 73.0082 210.293 72.4318 210.77 71.8356C211.247 71.2394 211.724 70.6431 212.201 70.0469C212.698 69.4308 213.155 68.8743 213.572 68.3775C214.526 67.2446 215.47 66.6782 216.404 66.6782C217.239 66.6782 218.093 67.1155 218.968 67.9899C219.405 68.4272 219.862 68.934 220.339 69.5103C220.836 70.0668 221.333 70.6431 221.83 71.2394C222.347 71.8157 222.843 72.3921 223.32 72.9684C223.817 73.5249 224.284 74.0416 224.722 74.5186C225.159 74.9956 225.646 75.5223 226.182 76.0986C226.719 76.675 227.285 77.2712 227.882 77.8873C228.478 78.4835 229.094 79.0996 229.73 79.7356C230.366 80.3517 231.012 80.948 231.668 81.5243L229.432 84.1477C228.895 83.6509 228.339 83.1142 227.762 82.5379C227.206 81.9615 226.649 81.3752 226.093 80.779C225.536 80.1629 224.99 79.5568 224.453 78.9605C223.917 78.3444 223.41 77.7681 222.933 77.2315C222.476 76.7147 222.009 76.1682 221.532 75.5918C221.055 75.0155 220.578 74.4491 220.101 73.8926C219.644 73.3361 219.206 72.8094 218.789 72.3126C218.392 71.7958 218.024 71.3586 217.686 71.0009C217.13 70.4444 216.682 70.1662 216.345 70.1662C216.007 70.1662 215.609 70.4742 215.152 71.0903C214.019 72.4815 212.926 73.9025 211.873 75.3533C210.82 76.7843 209.756 78.2252 208.683 79.676L206 76.9333Z" fill="black"/>
<path d="M195.707 90H183.654V71.8564C183.654 70.0088 182.892 69.085 181.366 69.085C179.862 69.085 179.11 70.0088 179.11 71.8564V90H167.058V72.082C167.058 67.8926 168.443 64.3691 171.215 61.5117C173.986 58.6328 177.381 57.1934 181.398 57.1934C185.996 57.1934 189.681 58.8584 192.452 62.1885C194.622 64.7881 195.707 68.4082 195.707 73.0488V90Z" fill="#0565B5"/>
<path fill-rule="evenodd" clip-rule="evenodd" d="M183.654 71.8301C183.654 70.5178 183.27 69.6715 182.5 69.2913V57.2C186.588 57.4483 189.906 59.1024 192.452 62.1622C194.622 64.7618 195.707 68.3819 195.707 73.0225V89.9737H183.654V71.8301Z" fill="#F64277"/>
<path d="M159.03 75.8848H140.758C140.479 74.9609 140.339 74.1123 140.339 73.3389C140.339 72.2646 140.532 71.2119 140.919 70.1807H147.042C146.612 67.7959 145.27 66.6035 143.014 66.6035C141.51 66.6035 140.285 67.248 139.34 68.5371C138.395 69.8047 137.922 71.4375 137.922 73.4355C137.922 75.5195 138.373 77.2061 139.275 78.4951C140.199 79.7842 141.402 80.4287 142.885 80.4287C144.088 80.4287 145.248 79.8271 146.365 78.624L153.229 86.874C150.028 89.3877 146.473 90.6445 142.562 90.6445C137.793 90.6445 133.786 89.0439 130.542 85.8428C127.298 82.6416 125.676 78.6777 125.676 73.9512C125.676 69.2461 127.309 65.2715 130.574 62.0273C133.861 58.7832 137.89 57.1611 142.659 57.1611C147.321 57.1611 151.231 58.751 154.39 61.9307C157.569 65.0889 159.159 68.9883 159.159 73.6289C159.159 74.1016 159.116 74.8535 159.03 75.8848Z" fill="#6EC8DA"/>
<path fill-rule="evenodd" clip-rule="evenodd" d="M141.124 67.0087L137.51 57.8734C139.118 57.3986 140.834 57.1611 142.659 57.1611C147.321 57.1611 151.231 58.751 154.39 61.9307C157.569 65.0889 159.159 68.9883 159.159 73.6289C159.159 74.1016 159.116 74.8535 159.03 75.8848H140.758C140.478 74.9609 140.339 74.1123 140.339 73.3389C140.339 72.2646 140.532 71.2119 140.919 70.1807H147.042C146.612 67.7959 145.269 66.6035 143.014 66.6035C142.325 66.6035 141.695 66.7386 141.124 67.0087Z" fill="#00A0D9"/>
<path fill-rule="evenodd" clip-rule="evenodd" d="M97.5527 72.3291V46H85.5V72.7803C85.5 77.7002 86.7891 81.707 89.3672 84.8008C90.8496 86.584 92.7295 88.002 95.0068 89.0547C97.3057 90.1074 99.6582 90.6338 102.064 90.6338C106.855 90.6338 110.895 89.0225 114.182 85.7998C117.469 82.5771 119.112 78.6133 119.112 73.9082C119.112 69.3105 117.49 65.3789 114.246 62.1133C111.023 58.8477 107.146 57.2148 102.612 57.2148C101.991 57.2148 101.12 57.2615 100 57.3549V70.3008C100.892 69.7839 101.699 69.5254 102.419 69.5254C103.665 69.5254 104.718 69.9766 105.577 70.8789C106.437 71.7598 106.866 72.8555 106.866 74.166C106.866 75.4336 106.404 76.5186 105.48 77.4209C104.578 78.3018 103.472 78.7422 102.161 78.7422C99.0889 78.7422 97.5527 76.6045 97.5527 72.3291Z" fill="#02BFB7"/>
<path fill-rule="evenodd" clip-rule="evenodd" d="M99.6001 57.3761V70.5433C100.661 69.8548 101.607 69.5105 102.438 69.5105C103.684 69.5105 104.736 69.9617 105.596 70.864C106.455 71.7449 106.885 72.8406 106.885 74.1511C106.885 75.4187 106.423 76.5037 105.499 77.406C104.597 78.2869 103.49 78.7273 102.18 78.7273C101.146 78.7273 100.286 78.4852 99.6001 78.0011V90.4291C100.421 90.5556 101.249 90.6189 102.083 90.6189C106.874 90.6189 110.913 89.0076 114.2 85.7849C117.487 82.5623 119.131 78.5984 119.131 73.8933C119.131 69.2957 117.509 65.364 114.265 62.0984C111.042 58.8328 107.164 57.2 102.631 57.2C101.934 57.2 100.924 57.2587 99.6001 57.3761Z" fill="#FCC800"/>
<path fill-rule="evenodd" clip-rule="evenodd" d="M62.5 57.215C62.204 57.2006 61.9052 57.1934 61.6035 57.1934C56.748 57.1934 52.666 58.8047 49.3574 62.0273C46.0488 65.2285 44.3945 69.1816 44.3945 73.8867C44.3945 78.5059 46.0488 82.459 49.3574 85.7461C52.666 89.0117 56.6514 90.6445 61.3135 90.6445C61.7141 90.6445 62.1096 90.6325 62.5 90.6084V78.597C62.115 78.7009 61.7088 78.7529 61.2812 78.7529C60.0137 78.7529 58.918 78.2803 57.9941 77.335C57.0918 76.3896 56.6406 75.251 56.6406 73.9189C56.6406 72.5654 57.0918 71.4268 57.9941 70.5029C58.8965 69.5576 59.9922 69.085 61.2812 69.085C61.7093 69.085 62.1155 69.1354 62.5 69.2362V57.215Z" fill="#0565B5"/>
<path fill-rule="evenodd" clip-rule="evenodd" d="M64.5684 77.3199C63.9653 77.9517 63.2758 78.3724 62.5 78.5819V90.5933C66.6535 90.3368 70.2326 88.7161 73.2373 85.731C76.5459 82.4654 78.2002 78.5123 78.2002 73.8717C78.2002 69.2955 76.5674 65.3746 73.3018 62.109C70.2725 59.0396 66.6719 57.4033 62.5 57.1999V69.2212C63.2927 69.4291 63.9929 69.8513 64.6006 70.4879C65.5029 71.4117 65.9541 72.5504 65.9541 73.9039C65.9541 75.2359 65.4922 76.3746 64.5684 77.3199Z" fill="#1EB3EA"/>
<path d="M38.7832 57.5479V70.4385C37.9453 69.9658 37.1826 69.7295 36.4951 69.7295C34.3037 69.7295 33.208 71.4053 33.208 74.7568V90H21.1553V72.4365C21.1553 67.7959 22.4229 64.1006 24.958 61.3506C27.4932 58.5791 30.877 57.1934 35.1094 57.1934C36.0547 57.1934 37.2793 57.3115 38.7832 57.5479Z" fill="#FCC800"/>
<path d="M33.2 78V90H21.2V78H33.2Z" fill="#02BFB7"/>
<path d="M21.2 73V78H33.1008L21.2 73Z" fill="#02BFB7"/>
<circle cx="5.80005" cy="50" r="5" fill="#FCC800"/>
<path d="M12.0527 57.8701V90H0V57.8701H12.0527Z" fill="#6EC8DA"/>
<path d="M12.0654 78V90.13H0.0126953V78H12.0654Z" fill="#F64277"/>
<path d="M12.0562 72.5V78H0L12.0562 72.5Z" fill="#F64277"/>
<circle cx="179.206" cy="63.7059" r="3.70588" fill="white"/>
<circle cx="177.147" cy="63.2942" r="1.64706" fill="#183153"/>
<circle cx="185.794" cy="63.7059" r="3.70588" fill="white"/>
<circle cx="183.735" cy="63.2942" r="1.64706" fill="#183153"/>
</svg>
