<?xml version="1.0" encoding="UTF-8"?>
<svg id="_レイヤー_2" data-name="レイヤー 2" xmlns="http://www.w3.org/2000/svg" xmlns:xlink="http://www.w3.org/1999/xlink" viewBox="0 0 128.77 174.15">
  <defs>
    <style>
      .cls-1, .cls-2, .cls-3, .cls-4 {
        stroke-width: 0px;
      }

      .cls-1, .cls-3 {
        fill: #4dcd9d;
      }

      .cls-5 {
        mask: url(#mask);
      }

      .cls-2 {
        fill: #000;
      }

      .cls-3 {
        fill-rule: evenodd;
      }

      .cls-4 {
        fill: #fff;
      }
    </style>
    <mask id="mask" x="30.69" y="-.85" width="71" height="43" maskUnits="userSpaceOnUse">
      <g id="path-1-outside-1_36_934" data-name="path-1-outside-1 36 934">
        <rect class="cls-4" x="30.69" y="-.85" width="71" height="43"/>
        <path class="cls-2" d="M53.24,29.56h11.26v4.54h-29.54v-4.54h3.71v-13.86h4.86v13.86h4.74V11.26h-12.29v-4.54h27.68v4.54h-10.43v6.21h8.58v4.54h-8.58v7.55ZM86.58,20.02h.86v-2.66h2.27c-.06-1.15-.45-2.72-1.02-3.71.86.1,1.54.13,1.95.13.35,0,.61-.06.83-.35s.38-1.18.48-3.23h-2.94c-.48,3.23-1.63,5.76-4.83,7.55l2.75.54c-.1.58-.22,1.15-.35,1.73ZM81.5,15.8v7.46c.74-1.44,1.28-3.23,1.6-5.02-.32-.7-.93-1.7-1.6-2.43ZM76.5,23.45h1.22v-2.02h-1.22v2.02ZM72.31,21.43v.13c0,.61,0,1.25-.03,1.89h1.22v-2.02h-1.18ZM74.9,11.29h-2.05c-.29.61-.54,1.22-.83,1.79h2.24c.22-.54.45-1.18.64-1.79ZM76.5,16.44v1.76h1.22v-1.76h-1.22ZM72.31,16.44v1.76h1.18v-1.76h-1.18ZM96.95,26.23v3.97h-5.09v4.9h-4.42v-4.9h-5.5v-3.97h5.5v-2.34h-2.14c-.32.8-.7,1.54-1.09,2.14-.61-.45-1.82-1.06-2.72-1.47v6.34c0,1.7-.29,2.85-1.34,3.52-1.09.64-2.4.74-4.22.74-.13-1.09-.74-2.88-1.28-3.9,1.06.06,2.21.06,2.59.06.35,0,.48-.13.48-.51v-4h-5.66c-.35,3.04-1.06,6.18-2.56,8.45-.67-.61-2.34-1.66-3.2-2.05,2.18-3.3,2.34-8.06,2.34-11.68v-4.96c-.8-.7-1.86-1.6-2.56-2.05,2.14-2.3,3.78-6.02,4.61-9.76l4.1.9c-.19.74-.38,1.47-.64,2.18h2.4l.58-.16,2.62,1.6c-.42,1.18-1.02,2.53-1.63,3.81h3.39v1.63c2.18-1.09,3.01-2.62,3.36-4.51h-3.17v-3.78h14.46s-.03.93-.06,1.41c-.13,5.02-.38,7.33-1.09,8.22-.58.74-1.25,1.02-2.08,1.18-.38.06-.93.1-1.5.13h.45v2.66h4.42v3.87h-4.42v2.34h5.09Z"/>
      </g>
    </mask>
  </defs>
  <g id="_レイヤー_1-2" data-name="レイヤー 1">
    <g>
      <path class="cls-1" d="M53.24,29.56h11.26v4.54h-29.54v-4.54h3.71v-13.86h4.86v13.86h4.74V11.26h-12.29v-4.54h27.68v4.54h-10.43v6.21h8.58v4.54h-8.58v7.55ZM86.58,20.02h.86v-2.66h2.27c-.06-1.15-.45-2.72-1.02-3.71.86.1,1.54.13,1.95.13.35,0,.61-.06.83-.35s.38-1.18.48-3.23h-2.94c-.48,3.23-1.63,5.76-4.83,7.55l2.75.54c-.1.58-.22,1.15-.35,1.73ZM81.5,15.8v7.46c.74-1.44,1.28-3.23,1.6-5.02-.32-.7-.93-1.7-1.6-2.43ZM76.5,23.45h1.22v-2.02h-1.22v2.02ZM72.31,21.43v.13c0,.61,0,1.25-.03,1.89h1.22v-2.02h-1.18ZM74.9,11.29h-2.05c-.29.61-.54,1.22-.83,1.79h2.24c.22-.54.45-1.18.64-1.79ZM76.5,16.44v1.76h1.22v-1.76h-1.22ZM72.31,16.44v1.76h1.18v-1.76h-1.18ZM96.95,26.23v3.97h-5.09v4.9h-4.42v-4.9h-5.5v-3.97h5.5v-2.34h-2.14c-.32.8-.7,1.54-1.09,2.14-.61-.45-1.82-1.06-2.72-1.47v6.34c0,1.7-.29,2.85-1.34,3.52-1.09.64-2.4.74-4.22.74-.13-1.09-.74-2.88-1.28-3.9,1.06.06,2.21.06,2.59.06.35,0,.48-.13.48-.51v-4h-5.66c-.35,3.04-1.06,6.18-2.56,8.45-.67-.61-2.34-1.66-3.2-2.05,2.18-3.3,2.34-8.06,2.34-11.68v-4.96c-.8-.7-1.86-1.6-2.56-2.05,2.14-2.3,3.78-6.02,4.61-9.76l4.1.9c-.19.74-.38,1.47-.64,2.18h2.4l.58-.16,2.62,1.6c-.42,1.18-1.02,2.53-1.63,3.81h3.39v1.63c2.18-1.09,3.01-2.62,3.36-4.51h-3.17v-3.78h14.46s-.03.93-.06,1.41c-.13,5.02-.38,7.33-1.09,8.22-.58.74-1.25,1.02-2.08,1.18-.38.06-.93.1-1.5.13h.45v2.66h4.42v3.87h-4.42v2.34h5.09Z"/>
      <g class="cls-5">
        <path class="cls-4" d="M53.24,29.56h-4v4h4v-4ZM64.5,29.56h4v-4h-4v4ZM64.5,34.1v4h4v-4h-4ZM34.97,34.1h-4v4h4v-4ZM34.97,29.56v-4h-4v4h4ZM38.68,29.56v4h4v-4h-4ZM38.68,15.7v-4h-4v4h4ZM43.54,15.7h4v-4h-4v4ZM43.54,29.56h-4v4h4v-4ZM48.28,29.56v4h4v-4h-4ZM48.28,11.26h4v-4h-4v4ZM35.99,11.26h-4v4h4v-4ZM35.99,6.71V2.71h-4v4h4ZM63.67,6.71h4V2.71h-4v4ZM63.67,11.26v4h4v-4h-4ZM53.24,11.26v-4h-4v4h4ZM53.24,17.46h-4v4h4v-4ZM61.82,17.46h4v-4h-4v4ZM61.82,22.01v4h4v-4h-4ZM53.24,22.01v-4h-4v4h4ZM53.24,33.56h11.26v-8h-11.26v8ZM60.5,29.56v4.54h8v-4.54h-8ZM64.5,30.1h-29.54v8h29.54v-8ZM38.97,34.1v-4.54h-8v4.54h8ZM34.97,33.56h3.71v-8h-3.71v8ZM42.68,29.56v-13.86h-8v13.86h8ZM38.68,19.7h4.86v-8h-4.86v8ZM39.54,15.7v13.86h8v-13.86h-8ZM43.54,33.56h4.74v-8h-4.74v8ZM52.28,29.56V11.26h-8v18.3h8ZM48.28,7.26h-12.29v8h12.29V7.26ZM39.99,11.26v-4.54h-8v4.54h8ZM35.99,10.71h27.68V2.71h-27.68v8ZM59.67,6.71v4.54h8v-4.54h-8ZM63.67,7.26h-10.43v8h10.43V7.26ZM49.24,11.26v6.21h8v-6.21h-8ZM53.24,21.46h8.58v-8h-8.58v8ZM57.82,17.46v4.54h8v-4.54h-8ZM61.82,18.01h-8.58v8h8.58v-8ZM49.24,22.01v7.55h8v-7.55h-8ZM86.58,20.02l-3.9-.87-1.08,4.87h4.99v-4ZM87.45,20.02v4h4v-4h-4ZM87.45,17.37v-4h-4v4h4ZM89.72,17.37v4h4.23l-.23-4.22-3.99.22ZM88.7,13.66l.44-3.98-7.88-.88,3.98,6.86,3.46-2.01ZM91.48,13.43l3.16,2.46h0l-3.16-2.46ZM91.96,10.2l4,.19.2-4.19h-4.19v4ZM89.02,10.2v-4h-3.45l-.51,3.41,3.96.59ZM84.18,17.75l-1.95-3.49-9.48,5.31,10.66,2.11.78-3.92ZM86.94,18.3l3.95.66.64-3.83-3.81-.75-.78,3.92ZM81.5,15.8l2.95-2.7-6.95-7.62v10.31h4ZM81.5,23.26h-4l7.56,1.82-3.56-1.82ZM83.1,18.23l3.94.7.22-1.23-.52-1.13-3.64,1.66ZM76.5,23.45h-4v4h4v-4ZM77.72,23.45v4h4v-4h-4ZM77.72,21.43h4v-4h-4v4ZM76.5,21.43v-4h-4v4h4ZM72.31,21.43v-4h-4v4h4ZM72.28,23.45l-4-.2-.21,4.2h4.21v-4ZM73.5,23.45v4h4v-4h-4ZM73.5,21.43h4v-4h-4v4ZM74.9,11.29l3.81,1.2,1.64-5.2h-5.46v4ZM72.86,11.29v-4h-2.53l-1.08,2.29,3.61,1.71ZM72.02,13.08l-3.58-1.79-2.89,5.79h6.47v-4ZM74.26,13.08v4h2.68l1.02-2.48-3.7-1.52ZM76.5,16.44v-4h-4v4h4ZM76.5,18.2h-4v4h4v-4ZM77.72,18.2v4h4v-4h-4ZM77.72,16.44h4v-4h-4v4ZM72.31,16.44v-4h-4v4h4ZM72.31,18.2h-4v4h4v-4ZM73.5,18.2v4h4v-4h-4ZM73.5,16.44h4v-4h-4v4ZM96.95,26.23h4v-4h-4v4ZM96.95,30.2v4h4v-4h-4ZM91.86,30.2v-4h-4v4h4ZM91.86,35.1v4h4v-4h-4ZM87.45,35.1h-4v4h4v-4ZM87.45,30.2h4v-4h-4v4ZM81.94,30.2h-4v4h4v-4ZM81.94,26.23v-4h-4v4h4ZM87.45,26.23v4h4v-4h-4ZM87.45,23.9h4v-4h-4v4ZM85.3,23.9v-4h-2.71l-1.01,2.51,3.71,1.49ZM84.22,26.04l-2.37,3.22,3.46,2.55,2.3-3.63-3.38-2.14ZM81.5,24.57l1.68-3.63-5.68-2.64v6.27h4ZM80.15,34.42l2.03,3.45.06-.04.06-.04-2.15-3.37ZM75.93,35.16l-3.97.47.42,3.53h3.56v-4ZM74.65,31.26l.24-3.99-7.12-.43,3.35,6.3,3.53-1.88ZM77.72,26.81h4v-4h-4v4ZM72.06,26.81v-4h-3.56l-.41,3.54,3.97.46ZM69.5,35.26l-2.68,2.97,3.45,3.12,2.57-3.88-3.34-2.21ZM66.3,33.21l-3.34-2.2-2.6,3.94,4.32,1.92,1.62-3.66ZM68.63,16.57h4v-1.81l-1.36-1.19-2.64,3ZM66.07,14.52l-2.93-2.72-3.27,3.52,4.06,2.58,2.15-3.37ZM70.68,4.76l.85-3.91-3.89-.85-.86,3.89,3.9.87ZM74.78,5.66l3.87,1.01,1.05-4.03-4.07-.89-.85,3.91ZM74.14,7.83l-3.76-1.37-1.95,5.37h5.71v-4ZM76.54,7.83v4h.55l.53-.15-1.07-3.85ZM77.11,7.67l2.08-3.42-1.48-.9-1.67.46,1.07,3.85ZM79.74,9.27l3.77,1.33,1.07-3.06-2.76-1.69-2.08,3.42ZM78.1,13.08l-3.61-1.72-2.72,5.72h6.33v-4ZM81.5,13.08h4v-4h-4v4ZM81.5,14.71h-4v6.47l5.79-2.89-1.79-3.58ZM84.86,10.2l3.93.73.88-4.73h-4.82v4ZM81.69,10.2h-4v4h4v-4ZM81.69,6.42V2.42h-4v4h4ZM96.15,6.42l4,.14.14-4.14h-4.14v4ZM96.09,7.83l-3.99-.27v.08s0,.08,0,.08l4,.1ZM95,16.06l-3.14-2.47h0s3.15,2.47,3.15,2.47ZM92.92,17.24l.66,3.95h.05s.05-.02.05-.02l-.75-3.93ZM91.42,17.37l-.22-3.99.22,7.99v-4ZM91.86,17.37h4v-4h-4v4ZM91.86,20.02h-4v4h4v-4ZM96.28,20.02h4v-4h-4v4ZM96.28,23.9v4h4v-4h-4ZM91.86,23.9v-4h-4v4h4ZM91.86,26.23h-4v4h4v-4ZM86.58,24.02h.86v-8h-.86v8ZM91.45,20.02v-2.66h-8v2.66h8ZM87.45,21.37h2.27v-8h-2.27v8ZM93.71,17.15c-.09-1.61-.59-3.83-1.56-5.5l-6.92,4.02c.18.31.45,1.23.49,1.93l7.99-.44ZM88.25,17.63c.98.11,1.8.15,2.39.15v-8c-.24,0-.76-.02-1.51-.1l-.88,7.95ZM90.65,17.78c.38,0,1.09-.03,1.89-.33.89-.34,1.58-.91,2.1-1.56l-6.31-4.91c.29-.37.74-.76,1.36-1,.53-.2.94-.2.96-.2v8ZM94.64,15.89c.49-.62.71-1.26.82-1.62.12-.41.2-.81.26-1.18.11-.73.18-1.63.24-2.7l-7.99-.37c-.04.98-.1,1.55-.15,1.85-.02.15-.03.15,0,.06.02-.05.05-.16.12-.31.07-.14.19-.37.39-.64l6.31,4.91ZM91.96,6.2h-2.94v8h2.94V6.2ZM85.06,9.61c-.2,1.33-.49,2.21-.88,2.86-.36.6-.91,1.21-1.95,1.79l3.91,6.98c2.16-1.21,3.78-2.77,4.92-4.68,1.11-1.87,1.63-3.86,1.91-5.77l-7.91-1.18ZM83.41,21.68l2.75.54,1.55-7.85-2.75-.54-1.55,7.85ZM82.99,17.64c-.08.45-.18.92-.31,1.52l7.81,1.74c.12-.56.28-1.24.39-1.94l-7.89-1.32ZM77.5,15.8v7.46h8v-7.46h-8ZM85.06,25.08c.96-1.88,1.61-4.07,1.98-6.14l-7.88-1.41c-.27,1.52-.71,2.91-1.22,3.91l7.12,3.64ZM86.74,16.58c-.47-1.03-1.3-2.39-2.29-3.47l-5.91,5.39c.15.17.34.41.52.7.19.29.32.54.39.69l7.28-3.31ZM76.5,27.45h1.22v-8h-1.22v8ZM81.72,23.45v-2.02h-8v2.02h8ZM77.72,17.43h-1.22v8h1.22v-8ZM72.5,21.43v2.02h8v-2.02h-8ZM68.31,21.43v.13h8v-.13h-8ZM68.31,21.56c0,.62,0,1.16-.03,1.69l7.99.4c.04-.76.04-1.5.04-2.09h-8ZM72.28,27.45h1.22v-8h-1.22v8ZM77.5,23.45v-2.02h-8v2.02h8ZM73.5,17.43h-1.18v8h1.18v-8ZM74.9,7.29h-2.05v8h2.05V7.29ZM69.24,9.58c-.42.88-.5,1.13-.79,1.72l7.16,3.58c.28-.56.71-1.54.87-1.87l-7.23-3.42ZM72.02,17.08h2.24v-8h-2.24v8ZM77.96,14.6c.28-.68.54-1.43.76-2.11l-7.63-2.41c-.17.54-.36,1.07-.52,1.47l7.4,3.05ZM72.5,16.44v1.76h8v-1.76h-8ZM76.5,22.2h1.22v-8h-1.22v8ZM81.72,18.2v-1.76h-8v1.76h8ZM77.72,12.44h-1.22v8h1.22v-8ZM68.31,16.44v1.76h8v-1.76h-8ZM72.31,22.2h1.18v-8h-1.18v8ZM77.5,18.2v-1.76h-8v1.76h8ZM73.5,12.44h-1.18v8h1.18v-8ZM92.95,26.23v3.97h8v-3.97h-8ZM96.95,26.2h-5.09v8h5.09v-8ZM87.86,30.2v4.9h8v-4.9h-8ZM91.86,31.1h-4.42v8h4.42v-8ZM91.45,35.1v-4.9h-8v4.9h8ZM87.45,26.2h-5.5v8h5.5v-8ZM85.94,30.2v-3.97h-8v3.97h8ZM81.94,30.23h5.5v-8h-5.5v8ZM91.45,26.23v-2.34h-8v2.34h8ZM87.45,19.9h-2.14v8h2.14v-8ZM81.59,22.41c-.23.57-.5,1.09-.76,1.49l6.76,4.27c.51-.81,1.01-1.77,1.42-2.79l-7.43-2.97ZM86.59,22.82c-.98-.72-2.56-1.49-3.41-1.88l-3.37,7.26c.41.19.87.41,1.28.63.21.11.38.21.53.29.07.04.13.08.17.1.04.03.06.04.06.04l4.75-6.44ZM77.5,24.57v6.34h8v-6.34h-8ZM77.5,30.9c0,.32-.01.54-.03.69-.02.15-.04.18-.02.14.02-.05.07-.18.19-.33.12-.16.26-.27.37-.35l4.3,6.75c2.93-1.86,3.2-4.99,3.2-6.89h-8ZM78.12,30.98s-.02.01-.07.03c-.06.02-.16.05-.33.07-.38.06-.91.08-1.79.08v8c1.76,0,4.11-.03,6.25-1.29l-4.06-6.9ZM79.9,34.69c-.2-1.67-.99-3.94-1.72-5.31l-7.07,3.75c.36.67.78,1.99.84,2.49l7.95-.93ZM74.41,35.25c1.19.07,2.45.07,2.83.07v-8c-.39,0-1.43,0-2.35-.06l-.48,7.99ZM77.24,35.32c.47,0,2.03-.05,3.27-1.36,1.19-1.25,1.21-2.73,1.21-3.16h-8s-.04-1.27.99-2.35c1.09-1.15,2.41-1.13,2.53-1.13v8ZM81.72,30.81v-4h-8v4h8ZM77.72,22.81h-5.66v8h5.66v-8ZM68.08,26.35c-.33,2.89-.96,5.24-1.92,6.7l6.67,4.42c2.04-3.09,2.83-7.01,3.2-10.2l-7.95-.92ZM72.18,32.29c-.59-.53-1.4-1.09-2.06-1.51-.67-.43-1.5-.91-2.2-1.22l-3.25,7.31c.16.07.6.31,1.14.66.25.16.48.32.68.46.1.07.17.13.23.17.06.05.09.07.09.07l5.37-5.93ZM69.63,35.41c1.53-2.32,2.24-4.97,2.6-7.32.36-2.37.4-4.72.4-6.56h-8c0,1.77-.04,3.62-.31,5.36-.27,1.76-.72,3.14-1.37,4.12l6.68,4.41ZM72.63,21.53v-4.96h-8v4.96h8ZM71.27,13.56c-.76-.67-2.04-1.78-3.06-2.42l-4.29,6.75c.4.25,1.22.94,2.06,1.68l5.29-6.01ZM69,17.24c2.8-3.01,4.66-7.47,5.58-11.62l-7.81-1.74c-.74,3.35-2.14,6.3-3.63,7.9l5.86,5.45ZM69.82,8.67l4.1.9,1.71-7.82-4.1-.9-1.71,7.82ZM70.91,4.65c-.2.77-.35,1.32-.53,1.82l7.52,2.73c.33-.91.57-1.83.75-2.53l-7.74-2.02ZM74.14,11.83h2.4V3.83h-2.4v8ZM77.61,11.69l.58-.16-2.14-7.71-.58.16,2.14,7.71ZM75.03,11.09l2.62,1.6,4.16-6.83-2.62-1.6-4.16,6.83ZM75.96,7.95c-.34.97-.87,2.15-1.47,3.42l7.23,3.43c.62-1.3,1.3-2.8,1.79-4.2l-7.55-2.65ZM78.1,17.08h3.39v-8h-3.39v8ZM77.5,13.08v1.63h8v-1.63h-8ZM83.28,18.29c1.6-.8,2.91-1.87,3.86-3.26.94-1.36,1.4-2.79,1.64-4.1l-7.86-1.47c-.11.58-.24.86-.35,1.01-.09.13-.29.37-.87.66l3.58,7.16ZM84.86,6.2h-3.17v8h3.17V6.2ZM85.69,10.2v-3.78h-8v3.78h8ZM81.69,10.42h14.46V2.42h-14.46v8ZM96.15,6.42q-4-.14-4-.14h0s0,0,0,0h0s0,.02,0,.04c0,.02,0,.06,0,.11,0,.09,0,.22-.01.36-.01.29-.03.6-.04.78l7.98.53c.02-.3.04-.69.05-.99,0-.15.01-.29.01-.39,0-.05,0-.09,0-.12,0-.01,0-.03,0-.03h0s0-.01,0-.01h0s0,0-4-.14ZM92.09,7.73c-.06,2.5-.16,4.16-.3,5.26-.07.54-.14.84-.18.97-.04.15,0-.06.24-.38l6.29,4.94c1.09-1.39,1.41-3.2,1.58-4.53.2-1.53.29-3.54.36-6.06l-8-.2ZM91.85,13.59s.05-.06.11-.11c.07-.06.14-.1.21-.14.13-.07.18-.06,0-.02l1.51,7.86c1.44-.28,3.12-.91,4.47-2.65l-6.3-4.93ZM92.26,13.29s0,0-.02,0c-.02,0-.04,0-.07,0-.06,0-.14.01-.24.02-.2.02-.44.03-.73.05l.44,7.99c.5-.03,1.29-.07,1.94-.18l-1.32-7.89ZM91.42,21.37h.45v-8h-.45v8ZM87.86,17.37v2.66h8v-2.66h-8ZM91.86,24.02h4.42v-8h-4.42v8ZM92.28,20.02v3.87h8v-3.87h-8ZM96.28,19.9h-4.42v8h4.42v-8ZM87.86,23.9v2.34h8v-2.34h-8ZM91.86,30.23h5.09v-8h-5.09v8Z"/>
      </g>
      <g>
        <path class="cls-1" d="M6.57,17.34c-.85-1.42-2.69-1.86-4.11-1.01-1.41.85-1.89,2.68-1.04,4.1l11.35,18.89c.85,1.42,2.69,1.86,4.11,1.01,1.41-.85,1.89-2.68,1.04-4.1L6.57,17.34Z"/>
        <path class="cls-4" d="M15.33,41.76c-1.35,0-2.68-.69-3.42-1.93L.57,20.94c-1.13-1.88-.51-4.34,1.38-5.47,1.89-1.14,4.35-.53,5.48,1.35l11.35,18.89c1.13,1.88.51,4.34-1.38,5.47-.65.39-1.36.57-2.06.57ZM4.01,16.89c-.35,0-.71.09-1.03.29-.95.57-1.26,1.79-.69,2.73l11.35,18.89c.56.94,1.79,1.24,2.74.67.95-.57,1.26-1.79.69-2.73L5.71,17.85c-.37-.62-1.03-.96-1.7-.96Z"/>
      </g>
      <g>
        <path class="cls-1" d="M110.85,35.94c-.85,1.42-.38,3.25,1.04,4.1,1.41.85,3.25.41,4.11-1.01l11.35-18.89c.85-1.42.38-3.25-1.04-4.1-1.41-.85-3.25-.41-4.11,1.01l-11.35,18.89Z"/>
        <path class="cls-4" d="M113.43,41.47c-.7,0-1.41-.18-2.06-.57-.91-.55-1.56-1.42-1.82-2.45-.26-1.04-.11-2.11.45-3.03l11.35-18.89c.55-.92,1.42-1.56,2.46-1.81,1.03-.25,2.1-.09,3.02.46,1.89,1.13,2.51,3.59,1.38,5.47l-11.35,18.89c-.75,1.24-2.07,1.93-3.42,1.93ZM124.76,16.61c-.16,0-.32.02-.48.06-.52.13-.95.45-1.22.9l-11.35,18.89c-.27.45-.35.99-.22,1.5.13.52.46.95.91,1.23.95.57,2.17.27,2.74-.67l11.35-18.89c.56-.94.25-2.16-.69-2.73-.32-.19-.67-.29-1.03-.29ZM110.85,35.94h0,0Z"/>
      </g>
      <g>
        <path class="cls-3" d="M124.69,115.15c0,32.59-26.42,59-59,59S6.69,147.74,6.69,115.15s26.42-59,59-59,59,26.42,59,59ZM91.69,115.15c0,15.34-12.07,27-26,27s-26-11.66-26-27,12.07-27,26-27,26,11.66,26,27Z"/>
        <path class="cls-4" d="M65.69,174.15c-32.53,0-59-26.47-59-59s26.47-59,59-59,59,26.47,59,59-26.47,59-59,59ZM65.69,60.15c-30.33,0-55,24.67-55,55s24.67,55,55,55,55-24.67,55-55-24.67-55-55-55Z"/>
        <path class="cls-4" d="M65.69,145.15c-16.54,0-30-13.46-30-30s13.46-30,30-30,30,13.46,30,30-13.46,30-30,30ZM65.69,89.15c-14.34,0-26,11.66-26,26s11.66,26,26,26,26-11.66,26-26-11.66-26-26-26Z"/>
      </g>
    </g>
  </g>
</svg>