<svg width="41" height="28" viewBox="0 0 41 28" fill="none" xmlns="http://www.w3.org/2000/svg">
<path d="M30.3575 21.32C30.5135 21.632 30.6575 21.98 30.7895 22.364C30.9335 22.748 31.0535 23.114 31.1495 23.462C31.3775 22.886 31.5575 22.31 31.6895 21.734C31.8215 21.146 31.9235 20.57 31.9955 20.006C32.0675 19.43 32.1155 18.878 32.1395 18.35C32.1635 17.822 32.1755 17.324 32.1755 16.856V14.3H30.7355V12.428H36.4595L36.7655 12.338L38.1335 12.5C38.0375 13.148 37.9295 13.832 37.8095 14.552C37.6895 15.26 37.5575 15.974 37.4135 16.694H38.8355L39.1775 16.622L40.4015 17.09C40.1375 18.506 39.7775 19.784 39.3215 20.924C38.8775 22.064 38.3375 23.084 37.7015 23.984C38.1215 24.392 38.5775 24.752 39.0695 25.064C39.5735 25.376 40.1315 25.64 40.7435 25.856C40.5395 26.036 40.3115 26.288 40.0595 26.612C39.8195 26.948 39.6335 27.248 39.5015 27.512C38.9015 27.248 38.3495 26.942 37.8455 26.594C37.3535 26.258 36.8975 25.88 36.4775 25.46C35.6975 26.276 34.8275 26.942 33.8675 27.458C33.7955 27.35 33.6995 27.224 33.5795 27.08C33.4715 26.936 33.3515 26.792 33.2195 26.648C33.0995 26.504 32.9735 26.366 32.8415 26.234C32.7095 26.114 32.5895 26.018 32.4815 25.946C33.5255 25.43 34.4495 24.764 35.2535 23.948C34.9415 23.468 34.6535 22.958 34.3895 22.418C34.1375 21.878 33.9095 21.314 33.7055 20.726C33.6215 21.314 33.5075 21.908 33.3635 22.508C33.2315 23.096 33.0515 23.678 32.8235 24.254C32.5955 24.818 32.3255 25.37 32.0135 25.91C31.7015 26.45 31.3295 26.954 30.8975 27.422C30.7295 27.254 30.4955 27.062 30.1955 26.846C29.9075 26.63 29.6435 26.462 29.4035 26.342C29.6795 26.054 29.9195 25.754 30.1235 25.442C30.3395 25.118 30.5375 24.788 30.7175 24.452L29.8535 24.758C29.7695 24.35 29.6375 23.87 29.4575 23.318C29.2895 22.766 29.1095 22.256 28.9175 21.788L30.3575 21.32ZM24.3815 18.98L25.6415 18.926C25.7735 18.758 25.8995 18.584 26.0195 18.404C26.1515 18.224 26.2895 18.032 26.4335 17.828C26.1815 17.456 25.8635 17.06 25.4795 16.64C25.1075 16.22 24.7475 15.836 24.3995 15.488L25.3715 14.084C25.4315 14.144 25.4975 14.204 25.5695 14.264C25.6415 14.324 25.7075 14.384 25.7675 14.444C26.0075 13.964 26.2415 13.46 26.4695 12.932C26.6975 12.392 26.8835 11.894 27.0275 11.438L28.7915 12.104C28.4795 12.692 28.1555 13.298 27.8195 13.922C27.4955 14.534 27.1775 15.08 26.8655 15.56C26.9735 15.68 27.0755 15.8 27.1715 15.92C27.2675 16.028 27.3635 16.136 27.4595 16.244C27.7475 15.752 28.0235 15.272 28.2875 14.804C28.5515 14.324 28.7855 13.874 28.9895 13.454L30.6635 14.228C30.1835 14.984 29.6615 15.77 29.0975 16.586C28.5335 17.402 27.9815 18.158 27.4415 18.854L29.2955 18.764C29.2115 18.56 29.1155 18.356 29.0075 18.152C28.9115 17.948 28.8155 17.75 28.7195 17.558L30.0515 16.982C30.2195 17.27 30.3875 17.576 30.5555 17.9C30.7235 18.224 30.8735 18.548 31.0055 18.872C31.1375 19.196 31.2515 19.508 31.3475 19.808C31.4555 20.108 31.5335 20.384 31.5815 20.636L30.1235 21.284C30.0635 20.996 29.9915 20.696 29.9075 20.384L28.8095 20.474V27.512H27.0455V20.6C26.5895 20.624 26.1515 20.648 25.7315 20.672C25.3115 20.696 24.9155 20.72 24.5435 20.744L24.3815 18.98ZM33.9395 14.3V14.966C34.1555 16.442 34.4555 17.81 34.8395 19.07C35.2355 20.33 35.7695 21.458 36.4415 22.454C36.8135 21.902 37.1435 21.296 37.4315 20.636C37.7195 19.976 37.9655 19.268 38.1695 18.512H37.0355L36.9095 19.178L35.0735 18.98C35.2415 18.26 35.4035 17.48 35.5595 16.64C35.7155 15.8 35.8535 15.02 35.9735 14.3H33.9395ZM24.2015 25.478C24.4535 24.974 24.6515 24.368 24.7955 23.66C24.9395 22.94 25.0475 22.22 25.1195 21.5L26.8115 21.788C26.7155 22.604 26.5775 23.408 26.3975 24.2C26.2295 24.992 26.0195 25.664 25.7675 26.216C25.5875 26.108 25.3355 25.982 25.0115 25.838C24.6995 25.682 24.4295 25.562 24.2015 25.478Z" fill="black"/>
<path fill-rule="evenodd" clip-rule="evenodd" d="M9.71643 19.6195C10.8466 18.6445 12.4028 17.738 14.2568 16.9688L14.2617 16.9667C18.464 15.1975 20.6067 11.0483 19.85 7.2569L19.8487 7.25088C18.9675 2.98612 15.1249 0.116692 10.1528 0.000959496L10.1404 0.000818287C7.58192 -0.0282489 5.3574 0.717441 3.62795 2.17949C1.90779 3.63368 0.750033 5.73422 0.187904 8.30356L0 9.16241L5.47102 10.6886L5.74025 9.76075C6.63793 6.66719 8.77316 5.69992 10.2405 5.77773L10.2447 5.77793C11.1919 5.82428 12.0984 6.07932 12.7718 6.50077C13.4303 6.91286 13.8382 7.46001 13.9324 8.14299L13.9334 8.15014L13.9345 8.15727C14.1507 9.56025 13.4216 11.2678 11.5022 12.097C8.72611 13.2867 5.52558 15.1769 3.86694 17.346L3.86207 17.3524L3.85731 17.3589C1.96067 19.9279 1.44792 23.1868 1.44792 25.8252V26.7616L19.8118 27V21.6512L8.16522 21.4454C8.49528 20.8423 9.01044 20.2286 9.71643 19.6195ZM11.2963 13.2345C11.5022 13.1403 11.7073 13.0496 11.9109 12.9623C12.0571 12.8992 12.1978 12.8318 12.3332 12.7603C12.1978 12.8318 12.0571 12.8992 11.9109 12.9624C11.7073 13.0496 11.5022 13.1403 11.2963 13.2345ZM18.8172 26.0378H18.8172V22.5829L6.78682 22.3703C6.84489 22.0517 6.94269 21.7366 7.07739 21.4262C6.94268 21.7366 6.84487 22.0517 6.7868 22.3703L18.8172 22.583V26.0378ZM6.06542 6.91536C5.53519 7.59388 5.0882 8.45132 4.78174 9.50744L4.78175 9.50744C4.80789 9.41734 4.83506 9.32868 4.86322 9.24145C5.16508 8.30632 5.58043 7.53599 6.06542 6.91536ZM4.22958 2.93936C5.76198 1.61834 7.75965 0.922988 10.1286 0.949901C14.6957 1.05621 18.0932 3.66068 18.8729 7.4345C19.1236 8.69023 19.0139 9.99827 18.5792 11.2269C19.0139 9.99828 19.1235 8.69023 18.8729 7.43451C18.0932 3.66069 14.6957 1.05622 10.1286 0.949917C7.75964 0.923004 5.76198 1.61835 4.22958 2.93936ZM13.8602 16.0983C13.8602 16.0983 13.8602 16.0984 13.8602 16.0984C13.6514 16.185 13.4456 16.2736 13.2432 16.3639" fill="#02BFB7"/>
<path fill-rule="evenodd" clip-rule="evenodd" d="M8.77474 13.4385L16.233 15.8637C19.1122 13.7886 20.4772 10.3998 19.85 7.2569L19.8487 7.25088C18.9675 2.98612 15.1249 0.116692 10.1528 0.000959496L10.1404 0.000818287C7.58192 -0.0282489 5.3574 0.71744 3.62795 2.17949C1.90779 3.63368 0.750033 5.73422 0.187904 8.30355L0 9.16241L5.47102 10.6886L5.74025 9.76075C6.63793 6.66719 8.77316 5.69992 10.2405 5.77773L10.2447 5.77793C11.1919 5.82428 12.0984 6.07932 12.7718 6.50077C13.4303 6.91286 13.8382 7.46001 13.9324 8.14299L13.9334 8.15014L13.9345 8.15727C14.1507 9.56025 13.4216 11.2678 11.5022 12.097C10.615 12.4772 9.68446 12.929 8.77474 13.4385Z" fill="#FCC800"/>
<path fill-rule="evenodd" clip-rule="evenodd" d="M10.0253 4.04791C9.64783 4.74537 8.88584 5.22211 8.00729 5.22211C6.75348 5.22211 5.73706 4.25111 5.73706 3.05332C5.73706 1.85552 6.75348 0.884521 8.00729 0.884521C8.88584 0.884521 9.64784 1.36127 10.0253 2.05873C10.4027 1.36127 11.1647 0.884529 12.0432 0.884529C13.297 0.884529 14.3135 1.85553 14.3135 3.05333C14.3135 4.25112 13.297 5.22212 12.0432 5.22212C11.1647 5.22212 10.4027 4.74537 10.0253 4.04791Z" fill="white"/>
<ellipse cx="6.74605" cy="2.81224" rx="1.00899" ry="0.963909" fill="#183153"/>
<ellipse cx="10.7819" cy="2.81224" rx="1.00899" ry="0.963909" fill="#183153"/>
</svg>
