<svg width="166" height="228" viewBox="0 0 166 228" fill="none" xmlns="http://www.w3.org/2000/svg">
<mask id="path-1-outside-1_36_934" maskUnits="userSpaceOnUse" x="48" y="1" width="71" height="43" fill="black">
<rect fill="white" x="48" y="1" width="71" height="43"/>
<path d="M70.552 31.408H81.816V35.952H52.28V31.408H55.992V17.552H60.856V31.408H65.592V13.104H53.304V8.56H80.984V13.104H70.552V19.312H79.128V23.856H70.552V31.408ZM103.896 21.872H104.76V19.216H107.032C106.968 18.064 106.584 16.496 106.008 15.504C106.872 15.6 107.544 15.632 107.96 15.632C108.312 15.632 108.568 15.568 108.792 15.28C109.016 14.992 109.176 14.096 109.272 12.048H106.328C105.848 15.28 104.696 17.808 101.496 19.6L104.248 20.144C104.152 20.72 104.024 21.296 103.896 21.872ZM98.808 17.648V25.104C99.544 23.664 100.088 21.872 100.408 20.08C100.088 19.376 99.48 18.384 98.808 17.648ZM93.816 25.296H95.032V23.28H93.816V25.296ZM89.624 23.28V23.408C89.624 24.016 89.624 24.656 89.592 25.296H90.808V23.28H89.624ZM92.216 13.136H90.168C89.88 13.744 89.624 14.352 89.336 14.928H91.576C91.8 14.384 92.024 13.744 92.216 13.136ZM93.816 18.288V20.048H95.032V18.288H93.816ZM89.624 18.288V20.048H90.808V18.288H89.624ZM114.264 28.08V32.048H109.176V36.944H104.76V32.048H99.256V28.08H104.76V25.744H102.616C102.296 26.544 101.912 27.28 101.528 27.888C100.92 27.44 99.704 26.832 98.808 26.416V32.752C98.808 34.448 98.52 35.6 97.464 36.272C96.376 36.912 95.064 37.008 93.24 37.008C93.112 35.92 92.504 34.128 91.96 33.104C93.016 33.168 94.168 33.168 94.552 33.168C94.904 33.168 95.032 33.04 95.032 32.656V28.656H89.368C89.016 31.696 88.312 34.832 86.808 37.104C86.136 36.496 84.472 35.44 83.608 35.056C85.784 31.76 85.944 26.992 85.944 23.376V18.416C85.144 17.712 84.088 16.816 83.384 16.368C85.528 14.064 87.16 10.352 87.992 6.608L92.088 7.504C91.896 8.24 91.704 8.976 91.448 9.68H93.848L94.424 9.52L97.048 11.12C96.632 12.304 96.024 13.648 95.416 14.928H98.808V16.56C100.984 15.472 101.816 13.936 102.168 12.048H99V8.272H113.464C113.464 8.272 113.432 9.2 113.4 9.68C113.272 14.704 113.016 17.008 112.312 17.904C111.736 18.64 111.064 18.928 110.232 19.088C109.848 19.152 109.304 19.184 108.728 19.216H109.176V21.872H113.592V25.744H109.176V28.08H114.264Z"/>
</mask>
<path d="M70.552 31.408H81.816V35.952H52.28V31.408H55.992V17.552H60.856V31.408H65.592V13.104H53.304V8.56H80.984V13.104H70.552V19.312H79.128V23.856H70.552V31.408ZM103.896 21.872H104.76V19.216H107.032C106.968 18.064 106.584 16.496 106.008 15.504C106.872 15.6 107.544 15.632 107.96 15.632C108.312 15.632 108.568 15.568 108.792 15.28C109.016 14.992 109.176 14.096 109.272 12.048H106.328C105.848 15.28 104.696 17.808 101.496 19.6L104.248 20.144C104.152 20.72 104.024 21.296 103.896 21.872ZM98.808 17.648V25.104C99.544 23.664 100.088 21.872 100.408 20.08C100.088 19.376 99.48 18.384 98.808 17.648ZM93.816 25.296H95.032V23.28H93.816V25.296ZM89.624 23.28V23.408C89.624 24.016 89.624 24.656 89.592 25.296H90.808V23.28H89.624ZM92.216 13.136H90.168C89.88 13.744 89.624 14.352 89.336 14.928H91.576C91.8 14.384 92.024 13.744 92.216 13.136ZM93.816 18.288V20.048H95.032V18.288H93.816ZM89.624 18.288V20.048H90.808V18.288H89.624ZM114.264 28.08V32.048H109.176V36.944H104.76V32.048H99.256V28.08H104.76V25.744H102.616C102.296 26.544 101.912 27.28 101.528 27.888C100.92 27.44 99.704 26.832 98.808 26.416V32.752C98.808 34.448 98.52 35.6 97.464 36.272C96.376 36.912 95.064 37.008 93.24 37.008C93.112 35.92 92.504 34.128 91.96 33.104C93.016 33.168 94.168 33.168 94.552 33.168C94.904 33.168 95.032 33.04 95.032 32.656V28.656H89.368C89.016 31.696 88.312 34.832 86.808 37.104C86.136 36.496 84.472 35.44 83.608 35.056C85.784 31.76 85.944 26.992 85.944 23.376V18.416C85.144 17.712 84.088 16.816 83.384 16.368C85.528 14.064 87.16 10.352 87.992 6.608L92.088 7.504C91.896 8.24 91.704 8.976 91.448 9.68H93.848L94.424 9.52L97.048 11.12C96.632 12.304 96.024 13.648 95.416 14.928H98.808V16.56C100.984 15.472 101.816 13.936 102.168 12.048H99V8.272H113.464C113.464 8.272 113.432 9.2 113.4 9.68C113.272 14.704 113.016 17.008 112.312 17.904C111.736 18.64 111.064 18.928 110.232 19.088C109.848 19.152 109.304 19.184 108.728 19.216H109.176V21.872H113.592V25.744H109.176V28.08H114.264Z" fill="#4DCD9D"/>
<path d="M70.552 31.408H66.552V35.408H70.552V31.408ZM81.816 31.408H85.816V27.408H81.816V31.408ZM81.816 35.952V39.952H85.816V35.952H81.816ZM52.28 35.952H48.28V39.952H52.28V35.952ZM52.28 31.408V27.408H48.28V31.408H52.28ZM55.992 31.408V35.408H59.992V31.408H55.992ZM55.992 17.552V13.552H51.992V17.552H55.992ZM60.856 17.552H64.856V13.552H60.856V17.552ZM60.856 31.408H56.856V35.408H60.856V31.408ZM65.592 31.408V35.408H69.592V31.408H65.592ZM65.592 13.104H69.592V9.104H65.592V13.104ZM53.304 13.104H49.304V17.104H53.304V13.104ZM53.304 8.56V4.56H49.304V8.56H53.304ZM80.984 8.56H84.984V4.56H80.984V8.56ZM80.984 13.104V17.104H84.984V13.104H80.984ZM70.552 13.104V9.104H66.552V13.104H70.552ZM70.552 19.312H66.552V23.312H70.552V19.312ZM79.128 19.312H83.128V15.312H79.128V19.312ZM79.128 23.856V27.856H83.128V23.856H79.128ZM70.552 23.856V19.856H66.552V23.856H70.552ZM70.552 35.408H81.816V27.408H70.552V35.408ZM77.816 31.408V35.952H85.816V31.408H77.816ZM81.816 31.952H52.28V39.952H81.816V31.952ZM56.28 35.952V31.408H48.28V35.952H56.28ZM52.28 35.408H55.992V27.408H52.28V35.408ZM59.992 31.408V17.552H51.992V31.408H59.992ZM55.992 21.552H60.856V13.552H55.992V21.552ZM56.856 17.552V31.408H64.856V17.552H56.856ZM60.856 35.408H65.592V27.408H60.856V35.408ZM69.592 31.408V13.104H61.592V31.408H69.592ZM65.592 9.104H53.304V17.104H65.592V9.104ZM57.304 13.104V8.56H49.304V13.104H57.304ZM53.304 12.56H80.984V4.56H53.304V12.56ZM76.984 8.56V13.104H84.984V8.56H76.984ZM80.984 9.104H70.552V17.104H80.984V9.104ZM66.552 13.104V19.312H74.552V13.104H66.552ZM70.552 23.312H79.128V15.312H70.552V23.312ZM75.128 19.312V23.856H83.128V19.312H75.128ZM79.128 19.856H70.552V27.856H79.128V19.856ZM66.552 23.856V31.408H74.552V23.856H66.552ZM103.896 21.872L99.9913 21.0043L98.9096 25.872H103.896V21.872ZM104.76 21.872V25.872H108.76V21.872H104.76ZM104.76 19.216V15.216H100.76V19.216H104.76ZM107.032 19.216V23.216H111.26L111.026 18.9941L107.032 19.216ZM106.008 15.504L106.45 11.5285L98.5656 10.6525L102.549 17.5125L106.008 15.504ZM108.792 15.28L111.949 17.7358L111.949 17.7358L108.792 15.28ZM109.272 12.048L113.268 12.2353L113.464 8.048H109.272V12.048ZM106.328 12.048V8.048H102.878L102.371 11.4604L106.328 12.048ZM101.496 19.6L99.5416 16.11L90.0638 21.4175L100.72 23.5241L101.496 19.6ZM104.248 20.144L108.194 20.8016L108.832 16.9727L105.024 16.2199L104.248 20.144ZM98.808 17.648L101.762 14.9509L94.808 7.33471V17.648H98.808ZM98.808 25.104H94.808L102.37 26.9244L98.808 25.104ZM100.408 20.08L104.346 20.7832L104.565 19.5579L104.049 18.4248L100.408 20.08ZM93.816 25.296H89.816V29.296H93.816V25.296ZM95.032 25.296V29.296H99.032V25.296H95.032ZM95.032 23.28H99.032V19.28H95.032V23.28ZM93.816 23.28V19.28H89.816V23.28H93.816ZM89.624 23.28V19.28H85.624V23.28H89.624ZM89.592 25.296L85.597 25.0962L85.387 29.296H89.592V25.296ZM90.808 25.296V29.296H94.808V25.296H90.808ZM90.808 23.28H94.808V19.28H90.808V23.28ZM92.216 13.136L96.0303 14.3405L97.6739 9.136H92.216V13.136ZM90.168 13.136V9.136H87.6367L86.5531 11.4237L90.168 13.136ZM89.336 14.928L85.7583 13.1391L82.8639 18.928H89.336V14.928ZM91.576 14.928V18.928H94.2548L95.2747 16.451L91.576 14.928ZM93.816 18.288V14.288H89.816V18.288H93.816ZM93.816 20.048H89.816V24.048H93.816V20.048ZM95.032 20.048V24.048H99.032V20.048H95.032ZM95.032 18.288H99.032V14.288H95.032V18.288ZM89.624 18.288V14.288H85.624V18.288H89.624ZM89.624 20.048H85.624V24.048H89.624V20.048ZM90.808 20.048V24.048H94.808V20.048H90.808ZM90.808 18.288H94.808V14.288H90.808V18.288ZM114.264 28.08H118.264V24.08H114.264V28.08ZM114.264 32.048V36.048H118.264V32.048H114.264ZM109.176 32.048V28.048H105.176V32.048H109.176ZM109.176 36.944V40.944H113.176V36.944H109.176ZM104.76 36.944H100.76V40.944H104.76V36.944ZM104.76 32.048H108.76V28.048H104.76V32.048ZM99.256 32.048H95.256V36.048H99.256V32.048ZM99.256 28.08V24.08H95.256V28.08H99.256ZM104.76 28.08V32.08H108.76V28.08H104.76ZM104.76 25.744H108.76V21.744H104.76V25.744ZM102.616 25.744V21.744H99.9079L98.9021 24.2584L102.616 25.744ZM101.528 27.888L99.1552 31.1082L102.615 33.6576L104.91 30.024L101.528 27.888ZM98.808 26.416L100.492 22.788L94.808 20.1488V26.416H98.808ZM97.464 36.272L99.4921 39.7197L99.5524 39.6842L99.6115 39.6466L97.464 36.272ZM93.24 37.008L89.2674 37.4754L89.683 41.008H93.24V37.008ZM91.96 33.104L92.202 29.1113L85.0802 28.6797L88.4275 34.9806L91.96 33.104ZM95.032 28.656H99.032V24.656H95.032V28.656ZM89.368 28.656V24.656H85.8044L85.3945 28.1959L89.368 28.656ZM86.808 37.104L84.1243 40.0701L87.5749 43.1921L90.1434 39.3119L86.808 37.104ZM83.608 35.056L80.2699 32.8522L77.668 36.7933L81.9834 38.7112L83.608 35.056ZM85.944 18.416H89.944V16.6077L88.5865 15.4131L85.944 18.416ZM83.384 16.368L80.4557 13.6431L77.1812 17.162L81.2365 19.7426L83.384 16.368ZM87.992 6.608L88.8468 2.7004L84.9521 1.84844L84.0873 5.74028L87.992 6.608ZM92.088 7.504L95.9585 8.51368L97.0092 4.48592L92.9428 3.5964L92.088 7.504ZM91.448 9.68L87.6888 8.31302L85.7372 13.68H91.448V9.68ZM93.848 9.68V13.68H94.3932L94.9186 13.5341L93.848 9.68ZM94.424 9.52L96.5064 6.10481L95.0251 5.20157L93.3534 5.66593L94.424 9.52ZM97.048 11.12L100.822 12.4459L101.895 9.39071L99.1304 7.70481L97.048 11.12ZM95.416 14.928L91.8029 13.2118L89.0877 18.928H95.416V14.928ZM98.808 14.928H102.808V10.928H98.808V14.928ZM98.808 16.56H94.808V23.0321L100.597 20.1377L98.808 16.56ZM102.168 12.048L106.1 12.7811L106.983 8.048H102.168V12.048ZM99 12.048H95V16.048H99V12.048ZM99 8.272V4.272H95V8.272H99ZM113.464 8.272L117.462 8.40985L117.604 4.272H113.464V8.272ZM113.4 9.68L109.409 9.41393L109.403 9.49594L109.401 9.57812L113.4 9.68ZM112.312 17.904L109.167 15.4327L109.162 15.4388L112.312 17.904ZM110.232 19.088L110.89 23.0336L110.939 23.0254L110.987 23.016L110.232 19.088ZM108.728 19.216L108.506 15.2222L108.728 23.216V19.216ZM109.176 19.216H113.176V15.216H109.176V19.216ZM109.176 21.872H105.176V25.872H109.176V21.872ZM113.592 21.872H117.592V17.872H113.592V21.872ZM113.592 25.744V29.744H117.592V25.744H113.592ZM109.176 25.744V21.744H105.176V25.744H109.176ZM109.176 28.08H105.176V32.08H109.176V28.08ZM103.896 25.872H104.76V17.872H103.896V25.872ZM108.76 21.872V19.216H100.76V21.872H108.76ZM104.76 23.216H107.032V15.216H104.76V23.216ZM111.026 18.9941C110.937 17.3884 110.438 15.1667 109.467 13.4955L102.549 17.5125C102.73 17.8253 102.999 18.7396 103.038 19.4379L111.026 18.9941ZM105.566 19.4795C106.546 19.5884 107.368 19.632 107.96 19.632V11.632C107.72 11.632 107.198 11.6116 106.45 11.5285L105.566 19.4795ZM107.96 19.632C108.337 19.632 109.052 19.6061 109.853 19.3002C110.741 18.9606 111.437 18.3944 111.949 17.7358L105.635 12.8242C105.923 12.4536 106.379 12.0634 106.995 11.8278C107.524 11.6259 107.935 11.632 107.96 11.632V19.632ZM111.949 17.7358C112.435 17.111 112.662 16.4732 112.772 16.1144C112.897 15.7083 112.976 15.3006 113.033 14.9368C113.146 14.2097 113.217 13.3069 113.268 12.2353L105.276 11.8607C105.231 12.8371 105.174 13.4062 105.127 13.7112C105.104 13.8634 105.095 13.8617 105.124 13.7686C105.14 13.7173 105.176 13.6064 105.244 13.4595C105.31 13.3168 105.432 13.0852 105.635 12.8242L111.949 17.7358ZM109.272 8.048H106.328V16.048H109.272V8.048ZM102.371 11.4604C102.175 12.7858 101.88 13.6686 101.492 14.3221C101.134 14.9265 100.581 15.5277 99.5416 16.11L103.45 23.09C105.611 21.8803 107.234 20.3215 108.372 18.4059C109.48 16.5394 110.001 14.5422 110.285 12.6356L102.371 11.4604ZM100.72 23.5241L103.472 24.0681L105.024 16.2199L102.272 15.6759L100.72 23.5241ZM100.302 19.4864C100.227 19.9389 100.123 20.41 99.9913 21.0043L107.801 22.7397C107.925 22.182 108.077 21.5011 108.194 20.8016L100.302 19.4864ZM94.808 17.648V25.104H102.808V17.648H94.808ZM102.37 26.9244C103.331 25.0437 103.976 22.8517 104.346 20.7832L96.4703 19.3768C96.1997 20.8923 95.757 22.2843 95.2463 23.2836L102.37 26.9244ZM104.049 18.4248C103.581 17.3932 102.753 16.0367 101.762 14.9509L95.8541 20.3451C96.0052 20.5106 96.192 20.7548 96.3784 21.0438C96.5647 21.3328 96.6985 21.5856 96.7665 21.7352L104.049 18.4248ZM93.816 29.296H95.032V21.296H93.816V29.296ZM99.032 25.296V23.28H91.032V25.296H99.032ZM95.032 19.28H93.816V27.28H95.032V19.28ZM89.816 23.28V25.296H97.816V23.28H89.816ZM85.624 23.28V23.408H93.624V23.28H85.624ZM85.624 23.408C85.624 24.0313 85.6232 24.5722 85.597 25.0962L93.587 25.4958C93.6248 24.7398 93.624 24.0007 93.624 23.408H85.624ZM89.592 29.296H90.808V21.296H89.592V29.296ZM94.808 25.296V23.28H86.808V25.296H94.808ZM90.808 19.28H89.624V27.28H90.808V19.28ZM92.216 9.136H90.168V17.136H92.216V9.136ZM86.5531 11.4237C86.1342 12.308 86.0524 12.551 85.7583 13.1391L92.9137 16.7169C93.1956 16.153 93.6258 15.18 93.783 14.8483L86.5531 11.4237ZM89.336 18.928H91.576V10.928H89.336V18.928ZM95.2747 16.451C95.5546 15.7713 95.8163 15.0184 96.0303 14.3405L88.4017 11.9315C88.2317 12.4696 88.0454 12.9967 87.8773 13.405L95.2747 16.451ZM89.816 18.288V20.048H97.816V18.288H89.816ZM93.816 24.048H95.032V16.048H93.816V24.048ZM99.032 20.048V18.288H91.032V20.048H99.032ZM95.032 14.288H93.816V22.288H95.032V14.288ZM85.624 18.288V20.048H93.624V18.288H85.624ZM89.624 24.048H90.808V16.048H89.624V24.048ZM94.808 20.048V18.288H86.808V20.048H94.808ZM90.808 14.288H89.624V22.288H90.808V14.288ZM110.264 28.08V32.048H118.264V28.08H110.264ZM114.264 28.048H109.176V36.048H114.264V28.048ZM105.176 32.048V36.944H113.176V32.048H105.176ZM109.176 32.944H104.76V40.944H109.176V32.944ZM108.76 36.944V32.048H100.76V36.944H108.76ZM104.76 28.048H99.256V36.048H104.76V28.048ZM103.256 32.048V28.08H95.256V32.048H103.256ZM99.256 32.08H104.76V24.08H99.256V32.08ZM108.76 28.08V25.744H100.76V28.08H108.76ZM104.76 21.744H102.616V29.744H104.76V21.744ZM98.9021 24.2584C98.6738 24.8291 98.4015 25.3476 98.146 25.752L104.91 30.024C105.423 29.2124 105.918 28.2589 106.33 27.2296L98.9021 24.2584ZM103.901 24.6678C102.918 23.9439 101.337 23.1801 100.492 22.788L97.1236 30.044C97.5302 30.2328 97.9932 30.4578 98.4071 30.6765C98.6134 30.7856 98.7909 30.8843 98.9335 30.9688C99.004 31.0105 99.059 31.0447 99.0999 31.0712C99.1422 31.0986 99.1587 31.1108 99.1552 31.1082L103.901 24.6678ZM94.808 26.416V32.752H102.808V26.416H94.808ZM94.808 32.752C94.808 33.0705 94.794 33.2902 94.7759 33.4392C94.7578 33.5877 94.7409 33.6195 94.7558 33.5769C94.7739 33.5249 94.8275 33.3967 94.9446 33.2439C95.0654 33.0863 95.2019 32.9703 95.3165 32.8974L99.6115 39.6466C102.541 37.7825 102.808 34.6582 102.808 32.752H94.808ZM95.4359 32.8243C95.434 32.8254 95.4163 32.8363 95.3647 32.853C95.3087 32.8712 95.2062 32.8985 95.0335 32.9244C94.6543 32.9814 94.1213 33.008 93.24 33.008V41.008C94.9956 41.008 97.3537 40.9776 99.4921 39.7197L95.4359 32.8243ZM97.2126 36.5406C97.0161 34.8705 96.2232 32.6028 95.4925 31.2274L88.4275 34.9806C88.7848 35.6532 89.2079 36.9695 89.2674 37.4754L97.2126 36.5406ZM91.718 37.0967C92.9095 37.1689 94.1729 37.168 94.552 37.168V29.168C94.1631 29.168 93.1225 29.1671 92.202 29.1113L91.718 37.0967ZM94.552 37.168C95.0266 37.168 96.579 37.1215 97.824 35.811C99.0104 34.5622 99.032 33.0773 99.032 32.656H91.032C91.032 32.6187 90.9896 31.3898 92.024 30.301C93.117 29.1505 94.4294 29.168 94.552 29.168V37.168ZM99.032 32.656V28.656H91.032V32.656H99.032ZM95.032 24.656H89.368V32.656H95.032V24.656ZM85.3945 28.1959C85.0599 31.086 84.4375 33.4384 83.4726 34.8961L90.1434 39.3119C92.1865 36.2256 92.9721 32.306 93.3415 29.1161L85.3945 28.1959ZM89.4917 34.1379C88.901 33.6035 88.0888 33.0434 87.4318 32.6241C86.761 32.196 85.934 31.7125 85.2326 31.4008L81.9834 38.7112C82.146 38.7835 82.583 39.02 83.1282 39.3679C83.3789 39.5279 83.6127 39.6861 83.8054 39.8252C83.9011 39.8942 83.9787 39.9529 84.0381 39.9996C84.1003 40.0486 84.1261 40.0717 84.1243 40.0701L89.4917 34.1379ZM86.9461 37.2598C88.4786 34.9386 89.1899 32.2872 89.5467 29.9361C89.9065 27.5654 89.944 25.217 89.944 23.376H81.944C81.944 25.151 81.9015 26.9946 81.6373 28.7359C81.3701 30.4968 80.9134 31.8774 80.2699 32.8522L86.9461 37.2598ZM89.944 23.376V18.416H81.944V23.376H89.944ZM88.5865 15.4131C87.828 14.7457 86.5419 13.6363 85.5315 12.9934L81.2365 19.7426C81.6341 19.9957 82.46 20.6783 83.3015 21.4189L88.5865 15.4131ZM86.3123 19.0929C89.113 16.0832 90.9762 11.6183 91.8967 7.47572L84.0873 5.74028C83.3438 9.08568 81.943 12.0448 80.4557 13.6431L86.3123 19.0929ZM87.1372 10.5156L91.2332 11.4116L92.9428 3.5964L88.8468 2.7004L87.1372 10.5156ZM88.2175 6.49431C88.0171 7.26278 87.8699 7.81508 87.6888 8.31302L95.2072 11.047C95.5381 10.1369 95.7749 9.21722 95.9585 8.51368L88.2175 6.49431ZM91.448 13.68H93.848V5.68H91.448V13.68ZM94.9186 13.5341L95.4946 13.3741L93.3534 5.66593L92.7774 5.82593L94.9186 13.5341ZM92.3416 12.9352L94.9656 14.5352L99.1304 7.70481L96.5064 6.10481L92.3416 12.9352ZM93.2742 9.79406C92.9329 10.7652 92.4033 11.9478 91.8029 13.2118L99.0291 16.6442C99.6447 15.3482 100.331 13.8428 100.822 12.4459L93.2742 9.79406ZM95.416 18.928H98.808V10.928H95.416V18.928ZM94.808 14.928V16.56H102.808V14.928H94.808ZM100.597 20.1377C102.201 19.3354 103.503 18.263 104.46 16.8826C105.4 15.5254 105.857 14.088 106.1 12.7811L98.2358 11.3149C98.1274 11.8959 97.9917 12.1706 97.8845 12.3254C97.7933 12.457 97.5905 12.6966 97.0191 12.9823L100.597 20.1377ZM102.168 8.048H99V16.048H102.168V8.048ZM103 12.048V8.272H95V12.048H103ZM99 12.272H113.464V4.272H99V12.272ZM113.464 8.272C109.466 8.13415 109.466 8.13412 109.466 8.1341C109.466 8.13409 109.466 8.13407 109.466 8.13406C109.466 8.13405 109.466 8.13405 109.466 8.13406C109.466 8.13408 109.466 8.13417 109.466 8.1343C109.466 8.13457 109.466 8.13506 109.466 8.13577C109.466 8.13717 109.466 8.13944 109.466 8.14251C109.466 8.14867 109.466 8.15807 109.465 8.17039C109.464 8.19503 109.463 8.23127 109.461 8.27645C109.458 8.36703 109.453 8.49245 109.447 8.63176C109.435 8.92402 109.421 9.23023 109.409 9.41393L117.391 9.94607C117.411 9.64976 117.429 9.25198 117.441 8.96024C117.447 8.80755 117.452 8.67097 117.456 8.57254C117.458 8.52322 117.459 8.48322 117.46 8.45524C117.461 8.44124 117.461 8.43024 117.461 8.42256C117.461 8.41873 117.461 8.41572 117.461 8.41359C117.462 8.41252 117.462 8.41167 117.462 8.41105C117.462 8.41073 117.462 8.41048 117.462 8.41028C117.462 8.41018 117.462 8.41009 117.462 8.41002C117.462 8.40998 117.462 8.40994 117.462 8.40992C117.462 8.40988 117.462 8.40985 113.464 8.272ZM109.401 9.57812C109.338 12.0803 109.244 13.7358 109.104 14.8335C109.035 15.3769 108.967 15.6724 108.927 15.8077C108.882 15.9597 108.918 15.7498 109.167 15.4327L115.457 20.3753C116.551 18.9828 116.87 17.176 117.04 15.8465C117.236 14.3122 117.334 12.3037 117.399 9.78188L109.401 9.57812ZM109.162 15.4388C109.174 15.4229 109.211 15.3793 109.275 15.3249C109.341 15.2697 109.412 15.2219 109.481 15.1849C109.615 15.1137 109.662 15.1243 109.477 15.16L110.987 23.016C112.424 22.7398 114.105 22.1028 115.462 20.3692L109.162 15.4388ZM109.574 15.1424C109.575 15.1424 109.567 15.1437 109.55 15.1459C109.533 15.1482 109.51 15.151 109.48 15.1543C109.419 15.1611 109.34 15.1684 109.24 15.1762C109.036 15.1922 108.798 15.2059 108.506 15.2222L108.95 23.2098C109.448 23.1821 110.241 23.1416 110.89 23.0336L109.574 15.1424ZM108.728 23.216H109.176V15.216H108.728V23.216ZM105.176 19.216V21.872H113.176V19.216H105.176ZM109.176 25.872H113.592V17.872H109.176V25.872ZM109.592 21.872V25.744H117.592V21.872H109.592ZM113.592 21.744H109.176V29.744H113.592V21.744ZM105.176 25.744V28.08H113.176V25.744H105.176ZM109.176 32.08H114.264V24.08H109.176V32.08Z" fill="white" mask="url(#path-1-outside-1_36_934)"/>
<path d="M23.8784 19.1846C23.0258 17.7656 21.1839 17.3238 19.7706 18.1729C18.3574 19.0221 17.8828 20.8558 18.7354 22.2748L30.0839 41.1619C30.9365 42.5809 32.7785 43.0228 34.1917 42.1736C35.6049 41.3244 36.0795 39.4907 35.2269 38.0717L23.8784 19.1846Z" fill="#4DCD9D" stroke="white" stroke-width="2" stroke-linecap="round"/>
<path d="M128.164 37.7853C127.311 39.2043 127.786 41.0381 129.199 41.8872C130.613 42.7364 132.454 42.2946 133.307 40.8755L144.656 21.9885C145.508 20.5695 145.034 18.7357 143.62 17.8866C142.207 17.0374 140.365 17.4792 139.513 18.8983L128.164 37.7853Z" fill="#4DCD9D" stroke="white" stroke-width="2" stroke-linecap="round"/>
<g filter="url(#filter0_d_36_934)">
<path fill-rule="evenodd" clip-rule="evenodd" d="M142 117C142 149.585 115.585 176 83 176C50.4152 176 24 149.585 24 117C24 84.4152 50.4152 58 83 58C115.585 58 142 84.4152 142 117ZM109 117C109 132.342 96.934 144 83 144C69.066 144 57 132.342 57 117C57 101.658 69.066 90 83 90C96.934 90 109 101.658 109 117Z" fill="#4DCD9D"/>
<circle cx="83" cy="117" r="57" stroke="white" stroke-width="4"/>
<circle cx="83" cy="117" r="28" stroke="white" stroke-width="4"/>
</g>
<defs>
<filter id="filter0_d_36_934" x="0" y="58" width="166" height="170" filterUnits="userSpaceOnUse" color-interpolation-filters="sRGB">
<feFlood flood-opacity="0" result="BackgroundImageFix"/>
<feColorMatrix in="SourceAlpha" type="matrix" values="0 0 0 0 0 0 0 0 0 0 0 0 0 0 0 0 0 0 127 0" result="hardAlpha"/>
<feOffset dy="28"/>
<feGaussianBlur stdDeviation="12"/>
<feComposite in2="hardAlpha" operator="out"/>
<feColorMatrix type="matrix" values="0 0 0 0 0.0941176 0 0 0 0 0.192157 0 0 0 0 0.32549 0 0 0 0.06 0"/>
<feBlend mode="normal" in2="BackgroundImageFix" result="effect1_dropShadow_36_934"/>
<feBlend mode="normal" in="SourceGraphic" in2="effect1_dropShadow_36_934" result="shape"/>
</filter>
</defs>
</svg>
