<?xml version="1.0" encoding="utf-8"?>
<!-- Generator: Adobe Illustrator 28.3.0, SVG Export Plug-In . SVG Version: 6.00 Build 0)  -->
<svg version="1.1" id="レイヤー_1" xmlns="http://www.w3.org/2000/svg" xmlns:xlink="http://www.w3.org/1999/xlink" x="0px"
	 y="0px" viewBox="0 0 166 163" style="enable-background:new 0 0 166 163;" xml:space="preserve">
<style type="text/css">
	.st0{fill:#4DCD9D;stroke:#FFFFFF;stroke-width:3;stroke-linecap:round;}
	.st1{fill-rule:evenodd;clip-rule:evenodd;fill:#4DCD9D;}
	.st2{fill:none;stroke:#FFFFFF;stroke-width:4;}
	.st3{fill:#4DCD9D;}
	.st4{fill:#FFFFFF;}
</style>
<path class="st0" d="M24.3,7.9c-1-1.7-3.1-2.2-4.8-1.2c-1.6,1-2.2,3.1-1.2,4.8l11.3,18.9c1,1.7,3.1,2.2,4.8,1.2s2.2-3.1,1.2-4.8
	L24.3,7.9z"/>
<path class="st0" d="M127.7,26.5c-1,1.7-0.4,3.8,1.2,4.8c1.6,1,3.8,0.5,4.8-1.2l11.3-18.9c1-1.7,0.4-3.8-1.2-4.8
	c-1.6-1-3.8-0.5-4.8,1.2L127.7,26.5z"/>
<g>
	<path class="st1" d="M142,104c0,32.6-26.4,59-59,59c-32.6,0-59-26.4-59-59c0-32.6,26.4-59,59-59C115.6,45,142,71.4,142,104z
		 M109,104c0,15.3-12.1,27-26,27c-13.9,0-26-11.7-26-27c0-15.3,12.1-27,26-27C96.9,77,109,88.7,109,104z"/>
	<circle class="st2" cx="83" cy="104" r="57"/>
	<circle class="st2" cx="83" cy="104" r="28"/>
</g>
<g>
	<g>
		<path class="st3" d="M54.8,30c-0.6,0-1-0.4-1-1v-3.1c0-0.6,0.4-1,1-1h2.3V14c0-0.6,0.4-1,1-1h3.3c0.6,0,1,0.4,1,1v10.9H65v-14
			h-9.3c-0.6,0-1-0.4-1-1V6.7c0-0.6,0.4-1,1-1h22.7c0.6,0,1,0.4,1,1v3.1c0,0.6-0.4,1-1,1h-8v3.9H77c0.6,0,1,0.4,1,1v3.1
			c0,0.6-0.4,1-1,1h-6.6v5h8.7c0.6,0,1,0.4,1,1V29c0,0.6-0.4,1-1,1H54.8z"/>
		<path class="st4" d="M78.4,6.7v3.1h-9v5.9H77v3.1h-7.6v7h9.7V29H54.8v-3.1h3.3V14h3.3v11.9H66v-16H55.7V6.7H78.4 M78.4,4.7H55.7
			c-1.1,0-2,0.9-2,2v3.1c0,1.1,0.9,2,2,2H64v12h-0.6V14c0-1.1-0.9-2-2-2h-3.3c-1.1,0-2,0.9-2,2v9.9h-1.3c-1.1,0-2,0.9-2,2V29
			c0,1.1,0.9,2,2,2h24.3c1.1,0,2-0.9,2-2v-3.1c0-1.1-0.9-2-2-2h-7.7v-3H77c1.1,0,2-0.9,2-2v-3.1c0-1.1-0.9-2-2-2h-5.6v-1.9h7
			c1.1,0,2-0.9,2-2V6.7C80.4,5.6,79.5,4.7,78.4,4.7L78.4,4.7z"/>
	</g>
	<g>
		<path class="st3" d="M87.2,31c-0.3,0-0.5-0.1-0.7-0.3c-0.1-0.1-0.2-0.2-0.3-0.3l-0.6-0.4c-0.2-0.1-0.4-0.2-0.5-0.3
			c-0.2-0.1-0.4-0.2-0.5-0.3c-0.3-0.1-0.4-0.4-0.5-0.6c-0.1-0.3,0-0.6,0.1-0.8c0.4-0.6,0.7-1.3,1-2c0.2-0.8,0.4-1.5,0.5-2.3
			c0.1-0.8,0.2-1.7,0.2-2.5c0-0.8,0.1-1.6,0.1-2.4v-3.5c-0.2-0.2-0.4-0.4-0.7-0.6c-0.4-0.3-0.7-0.6-1-0.7c-0.2-0.2-0.4-0.4-0.4-0.7
			c0-0.3,0.1-0.6,0.3-0.8c0.8-0.9,1.6-2.1,2.2-3.4c0.6-1.4,1.2-2.9,1.5-4.4c0.1-0.5,0.5-0.8,1-0.8c0.1,0,0.1,0,0.2,0l2.8,0.6
			c0.3,0.1,0.5,0.2,0.7,0.5c0.1,0.2,0.2,0.5,0.1,0.8l-0.2,0.6h0.9l0.2-0.1c0.1,0,0.2-0.1,0.3-0.1c0.2,0,0.4,0.1,0.5,0.2l1.8,1.1
			c0.2,0.1,0.3,0.3,0.4,0.5V6.3c0-0.6,0.4-1,1-1h11.9c0.6,0,1,0.4,1,1c0,0.4,0,1,0,1.8c0,0.8-0.1,1.6-0.1,2.4
			c-0.1,0.8-0.2,1.6-0.3,2.4c-0.2,0.9-0.4,1.5-0.8,1.9c-0.3,0.4-0.7,0.7-1,0.9c-0.3,0.2-0.7,0.3-1.2,0.4c-0.1,0-0.3,0-0.4,0.1v0.5h3
			c0.6,0,1,0.4,1,1v2.7c0,0.6-0.4,1-1,1h-3v0.4h3.5c0.6,0,1,0.4,1,1v2.7c0,0.6-0.4,1-1,1h-3.5v3.4c0,0.6-0.4,1-1,1h-3
			c-0.6,0-1-0.4-1-1v-3.4h-3.4v0.4c0,0.8-0.1,1.4-0.3,1.9c-0.2,0.6-0.7,1.2-1.3,1.5c-0.5,0.3-1.1,0.5-1.8,0.5
			c-0.6,0.1-1.3,0.1-2.2,0.1c-0.5,0-0.9-0.4-1-0.9c0-0.3-0.1-0.7-0.3-1.1c-0.2-0.5-0.3-0.8-0.5-1.1c-0.2-0.3-0.2-0.7,0-1
			c0.2-0.3,0.5-0.5,0.8-0.5c0,0,0,0,0.1,0c0.5,0,1,0.1,1.4,0.1h0.4V24h-3.4c-0.2,1-0.4,2-0.6,3c-0.4,1.3-0.9,2.5-1.5,3.6
			c-0.2,0.3-0.4,0.4-0.7,0.5C87.2,31,87.2,31,87.2,31z M101.6,21.7v-0.4H101c-0.1,0.1-0.1,0.3-0.2,0.4H101.6z M102.8,13.6
			c-0.1,0.2-0.3,0.4-0.5,0.6c0.1,0,0.2,0,0.2,0h0.4c0-0.1,0-0.1,0-0.2C102.9,13.9,102.9,13.7,102.8,13.6z M103.8,11.6
			c0.3,0,0.6,0,0.8,0.1c0.3,0,0.5,0,0.7,0c0-0.1,0-0.2,0.1-0.4c0-0.3,0.1-0.7,0.1-1.3h-1.2C104.2,10.5,104,11.1,103.8,11.6z
			 M97.2,10.8c0.5,0,0.9,0.4,1,0.8c0.2-0.2,0.4-0.4,0.6-0.6c0.2-0.3,0.4-0.7,0.5-1.1h-1.7c-0.6,0-1-0.4-1-1V8.8
			c-0.2,0.5-0.4,1.1-0.7,1.7c0,0.1-0.1,0.2-0.1,0.3H97.2z"/>
		<path class="st4" d="M88.8,5l2.8,0.6c-0.1,0.3-0.2,0.6-0.3,1c-0.1,0.3-0.2,0.6-0.3,1h2.4l0.4-0.1l1.8,1.1C95.5,9,95.3,9.5,95,10.1
			c-0.3,0.6-0.5,1.1-0.8,1.7h3v1.6c1.1-0.5,1.9-1.1,2.4-1.9c0.5-0.8,0.8-1.6,1-2.6h-3V6.3h11.9c0,0.4,0,1,0,1.8
			c0,0.8-0.1,1.6-0.1,2.4s-0.2,1.6-0.3,2.3c-0.1,0.7-0.3,1.2-0.5,1.4c-0.2,0.3-0.5,0.5-0.7,0.6c-0.3,0.1-0.6,0.2-0.9,0.3
			c-0.2,0-0.5,0.1-0.8,0.1c-0.3,0-0.7,0-1.1,0h-0.8c0-0.4-0.1-0.9-0.2-1.4c-0.1-0.5-0.3-0.9-0.5-1.2c0.4,0,0.8,0.1,1.1,0.1
			c0.3,0,0.6,0,0.8,0c0.2,0,0.3,0,0.4-0.1c0.1,0,0.2-0.1,0.3-0.3c0.1-0.1,0.2-0.5,0.3-1s0.1-1.3,0.2-2.4h-3.1
			c-0.2,1.4-0.6,2.6-1.2,3.7c-0.6,1.1-1.6,2-3,2.8l2.4,0.5c0,0.3-0.1,0.6-0.1,0.9c-0.1,0.3-0.1,0.6-0.2,0.9h1.3v-2.4h3v2.4h4v2.7h-4
			v2.4h4.5v2.7h-4.5v4.4h-3v-4.4h-5v-2.7h5v-2.4h-2.2c-0.1,0.4-0.3,0.8-0.5,1.1c-0.2,0.3-0.4,0.7-0.6,1c-0.2-0.2-0.5-0.4-1-0.6
			c-0.4-0.2-0.8-0.4-1.1-0.5v5.6c0,0.6-0.1,1.2-0.2,1.6c-0.1,0.4-0.4,0.7-0.8,1c-0.4,0.2-0.9,0.4-1.5,0.4c-0.6,0.1-1.3,0.1-2.1,0.1
			c0-0.4-0.1-0.8-0.3-1.4s-0.4-1-0.6-1.3c0.5,0,1,0.1,1.5,0.1s0.8,0,0.9,0c0.3,0,0.4-0.2,0.4-0.5V23h-5.3c-0.1,1.3-0.4,2.5-0.7,3.7
			c-0.3,1.2-0.8,2.3-1.4,3.3c-0.1-0.1-0.3-0.2-0.4-0.4c-0.2-0.1-0.4-0.3-0.6-0.4c-0.2-0.1-0.4-0.3-0.6-0.4c-0.2-0.1-0.4-0.2-0.5-0.3
			c0.4-0.7,0.8-1.4,1.1-2.3c0.3-0.8,0.5-1.6,0.6-2.5c0.1-0.9,0.2-1.7,0.2-2.6c0-0.9,0.1-1.7,0.1-2.4v-3.9c-0.3-0.3-0.6-0.6-1.1-0.9
			c-0.4-0.3-0.8-0.6-1.1-0.8c0.9-1,1.7-2.2,2.4-3.7C87.9,8.1,88.4,6.6,88.8,5 M92.3,9.9h-2.2c-0.3,0.7-0.6,1.3-0.9,1.9h2.3
			c0.1-0.3,0.3-0.6,0.4-0.9C92,10.5,92.2,10.2,92.3,9.9 M97.2,20.8c0.4-0.7,0.8-1.5,1.1-2.4c0.3-0.9,0.6-1.9,0.7-2.8
			c-0.1,0-0.2,0.1-0.3,0.1c-0.1,0-0.2,0.1-0.3,0.1c-0.1-0.3-0.3-0.6-0.5-0.9c-0.2-0.3-0.5-0.6-0.7-0.9V20.8 M93.1,16.2h1.5v-2h-1.5
			V16.2 M89.5,16.2H91v-2h-1.5V16.2 M93.1,20.7h1.5v-2.2h-1.5V20.7 M89.4,20.7H91v-2.2h-1.5v0.4c0,0.3,0,0.6,0,0.9
			C89.5,20,89.4,20.3,89.4,20.7 M109.5,6.3L109.5,6.3 M88.8,3c-0.9,0-1.7,0.6-1.9,1.5C86.5,6,86,7.4,85.4,8.7
			c-0.6,1.3-1.3,2.3-2.1,3.2c-0.4,0.4-0.6,1-0.5,1.6c0.1,0.6,0.4,1.1,0.9,1.4c0.2,0.1,0.5,0.4,0.9,0.7c0.1,0.1,0.2,0.2,0.3,0.3v3
			c0,0.7,0,1.5-0.1,2.3c0,0.8-0.1,1.6-0.2,2.4c-0.1,0.7-0.3,1.5-0.5,2.2c-0.2,0.6-0.5,1.2-0.8,1.8C83,28,82.9,28.6,83,29.1
			c0.2,0.5,0.5,1,1,1.3c0.1,0.1,0.3,0.1,0.5,0.2c0.1,0.1,0.3,0.2,0.4,0.3c0.2,0.1,0.4,0.3,0.6,0.4c0.1,0.1,0.2,0.1,0.2,0.1
			c0.4,0.4,0.9,0.6,1.4,0.6c0.1,0,0.1,0,0.2,0c0.6-0.1,1.1-0.4,1.5-0.9c0.5-0.8,0.9-1.7,1.3-2.6c0.1,0.2,0.2,0.4,0.3,0.7
			c0.2,0.5,0.2,0.8,0.2,0.9c0.1,1,1,1.8,2,1.8c0.9,0,1.7,0,2.3-0.1c0.8-0.1,1.5-0.3,2.2-0.7c0.9-0.5,1.5-1.2,1.8-2.1
			c0.2-0.5,0.3-1,0.3-1.6h1.4v2.4c0,1.1,0.9,2,2,2h3c1.1,0,2-0.9,2-2v-2.4h2.5c1.1,0,2-0.9,2-2v-2.7c0-0.6-0.3-1.2-0.7-1.5
			c0.1-0.3,0.2-0.6,0.2-0.9v-2.7c0-1-0.8-1.9-1.8-2c0.1-0.1,0.1-0.1,0.2-0.2c0.5-0.5,0.8-1.3,1-2.3c0.1-0.8,0.3-1.6,0.3-2.5
			c0.1-0.8,0.1-1.7,0.1-2.5c0-0.7,0-1.3,0-1.7c0,0,0-0.1,0-0.1c0-1.1-0.9-2-2-2h0H97.6c-1,0-1.8,0.8-2,1.7l-0.7-0.4
			c-0.3-0.2-0.7-0.3-1.1-0.3c-0.1,0-0.2,0-0.3,0c0-0.3-0.1-0.6-0.3-0.8C93,4.1,92.5,3.7,92,3.6L89.2,3C89.1,3,88.9,3,88.8,3L88.8,3z
			 M91,25h1.6v0.3c-0.2,0-0.5,0-0.7,0c0,0-0.1,0-0.1,0c-0.3,0-0.5,0.1-0.8,0.2C91,25.3,91,25.1,91,25L91,25z"/>
	</g>
</g>
</svg>
