<svg width="512" height="512" viewBox="0 0 512 512" fill="none" xmlns="http://www.w3.org/2000/svg">
<rect width="512" height="512" fill="white"/>
<path d="M384.756 401.922H276.739V240.594C276.739 224.166 269.904 215.951 256.234 215.951C242.756 215.951 236.017 224.166 236.017 240.594V401.922H128V242.6C128 205.349 140.419 174.019 165.257 148.612C190.095 123.013 220.517 110.214 256.522 110.214C297.727 110.214 330.748 125.019 355.586 154.629C375.033 177.744 384.756 209.934 384.756 251.197V401.922Z" fill="#0565B5"/>
<path fill-rule="evenodd" clip-rule="evenodd" d="M276.739 240.363C276.739 225.049 270.8 216.872 258.92 215.833V110C299.009 110.565 331.231 125.365 355.586 154.398C375.033 177.513 384.756 209.703 384.756 250.966V401.691H276.739V240.363Z" fill="#F64277"/>
<ellipse cx="229.003" cy="168.569" rx="33.2121" ry="32.9517" fill="white"/>
<ellipse cx="212.868" cy="165.833" rx="14.7609" ry="14.6452" fill="#183153"/>
<ellipse cx="288.51" cy="168.569" rx="33.2121" ry="32.9517" fill="white"/>
<ellipse cx="272.075" cy="165.131" rx="14.7609" ry="14.6452" fill="#183153"/>
</svg>
