<svg width="184" height="99" viewBox="0 0 184 99" fill="none" xmlns="http://www.w3.org/2000/svg">
<path d="M136.83 58.8146C137.06 72.0466 129.552 80.557 115.443 80.8015C101.334 81.046 87.4381 75.9141 87.2088 62.6822C86.9795 49.4502 102.71 23.8803 116.819 23.6358C130.927 23.3913 136.601 45.5827 136.83 58.8146Z" fill="#C0E6ED"/>
<path d="M136.766 55.0891C136.995 68.3211 129.487 76.8315 115.378 77.0759C101.269 77.3204 87.3734 72.1886 87.1441 58.9566C86.9148 45.7247 102.645 20.1548 116.754 19.9103C130.863 19.6658 136.536 41.8571 136.766 55.0891Z" fill="#6EC8DA"/>
<circle cx="109.74" cy="36.8834" r="4.65987" transform="rotate(-0.992736 109.74 36.8834)" fill="white"/>
<circle cx="110.107" cy="39.2502" r="2.07106" transform="rotate(-0.992736 110.107 39.2502)" fill="#183153"/>
<circle cx="118.023" cy="36.7399" r="4.65987" transform="rotate(-0.992736 118.023 36.7399)" fill="white"/>
<circle cx="118.389" cy="39.1066" r="2.07106" transform="rotate(-0.992736 118.389 39.1066)" fill="#183153"/>
<path d="M173.083 48.3334C175.234 61.2626 169.142 70.6882 155.402 72.9734C141.662 75.2585 146.78 57.3055 144.629 44.3763C142.479 31.4471 134.682 19.0579 148.423 16.7728C162.163 14.4876 170.933 35.4042 173.083 48.3334Z" fill="#1CC1BF" fill-opacity="0.3"/>
<path d="M175.432 48.5493C177.583 61.4785 171.491 70.9041 157.751 73.1893C144.011 75.4744 149.128 57.5214 146.978 44.5922C144.828 31.663 137.031 19.2739 150.771 16.9887C164.512 14.7035 173.282 35.6201 175.432 48.5493Z" fill="#1CC1BF"/>
<circle cx="152.631" cy="37.9261" r="4.65987" fill="white"/>
<circle cx="153.071" cy="40.0711" r="2.07106" fill="#183153"/>
<circle cx="160.915" cy="37.9261" r="4.65987" fill="white"/>
<circle cx="161.355" cy="40.0711" r="2.07106" fill="#183153"/>
<path d="M49.6305 76.5377C44.7315 81.4367 36.3664 79.1953 34.5732 72.5032L24.7245 35.7471C22.9313 29.055 29.055 22.9313 35.7472 24.7244L72.5032 34.5732C79.1953 36.3663 81.4368 44.7315 76.5378 49.6305L49.6305 76.5377Z" fill="#F0528D" fill-opacity="0.3"/>
<path d="M53.0636 76.7534C48.1646 81.6524 39.7995 79.411 38.0063 72.7188L28.1576 35.9628C26.3644 29.2707 32.4881 23.1469 39.1803 24.9401L75.9363 34.7889C82.6284 36.582 84.8699 44.9472 79.9709 49.8461L53.0636 76.7534Z" fill="#F0528D"/>
<circle cx="45.6599" cy="36.6599" r="4.65987" fill="white"/>
<circle cx="46.0711" cy="39.0711" r="2.07106" fill="#183153"/>
<circle cx="53.9438" cy="36.6599" r="4.65987" fill="white"/>
<circle cx="54.3555" cy="39.0711" r="2.07106" fill="#183153"/>
</svg>
