<svg width="106" height="86" viewBox="0 0 106 86" fill="none" xmlns="http://www.w3.org/2000/svg">
<path d="M88.2937 60.6833C86.4817 70.9174 79.4352 76.3526 68.5592 74.427C57.6832 72.5014 66.257 60.4338 68.069 50.1997C69.8809 39.9656 67.3292 28.6419 78.2052 30.5675C89.0811 32.4931 90.1056 50.4492 88.2937 60.6833Z" fill="#1CC1BF" fill-opacity="0.3"/>
<path d="M89.9924 61.4658C88.1804 71.6999 81.1339 77.1351 70.2579 75.2095C59.3819 73.2839 67.9557 61.2162 69.7677 50.9821C71.5797 40.748 69.0279 29.4243 79.9039 31.35C90.7799 33.2756 91.8043 51.2317 89.9924 61.4658Z" fill="#1CC1BF"/>
<circle cx="75.888" cy="40.0413" r="3.69514" fill="white"/>
<circle cx="73.8352" cy="39.6307" r="1.64228" fill="#183153"/>
<circle cx="82.4573" cy="40.0413" r="3.69514" fill="white"/>
<circle cx="80.4045" cy="39.6307" r="1.64228" fill="#183153"/>
<path fill-rule="evenodd" clip-rule="evenodd" d="M57.1913 39.5844L56.8839 39.8086L55.1887 41.05C55.1887 41.05 54.856 41.2464 55.2537 41.7324C55.246 41.7747 63.0853 54.0582 67.6954 59.7108L71.0535 57.1851L71.3578 56.9565L74.6975 54.4445C70.1124 48.8217 59.6045 38.5832 59.5606 38.5794C59.1648 38.0956 58.8812 38.3481 58.8812 38.3481L57.1913 39.5844Z" fill="#E3E3E3"/>
<path fill-rule="evenodd" clip-rule="evenodd" d="M52.6936 38.0001C52.6383 38.0397 52.6006 38.0932 52.5792 38.1501L55.0348 41.1614L55.3423 40.9359L52.8535 37.8837L52.6936 38.0001ZM55.6519 40.7105L55.96 40.4857L53.4705 37.4343L53.1609 37.6596L55.6519 40.7105ZM56.2675 40.2602L56.5758 40.0341L54.0889 36.9842L53.7793 37.2095L56.2675 40.2602ZM56.8833 39.8085L57.1907 39.5844L54.703 36.5352L54.3956 36.7593L56.8833 39.8085ZM57.4996 39.3583L57.8056 39.134L55.322 36.0858L55.0145 36.3113L57.4996 39.3583ZM58.1125 38.9078L58.4205 38.6844L55.9368 35.6382L55.6294 35.8624L58.1125 38.9078ZM58.7266 38.4601L59.034 38.2359L56.5854 35.2308C56.5192 35.237 56.4579 35.2587 56.4027 35.2983L56.2449 35.4141L58.7266 38.4601Z" fill="#CCCCCC"/>
<path fill-rule="evenodd" clip-rule="evenodd" d="M67.6944 59.7107L68.3168 60.4737C68.73 60.9805 69.4757 61.0819 69.9819 60.6997L75.1501 56.8C75.6526 56.4209 75.7264 55.7074 75.315 55.203L74.6964 54.4444L67.6944 59.7107Z" fill="#CDCCCC"/>
<path fill-rule="evenodd" clip-rule="evenodd" d="M57.0607 44.5558C58.5735 46.8811 60.8445 50.3081 63.1149 53.5456L66.5827 51.0614C65.8938 47.6167 63.9583 42.9071 61.9773 40.9409L57.0607 44.5558Z" fill="#E45747"/>
<path fill-rule="evenodd" clip-rule="evenodd" d="M62.6528 43.0628C62.2104 42.5137 61.7896 41.9913 61.4155 41.4163L61.9772 40.9409C63.9582 42.9072 66.8686 45.8396 69.5854 48.723L66.5826 51.0614C65.5454 46.6536 63.9992 44.7342 62.6528 43.0628Z" fill="#E5331E"/>
<rect x="59.8273" y="47.1599" width="5.25607" height="2.50878" rx="1.15" transform="rotate(-37.4796 59.8273 47.1599)" fill="#FBF6F0" stroke="#E3E3E3" stroke-width="0.3"/>
<path d="M57.2537 39.8362C56.3663 39.5651 55.9626 38.7605 55.4483 38.057C54.338 36.5386 52.9434 35.2316 51.6193 33.9037C49.3834 31.6614 47.4866 29.2723 44.9548 27.3713C41.2541 24.5927 37.0204 20.0774 31.8192 22.6555C29.2258 23.9411 28.4228 29.9297 28.7359 32.515C29.3081 37.2388 31.5614 41.785 34.1582 45.6518C34.4715 46.1185 32.2897 43.5506 31.593 43.0117C29.699 41.5467 28.5744 39.4705 26.7451 38.0047C25.407 36.9325 20.196 34.1657 19.6451 36.9188C19.4142 38.0729 18.8853 39.4478 18.9864 40.6073C19.2106 43.1808 20.513 45.0537 21.4652 47.3459C21.8135 48.1844 18.8811 46.4435 18.4558 46.2317C16.6212 45.3182 15.4418 43.5035 13.956 42.1608" stroke="#E45747" stroke-width="4" stroke-linecap="round"/>
</svg>
