<svg width="375" height="288" viewBox="0 0 375 288" fill="none" xmlns="http://www.w3.org/2000/svg">
<path fill-rule="evenodd" clip-rule="evenodd" d="M375 70.9846V71V72.0001V288H0V72.0001V71V70.7815C15.625 61.9465 32.6797 60.931 50.3472 64.993C64.2361 68.2427 77.2059 66.2116 89.3587 58.3922C96.6095 53.7208 104.065 49.3541 111.622 45.0889C135.417 31.5826 160.743 28.5361 187.398 34.8322C201.695 38.1834 216.197 40.0114 230.801 36.3555C237.847 34.6291 244.077 31.481 250 27.3174C252.363 25.6632 254.68 23.9467 256.995 22.2322C264.484 16.6839 271.948 11.1554 280.841 7.81955C287.377 5.38232 294.016 3.55439 300.551 2.23422C326.491 -2.84335 347.733 1.92957 358.966 4.56991C365.911 6.19473 371.426 8.02266 375 9.24128V70.9846Z" fill="white"/>
</svg>
