<svg width="375" height="99" viewBox="0 0 375 99" fill="none" xmlns="http://www.w3.org/2000/svg">
<g clip-path="url(#clip0_715_1134)">
<path d="M406.34 0H0V17.4066H406.34V0Z" fill="white"/>
<path d="M406.34 16.3187H7.19284H0V17.436V85.3688C3.87307 86.7096 9.84866 88.7208 17.3735 90.5085C29.546 93.4135 52.563 98.6649 80.6705 93.0783C87.7526 91.6257 94.9455 89.6146 102.028 86.933C114.643 82.1286 124.602 73.1901 135.446 65.4806C141.865 60.8996 148.616 57.4359 156.251 55.5364C172.075 51.5141 187.789 53.5253 203.28 57.2125C232.163 64.1399 259.606 60.7879 285.39 45.9276C293.579 41.2349 301.657 36.4304 309.513 31.2908C322.682 22.6875 336.736 20.4528 351.786 24.0282C370.929 28.4975 389.409 27.3802 406.34 17.6595C338.728 17.6595 271.336 17.6595 203.945 17.6595H406.34V16.3187Z" fill="white"/>
</g>
<defs>
<clipPath id="clip0_715_1134">
<rect width="375" height="99" fill="white"/>
</clipPath>
</defs>
</svg>
